<?xml version="1.0" encoding="UTF-8" standalone="no"?>
<!-- Created with Inkscape (http://www.inkscape.org/) -->

<svg
   xmlns:dc="http://purl.org/dc/elements/1.1/"
   xmlns:cc="http://creativecommons.org/ns#"
   xmlns:rdf="http://www.w3.org/1999/02/22-rdf-syntax-ns#"
   xmlns:svg="http://www.w3.org/2000/svg"
   xmlns="http://www.w3.org/2000/svg"
   xmlns:sodipodi="http://sodipodi.sourceforge.net/DTD/sodipodi-0.dtd"
   xmlns:inkscape="http://www.inkscape.org/namespaces/inkscape"
   width="158.3206"
   height="134.90228"
   viewBox="0 0 158.32062 134.90229"
   id="svg2"
   version="1.1"
   inkscape:version="0.92.5 (2060ec1f9f, 2020-04-08)"
   sodipodi:docname="kiwi.svg"
   inkscape:export-filename="C:\Users\Miguel\Desktop\logo wmnz.png"
   inkscape:export-xdpi="108"
   inkscape:export-ydpi="108">
  <title
     id="title7118">Wikimedia User Group of Aotearoa New Zealand</title>
  <defs
     id="defs4" />
  <sodipodi:namedview
     id="base"
     pagecolor="#ffffff"
     bordercolor="#666666"
     borderopacity="1.0"
     inkscape:pageopacity="0.0"
     inkscape:pageshadow="2"
     inkscape:zoom="2.0495048"
     inkscape:cx="10.414093"
     inkscape:cy="92.707944"
     inkscape:document-units="px"
     inkscape:current-layer="layer1"
     showgrid="false"
     inkscape:window-width="1280"
     inkscape:window-height="717"
     inkscape:window-x="0"
     inkscape:window-y="0"
     inkscape:window-maximized="1"
     showguides="true"
     inkscape:guide-bbox="true"
     borderlayer="true"
     fit-margin-top="5"
     fit-margin-left="5"
     fit-margin-right="5"
     fit-margin-bottom="5"
     inkscape:snap-object-midpoints="true"
     inkscape:snap-center="true"
     inkscape:snap-bbox="false"
     inkscape:bbox-paths="true"
     inkscape:bbox-nodes="true"
     inkscape:snap-bbox-edge-midpoints="true"
     inkscape:snap-bbox-midpoints="true"
     inkscape:object-paths="false"
     inkscape:snap-intersection-paths="true"
     inkscape:object-nodes="false"
     inkscape:snap-smooth-nodes="false"
     inkscape:snap-midpoints="false"
     inkscape:snap-global="true"
     inkscape:snap-nodes="true" />
  <metadata
     id="metadata7">
    <rdf:RDF>
      <cc:Work
         rdf:about="">
        <dc:format>image/svg+xml</dc:format>
        <dc:type
           rdf:resource="http://purl.org/dc/dcmitype/StillImage" />
        <dc:title>Wikimedia User Group of Aotearoa New Zealand</dc:title>
      </cc:Work>
    </rdf:RDF>
  </metadata>
  <g
     inkscape:label="kiwi"
     inkscape:groupmode="layer"
     id="layer1"
     transform="translate(894.76722,-77.429099)">
    <path
       d="m -748.07631,137.53545 c -3.99007,-9.6149 -5.90446,-12.77684 -5.90446,-12.77684 0.32265,-7.93713 -1.74229,-18.3479 -15.30424,-22.69288 -13.57271,-4.344993 -23.98347,-3.301759 -31.06021,-7.3241 -7.08749,-4.033097 -22.55307,-15.583884 -43.03043,-11.421731 -22.37023,4.549338 -41.79361,19.477161 -45.50407,39.631881 -2.06494,11.17436 -0.8492,22.31645 7.09825,32.47985 5.1301,7.33486 10.1634,10.26019 14.4331,12.59401 1.50569,0.94643 3.10818,1.88211 4.7967,2.79628 0.50591,0.36567 1.01095,0.74252 1.47342,1.15078 6.62504,5.83993 4.93651,22.35947 6.01201,26.93032 1.08624,4.58159 16.45502,9.67942 17.11106,8.15223 0.4629,-1.06474 -4.1944,-4.88274 -7.02295,-7.07674 -0.41987,-0.52742 0.35448,-1.06474 1.61323,-1.22606 6.37767,0.60227 18.84262,1.7423 19.97189,1.7423 1.5272,0 -0.18326,-3.3663 -5.6786,-4.37726 -3.34478,-0.6126 -5.72161,-0.9787 -8.41035,-1.39814 -0.0172,-0.009 -0.0431,-0.0172 -0.0688,-0.0172 -0.45171,-0.086 -0.52741,-0.23661 -0.39749,-0.34415 2.4306,-0.31232 6.1303,-0.62379 4.388,-1.81759 -2.57043,-1.75305 -13.87385,0.75285 -16.15389,-3.43081 -0.0431,-0.2151 -0.0602,-0.44138 -0.0861,-0.678 -0.39836,-3.79648 -0.68831,-9.13092 2.58119,-12.99194 1.19379,-1.39814 2.8178,-2.92534 4.58159,-4.50631 1.64551,4.97953 2.33382,10.41076 2.71025,12.86289 0.70982,4.57084 14.89556,6.77559 15.18594,5.17311 0.17208,-0.95719 -2.75326,-2.81779 -5.13009,-4.17291 -0.0344,-0.0602 -0.0774,-0.12905 -0.15057,-0.20477 -0.93568,-0.93568 -0.47322,-1.03247 0.57044,-1.04323 5.74312,0.58077 16.85295,1.69928 17.97146,1.69928 1.52721,0 0.98946,-2.43061 -4.42026,-3.44157 -2.69949,-0.51624 -4.15141,-0.90341 -5.6786,-1.32286 0,0 0,-0.009 0,-0.009 -0.44139,-0.1609 -0.56958,-0.28996 -0.31147,-0.4302 2.51665,-0.4629 6.33465,-1.26909 6.03351,-1.82834 -1.04322,-1.89287 -13.95988,-0.78554 -17.26164,-0.46289 -1.32285,-0.55925 -1.98966,-1.43041 -2.47363,-3.33403 -0.678,-2.7425 0.24779,-8.70072 2.82854,-12.37891 3.18346,-2.54891 7.53921,-5.23764 12.63703,-7.85109 8.36733,-4.29122 18.56299,-15.72369 27.54335,-19.133 7.51769,-2.85006 14.04592,-5.1516 20.57416,-4.78593 4.64612,0.25811 8.68997,0.79586 12.00248,3.55987 7.71128,6.43144 15.42257,18.86413 17.49826,39.2447 0,0 4.66763,-10.87323 -5.57105,-35.53426"
       style="display:inline;fill:#ad9078;fill-opacity:1;fill-rule:nonzero;stroke:none;stroke-width:0.46769014"
       id="path4213"
       inkscape:connector-curvature="0" />
  </g>
  <style
     id="style3475"
     type="text/css">
	.st0{display:none;}
	.st1{opacity:0.5;}
	.st2{display:inline;}
	.st3{opacity:0.4;}
	.st4{display:none;opacity:0.5;}
	.st5{display:inline;opacity:0.5;}
	.st6{display:inline;fill:none;stroke:#000000;stroke-width:2;stroke-miterlimit:10;}
	.st7{fill:none;stroke:#000000;stroke-width:2;stroke-miterlimit:10;}
	.st8{clip-path:url(#SVGID_2_);}
	.st9{clip-path:url(#SVGID_4_);}
	.st10{stroke:#000000;stroke-width:3;stroke-miterlimit:10;}
	.st11{fill:#FFFFFF;}
	.st12{display:inline;opacity:0.3;}
	.st13{display:inline;fill:none;stroke:#000000;stroke-width:3;stroke-miterlimit:10;}
</style>
  <style
     id="style5519"
     type="text/css">
	.st0{display:none;}
	.st1{fill:#FFFFFF;}
</style>
  <style
     type="text/css"
     id="style3388">
	.st0{display:none;}
	.st1{fill:#FFFFFF;}
</style>
</svg>
