<?xml version="1.0" encoding="UTF-8" standalone="no"?>
<!-- Created with Inkscape (http://www.inkscape.org/) -->

<svg
   xmlns:dc="http://purl.org/dc/elements/1.1/"
   xmlns:cc="http://creativecommons.org/ns#"
   xmlns:rdf="http://www.w3.org/1999/02/22-rdf-syntax-ns#"
   xmlns:svg="http://www.w3.org/2000/svg"
   xmlns="http://www.w3.org/2000/svg"
   xmlns:sodipodi="http://sodipodi.sourceforge.net/DTD/sodipodi-0.dtd"
   xmlns:inkscape="http://www.inkscape.org/namespaces/inkscape"
   id="svg2"
   version="1.1"
   inkscape:version="0.92.5 (2060ec1f9f, 2020-04-08)"
   xml:space="preserve"
   width="800"
   height="28.140881"
   viewBox="0 0 799.99999 28.140879"
   sodipodi:docname="maori-divider.svg"><metadata
     id="metadata8"><rdf:RDF><cc:Work
         rdf:about=""><dc:format>image/svg+xml</dc:format><dc:type
           rdf:resource="http://purl.org/dc/dcmitype/StillImage" /><dc:title></dc:title></cc:Work></rdf:RDF></metadata><defs
     id="defs6"><clipPath
       clipPathUnits="userSpaceOnUse"
       id="clipPath18"><path
         d="M 0,841.89 H 595.276 V 0 H 0 Z"
         id="path20"
         inkscape:connector-curvature="0" /></clipPath><clipPath
       clipPathUnits="userSpaceOnUse"
       id="clipPath28"><path
         d="M -45.087,10.4247 H 45.0869 V -10.4249 H -45.087 Z"
         id="path30"
         inkscape:connector-curvature="0" /></clipPath><clipPath
       clipPathUnits="userSpaceOnUse"
       id="clipPath62"><path
         d="M -21.9447,22.3107 H 21.9445 V -22.3104 H -21.9447 Z"
         id="path64"
         inkscape:connector-curvature="0" /></clipPath><clipPath
       clipPathUnits="userSpaceOnUse"
       id="clipPath88"><path
         d="M -21.9447,22.3107 H 21.9445 V -22.3104 H -21.9447 Z"
         id="path90"
         inkscape:connector-curvature="0" /></clipPath><clipPath
       clipPathUnits="userSpaceOnUse"
       id="clipPath114"><path
         d="M -21.9447,22.3107 H 21.9445 V -22.3104 H -21.9447 Z"
         id="path116"
         inkscape:connector-curvature="0" /></clipPath><clipPath
       clipPathUnits="userSpaceOnUse"
       id="clipPath140"><path
         d="M -21.9447,22.3107 H 21.9445 V -22.3104 H -21.9447 Z"
         id="path142"
         inkscape:connector-curvature="0" /></clipPath><clipPath
       clipPathUnits="userSpaceOnUse"
       id="clipPath166"><path
         d="M -21.9447,22.3107 H 21.9445 V -22.3104 H -21.9447 Z"
         id="path168"
         inkscape:connector-curvature="0" /></clipPath></defs><sodipodi:namedview
     pagecolor="#ffffff"
     bordercolor="#666666"
     borderopacity="1"
     objecttolerance="10"
     gridtolerance="10"
     guidetolerance="10"
     inkscape:pageopacity="0"
     inkscape:pageshadow="2"
     inkscape:window-width="1280"
     inkscape:window-height="717"
     id="namedview4"
     showgrid="false"
     inkscape:zoom="0.44847974"
     inkscape:cx="136.30768"
     inkscape:cy="9.6979792"
     inkscape:window-x="0"
     inkscape:window-y="0"
     inkscape:window-maximized="1"
     inkscape:current-layer="g10"
     fit-margin-top="0"
     fit-margin-left="0"
     fit-margin-right="0"
     fit-margin-bottom="0"
     showguides="true"
     inkscape:guide-bbox="true"><sodipodi:guide
       position="799.99999,28.140901"
       orientation="1,0"
       id="guide1232"
       inkscape:locked="false"
       inkscape:label=""
       inkscape:color="rgb(0,0,255)" /><sodipodi:guide
       position="799.99999,28.140901"
       orientation="0,1"
       id="guide1234"
       inkscape:locked="false"
       inkscape:label=""
       inkscape:color="rgb(0,0,255)" /><sodipodi:guide
       position="1.1197509e-05,-421.85909"
       orientation="1,0"
       id="guide1238"
       inkscape:locked="false"
       inkscape:label=""
       inkscape:color="rgb(0,0,255)" /><sodipodi:guide
       position="45.822128,9.4391393e-07"
       orientation="0,1"
       id="guide241"
       inkscape:locked="false" /></sodipodi:namedview><g
     id="g10"
     inkscape:groupmode="layer"
     inkscape:label="Maori_Border"
     transform="matrix(1.25,0,0,-1.25,-257.11218,1041.9742)"><rect
       style="opacity:1;fill:#000000;fill-opacity:1;fill-rule:nonzero;stroke:none;stroke-width:0.15122378;stroke-linecap:round;stroke-linejoin:round;stroke-miterlimit:4;stroke-dasharray:none;stroke-opacity:1;paint-order:fill markers stroke"
       id="rect1720"
       width="640"
       height="22.512705"
       x="205.68974"
       y="-833.57935"
       transform="scale(1,-1)" /><g
       id="g1428"
       transform="rotate(90,445.97554,723.13387)"
       style="stroke:none"><g
         transform="translate(554.68273,604.91752)"
         id="g330"
         style="stroke:none;stroke-width:0.60472441;stroke-miterlimit:4;stroke-dasharray:none;stroke-opacity:1"><path
           inkscape:connector-curvature="0"
           id="path332"
           style="fill:#a3102a;fill-opacity:1;fill-rule:evenodd;stroke:none;stroke-width:0.60472441;stroke-miterlimit:4;stroke-dasharray:none;stroke-opacity:1"
           d="m 0,0 -0.225,-4.802 -1.507,-6.703 c 0,0 -2.414,-5.255 -2.641,-5.255 -0.225,0 -1.582,-1.54 -1.582,-1.54 l -1.66,-1.54 -3.393,-0.816 -2.338,1.631 c 0,0 -0.453,2.536 -0.677,5.436 -0.227,2.899 2.564,6.613 2.564,6.613 l 6.635,6.251 z" /></g><g
         transform="translate(537.26483,626.65972)"
         id="g334"
         style="stroke:none;stroke-width:0.60472441;stroke-miterlimit:4;stroke-dasharray:none;stroke-opacity:1"><path
           inkscape:connector-curvature="0"
           id="path336"
           style="fill:#a3102a;fill-opacity:1;fill-rule:evenodd;stroke:none;stroke-width:0.60472441;stroke-miterlimit:4;stroke-dasharray:none;stroke-opacity:1"
           d="m 0,0 0.152,-5.073 2.789,-5.617 3.166,-1.721 2.262,1.993 0.981,2.445 -0.829,3.715 -5.882,5.164 z" /></g><g
         transform="translate(537.64173,532.44292)"
         id="g338"
         style="stroke:none;stroke-width:0.60472441;stroke-miterlimit:4;stroke-dasharray:none;stroke-opacity:1"><path
           inkscape:connector-curvature="0"
           id="path340"
           style="fill:#a3102a;fill-opacity:1;fill-rule:evenodd;stroke:none;stroke-width:0.60472441;stroke-miterlimit:4;stroke-dasharray:none;stroke-opacity:1"
           d="M 0,0 0.152,5.073 2.941,10.69 6.107,12.411 8.369,10.418 9.35,7.972 8.521,4.258 2.639,-0.906 Z" /></g><g
         transform="translate(554.68273,554.54692)"
         id="g342"
         style="stroke:none;stroke-width:0.60472441;stroke-miterlimit:4;stroke-dasharray:none;stroke-opacity:1"><path
           inkscape:connector-curvature="0"
           id="path344"
           style="fill:#a3102a;fill-opacity:1;fill-rule:evenodd;stroke:none;stroke-width:0.60472441;stroke-miterlimit:4;stroke-dasharray:none;stroke-opacity:1"
           d="m 0,0 -0.225,4.802 -1.507,6.703 c 0,0 -2.414,5.255 -2.641,5.255 -0.225,0 -1.582,1.54 -1.582,1.54 l -1.66,1.54 -3.393,0.816 -2.338,-1.631 c 0,0 -0.453,-2.536 -0.677,-5.436 -0.227,-2.899 2.564,-6.613 2.564,-6.613 l 6.635,-6.251 z" /></g><g
         transform="translate(538.34683,579.59722)"
         id="g346"
         style="stroke:none;stroke-width:0.60472441;stroke-miterlimit:4;stroke-dasharray:none;stroke-opacity:1"><path
           inkscape:connector-curvature="0"
           id="path348"
           style="fill:#ffffff;fill-opacity:1;fill-rule:evenodd;stroke:none;stroke-width:0.60472441;stroke-miterlimit:4;stroke-dasharray:none;stroke-opacity:1"
           d="m 0,0 c 0.389,-10.958 7.459,-20.721 15.232,-24.452 0.153,5.284 -0.662,10.072 -3.154,13.385 -1.324,-0.574 -2.412,-1.949 -2.33,-4.212 1.479,0.81 3.322,-1.829 1.793,-3.667 -1.217,-1.462 -3.373,0.094 -3.473,3.811 -0.076,2.836 0.936,4.783 2.041,6.493 -0.662,1.035 -1.703,2.332 -2.994,2.744 1.045,-2.434 -0.898,-5.275 -3.131,-3.753 -0.793,0.54 -1.357,2.408 -1.32,3.607 0.031,1.002 0.52,2.042 1.268,2.604 4.847,2.818 11.884,-5.561 13.263,-14.147 0.77,-4.794 0.994,-13.226 -0.869,-17.761 -3.017,-6.762 -7.672,-10.65 -13.783,-13.695 1.977,-1.85 5.725,-2.398 8.166,-1.442 -0.197,1.205 -0.689,2.057 -1.561,2.452 0.266,-0.531 0.288,-1.24 0,-1.587 -1.599,-2.262 -3.769,1.126 -2.041,2.742 1.938,1.811 4.467,-0.633 5.645,-2.309 1.031,0.346 1.478,1.397 1.801,2.597 -0.444,-0.68 -0.647,-0.9 -1.323,-1.01 -2.732,-0.444 -2.728,3.972 -0.839,4.762 1.714,0.717 3.23,-0.145 3.963,-1.876 2.24,-6.953 -5.088,-10.005 -10.928,-9.379 -2.545,0.273 -6.983,2.595 -7.776,3.427 -1.453,12.648 5.647,17.754 8.496,17.351 1.393,-0.147 3.473,-0.43 3.362,-3.896 -0.086,-2.694 -3.404,-5.533 -4.444,-3.03 -0.578,1.396 0.485,3.484 1.922,2.309 -0.336,1.596 -2.765,2.17 -3.482,0.577 1.426,-1.747 1.219,-7.152 -1.08,-7.215 -1.065,-0.029 -1.826,1.728 -1.082,2.886 0.549,0.633 1.379,0.35 1.803,-0.289 0.439,1.397 -0.483,2.402 -1.323,2.742 -2.072,-1.226 -2.508,-4.997 -1.801,-7.647 8.579,3.094 13.383,12.482 14.227,14.546 -2.08,-0.376 -5.795,-1.147 -8.703,-0.406 -3.789,0.967 -6.752,3.564 -8.166,7.07 -1.233,3.731 -0.057,9.451 3.963,8.369 3.726,-1.003 2.156,-8.67 -1.68,-5.339 -0.183,-1.962 0.879,-3.648 2.041,-4.472 0.783,2.342 4.022,4.524 6.244,2.885 1.949,-1.438 0.926,-6.646 -1.801,-4.473 -0.802,0.985 0.053,2.177 0.721,2.453 -1.482,0.912 -2.521,-0.81 -2.883,-2.164 3.116,-2.052 6.981,-1.516 10.569,-0.145 -1.369,1.168 -2.928,1.977 -4.324,3.031 C 6.158,-22.452 -2.4,-12.96 -3.016,0 Z" /></g><g
         transform="translate(538.34683,579.59722)"
         id="g350"
         style="stroke:none;stroke-width:0.60472441;stroke-miterlimit:4;stroke-dasharray:none;stroke-opacity:1"><path
           inkscape:connector-curvature="0"
           id="path352"
           style="fill:#ffffff;fill-opacity:1;fill-rule:evenodd;stroke:none;stroke-width:0.60472441;stroke-miterlimit:4;stroke-dasharray:none;stroke-opacity:1"
           d="M 0,0 C 0.389,10.957 7.459,20.721 15.232,24.451 15.385,19.168 14.57,14.38 12.078,11.067 c -1.324,0.574 -2.412,1.948 -2.33,4.212 1.479,-0.811 3.322,1.829 1.793,3.667 C 10.324,20.407 8.168,18.852 8.068,15.134 7.992,12.298 9.004,10.352 10.109,8.641 9.447,7.606 8.406,6.31 7.115,5.898 8.16,8.331 6.217,11.173 3.984,9.651 3.191,9.111 2.627,7.242 2.664,6.044 2.695,5.042 3.184,4.001 3.932,3.44 8.779,0.622 15.816,9.001 17.195,17.587 c 0.77,4.794 0.994,13.225 -0.869,17.761 -3.017,6.762 -7.672,10.649 -13.783,13.694 1.977,1.851 5.725,2.399 8.166,1.443 -0.197,-1.205 -0.689,-2.057 -1.561,-2.453 0.266,0.531 0.288,1.241 0,1.588 -1.599,2.261 -3.769,-1.127 -2.041,-2.742 1.938,-1.812 4.467,0.633 5.645,2.309 1.031,-0.346 1.478,-1.398 1.801,-2.598 -0.444,0.68 -0.647,0.901 -1.323,1.011 -2.732,0.443 -2.728,-3.973 -0.839,-4.762 1.714,-0.717 3.23,0.144 3.963,1.876 2.24,6.952 -5.088,10.005 -10.928,9.379 C 2.881,53.82 -1.557,51.498 -2.35,50.666 -3.803,38.018 3.297,32.911 6.146,33.315 7.539,33.462 9.619,33.745 9.508,37.211 9.422,39.904 6.104,42.743 5.064,40.24 4.486,38.844 5.549,36.757 6.986,37.932 6.65,36.335 4.221,35.762 3.504,37.354 4.93,39.101 4.723,44.507 2.424,44.569 1.359,44.598 0.598,42.841 1.342,41.684 1.891,41.05 2.721,41.334 3.145,41.972 3.584,40.576 2.662,39.57 1.822,39.231 -0.25,40.457 -0.686,44.227 0.021,46.878 8.6,43.784 13.404,34.395 14.248,32.331 c -2.08,0.377 -5.795,1.148 -8.703,0.406 -3.789,-0.966 -6.752,-3.564 -8.166,-7.07 -1.233,-3.731 -0.057,-9.45 3.963,-8.369 3.726,1.003 2.156,8.67 -1.68,5.339 -0.183,1.962 0.879,3.649 2.041,4.473 0.783,-2.343 4.022,-4.525 6.244,-2.885 1.949,1.437 0.926,6.645 -1.801,4.473 -0.802,-0.985 0.053,-2.177 0.721,-2.453 -1.482,-0.912 -2.521,0.81 -2.883,2.164 3.116,2.051 6.981,1.516 10.569,0.144 -1.369,-1.168 -2.928,-1.976 -4.324,-3.03 C 6.158,22.451 -2.4,12.96 -3.016,0 Z" /></g></g><g
       id="g1414"
       transform="rotate(90,440.88337,718.0417)"
       style="stroke:none"><g
         transform="translate(554.68273,722.19292)"
         id="g306"
         style="stroke:none;stroke-width:0.60472441;stroke-miterlimit:4;stroke-dasharray:none;stroke-opacity:1"><path
           inkscape:connector-curvature="0"
           id="path308"
           style="fill:#a3102a;fill-opacity:1;fill-rule:evenodd;stroke:none;stroke-width:0.60472441;stroke-miterlimit:4;stroke-dasharray:none;stroke-opacity:1"
           d="m 0,0 -0.225,-4.802 -1.507,-6.703 c 0,0 -2.414,-5.255 -2.641,-5.255 -0.225,0 -1.582,-1.54 -1.582,-1.54 l -1.66,-1.54 -3.393,-0.816 -2.338,1.631 c 0,0 -0.453,2.536 -0.677,5.436 -0.227,2.899 2.564,6.613 2.564,6.613 l 6.635,6.251 z" /></g><g
         transform="translate(537.26483,743.93512)"
         id="g310"
         style="stroke:none;stroke-width:0.60472441;stroke-miterlimit:4;stroke-dasharray:none;stroke-opacity:1"><path
           inkscape:connector-curvature="0"
           id="path312"
           style="fill:#a3102a;fill-opacity:1;fill-rule:evenodd;stroke:none;stroke-width:0.60472441;stroke-miterlimit:4;stroke-dasharray:none;stroke-opacity:1"
           d="m 0,0 0.152,-5.073 2.789,-5.617 3.166,-1.721 2.262,1.993 0.981,2.445 -0.829,3.715 -5.882,5.164 z" /></g><g
         transform="translate(537.64173,649.71832)"
         id="g314"
         style="stroke:none;stroke-width:0.60472441;stroke-miterlimit:4;stroke-dasharray:none;stroke-opacity:1"><path
           inkscape:connector-curvature="0"
           id="path316"
           style="fill:#a3102a;fill-opacity:1;fill-rule:evenodd;stroke:none;stroke-width:0.60472441;stroke-miterlimit:4;stroke-dasharray:none;stroke-opacity:1"
           d="M 0,0 0.152,5.073 2.941,10.69 6.107,12.411 8.369,10.418 9.35,7.972 8.521,4.258 2.639,-0.906 Z" /></g><g
         transform="translate(554.68273,671.82232)"
         id="g318"
         style="stroke:none;stroke-width:0.60472441;stroke-miterlimit:4;stroke-dasharray:none;stroke-opacity:1"><path
           inkscape:connector-curvature="0"
           id="path320"
           style="fill:#a3102a;fill-opacity:1;fill-rule:evenodd;stroke:none;stroke-width:0.60472441;stroke-miterlimit:4;stroke-dasharray:none;stroke-opacity:1"
           d="m 0,0 -0.225,4.802 -1.507,6.703 c 0,0 -2.414,5.255 -2.641,5.255 -0.225,0 -1.582,1.54 -1.582,1.54 l -1.66,1.54 -3.393,0.816 -2.338,-1.631 c 0,0 -0.453,-2.536 -0.677,-5.436 -0.227,-2.899 2.564,-6.613 2.564,-6.613 l 6.635,-6.251 z" /></g><g
         transform="translate(538.34683,696.87262)"
         id="g322"
         style="stroke:none;stroke-width:0.60472441;stroke-miterlimit:4;stroke-dasharray:none;stroke-opacity:1"><path
           inkscape:connector-curvature="0"
           id="path324"
           style="fill:#ffffff;fill-opacity:1;fill-rule:evenodd;stroke:none;stroke-width:0.60472441;stroke-miterlimit:4;stroke-dasharray:none;stroke-opacity:1"
           d="m 0,0 c 0.389,-10.958 7.459,-20.721 15.232,-24.452 0.153,5.284 -0.662,10.072 -3.154,13.385 -1.324,-0.574 -2.412,-1.949 -2.33,-4.212 1.479,0.81 3.322,-1.829 1.793,-3.667 -1.217,-1.462 -3.373,0.094 -3.473,3.811 -0.076,2.836 0.936,4.783 2.041,6.493 -0.662,1.035 -1.703,2.332 -2.994,2.744 1.045,-2.434 -0.898,-5.275 -3.131,-3.753 -0.793,0.54 -1.357,2.408 -1.32,3.607 0.031,1.002 0.52,2.042 1.268,2.604 4.847,2.818 11.884,-5.561 13.263,-14.147 0.77,-4.794 0.994,-13.226 -0.869,-17.761 -3.017,-6.762 -7.672,-10.65 -13.783,-13.695 1.977,-1.85 5.725,-2.398 8.166,-1.442 -0.197,1.205 -0.689,2.057 -1.561,2.452 0.266,-0.531 0.288,-1.24 0,-1.587 -1.599,-2.262 -3.769,1.126 -2.041,2.742 1.938,1.811 4.467,-0.633 5.645,-2.309 1.031,0.346 1.478,1.397 1.801,2.597 -0.444,-0.68 -0.647,-0.9 -1.323,-1.01 -2.732,-0.444 -2.728,3.972 -0.839,4.762 1.714,0.717 3.23,-0.145 3.963,-1.876 2.24,-6.953 -5.088,-10.005 -10.928,-9.379 -2.545,0.273 -6.983,2.595 -7.776,3.427 -1.453,12.648 5.647,17.754 8.496,17.351 1.393,-0.147 3.473,-0.43 3.362,-3.896 -0.086,-2.694 -3.404,-5.533 -4.444,-3.03 -0.578,1.396 0.485,3.484 1.922,2.309 -0.336,1.596 -2.765,2.17 -3.482,0.577 1.426,-1.747 1.219,-7.152 -1.08,-7.215 -1.065,-0.029 -1.826,1.728 -1.082,2.886 0.549,0.633 1.379,0.35 1.803,-0.289 0.439,1.397 -0.483,2.402 -1.323,2.742 -2.072,-1.226 -2.508,-4.997 -1.801,-7.647 8.579,3.094 13.383,12.482 14.227,14.546 -2.08,-0.376 -5.795,-1.147 -8.703,-0.406 -3.789,0.967 -6.752,3.564 -8.166,7.07 -1.233,3.731 -0.057,9.451 3.963,8.369 3.726,-1.003 2.156,-8.67 -1.68,-5.339 -0.183,-1.962 0.879,-3.648 2.041,-4.472 0.783,2.342 4.022,4.524 6.244,2.885 1.949,-1.438 0.926,-6.646 -1.801,-4.473 -0.802,0.985 0.053,2.177 0.721,2.453 -1.482,0.912 -2.521,-0.81 -2.883,-2.164 3.116,-2.052 6.981,-1.516 10.569,-0.145 -1.369,1.168 -2.928,1.977 -4.324,3.031 C 6.158,-22.452 -2.4,-12.96 -3.016,0 Z" /></g><g
         transform="translate(538.34683,696.87262)"
         id="g326"
         style="stroke:none;stroke-width:0.60472441;stroke-miterlimit:4;stroke-dasharray:none;stroke-opacity:1"><path
           inkscape:connector-curvature="0"
           id="path328"
           style="fill:#ffffff;fill-opacity:1;fill-rule:evenodd;stroke:none;stroke-width:0.60472441;stroke-miterlimit:4;stroke-dasharray:none;stroke-opacity:1"
           d="M 0,0 C 0.389,10.957 7.459,20.721 15.232,24.451 15.385,19.168 14.57,14.38 12.078,11.067 c -1.324,0.574 -2.412,1.948 -2.33,4.212 1.479,-0.811 3.322,1.829 1.793,3.667 C 10.324,20.407 8.168,18.852 8.068,15.134 7.992,12.298 9.004,10.352 10.109,8.641 9.447,7.606 8.406,6.31 7.115,5.898 8.16,8.331 6.217,11.173 3.984,9.651 3.191,9.111 2.627,7.242 2.664,6.044 2.695,5.042 3.184,4.001 3.932,3.44 8.779,0.622 15.816,9.001 17.195,17.587 c 0.77,4.794 0.994,13.225 -0.869,17.761 -3.017,6.762 -7.672,10.649 -13.783,13.694 1.977,1.851 5.725,2.399 8.166,1.443 -0.197,-1.205 -0.689,-2.057 -1.561,-2.453 0.266,0.531 0.288,1.241 0,1.588 -1.599,2.261 -3.769,-1.127 -2.041,-2.742 1.938,-1.812 4.467,0.633 5.645,2.309 1.031,-0.346 1.478,-1.398 1.801,-2.598 -0.444,0.68 -0.647,0.901 -1.323,1.011 -2.732,0.443 -2.728,-3.973 -0.839,-4.762 1.714,-0.717 3.23,0.144 3.963,1.876 2.24,6.952 -5.088,10.005 -10.928,9.379 C 2.881,53.82 -1.557,51.498 -2.35,50.666 -3.803,38.018 3.297,32.911 6.146,33.315 c 1.393,0.147 3.473,0.43 3.362,3.896 -0.086,2.693 -3.404,5.532 -4.444,3.03 C 4.486,38.844 5.549,36.757 6.986,37.932 6.65,36.335 4.221,35.762 3.504,37.354 4.93,39.101 4.723,44.507 2.424,44.569 1.359,44.598 0.598,42.841 1.342,41.684 1.891,41.05 2.721,41.334 3.145,41.972 3.584,40.576 2.662,39.57 1.822,39.231 -0.25,40.457 -0.686,44.227 0.021,46.878 8.6,43.784 13.404,34.395 14.248,32.331 c -2.08,0.377 -5.795,1.148 -8.703,0.406 -3.789,-0.966 -6.752,-3.564 -8.166,-7.07 -1.233,-3.731 -0.057,-9.45 3.963,-8.369 3.726,1.003 2.156,8.67 -1.68,5.339 -0.183,1.962 0.879,3.649 2.041,4.473 0.783,-2.343 4.022,-4.524 6.244,-2.885 1.949,1.437 0.926,6.645 -1.801,4.473 -0.802,-0.985 0.053,-2.177 0.721,-2.453 -1.482,-0.912 -2.521,0.81 -2.883,2.164 3.116,2.051 6.981,1.516 10.569,0.144 -1.369,-1.168 -2.928,-1.976 -4.324,-3.03 C 6.158,22.451 -2.4,12.96 -3.016,0 Z" /></g></g><g
       id="g1464"
       transform="translate(337.22852,40.077892)"
       style="stroke:none"><g
         transform="translate(448.16613,791.76372)"
         id="g282"
         style="stroke:none;stroke-width:0.60472441;stroke-miterlimit:4;stroke-dasharray:none;stroke-opacity:1"><path
           inkscape:connector-curvature="0"
           id="path284"
           style="fill:#a3102a;fill-opacity:1;fill-rule:evenodd;stroke:none;stroke-width:0.60472441;stroke-miterlimit:4;stroke-dasharray:none;stroke-opacity:1"
           d="m 0,0 3.621,-0.226 5.057,-1.507 c 0,0 3.963,-2.414 3.963,-2.64 0,-0.226 1.162,-1.583 1.162,-1.583 l 1.161,-1.659 0.615,-3.393 -1.23,-2.338 c 0,0 -1.913,-0.453 -4.1,-0.678 -2.186,-0.226 -4.988,2.564 -4.988,2.564 l -4.715,6.635 z" /></g><g
         transform="translate(431.76673,774.34572)"
         id="g286"
         style="stroke:none;stroke-width:0.60472441;stroke-miterlimit:4;stroke-dasharray:none;stroke-opacity:1"><path
           inkscape:connector-curvature="0"
           id="path288"
           style="fill:#a3102a;fill-opacity:1;fill-rule:evenodd;stroke:none;stroke-width:0.60472441;stroke-miterlimit:4;stroke-dasharray:none;stroke-opacity:1"
           d="M 0,0 3.826,0.151 8.063,2.94 9.361,6.107 7.857,8.369 6.013,9.35 3.212,8.521 -0.684,2.639 Z" /></g><g
         transform="translate(502.82923,774.72272)"
         id="g290"
         style="stroke:none;stroke-width:0.60472441;stroke-miterlimit:4;stroke-dasharray:none;stroke-opacity:1"><path
           inkscape:connector-curvature="0"
           id="path292"
           style="fill:#a3102a;fill-opacity:1;fill-rule:evenodd;stroke:none;stroke-width:0.60472441;stroke-miterlimit:4;stroke-dasharray:none;stroke-opacity:1"
           d="M 0,0 -3.826,0.151 -8.063,2.94 -9.361,6.107 -7.857,8.369 -6.013,9.35 -3.212,8.521 0.684,2.639 Z" /></g><g
         transform="translate(486.15733,791.76372)"
         id="g294"
         style="stroke:none;stroke-width:0.60472441;stroke-miterlimit:4;stroke-dasharray:none;stroke-opacity:1"><path
           inkscape:connector-curvature="0"
           id="path296"
           style="fill:#a3102a;fill-opacity:1;fill-rule:evenodd;stroke:none;stroke-width:0.60472441;stroke-miterlimit:4;stroke-dasharray:none;stroke-opacity:1"
           d="m 0,0 -3.621,-0.226 -5.057,-1.507 c 0,0 -3.964,-2.414 -3.964,-2.64 0,-0.226 -1.161,-1.583 -1.161,-1.583 l -1.162,-1.659 -0.614,-3.393 1.229,-2.338 c 0,0 1.913,-0.453 4.1,-0.678 2.187,-0.226 4.988,2.564 4.988,2.564 l 4.715,6.635 z" /></g><g
         transform="translate(467.26383,775.42772)"
         id="g298"
         style="stroke:none;stroke-width:0.60472441;stroke-miterlimit:4;stroke-dasharray:none;stroke-opacity:1"><path
           inkscape:connector-curvature="0"
           id="path300"
           style="fill:#ffffff;fill-opacity:1;fill-rule:evenodd;stroke:none;stroke-width:0.60472441;stroke-miterlimit:4;stroke-dasharray:none;stroke-opacity:1"
           d="M 0,0 C 8.265,0.388 15.628,7.459 18.442,15.232 14.458,15.385 10.846,14.57 8.347,12.078 8.78,10.754 9.816,9.666 11.523,9.748 10.913,11.227 12.903,13.07 14.29,11.54 15.392,10.323 14.219,8.167 11.415,8.067 9.275,7.991 7.808,9.003 6.518,10.108 5.737,9.446 4.759,8.405 4.448,7.115 6.284,8.159 8.427,6.217 7.279,3.984 6.872,3.191 5.462,2.626 4.559,2.663 3.803,2.694 3.018,3.183 2.595,3.931 c -2.126,4.847 4.194,11.885 10.67,13.263 3.616,0.77 9.975,0.994 13.396,-0.868 5.1,-3.018 8.032,-7.672 10.329,-13.783 1.396,1.976 1.809,5.725 1.088,8.166 -0.909,-0.198 -1.552,-0.689 -1.849,-1.562 0.4,0.267 0.935,0.289 1.197,0 1.705,-1.599 -0.85,-3.769 -2.069,-2.041 -1.366,1.939 0.478,4.467 1.742,5.645 -0.261,1.032 -1.054,1.478 -1.959,1.801 0.512,-0.443 0.679,-0.646 0.762,-1.322 0.334,-2.733 -2.997,-2.729 -3.591,-0.839 -0.541,1.714 0.109,3.229 1.415,3.963 5.243,2.24 7.545,-5.088 7.073,-10.929 C 40.594,2.88 38.842,-1.558 38.215,-2.35 28.675,-3.804 24.823,3.297 25.128,6.146 25.238,7.539 25.452,9.618 28.066,9.508 30.098,9.422 32.239,6.104 30.352,5.064 29.298,4.485 27.724,5.548 28.61,6.986 27.406,6.65 26.974,4.22 28.175,3.504 29.492,4.93 33.569,4.722 33.616,2.423 33.638,1.359 32.313,0.597 31.439,1.342 30.962,1.891 31.176,2.72 31.657,3.144 30.604,3.584 29.846,2.661 29.59,1.822 c 0.924,-2.073 3.768,-2.509 5.767,-1.801 -2.333,8.578 -9.415,13.382 -10.971,14.226 0.284,-2.079 0.865,-5.794 0.306,-8.702 -0.729,-3.79 -2.688,-6.753 -5.333,-8.166 -2.814,-1.233 -7.128,-0.057 -6.312,3.963 0.757,3.726 6.54,2.155 4.027,-1.681 1.48,-0.183 2.752,0.88 3.373,2.041 -1.766,0.784 -3.412,4.023 -2.176,6.245 1.084,1.949 5.012,0.926 3.375,-1.801 -0.744,-0.803 -1.643,0.052 -1.851,0.72 -0.688,-1.482 0.611,-2.52 1.633,-2.882 1.547,3.115 1.142,6.981 0.108,10.568 -0.881,-1.368 -1.49,-2.927 -2.285,-4.323 C 16.934,6.157 9.775,-2.401 0,-3.016 Z" /></g><g
         transform="translate(467.26383,775.42772)"
         id="g302"
         style="stroke:none;stroke-width:0.60472441;stroke-miterlimit:4;stroke-dasharray:none;stroke-opacity:1"><path
           inkscape:connector-curvature="0"
           id="path304"
           style="fill:#ffffff;fill-opacity:1;fill-rule:evenodd;stroke:none;stroke-width:0.60472441;stroke-miterlimit:4;stroke-dasharray:none;stroke-opacity:1"
           d="m 0,0 c -8.265,0.388 -15.629,7.459 -18.442,15.232 3.984,0.153 7.595,-0.662 10.094,-3.154 -0.432,-1.324 -1.469,-2.412 -3.176,-2.33 0.611,1.479 -1.38,3.322 -2.766,1.792 -1.103,-1.217 0.071,-3.373 2.875,-3.473 2.139,-0.076 3.606,0.936 4.897,2.041 0.781,-0.662 1.758,-1.703 2.069,-2.993 -1.835,1.044 -3.979,-0.898 -2.831,-3.131 0.408,-0.793 1.817,-1.358 2.721,-1.321 0.756,0.031 1.54,0.52 1.964,1.268 2.125,4.847 -4.194,11.885 -10.671,13.263 -3.615,0.77 -9.974,0.994 -13.395,-0.868 -5.101,-3.018 -8.032,-7.672 -10.329,-13.783 -1.396,1.976 -1.81,5.725 -1.089,8.166 0.909,-0.198 1.553,-0.689 1.85,-1.562 -0.401,0.267 -0.935,0.289 -1.197,0 -1.706,-1.599 0.85,-3.769 2.068,-2.041 1.366,1.939 -0.477,4.467 -1.742,5.645 0.262,1.032 1.055,1.478 1.959,1.801 -0.512,-0.443 -0.678,-0.646 -0.761,-1.322 -0.335,-2.733 2.996,-2.729 3.591,-0.839 0.541,1.714 -0.109,3.229 -1.415,3.963 -5.244,2.24 -7.545,-5.088 -7.074,-10.929 0.206,-2.545 1.957,-6.983 2.585,-7.775 9.54,-1.454 13.392,5.647 13.087,8.496 -0.111,1.393 -0.324,3.472 -2.938,3.362 -2.033,-0.086 -4.173,-3.404 -2.286,-4.444 1.053,-0.579 2.627,0.484 1.742,1.922 1.204,-0.336 1.636,-2.766 0.435,-3.482 -1.317,1.426 -5.394,1.218 -5.442,-1.081 -0.022,-1.064 1.304,-1.826 2.177,-1.081 0.478,0.549 0.263,1.378 -0.218,1.802 1.054,0.44 1.811,-0.483 2.068,-1.322 -0.925,-2.073 -3.768,-2.509 -5.768,-1.801 2.334,8.578 9.416,13.382 10.972,14.226 -0.285,-2.079 -0.866,-5.794 -0.306,-8.702 0.728,-3.79 2.687,-6.753 5.332,-8.166 2.814,-1.233 7.129,-0.057 6.312,3.963 -0.756,3.726 -6.539,2.155 -4.026,-1.681 -1.481,-0.183 -2.752,0.88 -3.374,2.041 1.767,0.784 3.413,4.023 2.177,6.245 -1.085,1.949 -5.013,0.926 -3.375,-1.801 0.744,-0.803 1.642,0.052 1.85,0.72 0.689,-1.482 -0.61,-2.52 -1.632,-2.882 -1.548,3.115 -1.143,6.981 -0.109,10.568 0.882,-1.368 1.491,-2.927 2.286,-4.323 C -16.935,6.157 -9.775,-2.401 0,-3.016 Z" /></g></g><g
       id="g1478"
       transform="translate(324.84958,40.077892)"
       style="stroke:none"><g
         transform="translate(359.71103,791.76372)"
         id="g258"
         style="stroke:none;stroke-width:0.60472441;stroke-miterlimit:4;stroke-dasharray:none;stroke-opacity:1"><path
           inkscape:connector-curvature="0"
           id="path260"
           style="fill:#a3102a;fill-opacity:1;fill-rule:evenodd;stroke:none;stroke-width:0.60472441;stroke-miterlimit:4;stroke-dasharray:none;stroke-opacity:1"
           d="m 0,0 3.621,-0.226 5.057,-1.507 c 0,0 3.964,-2.414 3.964,-2.64 0,-0.226 1.161,-1.583 1.161,-1.583 l 1.161,-1.659 0.615,-3.393 -1.229,-2.338 c 0,0 -1.913,-0.453 -4.101,-0.678 -2.186,-0.226 -4.988,2.564 -4.988,2.564 l -4.715,6.635 z" /></g><g
         transform="translate(343.31163,774.34572)"
         id="g262"
         style="stroke:none;stroke-width:0.60472441;stroke-miterlimit:4;stroke-dasharray:none;stroke-opacity:1"><path
           inkscape:connector-curvature="0"
           id="path264"
           style="fill:#a3102a;fill-opacity:1;fill-rule:evenodd;stroke:none;stroke-width:0.60472441;stroke-miterlimit:4;stroke-dasharray:none;stroke-opacity:1"
           d="M 0,0 3.826,0.151 8.063,2.94 9.361,6.107 7.858,8.369 6.014,9.35 3.212,8.521 -0.683,2.639 Z" /></g><g
         transform="translate(414.37513,774.72272)"
         id="g266"
         style="stroke:none;stroke-width:0.60472441;stroke-miterlimit:4;stroke-dasharray:none;stroke-opacity:1"><path
           inkscape:connector-curvature="0"
           id="path268"
           style="fill:#a3102a;fill-opacity:1;fill-rule:evenodd;stroke:none;stroke-width:0.60472441;stroke-miterlimit:4;stroke-dasharray:none;stroke-opacity:1"
           d="M 0,0 -3.827,0.151 -8.063,2.94 -9.361,6.107 -7.858,8.369 -6.014,9.35 -3.212,8.521 0.683,2.639 Z" /></g><g
         transform="translate(397.70233,791.76372)"
         id="g270"
         style="stroke:none;stroke-width:0.60472441;stroke-miterlimit:4;stroke-dasharray:none;stroke-opacity:1"><path
           inkscape:connector-curvature="0"
           id="path272"
           style="fill:#a3102a;fill-opacity:1;fill-rule:evenodd;stroke:none;stroke-width:0.60472441;stroke-miterlimit:4;stroke-dasharray:none;stroke-opacity:1"
           d="m 0,0 -3.621,-0.226 -5.057,-1.507 c 0,0 -3.963,-2.414 -3.963,-2.64 0,-0.226 -1.162,-1.583 -1.162,-1.583 l -1.161,-1.659 -0.615,-3.393 1.23,-2.338 c 0,0 1.912,-0.453 4.1,-0.678 2.186,-0.226 4.988,2.564 4.988,2.564 l 4.715,6.635 z" /></g><g
         transform="translate(378.80873,775.42772)"
         id="g274"
         style="stroke:none;stroke-width:0.60472441;stroke-miterlimit:4;stroke-dasharray:none;stroke-opacity:1"><path
           inkscape:connector-curvature="0"
           id="path276"
           style="fill:#ffffff;fill-opacity:1;fill-rule:evenodd;stroke:none;stroke-width:0.60472441;stroke-miterlimit:4;stroke-dasharray:none;stroke-opacity:1"
           d="M 0,0 C 8.265,0.388 15.629,7.459 18.442,15.232 14.458,15.385 10.846,14.57 8.348,12.078 8.78,10.754 9.817,9.666 11.524,9.748 10.913,11.227 12.903,13.07 14.29,11.54 15.393,10.323 14.219,8.167 11.415,8.067 9.276,7.991 7.808,9.003 6.518,10.108 5.737,9.446 4.759,8.405 4.449,7.115 6.284,8.159 8.428,6.217 7.279,3.984 6.872,3.191 5.463,2.626 4.559,2.663 3.803,2.694 3.019,3.183 2.595,3.931 0.469,8.778 6.789,15.816 13.266,17.194 c 3.615,0.77 9.974,0.994 13.395,-0.868 5.101,-3.018 8.032,-7.672 10.329,-13.783 1.396,1.976 1.81,5.725 1.088,8.166 -0.908,-0.198 -1.552,-0.689 -1.849,-1.562 0.4,0.267 0.935,0.289 1.197,0 1.706,-1.599 -0.85,-3.769 -2.068,-2.041 -1.367,1.939 0.477,4.467 1.742,5.645 -0.262,1.032 -1.055,1.478 -1.959,1.801 0.511,-0.443 0.678,-0.646 0.761,-1.322 0.334,-2.733 -2.996,-2.729 -3.591,-0.839 -0.541,1.714 0.109,3.229 1.415,3.963 C 38.97,18.594 41.271,11.266 40.8,5.425 40.594,2.88 38.842,-1.558 38.215,-2.35 28.675,-3.804 24.823,3.297 25.128,6.146 25.239,7.539 25.452,9.618 28.066,9.508 30.098,9.422 32.239,6.104 30.352,5.064 29.299,4.485 27.724,5.548 28.61,6.986 27.406,6.65 26.974,4.22 28.175,3.504 29.492,4.93 33.569,4.722 33.617,2.423 33.639,1.359 32.313,0.597 31.44,1.342 30.962,1.891 31.177,2.72 31.658,3.144 30.604,3.584 29.847,2.661 29.59,1.822 c 0.925,-2.073 3.768,-2.509 5.768,-1.801 -2.334,8.578 -9.416,13.382 -10.972,14.226 0.284,-2.079 0.866,-5.794 0.306,-8.702 -0.728,-3.79 -2.688,-6.753 -5.332,-8.166 -2.814,-1.233 -7.129,-0.057 -6.312,3.963 0.756,3.726 6.539,2.155 4.026,-1.681 1.48,-0.183 2.752,0.88 3.374,2.041 -1.767,0.784 -3.413,4.023 -2.177,6.245 1.084,1.949 5.013,0.926 3.375,-1.801 -0.744,-0.803 -1.643,0.052 -1.851,0.72 -0.688,-1.482 0.611,-2.52 1.633,-2.882 1.547,3.115 1.143,6.981 0.108,10.568 -0.881,-1.368 -1.49,-2.927 -2.285,-4.323 C 16.935,6.157 9.775,-2.401 0,-3.016 Z" /></g><g
         transform="translate(378.80873,775.42772)"
         id="g278"
         style="stroke:none;stroke-width:0.60472441;stroke-miterlimit:4;stroke-dasharray:none;stroke-opacity:1"><path
           inkscape:connector-curvature="0"
           id="path280"
           style="fill:#ffffff;fill-opacity:1;fill-rule:evenodd;stroke:none;stroke-width:0.60472441;stroke-miterlimit:4;stroke-dasharray:none;stroke-opacity:1"
           d="m 0,0 c -8.265,0.388 -15.629,7.459 -18.442,15.232 3.984,0.153 7.596,-0.662 10.094,-3.154 -0.432,-1.324 -1.468,-2.412 -3.176,-2.33 0.611,1.479 -1.379,3.322 -2.766,1.792 -1.103,-1.217 0.071,-3.373 2.875,-3.473 2.139,-0.076 3.607,0.936 4.897,2.041 0.781,-0.662 1.759,-1.703 2.069,-2.993 -1.835,1.044 -3.979,-0.898 -2.83,-3.131 0.407,-0.793 1.816,-1.358 2.72,-1.321 0.756,0.031 1.54,0.52 1.964,1.268 2.126,4.847 -4.194,11.885 -10.671,13.263 -3.615,0.77 -9.974,0.994 -13.395,-0.868 -5.1,-3.018 -8.032,-7.672 -10.329,-13.783 -1.396,1.976 -1.809,5.725 -1.088,8.166 0.909,-0.198 1.552,-0.689 1.849,-1.562 -0.4,0.267 -0.935,0.289 -1.197,0 -1.706,-1.599 0.85,-3.769 2.069,-2.041 1.366,1.939 -0.478,4.467 -1.742,5.645 0.261,1.032 1.054,1.478 1.959,1.801 -0.512,-0.443 -0.679,-0.646 -0.762,-1.322 -0.334,-2.733 2.996,-2.729 3.591,-0.839 0.541,1.714 -0.109,3.229 -1.415,3.963 -5.243,2.24 -7.545,-5.088 -7.073,-10.929 0.205,-2.545 1.957,-6.983 2.584,-7.775 9.54,-1.454 13.392,5.647 13.087,8.496 -0.111,1.393 -0.324,3.472 -2.938,3.362 -2.032,-0.086 -4.173,-3.404 -2.286,-4.444 1.054,-0.579 2.628,0.484 1.742,1.922 1.204,-0.336 1.636,-2.766 0.435,-3.482 -1.317,1.426 -5.394,1.218 -5.441,-1.081 -0.023,-1.064 1.303,-1.826 2.176,-1.081 0.478,0.549 0.264,1.378 -0.217,1.802 1.053,0.44 1.811,-0.483 2.067,-1.322 -0.925,-2.073 -3.768,-2.509 -5.767,-1.801 2.333,8.578 9.415,13.382 10.971,14.226 -0.284,-2.079 -0.866,-5.794 -0.306,-8.702 0.728,-3.79 2.688,-6.753 5.333,-8.166 2.813,-1.233 7.128,-0.057 6.311,3.963 -0.756,3.726 -6.539,2.155 -4.026,-1.681 -1.48,-0.183 -2.752,0.88 -3.374,2.041 1.767,0.784 3.413,4.023 2.177,6.245 -1.084,1.949 -5.013,0.926 -3.375,-1.801 0.744,-0.803 1.643,0.052 1.851,0.72 0.688,-1.482 -0.611,-2.52 -1.633,-2.882 -1.547,3.115 -1.143,6.981 -0.108,10.568 0.881,-1.368 1.49,-2.927 2.285,-4.323 C -16.934,6.157 -9.775,-2.401 0,-3.016 Z" /></g></g><g
       transform="translate(-119.35748,40.077892)"
       id="g1718"
       style="stroke:none"><g
         style="stroke:none;stroke-width:0.60472441;stroke-miterlimit:4;stroke-dasharray:none;stroke-opacity:1"
         id="g1696"
         transform="translate(448.16613,791.76372)"><path
           d="m 0,0 3.621,-0.226 5.057,-1.507 c 0,0 3.963,-2.414 3.963,-2.64 0,-0.226 1.162,-1.583 1.162,-1.583 l 1.161,-1.659 0.615,-3.393 -1.23,-2.338 c 0,0 -1.913,-0.453 -4.1,-0.678 -2.186,-0.226 -4.988,2.564 -4.988,2.564 l -4.715,6.635 z"
           style="fill:#a3102a;fill-opacity:1;fill-rule:evenodd;stroke:none;stroke-width:0.60472441;stroke-miterlimit:4;stroke-dasharray:none;stroke-opacity:1"
           id="path1694"
           inkscape:connector-curvature="0" /></g><g
         style="stroke:none;stroke-width:0.60472441;stroke-miterlimit:4;stroke-dasharray:none;stroke-opacity:1"
         id="g1700"
         transform="translate(431.76673,774.34572)"><path
           d="M 0,0 3.826,0.151 8.063,2.94 9.361,6.107 7.857,8.369 6.013,9.35 3.212,8.521 -0.684,2.639 Z"
           style="fill:#a3102a;fill-opacity:1;fill-rule:evenodd;stroke:none;stroke-width:0.60472441;stroke-miterlimit:4;stroke-dasharray:none;stroke-opacity:1"
           id="path1698"
           inkscape:connector-curvature="0" /></g><g
         style="stroke:none;stroke-width:0.60472441;stroke-miterlimit:4;stroke-dasharray:none;stroke-opacity:1"
         id="g1704"
         transform="translate(502.82923,774.72272)"><path
           d="M 0,0 -3.826,0.151 -8.063,2.94 -9.361,6.107 -7.857,8.369 -6.013,9.35 -3.212,8.521 0.684,2.639 Z"
           style="fill:#a3102a;fill-opacity:1;fill-rule:evenodd;stroke:none;stroke-width:0.60472441;stroke-miterlimit:4;stroke-dasharray:none;stroke-opacity:1"
           id="path1702"
           inkscape:connector-curvature="0" /></g><g
         style="stroke:none;stroke-width:0.60472441;stroke-miterlimit:4;stroke-dasharray:none;stroke-opacity:1"
         id="g1708"
         transform="translate(486.15733,791.76372)"><path
           d="m 0,0 -3.621,-0.226 -5.057,-1.507 c 0,0 -3.964,-2.414 -3.964,-2.64 0,-0.226 -1.161,-1.583 -1.161,-1.583 l -1.162,-1.659 -0.614,-3.393 1.229,-2.338 c 0,0 1.913,-0.453 4.1,-0.678 2.187,-0.226 4.988,2.564 4.988,2.564 l 4.715,6.635 z"
           style="fill:#a3102a;fill-opacity:1;fill-rule:evenodd;stroke:none;stroke-width:0.60472441;stroke-miterlimit:4;stroke-dasharray:none;stroke-opacity:1"
           id="path1706"
           inkscape:connector-curvature="0" /></g><g
         style="stroke:none;stroke-width:0.60472441;stroke-miterlimit:4;stroke-dasharray:none;stroke-opacity:1"
         id="g1712"
         transform="translate(467.26383,775.42772)"><path
           d="M 0,0 C 8.265,0.388 15.628,7.459 18.442,15.232 14.458,15.385 10.846,14.57 8.347,12.078 8.78,10.754 9.816,9.666 11.523,9.748 10.913,11.227 12.903,13.07 14.29,11.54 15.392,10.323 14.219,8.167 11.415,8.067 9.275,7.991 7.808,9.003 6.518,10.108 5.737,9.446 4.759,8.405 4.448,7.115 6.284,8.159 8.427,6.217 7.279,3.984 6.872,3.191 5.462,2.626 4.559,2.663 3.803,2.694 3.018,3.183 2.595,3.931 c -2.126,4.847 4.194,11.885 10.67,13.263 3.616,0.77 9.975,0.994 13.396,-0.868 5.1,-3.018 8.032,-7.672 10.329,-13.783 1.396,1.976 1.809,5.725 1.088,8.166 -0.909,-0.198 -1.552,-0.689 -1.849,-1.562 0.4,0.267 0.935,0.289 1.197,0 1.705,-1.599 -0.85,-3.769 -2.069,-2.041 -1.366,1.939 0.478,4.467 1.742,5.645 -0.261,1.032 -1.054,1.478 -1.959,1.801 0.512,-0.443 0.679,-0.646 0.762,-1.322 0.334,-2.733 -2.997,-2.729 -3.591,-0.839 -0.541,1.714 0.109,3.229 1.415,3.963 5.243,2.24 7.545,-5.088 7.073,-10.929 C 40.594,2.88 38.842,-1.558 38.215,-2.35 28.675,-3.804 24.823,3.297 25.128,6.146 25.238,7.539 25.452,9.618 28.066,9.508 30.098,9.422 32.239,6.104 30.352,5.064 29.298,4.485 27.724,5.548 28.61,6.986 27.406,6.65 26.974,4.22 28.175,3.504 29.492,4.93 33.569,4.722 33.616,2.423 33.638,1.359 32.313,0.597 31.439,1.342 30.962,1.891 31.176,2.72 31.657,3.144 30.604,3.584 29.846,2.661 29.59,1.822 c 0.924,-2.073 3.768,-2.509 5.767,-1.801 -2.333,8.578 -9.415,13.382 -10.971,14.226 0.284,-2.079 0.865,-5.794 0.306,-8.702 -0.729,-3.79 -2.688,-6.753 -5.333,-8.166 -2.814,-1.233 -7.128,-0.057 -6.312,3.963 0.757,3.726 6.54,2.155 4.027,-1.681 1.48,-0.183 2.752,0.88 3.373,2.041 -1.766,0.784 -3.412,4.023 -2.176,6.245 1.084,1.949 5.012,0.926 3.375,-1.801 -0.744,-0.803 -1.643,0.052 -1.851,0.72 -0.688,-1.482 0.611,-2.52 1.633,-2.882 1.547,3.115 1.142,6.981 0.108,10.568 -0.881,-1.368 -1.49,-2.927 -2.285,-4.323 C 16.934,6.157 9.775,-2.401 0,-3.016 Z"
           style="fill:#ffffff;fill-opacity:1;fill-rule:evenodd;stroke:none;stroke-width:0.60472441;stroke-miterlimit:4;stroke-dasharray:none;stroke-opacity:1"
           id="path1710"
           inkscape:connector-curvature="0" /></g><g
         style="stroke:none;stroke-width:0.60472441;stroke-miterlimit:4;stroke-dasharray:none;stroke-opacity:1"
         id="g1716"
         transform="translate(467.26383,775.42772)"><path
           d="m 0,0 c -8.265,0.388 -15.629,7.459 -18.442,15.232 3.984,0.153 7.595,-0.662 10.094,-3.154 -0.432,-1.324 -1.469,-2.412 -3.176,-2.33 0.611,1.479 -1.38,3.322 -2.766,1.792 -1.103,-1.217 0.071,-3.373 2.875,-3.473 2.139,-0.076 3.606,0.936 4.897,2.041 0.781,-0.662 1.758,-1.703 2.069,-2.993 -1.835,1.044 -3.979,-0.898 -2.831,-3.131 0.408,-0.793 1.817,-1.358 2.721,-1.321 0.756,0.031 1.54,0.52 1.964,1.268 2.125,4.847 -4.194,11.885 -10.671,13.263 -3.615,0.77 -9.974,0.994 -13.395,-0.868 -5.101,-3.018 -8.032,-7.672 -10.329,-13.783 -1.396,1.976 -1.81,5.725 -1.089,8.166 0.909,-0.198 1.553,-0.689 1.85,-1.562 -0.401,0.267 -0.935,0.289 -1.197,0 -1.706,-1.599 0.85,-3.769 2.068,-2.041 1.366,1.939 -0.477,4.467 -1.742,5.645 0.262,1.032 1.055,1.478 1.959,1.801 -0.512,-0.443 -0.678,-0.646 -0.761,-1.322 -0.335,-2.733 2.996,-2.729 3.591,-0.839 0.541,1.714 -0.109,3.229 -1.415,3.963 -5.244,2.24 -7.545,-5.088 -7.074,-10.929 0.206,-2.545 1.957,-6.983 2.585,-7.775 9.54,-1.454 13.392,5.647 13.087,8.496 -0.111,1.393 -0.324,3.472 -2.938,3.362 -2.033,-0.086 -4.173,-3.404 -2.286,-4.444 1.053,-0.579 2.627,0.484 1.742,1.922 1.204,-0.336 1.636,-2.766 0.435,-3.482 -1.317,1.426 -5.394,1.218 -5.442,-1.081 -0.022,-1.064 1.304,-1.826 2.177,-1.081 0.478,0.549 0.263,1.378 -0.218,1.802 1.054,0.44 1.811,-0.483 2.068,-1.322 -0.925,-2.073 -3.768,-2.509 -5.768,-1.801 2.334,8.578 9.416,13.382 10.972,14.226 -0.285,-2.079 -0.866,-5.794 -0.306,-8.702 0.728,-3.79 2.687,-6.753 5.332,-8.166 2.814,-1.233 7.129,-0.057 6.312,3.963 -0.756,3.726 -6.539,2.155 -4.026,-1.681 -1.481,-0.183 -2.752,0.88 -3.374,2.041 1.767,0.784 3.413,4.023 2.177,6.245 -1.085,1.949 -5.013,0.926 -3.375,-1.801 0.744,-0.803 1.642,0.052 1.85,0.72 0.689,-1.482 -0.61,-2.52 -1.632,-2.882 -1.548,3.115 -1.143,6.981 -0.109,10.568 0.882,-1.368 1.491,-2.927 2.286,-4.323 C -16.935,6.157 -9.775,-2.401 0,-3.016 Z"
           style="fill:#ffffff;fill-opacity:1;fill-rule:evenodd;stroke:none;stroke-width:0.60472441;stroke-miterlimit:4;stroke-dasharray:none;stroke-opacity:1"
           id="path1714"
           inkscape:connector-curvature="0" /></g></g><g
       transform="translate(-131.73642,40.077892)"
       id="g1692"
       style="stroke:none"><g
         style="stroke:none;stroke-width:0.60472441;stroke-miterlimit:4;stroke-dasharray:none;stroke-opacity:1"
         id="g1670"
         transform="translate(359.71103,791.76372)"><path
           d="m 0,0 3.621,-0.226 5.057,-1.507 c 0,0 3.964,-2.414 3.964,-2.64 0,-0.226 1.161,-1.583 1.161,-1.583 l 1.161,-1.659 0.615,-3.393 -1.229,-2.338 c 0,0 -1.913,-0.453 -4.101,-0.678 -2.186,-0.226 -4.988,2.564 -4.988,2.564 l -4.715,6.635 z"
           style="fill:#a3102a;fill-opacity:1;fill-rule:evenodd;stroke:none;stroke-width:0.60472441;stroke-miterlimit:4;stroke-dasharray:none;stroke-opacity:1"
           id="path1668"
           inkscape:connector-curvature="0" /></g><g
         style="stroke:none;stroke-width:0.60472441;stroke-miterlimit:4;stroke-dasharray:none;stroke-opacity:1"
         id="g1674"
         transform="translate(343.31163,774.34572)"><path
           d="M 0,0 3.826,0.151 8.063,2.94 9.361,6.107 7.858,8.369 6.014,9.35 3.212,8.521 -0.683,2.639 Z"
           style="fill:#a3102a;fill-opacity:1;fill-rule:evenodd;stroke:none;stroke-width:0.60472441;stroke-miterlimit:4;stroke-dasharray:none;stroke-opacity:1"
           id="path1672"
           inkscape:connector-curvature="0" /></g><g
         style="stroke:none;stroke-width:0.60472441;stroke-miterlimit:4;stroke-dasharray:none;stroke-opacity:1"
         id="g1678"
         transform="translate(414.37513,774.72272)"><path
           d="M 0,0 -3.827,0.151 -8.063,2.94 -9.361,6.107 -7.858,8.369 -6.014,9.35 -3.212,8.521 0.683,2.639 Z"
           style="fill:#a3102a;fill-opacity:1;fill-rule:evenodd;stroke:none;stroke-width:0.60472441;stroke-miterlimit:4;stroke-dasharray:none;stroke-opacity:1"
           id="path1676"
           inkscape:connector-curvature="0" /></g><g
         style="stroke:none;stroke-width:0.60472441;stroke-miterlimit:4;stroke-dasharray:none;stroke-opacity:1"
         id="g1682"
         transform="translate(397.70233,791.76372)"><path
           d="m 0,0 -3.621,-0.226 -5.057,-1.507 c 0,0 -3.963,-2.414 -3.963,-2.64 0,-0.226 -1.162,-1.583 -1.162,-1.583 l -1.161,-1.659 -0.615,-3.393 1.23,-2.338 c 0,0 1.912,-0.453 4.1,-0.678 2.186,-0.226 4.988,2.564 4.988,2.564 l 4.715,6.635 z"
           style="fill:#a3102a;fill-opacity:1;fill-rule:evenodd;stroke:none;stroke-width:0.60472441;stroke-miterlimit:4;stroke-dasharray:none;stroke-opacity:1"
           id="path1680"
           inkscape:connector-curvature="0" /></g><g
         style="stroke:none;stroke-width:0.60472441;stroke-miterlimit:4;stroke-dasharray:none;stroke-opacity:1"
         id="g1686"
         transform="translate(378.80873,775.42772)"><path
           d="M 0,0 C 8.265,0.388 15.629,7.459 18.442,15.232 14.458,15.385 10.846,14.57 8.348,12.078 8.78,10.754 9.817,9.666 11.524,9.748 10.913,11.227 12.903,13.07 14.29,11.54 15.393,10.323 14.219,8.167 11.415,8.067 9.276,7.991 7.808,9.003 6.518,10.108 5.737,9.446 4.759,8.405 4.449,7.115 6.284,8.159 8.428,6.217 7.279,3.984 6.872,3.191 5.463,2.626 4.559,2.663 3.803,2.694 3.019,3.183 2.595,3.931 0.469,8.778 6.789,15.816 13.266,17.194 c 3.615,0.77 9.974,0.994 13.395,-0.868 5.101,-3.018 8.032,-7.672 10.329,-13.783 1.396,1.976 1.81,5.725 1.088,8.166 -0.908,-0.198 -1.552,-0.689 -1.849,-1.562 0.4,0.267 0.935,0.289 1.197,0 1.706,-1.599 -0.85,-3.769 -2.068,-2.041 -1.367,1.939 0.477,4.467 1.742,5.645 -0.262,1.032 -1.055,1.478 -1.959,1.801 0.511,-0.443 0.678,-0.646 0.761,-1.322 0.334,-2.733 -2.996,-2.729 -3.591,-0.839 -0.541,1.714 0.109,3.229 1.415,3.963 C 38.97,18.594 41.271,11.266 40.8,5.425 40.594,2.88 38.842,-1.558 38.215,-2.35 28.675,-3.804 24.823,3.297 25.128,6.146 25.239,7.539 25.452,9.618 28.066,9.508 30.098,9.422 32.239,6.104 30.352,5.064 29.299,4.485 27.724,5.548 28.61,6.986 27.406,6.65 26.974,4.22 28.175,3.504 29.492,4.93 33.569,4.722 33.617,2.423 33.639,1.359 32.313,0.597 31.44,1.342 30.962,1.891 31.177,2.72 31.658,3.144 30.604,3.584 29.847,2.661 29.59,1.822 c 0.925,-2.073 3.768,-2.509 5.768,-1.801 -2.334,8.578 -9.416,13.382 -10.972,14.226 0.284,-2.079 0.866,-5.794 0.306,-8.702 -0.728,-3.79 -2.688,-6.753 -5.332,-8.166 -2.814,-1.233 -7.129,-0.057 -6.312,3.963 0.756,3.726 6.539,2.155 4.026,-1.681 1.48,-0.183 2.752,0.88 3.374,2.041 -1.767,0.784 -3.413,4.023 -2.177,6.245 1.084,1.949 5.013,0.926 3.375,-1.801 -0.744,-0.803 -1.643,0.052 -1.851,0.72 -0.688,-1.482 0.611,-2.52 1.633,-2.882 1.547,3.115 1.143,6.981 0.108,10.568 -0.881,-1.368 -1.49,-2.927 -2.285,-4.323 C 16.935,6.157 9.775,-2.401 0,-3.016 Z"
           style="fill:#ffffff;fill-opacity:1;fill-rule:evenodd;stroke:none;stroke-width:0.60472441;stroke-miterlimit:4;stroke-dasharray:none;stroke-opacity:1"
           id="path1684"
           inkscape:connector-curvature="0" /></g><g
         style="stroke:none;stroke-width:0.60472441;stroke-miterlimit:4;stroke-dasharray:none;stroke-opacity:1"
         id="g1690"
         transform="translate(378.80873,775.42772)"><path
           d="m 0,0 c -8.265,0.388 -15.629,7.459 -18.442,15.232 3.984,0.153 7.596,-0.662 10.094,-3.154 -0.432,-1.324 -1.468,-2.412 -3.176,-2.33 0.611,1.479 -1.379,3.322 -2.766,1.792 -1.103,-1.217 0.071,-3.373 2.875,-3.473 2.139,-0.076 3.607,0.936 4.897,2.041 0.781,-0.662 1.759,-1.703 2.069,-2.993 -1.835,1.044 -3.979,-0.898 -2.83,-3.131 0.407,-0.793 1.816,-1.358 2.72,-1.321 0.756,0.031 1.54,0.52 1.964,1.268 2.126,4.847 -4.194,11.885 -10.671,13.263 -3.615,0.77 -9.974,0.994 -13.395,-0.868 -5.1,-3.018 -8.032,-7.672 -10.329,-13.783 -1.396,1.976 -1.809,5.725 -1.088,8.166 0.909,-0.198 1.552,-0.689 1.849,-1.562 -0.4,0.267 -0.935,0.289 -1.197,0 -1.706,-1.599 0.85,-3.769 2.069,-2.041 1.366,1.939 -0.478,4.467 -1.742,5.645 0.261,1.032 1.054,1.478 1.959,1.801 -0.512,-0.443 -0.679,-0.646 -0.762,-1.322 -0.334,-2.733 2.996,-2.729 3.591,-0.839 0.541,1.714 -0.109,3.229 -1.415,3.963 -5.243,2.24 -7.545,-5.088 -7.073,-10.929 0.205,-2.545 1.957,-6.983 2.584,-7.775 9.54,-1.454 13.392,5.647 13.087,8.496 -0.111,1.393 -0.324,3.472 -2.938,3.362 -2.032,-0.086 -4.173,-3.404 -2.286,-4.444 1.054,-0.579 2.628,0.484 1.742,1.922 1.204,-0.336 1.636,-2.766 0.435,-3.482 -1.317,1.426 -5.394,1.218 -5.441,-1.081 -0.023,-1.064 1.303,-1.826 2.176,-1.081 0.478,0.549 0.264,1.378 -0.217,1.802 1.053,0.44 1.811,-0.483 2.067,-1.322 -0.925,-2.073 -3.768,-2.509 -5.767,-1.801 2.333,8.578 9.415,13.382 10.971,14.226 -0.284,-2.079 -0.866,-5.794 -0.306,-8.702 0.728,-3.79 2.688,-6.753 5.333,-8.166 2.813,-1.233 7.128,-0.057 6.311,3.963 -0.756,3.726 -6.539,2.155 -4.026,-1.681 -1.48,-0.183 -2.752,0.88 -3.374,2.041 1.767,0.784 3.413,4.023 2.177,6.245 -1.084,1.949 -5.013,0.926 -3.375,-1.801 0.744,-0.803 1.643,0.052 1.851,0.72 0.688,-1.482 -0.611,-2.52 -1.633,-2.882 -1.547,3.115 -1.143,6.981 -0.108,10.568 0.881,-1.368 1.49,-2.927 2.285,-4.323 C -16.934,6.157 -9.775,-2.401 0,-3.016 Z"
           style="fill:#ffffff;fill-opacity:1;fill-rule:evenodd;stroke:none;stroke-width:0.60472441;stroke-miterlimit:4;stroke-dasharray:none;stroke-opacity:1"
           id="path1688"
           inkscape:connector-curvature="0" /></g></g></g></svg>