<?xml version="1.0" encoding="UTF-8" standalone="no"?>
<svg
   xmlns:dc="http://purl.org/dc/elements/1.1/"
   xmlns:cc="http://creativecommons.org/ns#"
   xmlns:rdf="http://www.w3.org/1999/02/22-rdf-syntax-ns#"
   xmlns:svg="http://www.w3.org/2000/svg"
   xmlns="http://www.w3.org/2000/svg"
   xmlns:sodipodi="http://sodipodi.sourceforge.net/DTD/sodipodi-0.dtd"
   xmlns:inkscape="http://www.inkscape.org/namespaces/inkscape"
   width="473.29385"
   height="475.12405"
   viewBox="0 0 473.29385 475.12405"
   version="1.1"
   id="svg4"
   sodipodi:docname="peakmonsters.svg"
   inkscape:version="0.92.5 (2060ec1f9f, 2020-04-08)">
  <metadata
     id="metadata10">
    <rdf:RDF>
      <cc:Work
         rdf:about="">
        <dc:format>image/svg+xml</dc:format>
        <dc:type
           rdf:resource="http://purl.org/dc/dcmitype/StillImage" />
        <dc:title></dc:title>
      </cc:Work>
    </rdf:RDF>
  </metadata>
  <defs
     id="defs8" />
  <sodipodi:namedview
     pagecolor="#ffffff"
     bordercolor="#666666"
     borderopacity="1"
     objecttolerance="10"
     gridtolerance="10"
     guidetolerance="10"
     inkscape:pageopacity="0"
     inkscape:pageshadow="2"
     inkscape:window-width="1280"
     inkscape:window-height="717"
     id="namedview6"
     showgrid="false"
     inkscape:zoom="0.4609375"
     inkscape:cx="-481.50934"
     inkscape:cy="244.5233"
     inkscape:window-x="0"
     inkscape:window-y="0"
     inkscape:window-maximized="1"
     inkscape:current-layer="svg4"
     fit-margin-top="0"
     fit-margin-left="0"
     fit-margin-right="0"
     fit-margin-bottom="0" />
  <path
     d="m 280.44985,0.00274936 c -15.634,0.137 -31.488,4.07400004 -46.657,12.34299964 34.997,-2.5419996 65.762,8.182 74.345,33.938 -128.86,-16.852 -260.250004,113.340001 -31.72,245.187001 62.006,35.773 19.38,127.795 -104.31,75.095 C 7.2558465,296.32975 19.231846,165.79975 78.605846,97.501749 c 7.322,12.328001 13.418,26.194001 18.936,40.750001 19.067004,-48.595001 56.388004,-68.620001 93.595004,-88.812001 -52.197,-24.58 -102.010004,-14.783 -150.906004,8.406 10.362,5.744 19.104,13.503 26.655,22.72 -113.558,67.915001 -77.773,280.400001 71.406004,366.530001 189.853,109.61 414.786,-132.238 208.157,-211.062 -151.438,-57.77 -111.705,-139.905001 -38.03,-126.156 l 2.624,42.625 141.345,39.375 20.906,-60.657 c -28.94,-12.513 -52.207,-26.577 -71.092,-43.843001 1.268,-28.244 -10.66,-56.505 -33.907,-84.7499996 0.757,13.7929996 0.603,27.5819996 -1.592,41.3759996 -22.21,-28.084 -53.733,-44.28699964 -86.25,-43.99999964 z m 43.437,65.37399964 c 23,7.268 44.722,20.866 62,44.094001 -33.73,15.82 -69.124,-5.32 -62,-44.093001 z"
     id="path2"
     style="fill:#ff0000;fill-opacity:1"
     inkscape:connector-curvature="0" />
</svg>
