<?xml version="1.0" encoding="UTF-8"?> <svg xmlns="http://www.w3.org/2000/svg" xmlns:xlink="http://www.w3.org/1999/xlink" id="Layer_1" data-name="Layer 1" viewBox="0 0 488.43 241.13"><defs><style>.cls-1{fill:#fff;}.cls-2{fill:url(#radial-gradient);}.cls-3{fill:#fa9b00;}.cls-4{fill:#067080;}.cls-5{fill:url(#linear-gradient);}.cls-6{fill:url(#linear-gradient-2);}.cls-7{fill:url(#linear-gradient-3);}.cls-8{fill:url(#linear-gradient-4);}.cls-9{fill:url(#linear-gradient-5);}.cls-10{fill:url(#linear-gradient-6);}.cls-11{fill:url(#linear-gradient-7);}.cls-12{fill:url(#linear-gradient-8);}.cls-13{fill:url(#linear-gradient-9);}.cls-14{fill:url(#linear-gradient-10);}.cls-15{fill:url(#linear-gradient-11);}.cls-16{fill:url(#linear-gradient-12);}.cls-17{fill:url(#linear-gradient-13);}.cls-18{fill:url(#linear-gradient-14);}.cls-19{fill:url(#linear-gradient-15);}.cls-20{fill:url(#linear-gradient-16);}.cls-21{fill:url(#linear-gradient-17);}.cls-22{fill:url(#linear-gradient-18);}.cls-23{fill:url(#linear-gradient-19);}.cls-24{fill:url(#linear-gradient-20);}.cls-25{fill:url(#linear-gradient-21);}.cls-26{fill:url(#linear-gradient-22);}.cls-27{fill:url(#linear-gradient-23);}</style><radialGradient id="radial-gradient" cx="243.22" cy="63" r="216.31" gradientUnits="userSpaceOnUse"><stop offset="0" stop-color="#3b0000"></stop><stop offset="0.18"></stop><stop offset="1" stop-color="#006473"></stop></radialGradient><linearGradient id="linear-gradient" x1="72.44" y1="16.79" x2="411.77" y2="216.12" gradientUnits="userSpaceOnUse"><stop offset="0" stop-color="#faac2d"></stop><stop offset="1" stop-color="#8f5900"></stop></linearGradient><linearGradient id="linear-gradient-2" x1="316.86" y1="208" x2="316.86" y2="239" gradientUnits="userSpaceOnUse"><stop offset="0" stop-color="#664b91"></stop><stop offset="1" stop-color="#be75ff"></stop></linearGradient><linearGradient id="linear-gradient-3" x1="171.62" y1="208" x2="171.62" y2="236.36" gradientUnits="userSpaceOnUse"><stop offset="0" stop-color="#219394"></stop><stop offset="1" stop-color="aqua"></stop></linearGradient><linearGradient id="linear-gradient-4" x1="365.27" y1="213" x2="365.27" y2="238" gradientUnits="userSpaceOnUse"><stop offset="0" stop-color="#bf6f00"></stop><stop offset="1" stop-color="#ffffaf"></stop></linearGradient><linearGradient id="linear-gradient-5" x1="123.06" y1="211.33" x2="123.06" y2="240.38" gradientUnits="userSpaceOnUse"><stop offset="0" stop-color="#ff0b00"></stop><stop offset="1" stop-color="#f90"></stop></linearGradient><linearGradient id="linear-gradient-6" x1="131.1" y1="211.33" x2="131.1" y2="240.38" xlink:href="#linear-gradient-5"></linearGradient><linearGradient id="linear-gradient-7" x1="123.21" y1="211.33" x2="123.21" y2="240.38" xlink:href="#linear-gradient-5"></linearGradient><linearGradient id="linear-gradient-8" x1="228.11" y1="204.67" x2="228.11" y2="230.67" gradientUnits="userSpaceOnUse"><stop offset="0" stop-color="#007000"></stop><stop offset="1" stop-color="#6aff78"></stop></linearGradient><linearGradient id="linear-gradient-9" x1="220.03" y1="204.67" x2="220.03" y2="230.67" xlink:href="#linear-gradient-8"></linearGradient><linearGradient id="linear-gradient-10" x1="268.44" y1="199.5" x2="268.44" y2="237" gradientUnits="userSpaceOnUse"><stop offset="0" stop-color="#999"></stop><stop offset="1" stop-color="#fff"></stop></linearGradient><linearGradient id="linear-gradient-11" x1="82.36" y1="116.91" x2="82.36" y2="151.96" gradientUnits="userSpaceOnUse"><stop offset="0" stop-color="#ff7e00"></stop><stop offset="1" stop-color="#ffc000"></stop></linearGradient><linearGradient id="linear-gradient-12" x1="109.52" y1="118.53" x2="109.52" y2="151.9" xlink:href="#linear-gradient-11"></linearGradient><linearGradient id="linear-gradient-13" x1="133.74" y1="119.84" x2="133.74" y2="151.9" xlink:href="#linear-gradient-11"></linearGradient><linearGradient id="linear-gradient-14" x1="149.97" y1="120.8" x2="149.97" y2="151.86" xlink:href="#linear-gradient-11"></linearGradient><linearGradient id="linear-gradient-15" x1="172.03" y1="121.3" x2="172.03" y2="151.84" xlink:href="#linear-gradient-11"></linearGradient><linearGradient id="linear-gradient-16" x1="201.58" y1="122.21" x2="201.58" y2="151.82" xlink:href="#linear-gradient-11"></linearGradient><linearGradient id="linear-gradient-17" x1="230.67" y1="122.75" x2="230.67" y2="151.8" xlink:href="#linear-gradient-11"></linearGradient><linearGradient id="linear-gradient-18" x1="259.44" y1="122.81" x2="259.44" y2="151.79" xlink:href="#linear-gradient-11"></linearGradient><linearGradient id="linear-gradient-19" x1="284.16" y1="122.57" x2="284.16" y2="151.8" xlink:href="#linear-gradient-11"></linearGradient><linearGradient id="linear-gradient-20" x1="312.37" y1="121.58" x2="312.37" y2="151.85" xlink:href="#linear-gradient-11"></linearGradient><linearGradient id="linear-gradient-21" x1="347.12" y1="120" x2="347.12" y2="151.87" xlink:href="#linear-gradient-11"></linearGradient><linearGradient id="linear-gradient-22" x1="378.39" y1="118.8" x2="378.39" y2="151.93" xlink:href="#linear-gradient-11"></linearGradient><linearGradient id="linear-gradient-23" x1="406.1" y1="116.5" x2="406.1" y2="152.01" xlink:href="#linear-gradient-11"></linearGradient></defs><title>logo_splinterlands</title><path class="cls-1" d="M232.92,83.12l-.12-.38L227.67,67l-.2-.63-.27.81-3.92,12.09a8.26,8.26,0,0,0,7,3.89Z"></path><polygon class="cls-1" points="238.35 72.8 233.2 82.61 232.92 83.12 243.83 83.12 238.38 72.74 238.35 72.8"></polygon><polygon class="cls-1" points="254.47 82.61 249.32 72.8 249.29 72.74 243.83 83.12 243.83 83.12 254.75 83.12 254.47 82.61"></polygon><path class="cls-1" d="M260.2,66.33,260,67l-5.12,15.78-.12.38h2.61a8.26,8.26,0,0,0,7-3.89l-3.93-12.09Z"></path><polygon class="cls-1" points="238.35 49.8 238.38 49.86 243.83 39.48 232.92 39.48 233.19 40 238.35 49.8"></polygon><polygon class="cls-1" points="249.32 49.8 254.47 40 254.75 39.48 243.83 39.48 249.29 49.86 249.32 49.8"></polygon><path class="cls-1" d="M227.47,56.27l.2-.63,5.13-15.78.12-.38H230.3a8.26,8.26,0,0,0-7,3.89l3.92,12.09Z"></path><path class="cls-1" d="M260,55.64l.21.63.26-.8,3.93-12.1a8.26,8.26,0,0,0-7-3.89h-2.61l.12.38Z"></path><path class="cls-1" d="M232.92,83.12l-.12-.38L227.67,67l-.2-.63-.27.81-3.92,12.09a8.26,8.26,0,0,0,7,3.89Z"></path><polygon class="cls-1" points="238.35 72.8 233.2 82.61 232.92 83.12 243.83 83.12 238.38 72.74 238.35 72.8"></polygon><polygon class="cls-1" points="254.47 82.61 249.32 72.8 249.29 72.74 243.83 83.12 243.83 83.12 254.75 83.12 254.47 82.61"></polygon><path class="cls-1" d="M260.2,66.33,260,67l-5.12,15.78-.12.38h2.61a8.26,8.26,0,0,0,7-3.89l-3.93-12.09Z"></path><polygon class="cls-1" points="238.35 49.8 238.38 49.86 243.83 39.48 232.92 39.48 233.19 40 238.35 49.8"></polygon><polygon class="cls-1" points="249.32 49.8 254.47 40 254.75 39.48 243.83 39.48 249.29 49.86 249.32 49.8"></polygon><path class="cls-1" d="M227.47,56.27l.2-.63,5.13-15.78.12-.38H230.3a8.26,8.26,0,0,0-7,3.89l3.92,12.09Z"></path><path class="cls-1" d="M260,55.64l.21.63.26-.8,3.93-12.1a8.26,8.26,0,0,0-7-3.89h-2.61l.12.38Z"></path><path class="cls-2" d="M454.22,93A177.12,177.12,0,0,1,443,146.82c-.14.38-.29.76-.43,1.13a167.34,167.34,0,0,1-7.09,15.89l-.31.6q-1.25,2.42-2.55,4.76l1.6,2.8-4,1.33c-1.4,2.33-2.85,4.61-4.34,6.82-25.71-4.9-64.19-8.69-109.65-10.65q-13.5-.6-27.78-.95l-6.59-.16q-15.44-.33-31.56-.38H238.13q-16.11.06-31.57.4c-2.21.05-4.42.1-6.61.17-9.5.24-18.78.56-27.77,1-45.55,2-84,5.83-109.53,10.78a168,168,0,0,1-24.28-57c-.55-2.41-1-4.82-1.47-7.22-.33-1.82-.64-3.65-.92-5.46h0L32.21,108l2.95-3.44q-.69-5.81-1-11.53A211.81,211.81,0,0,1,68,58.67c26.48,18.64,64.84,32.89,109.67,40.1,6.86,1.1,13.88,2,21,2.8q6.68.72,13.51,1.23,7.44.56,15,.85v-2.07a44,44,0,1,1,34,0v2.11q7.59-.28,15-.82,6.79-.5,13.44-1.21c2.76-.28,5.49-.6,8.21-.94L300.21,97l6.49,2.52c1.36-.19,2.7-.38,4-.59,45-7.11,83.48-21.29,110.15-39.88a207.26,207.26,0,0,1,16.18,14.59c2.75,2.75,5.37,5.55,7.92,8.39,1.07,1.21,2.14,2.42,3.18,3.64a1.36,1.36,0,0,0,.12.12l3.92-.79-1,4.22C452.19,90.48,453.22,91.75,454.22,93Z"></path><path class="cls-3" d="M323.16,209.74,321.43,212l-3,.15-1.45,2.6.87-3.37,2.21-.34.42-2.2a16.19,16.19,0,0,0-3.59-.4c-7.18,0-13,4.61-13,10.3a9.62,9.62,0,0,0,4.74,8l1.73,5.19,2.34.53,1.27-3.73.75,5.65,2.26.53.19-6.24,1.74,6.15,2.16-1.26.41-4.89,1,3.55,3.28-3.33.26-2.77a9.37,9.37,0,0,0,3.87-7.34C329.85,214.88,327.15,211.5,323.16,209.74Zm-13.32,10.78s-4.25.07-2-5.4c0,0,3.38-.14,5.39,1.87s2.09,3.38,3.1,3.31a4.72,4.72,0,0,1-2.59,0C312.58,219.87,309.84,220.52,309.84,220.52Zm7.42,4.58a10,10,0,0,0-3.35,2.28s1.79-3.75,3.35-4.49c0,0,2.53,2,2.77,3.27A21.79,21.79,0,0,0,317.26,225.1Zm6.61-4.58s-2.73-.65-3.89-.22a4.72,4.72,0,0,1-2.59,0c1,.07,1.08-1.29,3.1-3.31s5.39-1.87,5.39-1.87C328.12,220.59,323.87,220.52,323.87,220.52Z"></path><path class="cls-3" d="M181.54,215.43c0-.13,0-.27,0-.41a3.34,3.34,0,0,0-3.12-3.34,3.35,3.35,0,0,0-3.22-2.44,3,3,0,0,0-.86.12,3.34,3.34,0,0,0-2.85-1.59,2.92,2.92,0,0,0-.51,0h0l-.56.14h0a3.43,3.43,0,0,0-.55.25l-.08-.06a3.35,3.35,0,0,0-5.26,2,3,3,0,0,1-.07.43c0,.09,0,.19,0,.29a2.69,2.69,0,0,0,0,.4c-.2.18-.39.37-.58.56a3,3,0,0,1-.51.56,14.19,14.19,0,0,0,10.72,23.49,14.34,14.34,0,0,0,2.72-.26,8.78,8.78,0,0,1-.2-17,3.35,3.35,0,0,0,6.54.76,3.21,3.21,0,0,0,.15-1A3.35,3.35,0,0,0,181.54,215.43ZM170.9,233.85c-16.4-10.6-4.56-19.87-4.56-19.87-8.18,10.7,4.56,19.87,4.56,19.87-13.78-12.41-.85-20.11-.85-20.11-9.7,10,.85,20.11.85,20.11s-10.27-11.36,1.81-17.87C172.71,216,163.87,223.58,170.9,233.85Z"></path><path class="cls-3" d="M367.43,221.57c-2.7,8.48-4.26,12.74-4.26,12.74-2.21-7-.3-12.08,2-15.27a42.69,42.69,0,0,0-5.1-4.78,11.14,11.14,0,1,0,16,13.3C373.83,227,370.94,225.35,367.43,221.57Z"></path><path class="cls-3" d="M279.37,213.91a12,12,0,0,0-9.77-7.26l-1.16-7-1.15,7a11.72,11.72,0,0,0-3.64.9,12,12,0,0,0-7.29,10l-7,1.15,7,1.16a11.9,11.9,0,0,0,3.44,7.19,12.18,12.18,0,0,0,3.82,2.57,11.83,11.83,0,0,0,3.6.9l1.19,7.14,1.2-7.17a12,12,0,0,0,9.73-7.25,11.76,11.76,0,0,0,.86-3.33l7.25-1.21-7.22-1.19A12.1,12.1,0,0,0,279.37,213.91Zm-19.23-3.47,2.87,6-6.19,1A11.5,11.5,0,0,1,260.14,210.44ZM256.85,220l6.16,1-2.78,5.84A11.53,11.53,0,0,1,256.85,220Zm3.5,7,5.84-2.78,1,5.91A11.47,11.47,0,0,1,260.35,226.93Zm5.84-13.65-6-2.87a11.53,11.53,0,0,1,7.06-3.32Zm10.36-2.78-5.85,2.78-1-6.16A11.51,11.51,0,0,1,276.55,210.5ZM269.72,230l1-5.89,5.66,2.7A11.61,11.61,0,0,1,269.72,230Zm6.85-3.41L273.88,221l5.89-1A11.47,11.47,0,0,1,276.57,226.63Zm-2.69-10.17,2.78-5.85a11.56,11.56,0,0,1,3.14,6.83Z"></path><path class="cls-4" d="M373.7,109.53h0l.09-.13Z"></path><path class="cls-5" d="M488.42,83.64a205.56,205.56,0,0,0-27.66-34.19q-5.37-5.37-11-10.23L446.21,41l-2-6.41a197.83,197.83,0,0,0-23.42-16.36A184.86,184.86,0,0,1,394.61,41C372.27,57,345.26,69.52,315.23,77.23q-6.47,1.67-13.13,3A61,61,0,1,0,186.25,80q-6.66-1.4-13.13-3.08h0c-1.47-.38-2.93-.79-4.38-1.19L168.21,80l-2.57-5.13c-26.8-7.85-51-19.56-71.27-34.24A185,185,0,0,1,68.24,17.85,199.16,199.16,0,0,0,43.07,35.48q-.27-.34-.51-.69c-.22.54-.42,1.08-.61,1.62h0q-7.34,6.09-14.29,13c-1.23,1.23-2.44,2.48-3.62,3.73L22.21,60l-5.5,1.27A202.48,202.48,0,0,0,0,83.64a174,174,0,0,0,4.37,39.68c1.09,4.82,2.37,9.53,3.81,14.12A164.71,164.71,0,0,0,27.12,178h8.09l-6.44,2.48q2.85,4.19,5.9,8.06a124.28,124.28,0,0,0,17,17.75q4,3.36,8.09,6.24,3.6-1.53,7.59-3c3.25-1.2,6.71-2.35,10.33-3.47a39.67,39.67,0,0,0-.43-4.08l7.06,2.12c21.54-6.07,48.36-10.91,78.66-14.06q10.57-1.09,21.67-1.91,6.87-.51,13.91-.89,14.42-.81,29.5-1.1,8.27-.16,16.7-.16c3.73,0,7.42,0,11.1.08l5.4-6.08,1.12,6.18c9.36.19,18.56.53,27.55,1q7,.38,13.87.87,11.08.8,21.67,1.88h0c30.77,3.15,58,8,79.8,14.18q9.12,2.58,16.89,5.42c2.43.89,4.74,1.79,6.95,2.72q3.74-2.61,7.31-5.65h0A124.63,124.63,0,0,0,454,188.18a160,160,0,0,0,26.2-50.74q.76-2.44,1.47-4.94l-2.5-2.5,5.29-8.82q.74-3.44,1.34-6.86L481.21,113l5.31-3A169.69,169.69,0,0,0,488.42,83.64Zm-38.36,39.68a179.71,179.71,0,0,1-7.06,23.5c-.15.38-.29.76-.44,1.13a164.8,164.8,0,0,1-7.08,15.89l-.31.6q-1.25,2.42-2.56,4.76l1.6,2.8-4,1.33c-1.4,2.33-2.85,4.61-4.34,6.82-25.71-4.9-64.19-8.69-109.65-10.65q-13.5-.6-27.78-.95l-6.59-.16q-15.44-.33-31.56-.38H238.13q-16.11.06-31.57.4c-2.21.05-4.42.1-6.61.17-9.5.24-18.78.56-27.77,1-45.55,2-84,5.83-109.53,10.78a168,168,0,0,1-24.28-57c-.54-2.41-1-4.82-1.46-7.22-.33-1.82-.65-3.65-.93-5.46h0L32.21,108l2.95-3.44q-.69-5.81-1-11.53A211.81,211.81,0,0,1,68,58.67c26.48,18.64,64.84,32.89,109.67,40.1,6.86,1.1,13.88,2,21,2.8q6.68.72,13.51,1.23c5,.37,10,.65,15,.85v-2.07a44,44,0,1,1,34,0v2.11q7.59-.28,15-.82,6.79-.5,13.44-1.21c2.76-.28,5.49-.6,8.21-.94L300.21,97l6.49,2.52c1.36-.19,2.7-.38,4-.59,45-7.11,83.48-21.29,110.15-39.88a207.26,207.26,0,0,1,16.18,14.59c2.75,2.75,5.38,5.55,7.92,8.39q1.62,1.81,3.19,3.64l.11.12,3.92-.79-1,4.22c1,1.26,2.06,2.53,3.06,3.81A176.93,176.93,0,0,1,450.06,123.32Z"></path><path class="cls-1" d="M232.92,83.12l-.12-.38L227.67,67l-.2-.63-.27.81-3.92,12.09a8.26,8.26,0,0,0,7,3.89Z"></path><polygon class="cls-1" points="238.35 72.8 233.2 82.61 232.92 83.12 243.83 83.12 238.38 72.74 238.35 72.8"></polygon><polygon class="cls-1" points="254.47 82.61 249.32 72.8 249.29 72.74 243.83 83.12 243.83 83.12 254.75 83.12 254.47 82.61"></polygon><path class="cls-1" d="M260.2,66.33,260,67l-5.12,15.78-.12.38h2.61a8.26,8.26,0,0,0,7-3.89l-3.93-12.09Z"></path><polygon class="cls-1" points="238.35 49.8 238.38 49.86 243.83 39.48 232.92 39.48 233.19 40 238.35 49.8"></polygon><polygon class="cls-1" points="249.32 49.8 254.47 40 254.75 39.48 243.83 39.48 249.29 49.86 249.32 49.8"></polygon><path class="cls-1" d="M227.47,56.27l.2-.63,5.13-15.78.12-.38H230.3a8.26,8.26,0,0,0-7,3.89l3.92,12.09Z"></path><path class="cls-1" d="M260,55.64l.21.63.26-.8,3.93-12.1a8.26,8.26,0,0,0-7-3.89h-2.61l.12.38Z"></path><path class="cls-6" d="M323.16,209.74,321.43,212l-3,.15-1.45,2.6.87-3.37,2.21-.34.42-2.2a16.19,16.19,0,0,0-3.59-.4c-7.18,0-13,4.61-13,10.3a9.62,9.62,0,0,0,4.74,8l1.73,5.19,2.34.53,1.27-3.73.75,5.65,2.26.53.19-6.24,1.74,6.15,2.16-1.26.41-4.89,1,3.55,3.28-3.33.26-2.77a9.37,9.37,0,0,0,3.87-7.34C329.85,214.88,327.15,211.5,323.16,209.74Zm-13.32,10.78s-4.25.07-2-5.4c0,0,3.38-.14,5.39,1.87s2.09,3.38,3.1,3.31a4.72,4.72,0,0,1-2.59,0C312.58,219.87,309.84,220.52,309.84,220.52Zm7.42,4.58a10,10,0,0,0-3.35,2.28s1.79-3.75,3.35-4.49c0,0,2.53,2,2.77,3.27A21.79,21.79,0,0,0,317.26,225.1Zm6.61-4.58s-2.73-.65-3.89-.22a4.72,4.72,0,0,1-2.59,0c1,.07,1.08-1.29,3.1-3.31s5.39-1.87,5.39-1.87C328.12,220.59,323.87,220.52,323.87,220.52Z"></path><path class="cls-7" d="M181.54,215.43c0-.13,0-.27,0-.41a3.34,3.34,0,0,0-3.12-3.34,3.35,3.35,0,0,0-3.22-2.44,3,3,0,0,0-.86.12,3.34,3.34,0,0,0-2.85-1.59,2.92,2.92,0,0,0-.51,0h0l-.56.14h0a3.43,3.43,0,0,0-.55.25l-.08-.06a3.35,3.35,0,0,0-5.26,2,3,3,0,0,1-.07.43c0,.09,0,.19,0,.29a2.69,2.69,0,0,0,0,.4c-.2.18-.39.37-.58.56a3,3,0,0,1-.51.56,14.19,14.19,0,0,0,10.72,23.49,14.34,14.34,0,0,0,2.72-.26,8.78,8.78,0,0,1-.2-17,3.35,3.35,0,0,0,6.54.76,3.21,3.21,0,0,0,.15-1A3.35,3.35,0,0,0,181.54,215.43ZM170.9,233.85c-16.4-10.6-4.56-19.87-4.56-19.87-8.18,10.7,4.56,19.87,4.56,19.87-13.78-12.41-.85-20.11-.85-20.11-9.7,10,.85,20.11.85,20.11s-10.27-11.36,1.81-17.87C172.71,216,163.87,223.58,170.9,233.85Z"></path><path class="cls-8" d="M367.43,221.57c-2.7,8.48-4.26,12.74-4.26,12.74-2.21-7-.3-12.08,2-15.27a42.69,42.69,0,0,0-5.1-4.78,11.14,11.14,0,1,0,16,13.3C373.83,227,370.94,225.35,367.43,221.57Z"></path><path class="cls-9" d="M125,222.57a6.35,6.35,0,0,1-1.87-6.51c1.06-4.22-2-7.86-2-7.86,1.1,2.3,1.58,2.36.22,7.52C120,220.7,125,222.57,125,222.57Z"></path><path class="cls-10" d="M130,219.49c.68,2.65,2.24,3.36,2.24,3.36s-1.32-.95-.65-3.36c1-3.51-.3-5.26-.3-5.26C132,216.21,129.53,217.61,130,219.49Z"></path><path class="cls-11" d="M133,226.47a4.37,4.37,0,0,1-2.49,3.85c1.91-3.43-.77-8.27-3.08-9.52-3.79-2-2.47-5.46-2.47-5.46-2.48,2.34.48,3.34,2.25,8.38a5.13,5.13,0,0,1-2.61,6.69c1.93-2.09,1.67-5.22-.87-6.09-1.65-.57-6.38-3.49-4.72-5.87s1.31-5.95,1.31-5.95c0,2.63-4.31,3.8-4.55,6.21s3.34,3.37,4,5.52-1.75,3.76-3.56,4.4-3.56,1.3-3.77,4.83c-.24,3.94,5,4.35,6.47,5.52s1.12,2.15,1.12,2.15a1.91,1.91,0,0,1,1.73-.63,12.49,12.49,0,0,0,9.82-1.7C136.31,235.44,133,226.47,133,226.47Zm-10.87,13.37s.3-1.36-1.61-.39a5.09,5.09,0,0,0-1.23-4.14c-1.66-1.61-2.81-4.09-1.1-4.65s4-.52,4.2-2.59c0,0,.82,3.69-.84,5.17s.32,3,.32,3a1.56,1.56,0,0,1,.46,1.1v.35s2,.21,1.87-1.64c-.32-4.21,1.25-6.21,4.66-6.53,0,0-3.58.8-4.08,6.66-.13,1.53.74,1.08-.32,2.52,0,0,4-1.23,5.37-4C129.78,234.73,130.3,240.85,122.08,239.84Z"></path><path class="cls-12" d="M227.65,210.94s0-2.12,3.34-1.72a3.28,3.28,0,0,0-3.24-2.07,2.53,2.53,0,0,1-2.51,3.08S224.92,211.7,227.65,210.94Z"></path><path class="cls-13" d="M228.41,212.22s-.46.06-1.08.08l-.33.19a39.41,39.41,0,0,0-3.45,2.15c1.06.85,2.32,3,2.3,8.21,0,0-.63-5.23-4-6.93-1.05.81-2,1.64-2.94,2.46a11.38,11.38,0,0,1-.49,8c.64-4.25-.17-6.07-.77-6.82a45.75,45.75,0,0,0-6.82,8.33,70,70,0,0,1,4.26-7.5q.73-1.12,1.47-2.13c-1.39-1.82-5.09-.5-5.12-.48a5.08,5.08,0,0,1,5.86-.5,44.09,44.09,0,0,1,2.87-3.38c-.46-2.67-4.14-2.6-4.14-2.6,2.34-1,4.42.47,5.37,1.36.81-.78,1.56-1.45,2.24-2v-.13s-4-6.24-10.06-.46a16.33,16.33,0,0,0-3.46,10.64c.42,6.07-2.61,9.41-2.61,9.41s6.46,1,18.26-4.4S231.14,212.07,228.41,212.22Z"></path><path class="cls-14" d="M279.37,213.91a12,12,0,0,0-9.77-7.26l-1.16-7-1.15,7a11.72,11.72,0,0,0-3.64.9,12,12,0,0,0-7.29,10l-7,1.15,7,1.16a11.9,11.9,0,0,0,3.44,7.19,12.18,12.18,0,0,0,3.82,2.57,11.83,11.83,0,0,0,3.6.9l1.19,7.14,1.2-7.17a12,12,0,0,0,9.73-7.25,11.76,11.76,0,0,0,.86-3.33l7.25-1.21-7.22-1.19A12.1,12.1,0,0,0,279.37,213.91Zm-19.23-3.47,2.87,6-6.19,1A11.5,11.5,0,0,1,260.14,210.44ZM256.85,220l6.16,1-2.78,5.84A11.53,11.53,0,0,1,256.85,220Zm3.5,7,5.84-2.78,1,5.91A11.47,11.47,0,0,1,260.35,226.93Zm5.84-13.65-6-2.87a11.53,11.53,0,0,1,7.06-3.32Zm10.36-2.78-5.85,2.78-1-6.16A11.51,11.51,0,0,1,276.55,210.5ZM269.72,230l1-5.89,5.66,2.7A11.61,11.61,0,0,1,269.72,230Zm6.85-3.41L273.88,221l5.89-1A11.47,11.47,0,0,1,276.57,226.63Zm-2.69-10.17,2.78-5.85a11.56,11.56,0,0,1,3.14,6.83Z"></path><path class="cls-4" d="M373.7,109.53h0l.09-.13Z"></path><path class="cls-15" d="M76.72,127.27l-.45.56a2.78,2.78,0,0,0,0-.56c-.51-.13-.28-.23-.34-.31s-.33,0-.5-.54h.11c-.06,0-.11-.08-.17-.09v-.2c0,.06-.11.12-.11.19a2.4,2.4,0,0,1-.73-.3c0-.08-.22-.1-.61-.15v-.14l-.22,0a3.09,3.09,0,0,1-.12-.43l-.5-.62h.06a7.49,7.49,0,0,0-.84-.88c0-.07,0-.14,0-.15s-.12-.25-.17-.37-.06,0-.11-.09-.06-.07,0-.07c-.12-.17-.23-.36-.34-.53v.13c0-.07,0-.14,0-.21l-.45-1.26c-.08-.32-.15-.63-.23-1s-.14-.77-.22-1.15a1.62,1.62,0,0,0-.11-.58c0-.2-.07-.39-.11-.59v.15a10.22,10.22,0,0,1-.22-1.31,3,3,0,0,1-.12-1.15c0-.17-.07-.34-.11-.51s-.11-.63-.16-1a3.8,3.8,0,0,1-.06-1.42,3.22,3.22,0,0,0,.61-1.35l.39-.62.45-1.17h-.06a8.33,8.33,0,0,1,2.39-3.77,4.68,4.68,0,0,1,1.12-1.18l.28-.07-.17,0a6.9,6.9,0,0,1,4.06-1.39l1,.11a8.53,8.53,0,0,1,2.57.42c.05,0,.16,0,.33,0s.33,0,.72.1l.67,0a4.49,4.49,0,0,1,1.73.15c.61.15,4.74,1.09,5.35,1.41.17,0,.11.09.28.13a2,2,0,0,1,1.06,1.49c0,.19,0,.11,0,.3a6.15,6.15,0,0,0-.17,1c0,.06,0,.13.06.2a.79.79,0,0,1,.28,1c0,.18.11.34.17.79a5.17,5.17,0,0,1,.11.77,9.37,9.37,0,0,0-.55,1.78c0,.31-.16.47-.56.46-.55.23-6.41-1.32-6.86-1.62H85a7.24,7.24,0,0,0-1.62-.32,2.78,2.78,0,0,0-1.17,0l-1.34.13h.06c-.17,0-.34.2-.5.23v-.06l-.67.27a.76.76,0,0,0-.39.79,1,1,0,0,0-.72.4h0c-.17.43-.39.86-.61,1.29v-.06a5.21,5.21,0,0,0-.33,1.83,5.44,5.44,0,0,0,.22,2.33c0,.07.06.22.06.28s-.06,0,0,.2a3.15,3.15,0,0,0,.39.74,5.2,5.2,0,0,0,1,1.29l.56.49h-.06a14.06,14.06,0,0,0,1.46,1c.16,0,.22.17.27.18.25.16.49.33.73.5a.43.43,0,0,1,.28.17c.17,0,.34.17.5.2l.79.37c.39.24.72.22,1,.46h0c.67.35,1.45.78,2.06,1.17s1.23.73,1.85,1.07a.15.15,0,0,1,.11.07H89A5.08,5.08,0,0,1,90.68,128c.36.4.71.8,1.07,1.19h-.06a5,5,0,0,1,1,1.23c.19.31.38.62.56.93s.27.61.4.91c.22.15.33.28.33.47a1.73,1.73,0,0,1,.23.77c.08.25.15.51.23.76l-.06-.07a4.72,4.72,0,0,1,.45,1.47,3.65,3.65,0,0,0,.12.57.81.81,0,0,1,0,.31h0a2.31,2.31,0,0,1,.11.56c0,.64,0,1.28,0,1.93a3.18,3.18,0,0,1-.28,1v.31c0,.18-.06.18,0,.37v.43c-.06.35-.11.7-.17,1.05s-.15.74-.22,1.11a6.12,6.12,0,0,1-1.72,3.08A12.21,12.21,0,0,1,91,147.76a8,8,0,0,1-1.84,1.06,3.68,3.68,0,0,0-.67.12,7.53,7.53,0,0,1-.9.12l-.95.18a3.24,3.24,0,0,1-.9.13c-.39,0-.56.06-1,0a12.61,12.61,0,0,1-1.62.12c-.28,0-.56-.07-.84-.07a2.59,2.59,0,0,0-.73-.07,9.36,9.36,0,0,1-2.35.18,1,1,0,0,1-.51.06,7.56,7.56,0,0,1-3.36-.57h.06c-1.4-.35-1.57-.63-1.62-1.94l-.12-.56v.07c-.07-.35-.15-.69-.22-1l.06.07c-.06-.16-.12-.33-.17-.49a4.31,4.31,0,0,1-.34-1.6,1.43,1.43,0,0,0,0-1.18v-.35l.45-1.15a6.88,6.88,0,0,0,1.84.3,3.85,3.85,0,0,0,1,.11l1.4.07a7.63,7.63,0,0,0,3,.22,1.33,1.33,0,0,1,.45.15l.34,0,.72-.1a6.51,6.51,0,0,0,1.46-.19,8.28,8.28,0,0,1,2-.17,1.08,1.08,0,0,0,1.06-.66c0-.06.06-.19.11-.44a4.29,4.29,0,0,0,.28-1.86c-.06-.71-.06-1.49-.06-2.33a1.62,1.62,0,0,0-.12-.84,5.62,5.62,0,0,0-.89-2,4.12,4.12,0,0,0-2.63-2,1.93,1.93,0,0,1-.62-.26c-.45-.37-1.4-.74-2.29-1.3l-.56-.33H80a1.53,1.53,0,0,1-.68-.55,1.27,1.27,0,0,1-.67-.14l-.67-.42c-.17,0-.28-.16-.44-.25v.07c-.17-.09-.06-.15-.23-.23Zm-5.64-5.75q-.09-.33,0-.21Zm3,2s-.11,0-.11.05H74S74.07,123.59,74.09,123.57Zm.62.15-.12-.08c-.11,0-.16,0-.11.12C74.48,123.69,74.54,123.7,74.71,123.72Zm.78.87v.06l-.06.06c.06,0,.06,0,.06.08V125l.11-.13a.6.6,0,0,0,.5.07l-.28-.38c0-.2,0-.68,0-.76-.28.1-.45.14-.39.15h-.12l-.22-.17v-.21a1.31,1.31,0,0,1-.11.12l-.22,0,.33.19a1.09,1.09,0,0,0,.28.65Zm-.34.77c-.11,0-.16,0-.22.25.5.06.84,0,1.23.23,0-.23.07-.45.11-.67a.37.37,0,0,0-.28.1c-.22-.1-.39-.12-.5,0v-.14c-.06.06-.06.07-.06,0Zm-.11-1.8c.06,0,.06,0,0-.07Zm.28,2.78c.06,0,.06,0,.06.08a.22.22,0,0,0-.11-.09Zm.11-1.63c0-.06-.05-.07-.05-.14a.25.25,0,0,0-.06.2Zm0,.41.06-.06V125a.63.63,0,0,0-.11.12Zm.45.95c0,.28,0,.28.28.11v-.07Zm1.23.29c0-.06,0-.06,0-.06S77.11,126.16,77.11,126.36Zm.56.48-.06-.28c-.11,0-.17,0-.11.26Zm0,.35L78,127l-.33-.18Z"></path><path class="cls-16" d="M120.53,116.79c-.17.2-.06.49,0,.72a1.48,1.48,0,0,1,.23.75,2,2,0,0,0,.34.93,8,8,0,0,1,.85,2.2,14.28,14.28,0,0,1,.63,2.92,2,2,0,0,1,.17,1.12c0,.22-.11.36-.11.59a7,7,0,0,1-.54,2.35,9,9,0,0,1-.84,1.41,1.76,1.76,0,0,0-.55,1.11,1.23,1.23,0,0,1-.61.89,1.73,1.73,0,0,0-.61.39l-.51.52a1.89,1.89,0,0,1-.44.35c-.39.26-.72.62-1.17.87a17.89,17.89,0,0,1-2.23,1c-.84.22-1.68.56-2.52.73a5.15,5.15,0,0,1-1.34.2,4.11,4.11,0,0,1-1.23.09,2.4,2.4,0,0,1-.73,0c-1.06,0-2,0-3.07-.1a.54.54,0,0,0-.34.28.93.93,0,0,0-.16.52c0,.88,0,1.77.06,2.71a23.28,23.28,0,0,1,.07,3.54c0,.71,0,1.48,0,2.24s.06,1.48.06,2.19a3.35,3.35,0,0,0,.29,1.35v.06c-.17.17-.34.18-.34.35-.16.42-.5.41-.72.47l-2.41.16a19.8,19.8,0,0,1-2,.05,11.42,11.42,0,0,0-2,.11h-.16c-.17,0-.28-.12-.34-.31a15.82,15.82,0,0,1-.23-2.87c0-.43,0-.86,0-1.29a.71.71,0,0,0-.17-.67s-.06-.07-.06-.25a2.31,2.31,0,0,1,.11-1.22c.06-.06.06-.18.06-.37a16.15,16.15,0,0,0,.1-1.7c0-.49.06-.92,0-1.47s.08-1.3.11-2-.06-1.22-.06-1.77.16-1.21.16-1.89a5,5,0,0,0-.12-1.53,1.86,1.86,0,0,1-.06-1.35,2.55,2.55,0,0,0,0-1.29,6.2,6.2,0,0,1,.1-2.31,1.67,1.67,0,0,0,0-1,3.27,3.27,0,0,1-.29-1.56,2.2,2.2,0,0,0-.05-.56c-.29-.83-.34-1.63-.63-2.41v-.18a2,2,0,0,0,0-.62c-.17-.45,0-1-.18-1.56,0-.07,0-.19.06-.48a9.34,9.34,0,0,1,.38-1,.62.62,0,0,0-.11-.69l-.28-.41c-.23-.72-.34-1.29-.51-1.87a1,1,0,0,1,0-.44,6.24,6.24,0,0,0-.18-1.39,5.47,5.47,0,0,1,.11-2.13c0-.3.22-.64.27-.94.06-.66.45-1,.67-1.64l.16-.15a4.62,4.62,0,0,1,.9-.37c.44-.1.89,0,1.33-.1s1,.08,1.62,0l.17,0a6.16,6.16,0,0,0,1.06.33,1.84,1.84,0,0,0,1.06,0,.82.82,0,0,1,.89.3.88.88,0,0,0,1.18.28l.72-.39a2.05,2.05,0,0,1,.5-.19c.39-.1.56,0,1,0a1.35,1.35,0,0,1,1.18.63,1.26,1.26,0,0,1,.33.29,1,1,0,0,0,1.06.37l.34-.11c.28-.12.56,0,.84-.13a1.11,1.11,0,0,1,1,.24l.34.18a17.32,17.32,0,0,1,3,1.66,2.37,2.37,0,0,1,.72.51c.28.22.51.48.79.75a4.87,4.87,0,0,0,1,1.16c.44.46.84.69.84,1.35a1.25,1.25,0,0,1,1,.65A1,1,0,0,1,120.53,116.79Zm-14.23,4.55c-.28,1.08-.1,2.28-.32,3.37-.06.35-.11.7-.17,1a1.17,1.17,0,0,0,.9,1.52,18.74,18.74,0,0,1,2.3.76,1.69,1.69,0,0,0,.95.28,1.27,1.27,0,0,0,1-.43c.39-.36.84-.54,1.28-.9a1.83,1.83,0,0,0,1-1c.17-.44.39-.75.56-1.19.16-.15.16-.38.22-.54a3.37,3.37,0,0,0,.11-.5c0-.22.16-.38.11-.55a2.75,2.75,0,0,0-.91-1.77l-.78-.73a1.27,1.27,0,0,0-1.07-.26,1.8,1.8,0,0,1-1-.31.69.69,0,0,0-.28-.21,1.44,1.44,0,0,0-1.07-.38c-.61,0-1-.09-1.62-.18a.77.77,0,0,0-.89.52c-.16.44-.16.86-.33,1.25h.06Z"></path><path class="cls-17" d="M125,114.67c0-.93.1-1.87.16-2.8a1,1,0,0,0,.55-.12.93.93,0,0,1,.67-.17l2,.33c.95.15,1.9.34,2.85.54.17,0,.17.08.34.11a7.68,7.68,0,0,0,1.4.47.58.58,0,0,1,.39.43l.18,1.28v.42a7,7,0,0,0-.22,1.43c0,.59-.06,1.18-.1,1.77-.05.79-.21,1.55-.26,2.33a16.87,16.87,0,0,0-.16,2.4,11.3,11.3,0,0,1,0,1.94c0,.89-.16,1.77-.16,2.66l-.15,1.67c0,.51,0,1,0,1.53a4.37,4.37,0,0,0,0,.89,11,11,0,0,1,.07,2.32c0,.16-.05.42-.05.68,0,.72,0,1.44,0,2.16a5.66,5.66,0,0,0-.11,1,1.24,1.24,0,0,1,.06.8c0,.16.06.32.06.47,0,.79.07,1.59,0,2.37a1.71,1.71,0,0,0,.28.85.35.35,0,0,0,.34.17,1.74,1.74,0,0,0,.89.14c1.29,0,2.41,0,3.59.06a19.35,19.35,0,0,1,2.91.39c.39.06.67.08.84-.08s.45-.13.61-.18c.45-.14.51,0,.51.42V144c.18,1,.24,1.82.41,2.79.17.46.06.91.23,1.32a.75.75,0,0,1-.21.76l-.67.45c-.4-.26-.68,0-1.12-.11l.33-.1-.78-.21a.09.09,0,0,0,0-.05l.56-.1c.12,0,.17-.1.17-.25a1.29,1.29,0,0,0-.61.1c-.28,0-.45.19-.73,0,0,.26-.17.41-.45.56-.22,0-.39-.26-.61-.26-.17.2,0,.31-.28.46,0-.16,0-.26-.06-.31-.22,0-.39.31-.56,0l-.17.05c-.16.41-.39.25-.61.25l-.17-.36c-.17.41-.17.46-.56.41-.05,0-.11-.05-.17-.05a2.12,2.12,0,0,0-.61,0,4.06,4.06,0,0,1-1.35.1h-3c-.28,0-.56-.06-.84-.06a4.47,4.47,0,0,1-.79.05,8.34,8.34,0,0,0-1.73,0,11,11,0,0,1-1.29,0c-.39,0-.39,0-.45-.44a13.4,13.4,0,0,0-.51-1.57,6.5,6.5,0,0,1-.23-.87,1.13,1.13,0,0,0-.4-.92.72.72,0,0,1-.12-1.09,1.12,1.12,0,0,0,.22-1,2.6,2.6,0,0,1,0-1.3,3.42,3.42,0,0,0,.06-.81,1.16,1.16,0,0,0-.23-.82v-.06c0-.05.05-.05.05-.1A.56.56,0,0,1,125,140c0-.16-.06-.16-.06-.32a9.66,9.66,0,0,1-.23-1.75c0-.27-.06-.49-.06-.88a1.21,1.21,0,0,0,.56.09c.22-.37,0-.75,0-1.19,0,.43-.39.35-.78.49a.65.65,0,0,1-.06-.33,4.48,4.48,0,0,1-.11-.66c0-.38-.06-.38.33-.3.23,0,.39.08.62-.07,0-.16,0-.33,0-.49s.06-.37.06-.53a4,4,0,0,0,.16-.75,3.4,3.4,0,0,0,.11-.86c0-.21,0-.43,0-.64a1.92,1.92,0,0,1,0-.59,1.89,1.89,0,0,1,0-.6c0-.18,0-.36,0-.55a7.05,7.05,0,0,1,.1-2.64,2.57,2.57,0,0,0-.12-.71,3.23,3.23,0,0,1-.11-1.2,4.63,4.63,0,0,0,0-1.74,10.08,10.08,0,0,1-.07-1.19v-1.3a2.5,2.5,0,0,1-.12-.94,1,1,0,0,0,0-.6,3.5,3.5,0,0,1-.07-1.84,3.81,3.81,0,0,0,.27-1.59,6.59,6.59,0,0,1-.11-.78,1.73,1.73,0,0,0-.17-.72A.38.38,0,0,0,125,114.67Zm.24,22.72h-.12c0,.15,0,.29,0,.44h.11ZM137.6,149a.41.41,0,0,0,.17.11c.06,0,0,0,0-.06l-.22-.1Z"></path><path class="cls-18" d="M154.51,139.81c-.16,1.11-.15,2.09-.31,3.1a4.79,4.79,0,0,0-.06.93,12.79,12.79,0,0,0-.26,2,29.24,29.24,0,0,1-.43,3.06.4.4,0,0,1-.45.44.36.36,0,0,0-.05.24c-.06,0-.06,0-.11,0a4.59,4.59,0,0,1-1.13-.25,7.87,7.87,0,0,0-1.45-.2l-3.53-.32a4,4,0,0,1-.84-.06c-.28,0-.4-.1-.4-.36a8.44,8.44,0,0,1,0-1.75,8.57,8.57,0,0,0-.06-1.1,3.92,3.92,0,0,0,.1-.7,7,7,0,0,0,.16-1.25c0-1.35,0-2.71.09-4.11s.1-2.9.09-4.3a.46.46,0,0,1,.39-.43l.22,0a.75.75,0,0,0-.11-.16.74.74,0,0,1-.4-.72c0-.6,0-1.25,0-1.85,0-.12,0-.23,0-.35,0-1.15.1-2.35.1-3.6,0-.71,0-1.43,0-2.15a10.29,10.29,0,0,1,.05-1.24c0-.65.05-1.25.05-1.85s0-1.13,0-1.7a1.65,1.65,0,0,1,.05-.64c0-.2-.06-.31-.06-.51s0-.3.05-.34.06-.19.06-.34c0-.55-.12-1-.07-1.56,0-.15.07-.29.11-.44,0-.35,0-.3-.17-.52.28-.52.28-.51-.12-.81a3.91,3.91,0,0,1-.05.84.63.63,0,0,1-.34-.44c-.05-.16-.11-.21-.11-.26-.17-.28-.23-.48-.06-.66a.87.87,0,0,1,.28-.32,1.28,1.28,0,0,1,.28.54c.23-.12.39-.15.33-.51a1.08,1.08,0,0,1,0-.4c-.06-.21.06-.29.22-.27a1,1,0,0,1,.45,0,8,8,0,0,0,2.08.26l2,.24c.51.11,1,.23,1.46.28.17.06.34,0,.5.11a.51.51,0,0,1,.34.38l.18,1.67c.06.15,0,.25,0,.44a6.67,6.67,0,0,0,.12.75v1.17c0,.79,0,1.59,0,2.38,0,.47,0,.95,0,1.42s.06.93.06,1.46c0,.72,0,1.43,0,2.15a13.79,13.79,0,0,1-.16,2.13,5.89,5.89,0,0,0,.06.93,1.17,1.17,0,0,1-.05.77v.1a20,20,0,0,1,0,2.05,4.54,4.54,0,0,1,0,1.56v.49c0,.55,0,1.1,0,1.65,0,.35-.05.63-.05,1v1.12c0,.14.06.2.06.34a.94.94,0,0,1,.34-.28c.22,0,.33,0,.33.21A.89.89,0,0,1,154.51,139.81Zm-8.22-7.27v0l0-.05-.12.09a.21.21,0,0,0,.17.06Zm.35,1.22a.55.55,0,0,1-.28.14C146.53,134,146.64,134,146.64,133.76Zm.05-.54h.05c.17.16.06.21.23.36a.44.44,0,0,0,0-.39.46.46,0,0,1-.23,0h-.05c-.17,0-.23-.17-.23-.42C146.3,133.2,146.3,133.24,146.69,133.22Zm-.29-1c.23.27.45,0,.68.14,0-.24-.12-.3-.28-.26Zm.29.62h-.12l.12.11.05-.05S146.74,132.87,146.69,132.87Zm.18,1.91v-.05l-.17-.21a.37.37,0,0,1,.05-.25.26.26,0,0,1-.17.09s.06.11.12.16v.25l.11.1A.12.12,0,0,1,146.87,134.78Zm-.14-3.85-.11.09.11.1c0-.14.06-.09.06-.14Zm.35,2.76-.27.28c.05.06.05.06.05.11a.41.41,0,0,1,.28,0,.31.31,0,0,0,.11-.24C147.25,133.75,147.2,133.7,147.08,133.69Zm.07,2.05.22-.24-.05-.05a.26.26,0,0,1-.11-.16,2.57,2.57,0,0,0-.11.4Zm4.37.62c.29.16.51.17.68-.07-.17-.15-.12-.24-.29-.26s-.28-.11-.39-.31-.06,0-.23-.16c0,.05,0,.1-.11.09.28.16.12.2.12.35l.22.16Zm0-1.33c-.06,0-.12.05-.12.09v0c0,.06,0,.06.06.06l.06,0V135Z"></path><path class="cls-19" d="M178.21,119.72l-.06-.14c0-.3,0-.6,0-.9l2.53.19c.39.07.78.13,1.18.18l1.74.13.67.14.12.82.15,7.07a2.22,2.22,0,0,1,0,.58v.31a5.35,5.35,0,0,1-.1,2.1c-.06,0-.06.13-.06.31s.18.45,0,.76a2.21,2.21,0,0,0,0,.63c0,.22.12.54-.16.75v.22c0,.39-.07.77-.11,1.16a5,5,0,0,0-.16,1.38c0,.47,0,.93,0,1.39s-.06.63-.05,1,.06.81.06,1.17-.05.67-.05,1a1.27,1.27,0,0,1-.11.49c0,.14.17.31,0,.49a.84.84,0,0,0-.05.54v.36c0,.13.06.27.06.4a1.22,1.22,0,0,0,.11.49v.32c-.16.22-.22.31-.16.35a4.71,4.71,0,0,0,.23,1,1.93,1.93,0,0,0,.06.67c0,.32.11.49.11.58,0,.32-.11.63-.11.94s0,.72,0,1.08a1.21,1.21,0,0,1,0,.44c0,.38,0,.75-.05,1.12a1.91,1.91,0,0,0-.11.94c.17.32-.11.41-.28.54s-.39-.13-.61,0a.82.82,0,0,0-.34.09,4.56,4.56,0,0,1-.78.22,2.67,2.67,0,0,1-1.35-.45v0a3.22,3.22,0,0,0-1.29-.19,2.61,2.61,0,0,0-.56,0,8.45,8.45,0,0,1-1.12.09c-.39-.05-.84.09-1.12-.05s-.61,0-.9-.18l-.72-.14c-.51-.14-.68-.19-.85-.69a2.52,2.52,0,0,0-.23-1.15c-.23-.5-.57-1.06-.79-1.62l-.51-1.34a10.92,10.92,0,0,1-.4-1l-.4-.93-.45-1a8.37,8.37,0,0,0-.4-.84,3.66,3.66,0,0,0-.45-.94c-.06-.12-.12-.25-.17-.37a3.6,3.6,0,0,0-.4-1.13c-.12-.17-.23-.35-.34-.52s-.23-.19-.28-.34a1.47,1.47,0,0,1-.4-.94,9.28,9.28,0,0,0-.23-.94,2.79,2.79,0,0,0-.45-1.14,1.85,1.85,0,0,1-.35-.86c-.05-.11-.11-.22-.17-.33s-.22-.42-.34-.63-.06-.61-.45-.81v-.05a.14.14,0,0,0-.06-.1l-.45-1.15c-.12-.33-.28-.49-.56-.45s-.39.21-.28.54.06.38.06.57c0,.52.06,1,.06,1.56a9.09,9.09,0,0,1,.12,1.27c0,.23-.05.42-.05.65a9.88,9.88,0,0,1-.16,1.88c0,.22,0,.43,0,.65s-.11.52-.11.85c0,.51.12,1,.12,1.55,0,.36,0,.72,0,1.08s.2,6.3.21,7.33c.06.29.11.57.17.85l-.5.61-.73-.19-.72.14-1.29-.15-.79.14-1.51-.1-.17-.19c-.06-.22-.11-.45-.17-.67V149c0-2.64,0-5.28-.05-7.93,0-.62,0-1.24,0-1.86,0-.15,0-.24.06-.29a.46.46,0,0,0,0-.38v-.38c0-.58,0-1.29.1-2,0-.53,0-1,0-1.62,0-.2.05-.38.05-.57l-.12-1.54v-.19l-.12-.77v-.91c0-.14.05-.23.05-.47v-.39a1.18,1.18,0,0,1,0-.62c.06,0,.06,0,.06-.18s0-.36,0-.53c0,0,0-.05,0-.15s0,0-.06-.1c.17-.18,0-.37,0-.52s.06-.28.06-.42v0l-.12-.73c-.08-.61-.16-1.22-.23-1.83s-.07-1-.07-1.49c0-.7,0-1.4,0-2.1,0-.24-.06-.53-.06-.87s0-.43-.06-.77a7,7,0,0,1-.07-1.54c0-.24.06-.38.22-.4l.68.07c.5,0,1,.14,1.4.19s.9.13,1.29.17.73.22,1.12.07l.05,0,.85.08a3.78,3.78,0,0,0,1.23.21c.17-.12.45,0,.67-.07a1.7,1.7,0,0,0,.51,0l.95-.1.34,0c.16,0,.33.22.39.46a2,2,0,0,0,.12.61c0,.18.11.34.11.48a1.55,1.55,0,0,0,.34,1.09c0,.14.12.2.12.34a1.3,1.3,0,0,0,.23.8c.07.24.15.48.23.72a5.48,5.48,0,0,1,.45,1.33,3.35,3.35,0,0,0,.23.43,11.61,11.61,0,0,0,.34,1.27l.57,1.43a5.19,5.19,0,0,0,.34.71c.11.27.23.54.34.8s.11.26.17.38l.23.57a.57.57,0,0,1,.22.47,3.28,3.28,0,0,1,.29.71l.28.84c.17.14.12.33.29.38s.28.2.28.38-.05.55.34.57c.05,0,.05,0,.05,0a1.54,1.54,0,0,1,.17.19,1.51,1.51,0,0,1,.4,1.07c0,.5.18.88.18,1.28,0,.14.05.15.05.19a1.16,1.16,0,0,1,.23.69s0,0,.06.1a4,4,0,0,1,.4,1.11v0l.17.24.39.74a1,1,0,0,0,.4.15c.22,0,.33-.26.33-.4,0-.37.05-.68.05-1a4.52,4.52,0,0,1,0-.82,4.59,4.59,0,0,0,.11-.95s0-.18,0-.4v-.5a1.06,1.06,0,0,0,.11-.36c0-.41,0-.82,0-1.23a3.05,3.05,0,0,0,0-1,.85.85,0,0,1,0-.5,4.46,4.46,0,0,0,.05-.86c-.06-.36-.17-.64,0-.95a15.06,15.06,0,0,1,.21-2.26C178.14,127.16,178.22,121.72,178.21,119.72Z"></path><path class="cls-20" d="M205.93,150l-.79-.17-.11-.3c-.39,0-.67-.18-1.07.12v-.21a24.05,24.05,0,0,0-2.52-.09c-.39,0-.67-.05-1.06-.05a6.79,6.79,0,0,0-.9,0,.32.32,0,0,1-.33-.21l-.24-2.26c-.06-.83-.12-1.61-.12-2.44a12.38,12.38,0,0,1-.23-2c0-.35-.12-.7-.12-1a4.74,4.74,0,0,1-.06-.92v-1.47s-.06-.09-.06-.14a9.86,9.86,0,0,0-.12-1.74,11.21,11.21,0,0,1,.05-1.3c.17-.17.05-.39-.11-.57a2.79,2.79,0,0,1-.29-1.27c0-.48-.06-.79-.06-1.26a6,6,0,0,1-.23-1.36c0-.13.05-.17.05-.3a2.29,2.29,0,0,0-.17-.88,2.59,2.59,0,0,1-.23-.75,1.46,1.46,0,0,0-.34-.93.9.9,0,0,1-.23-1c.17-.39-.11-.84-.73-1a7.66,7.66,0,0,0-1.74-.3c-.45-.06-.95,0-1.4-.07-.28,0-.51-.07-.79-.08a10.22,10.22,0,0,0-1.23-.11c-.23,0-.4-.06-.56-.07s-.12,0-.23-.06a18.28,18.28,0,0,0-2.07.07c-.51,0-.73-.18-.74-.53,0-.67-.06-1.25-.06-1.91v-.54a3.14,3.14,0,0,0-.29-.77.45.45,0,0,1,.17-.75.41.41,0,0,0,.16-.34,4.18,4.18,0,0,1,.11-.79c0-.22.11-.35.39-.38a3.49,3.49,0,0,1,1.18,0c.28.06.56.17,1,.24.11,0,.16,0,.22,0a3,3,0,0,1,1.07-.11l1.85-.06a5.29,5.29,0,0,1,.89,0l2.42.14c1.07,0,2,0,3.09.09l1,0c.84,0,1.51,0,2.35.08a35.78,35.78,0,0,1,4.27.15l2.08.09a4.74,4.74,0,0,0,1.35,0,4.26,4.26,0,0,1,.67,0c.51,0,1,0,1.57,0a7,7,0,0,1,2.31.21c.39.06.56.15.84.2s.51.31.67.49-.05.42-.22.58-.11.08-.28.21a.66.66,0,0,0-.34.49.5.5,0,0,0,.23.48,1.2,1.2,0,0,1,.39.39.6.6,0,0,1-.27.92c-.51.2-.45.58-.62.92,0,.17,0,.34,0,.51s-.17.37-.51.41a.55.55,0,0,0-.45.24c-.16.12-.28.12-.33,0-.17-.3-.45-.27-.73-.32-.84,0-1.52-.09-2.36-.12-.51-.05-.95,0-1.46-.05-.28,0-.56,0-.84,0a4.37,4.37,0,0,0-1.57.16,1,1,0,0,0-.34.16,1.38,1.38,0,0,0-.5.79c-.17.64-.11,1.2-.27,1.76,0,.47-.11.94-.11,1.45-.06.09-.06.17,0,.22,0,.64.11,1.2.12,1.76a7.07,7.07,0,0,1,0,1v.95c0,.17.06.3.17.34s.23.23.06.35c-.28.3-.33.55-.16.81V136a1.73,1.73,0,0,0,0,.56,5.81,5.81,0,0,1,.12,1.64c0,.38.06.77.06,1.16a15.5,15.5,0,0,0,0,1.67c0,.36,0,.72,0,1.07a1.55,1.55,0,0,1,0,.48.77.77,0,0,0,.17.51,1.22,1.22,0,0,1,.11.26,2.77,2.77,0,0,1,.23.91.59.59,0,0,0,.28.26c.17,0,.45.09.51.3s0,.47-.17.6a1.28,1.28,0,0,0-.39,1.28c0,.24,0,.49,0,.73v1.33a.48.48,0,0,1-.17.51,1.57,1.57,0,0,0-.39.35c-.16.12-.16.21-.39.08C206,149.79,206,149.92,205.93,150Z"></path><path class="cls-21" d="M224.07,149.52a.71.71,0,0,0-.34,0,5.43,5.43,0,0,0-3.08-.22,2.24,2.24,0,0,1-.67,0,6.85,6.85,0,0,1-.9,0,1.92,1.92,0,0,1-.39-.08c-.18-.12-.37-.23-.56-.34a.43.43,0,0,1-.28-.55l.5-1.4a7.23,7.23,0,0,0,.33-2.19c.06-.81,0-1.61,0-2.46a3,3,0,0,0-.17-1.39.85.85,0,0,1-.06-.89,3.66,3.66,0,0,0,.22-2,9.85,9.85,0,0,1-.17-1.18c0-.63-.23-1.28,0-1.91a7.54,7.54,0,0,1,.28-2.74c0-.67.22-1.31.27-2a.75.75,0,0,0-.17-.81c-.39-.3-.28-.42,0-.76a1.35,1.35,0,0,0,.33-.58,9.83,9.83,0,0,0-.07-3.42,13.57,13.57,0,0,1,0-1.44c0-.3-.12-.47,0-.76a3.47,3.47,0,0,0,.28-1,.39.39,0,0,1,.39-.41,5.29,5.29,0,0,1,1.18-.09c1,0,1.85.18,2.81.07a2,2,0,0,1,.5,0c.51,0,1.07.11,1.58.12s1.06,0,1.68,0a7.79,7.79,0,0,0,1.07-.07,4.17,4.17,0,0,1,1.29,0,8.52,8.52,0,0,0,2.08,0,3.86,3.86,0,0,1,1.68.11,5.61,5.61,0,0,0,1.46.14,6.72,6.72,0,0,1,2.25-.06,2.13,2.13,0,0,0,.9.09,4.25,4.25,0,0,1,1.46.09,2.07,2.07,0,0,0,.28,0c.67,0,1.4,0,2.08.05s.84.22.84.67a7,7,0,0,1-.11,1.88,8.22,8.22,0,0,0-.34,1.71c0,.5-.17,1-.22,1.55-.06.26-.11.52-.17.79a.7.7,0,0,1-.22.25,2.75,2.75,0,0,1-1.13.12,15.64,15.64,0,0,0-1.91-.26,27.38,27.38,0,0,0-3.14-.1h-1a7.61,7.61,0,0,1-1.63-.18,10.85,10.85,0,0,0-2.13-.19,12.16,12.16,0,0,0-1.35,0c-.61.08-1,.37-1,.83a1.75,1.75,0,0,0-.11,1.38c.06,0,.06.13.06.21,0,.6-.07,1.2-.11,1.8a.9.9,0,0,0,.11.34c.17.46.68.59,1.18.64,1,.13,1.85.19,2.92.24a12.22,12.22,0,0,1,3.25.48c.51.13,1,.17,1.58.3.84.13,1.51.17,2.35.34.51,0,.73.25.62.63a.87.87,0,0,0,.05.67.44.44,0,0,1,.06.46.82.82,0,0,0,.23.92c.07.08.15.16.22.25a.76.76,0,0,1-.11,1.12c-.06.05-.06.09-.06.17l1.4.13a7,7,0,0,1,1.29.12,1,1,0,0,1-.5.13,17.2,17.2,0,0,1-2-.17,2,2,0,0,0-1,.12c-.22.13-.39.13-.62.25a1.88,1.88,0,0,1-1.23.17l-2.75-.35a2.83,2.83,0,0,1-.61-.17,7.26,7.26,0,0,0-3-.68h-.16a2.08,2.08,0,0,0-2.19.79.77.77,0,0,1-.22.33,1.47,1.47,0,0,0-.39,1V141a1.06,1.06,0,0,0,.17,1s0,.17,0,.29a1.92,1.92,0,0,0,.73,1.18,1.94,1.94,0,0,0,1.41.47c.84,0,1.68,0,2.52-.08.45,0,.84,0,1.29,0a5,5,0,0,1,.78,0,5.08,5.08,0,0,0,1.35,0c1.28-.12,2.57-.24,3.86-.29a.85.85,0,0,1,.45,0,.47.47,0,0,1,.45.38,3.1,3.1,0,0,0,.06,1.25c.05.63-.23,1.21.05,1.84-.05,0-.06,0-.05,0v.08a10.41,10.41,0,0,0-.06,2.3c.06.25-.11.37-.5.38h-.28c-.62-.05-1.12-.13-1.74-.13a3.76,3.76,0,0,0-1.18,0,26.6,26.6,0,0,1-3-.08c-.06,0-.23,0-.28,0-.4,0-.68-.09-.84-.09-.62,0-1.07.05-1.68,0a5.34,5.34,0,0,0-2.3.25c.17.21.17.38-.06.5s-.39.09-.67-.12a1.13,1.13,0,0,1-.33-.55.44.44,0,0,0-.45-.25c-.73,0-1.52,0-2.24,0h-.06c-.34,0-.45.2-.28.42l.39.33a4,4,0,0,1-1.51-.34C224.63,149.65,224.35,149.65,224.07,149.52Zm17.36-.49c-.28,0-.45,0-.39.17s.17.17.22.29.12,0,.17,0Z"></path><path class="cls-22" d="M267.79,133.1c0,.17-.28.39-.45.52l-.16.13a.38.38,0,0,1-.4-.12c-.16-.12-.39,0-.22.17a.32.32,0,0,1,.22.08s.11.21-.17.26c0-.13-.05-.21-.05-.34h-.34c-.05,0-.17,0-.17-.12s.06-.09.17-.17c-.28-.08-.39,0-.39.13a.31.31,0,0,0-.11-.21s0,0-.06,0v0c0,.13-.17.09-.17.22a.33.33,0,0,0-.16-.09h-.12a.24.24,0,0,1,.11.21.69.69,0,0,0-.33,0c.05.13.17.21.45.29a.39.39,0,0,0-.23,0,.62.62,0,0,1,.28.08h.11l.12-.08c-.06,0-.06,0-.23,0l-.05,0v0c0-.21.11-.3.39-.3h.39c.17.13.17.29.23.42h.05c.06,0,.06,0,.06-.08v.08h.05c-.16.05-.22.13-.39.17,0,0,0,0-.06,0s-.11-.21-.11-.25a.87.87,0,0,0-.39.18v.12c.17.12.22.08-.17.38h-.28c.17.12.17.25-.06.38l-.56.42c-.28.18-.17.3-.11.47l.5.62c0,.13-.17.09-.17.22.17,0,.17,0,.34,0s0,.13.17.3h-.17c.06,0,.28.12.34.25h-.28a.1.1,0,0,0,0,.17c.16.08.28.21.22.33s0,.13.05.17a1.09,1.09,0,0,1,.17.13c0,.17.17.25.34.29h-.17a.22.22,0,0,0-.11,0h-.06c0,.08,0,.12.06.12s.17.21.17.26c.16.12.11.33.16.37s.39.08.56.21l.28-.22c0,.21.28.38.11.59l-.39-.25v0c.17.12.11.25.28.37.17,0,.28-.08.28-.13a.24.24,0,0,0,.28.25v.3c.39,0,.34.17.39.29a.12.12,0,0,0,.11.13,1,1,0,0,1,.23.63s0,0,.05.08.06,0,.12,0,.05,0,.05.13c.23,0,.34.12.28.33,0,0-.11.13.06.26v-.21h.11c.05,0,.05.13.05.26.17.08.23.16.23.21s-.06,0-.23,0v.09a.7.7,0,0,0,.34-.09c.06.13,0,.25.17.38,0,0,.05.12.16.25s.17.25,0,.3c.06,0,.23,0,.23.12a1,1,0,0,1,.33.38c0,.13.11.16.17.29a3.4,3.4,0,0,1,.56.76.6.6,0,0,0,.11.34c.28,0,.22.25.39.38-.17.3-.28-.13-.5,0,0,.21.16.3.5.17a.31.31,0,0,1,.22.21s.34.12.17.34h-.22c.05-.3,0-.43-.28-.42l-.06.08-.05,0h.05l.39.72a1.85,1.85,0,0,1,.34.21c-.17,0-.4,0-.34.26h.06a.19.19,0,0,0,.11,0s.05-.13.05-.17h.12c-.4.29,0,.38.16.51l.17.16c-.06.05-.17,0-.17.13s-.11,0-.11,0v0h-.39c-.06.17.17.21.22.21s.17.17.11.21v.3a2.68,2.68,0,0,1,.56-.43c.06.09.06.21-.11.38a.47.47,0,0,0,.28.05H273a.23.23,0,0,0,.16.21.82.82,0,0,0-.33-.09c-.17.13-.17.22,0,.26s.11-.09.11-.13a.53.53,0,0,0,.22,0c.08.12.15.25.23.38s.11,0,.17,0-.06.21-.23.09h-.17c-.17,0-.33-.08-.39,0s-.11,0-.17,0c-.22-.09-.33-.09-.39,0h-1.12c-.39,0-.61-.13-1,0a4.51,4.51,0,0,1-.84,0H267c-.61,0-1.29-.09-2-.09a.44.44,0,0,1-.39-.16l-.56-1a2.17,2.17,0,0,0-.33-.76c-.17-.29-.45-.54-.67-.88a1.76,1.76,0,0,0-.39-.71l-.51-.75a2.62,2.62,0,0,1-.28-.38c-.16-.37-.5-.67-.67-1a1.63,1.63,0,0,0-.33-.5.61.61,0,0,1-.23-.33c-.16-.25-.33-.5-.5-.75,0-.09-.06-.13-.17-.17a3.64,3.64,0,0,0-.72-1.25,2.84,2.84,0,0,0-.73-1c-.17-.13-.11-.25-.28-.38l-1.12-1.37c-.22-.21-.34-.46-.62-.75,0-.13-.22-.17-.28-.21a1.35,1.35,0,0,0-.84-.62c0-.13-.39-.13-.44-.08s-.29.21-.29.33a8.16,8.16,0,0,0-.28,1.51c0,.13-.11.17-.11.29h-.17v.25a1.17,1.17,0,0,0-.39,0V139a.65.65,0,0,0,.56-.17c0,.21-.11.42.11.59a.52.52,0,0,0-.28.13h.06v.5l-.06,0h-.22l.22-.13c-.17-.13-.22-.21-.22-.25s-.17,0-.17.13,0,.12.17.25c0,0,0,0,.05.08s0,0,.06,0c.28,0,.11.17.28.38a.1.1,0,0,1-.11-.09v0a.13.13,0,0,0-.06.13v.12s0,0,.06.09c-.17.12-.28.08-.4-.09-.17.13-.22.21-.22.34h.17s0,0,0,.12a.2.2,0,0,0,.11,0v-.21h.4a5.43,5.43,0,0,0-.17,1.38,1.27,1.27,0,0,1-.51.13c0,.29.23.08.4.12,0,.13-.12.09-.12.13h-.28a1.19,1.19,0,0,1,.28.25h-.11c-.06,0-.17,0-.22,0s.05.12.05.17,0,.08-.17.08v.29l-.28-.16-.11,0c.17.21.17.34.39.54v-.21l.12.09h.16s0,0,0-.09-.06,0-.06,0-.11-.16-.17-.17l.12,0a.68.68,0,0,1,.05-.33.52.52,0,0,0,.28-.05,4.72,4.72,0,0,1-.17,1,.56.56,0,0,1-.16.46.1.1,0,0,0,.05,0c0,.21-.06.42-.06.63a2.33,2.33,0,0,0,.06.25c0,.12-.05.13-.06.25a.38.38,0,0,1-.11.46v.17c-.11.12,0,.2.11.2a1.62,1.62,0,0,1-.17.88c0,.13.4.21,0,.34v1c-.22,0-.5-.29-.56,0-.17,0-.16,0-.39,0v.17a.72.72,0,0,1-.45.12c-.39,0-.84.09-1.23.09s-.45,0-.62.12a3.14,3.14,0,0,0-.61,0c-.62.12-1.18.08-1.85.21a15.43,15.43,0,0,0-1.91.12c-.27,0-.39-.08-.39-.25.17-.29,0-.46,0-.75,0-.12.12-.08.12-.21v-2.13a4.86,4.86,0,0,1,.16-1.17c0-.29.12-.5.12-.79a.21.21,0,0,0,.11-.17c-.17-.21,0-.46,0-.66s0-.25,0-.3a2.83,2.83,0,0,1,.12-1.21c0-.37.05-.63.05-.91a1.31,1.31,0,0,1,.11-.8,4.06,4.06,0,0,0,.06-.87c0-.3.17-.5.23-.84,0-.16-.06-.29-.06-.46a8.66,8.66,0,0,0,.06-1.29v-1a1.73,1.73,0,0,1,.11-.67,7.73,7.73,0,0,0,.06-1,2.73,2.73,0,0,0,.11-1.13v-2c0-.63-.11-1.09-.11-1.71,0-.37.11-.88.11-1.25v-.63c0-.46-.11-.92-.11-1.42a1.33,1.33,0,0,1,.17-.42v-.25a3.67,3.67,0,0,0-.17-1v-.08c.17-.38,0-.75,0-1.13v-.87c0-.29-.06-.51.11-.71a1.3,1.3,0,0,0,.06-.25.35.35,0,0,0,.11-.25c0-.09.11-.17.28-.26a2,2,0,0,0,.79-.12h.22a1.67,1.67,0,0,0,1.12.08h.17c.17,0,.51,0,.68,0a.41.41,0,0,0,.5-.13l.17-.13-.11.09v0c-.06,0,0,.12.17.21.5,0,1.06,0,1.51,0a3.29,3.29,0,0,1,.73.08,7.05,7.05,0,0,0,1,0,2.78,2.78,0,0,0,.67-.09,2,2,0,0,1,.5,0,5.46,5.46,0,0,1,.57.24h.22c.45,0,1-.06,1.4-.06a2.26,2.26,0,0,1,.9-.1c.12,0,.17,0,.17-.05a2.56,2.56,0,0,1,.51-.34c.06,0,.11,0,.17-.13.17.13.17.21.11.25.17,0,.22-.13.39-.17s.23-.09.23,0,.11.13.33.12a1.5,1.5,0,0,1,.4,0l-.06,0v.08s0,0,.06.08a.25.25,0,0,0,.17,0l.16-.13c.17-.13.12-.08.17-.21v.13c-.05.12,0,.2.17.2h.67a1.75,1.75,0,0,1,.74.11,4.47,4.47,0,0,1,1.06.23,2,2,0,0,1,.4-.1.72.72,0,0,0,.22.25c.17,0,.11-.13.28-.17a.31.31,0,0,1,.28.11c.17,0,.17.13.17-.08l.11.08v.17c.17,0,.17,0,.39-.06s.17.13.34.12a.85.85,0,0,1,.68,0,1.21,1.21,0,0,1,.78.14c.28,0,.51,0,.67.11a7.25,7.25,0,0,0,1.24.31.86.86,0,0,0,.84-.2c0-.08.06-.13.23-.17.05.12.05.25,0,.29s-.17.26-.34.39c0,.05,0,.05.05,0l.12.08c-.17.22-.12.47.16.76.08.28.15.56.23.84.16,0,.11.13.16.25.23.29,0,.59.23.88,0,0-.12.17-.12.3a2.38,2.38,0,0,1,.11,1.1.6.6,0,0,1-.11.51c0,.38-.12.81-.12,1.1a3.2,3.2,0,0,1-.34,1c-.22.38-.39.77-.56,1.11a1.33,1.33,0,0,1-.4.64v.13c0,.29-.28.47-.33.77,0,0-.34.13-.4.26s-.05.08-.17,0V132a2.44,2.44,0,0,0,.23-.46v-.13c-.06.13-.34.13-.34.34s-.05.22-.05.34a.25.25,0,0,0-.17.26,1.1,1.1,0,0,0-.4.26v.12h.17c0-.12,0-.17.06-.17a.24.24,0,0,0,.17-.21c.17,0,.22.2.05.46a.71.71,0,0,1-.39.18c-.06,0-.17.08-.23.08V133h-.05c-.06,0-.17.05-.23.05s-.16.21-.33.21-.06,0,0,0,.05.13.11.13l.06.08Zm-16.22,9.83v.25h.06l.06,0,.05,0a.2.2,0,0,0-.11-.17Zm.73.58v.25c.17-.12.34-.08.4-.12s0-.13-.06-.13-.22-.21-.17-.33A.42.42,0,0,0,252.3,143.51Zm.4-.46a.51.51,0,0,0,.11-.25c.05.13.05.25,0,.29s-.06.09-.06.09l-.05,0c.16.13.11.21.16.33.17-.12.12-.25.17-.37s.11-.25.17-.38c-.22,0-.5-.25-.78-.12C252.47,142.8,252.64,142.85,252.7,143.05Zm-.06-.5c0-.12.06-.08.06-.12h.16v0H253l-.06,0s0,0,.06,0,0,0,.05,0h.11a.65.65,0,0,1,.28-.12c0-.09,0-.13,0-.13H253s-.06-.08-.17-.16a.27.27,0,0,1-.17,0Zm.06-1.25.28.12c.17-.21.16-.38-.11-.46,0,.09,0,.13-.06.13s.17.08.22.08A.51.51,0,0,0,252.7,141.3Zm.45.75s0,0,0-.08a.45.45,0,0,0-.5.08Zm-.29,5.85s0,0,.06.08.05.05.11.05h.11c0-.17-.11-.29-.11-.42C252.86,147.65,252.8,147.73,252.86,147.9Zm.57-7.82a1,1,0,0,0-.4-.12s-.05.12-.16.25C253,140.21,253,140.21,253.43,140.08Zm.44,1.38v0c-.16,0-.11.17-.16.17a.52.52,0,0,1-.34-.13v.38a1.26,1.26,0,0,1-.34-.21c-.05.17,0,.25.17.25a.59.59,0,0,0,.34-.12v0a1.14,1.14,0,0,0,.45.17A.7.7,0,0,0,253.87,141.46Zm-.73,5a.67.67,0,0,1,.06-.38c-.39.13,0,.25-.17.38Zm.45-5.35a.39.39,0,0,1,.17.2H254s.11,0,.11,0v0c-.23-.12-.39-.17-.51-.12-.05-.13-.16-.13-.39,0,.17,0,.17.08.23.08s-.06,0-.06.13h.06s.11,0,.11-.05v0c.05,0,.05,0,.05-.08Zm.4-.67c0-.3,0-.3-.28-.34,0,.13.28.21-.12.34Zm-.4,1.79c.34,0,.4-.16.17-.33A.74.74,0,0,1,253.59,142.21Zm.52-14.38v.25c.06,0,.11,0,.28-.13C254.22,127.83,254.17,127.87,254.11,127.83Zm1.57,3.12a1.09,1.09,0,0,0,.9,0c.9,0,1.62-.14,2.47-.19a1.58,1.58,0,0,0,.95-.26,4.71,4.71,0,0,1,1.18-.65c.22-.21.62-.3.9-.6s.45-.59.39-.93c-.16-.12.06-.25-.11-.38a1.46,1.46,0,0,0-.16-.66A.27.27,0,0,0,262,127a11.13,11.13,0,0,0-1.29-.66,3.69,3.69,0,0,0-1.46-.35l-1.34,0c-.17,0-.23,0-.4,0a.76.76,0,0,1-.73-.11,1.84,1.84,0,0,0-1-.08c-.22,0-.34.22-.17.38v1c-.07.41-.15.82-.22,1.22,0,.21-.17.38-.17.55a2.24,2.24,0,0,1-.17.83c-.06.21,0,.47-.17.59A.84.84,0,0,0,255.68,131Zm3.44-10.09a.48.48,0,0,0,.39-.18C259.23,120.6,259.12,120.65,259.12,120.86Zm2.67,13.8a.33.33,0,0,0,.17-.08v-.05l-.17-.12Zm.67-.85c.12,0,.17-.08.17-.21s-.11,0-.11-.12c-.06.08-.11.13-.17.12v.13a2.88,2.88,0,0,1-.45.09.74.74,0,0,0,.56.12.55.55,0,0,1-.28-.08C262.35,133.86,262.3,133.81,262.46,133.81Zm1.41-.39v0s.05,0,.05.08c.4,0,.17-.21.34-.34C264,133.33,263.87,133.29,263.87,133.42Zm.73.28c-.17.13-.28.09-.34.13s.05.17.05.3h.4l.11-.08c-.06,0,0-.09-.17-.09s-.11-.08,0-.16Zm.16,1h0ZM266,132l-.11,0c-.11,0-.17,0-.17.05v.21c.17,0,.11.13.17.25v.13a1.76,1.76,0,0,0,.34-.35C266,132.21,266,132.12,266,132Zm.73,1.3a.6.6,0,0,1,.17-.34c-.29.13-.11.21-.28.26Zm.43,6.87h-.28a.11.11,0,0,0,.11.12c0,.13.12.09.11.21v.17c-.16.13-.33.09-.5.22.17,0,.28.12.5.16h.68v-.29h-.34c-.17-.12.06-.38-.34-.25C267.16,140.33,267.33,140.24,267.16,140.12Zm0-7.34a.43.43,0,0,0-.45-.33Zm-.28.38h-.12v.38h.12l.22-.13a.43.43,0,0,1-.22,0Zm.76,8h-.22v.13s.06,0,.22,0Zm1.28-18.64c0-.12-.05-.08-.05-.2l-.12,0c.17-.14,0-.09-.16-.21-.06.13-.17.09-.17.13s-.06.09-.23.09a2.17,2.17,0,0,1,.68.24Zm.44,26.4v-.51a.37.37,0,0,0-.33.13c-.06,0-.06,0-.06.09s0,0,.06,0,.22.12.05.25Zm.51-.89c0,.08.05.13.22.13C270.11,148,270.11,147.86,269.89,148Zm.78-.42a.57.57,0,0,1,.4,0h.16v-.08c-.05-.13-.39-.17-.56,0-.05,0-.05,0-.05-.08v-.05h-.34s0-.08-.17-.08v.13c0,.12.12.21.34.21Zm.51-.47h.17c.06-.13,0-.26,0-.3s-.34,0-.51,0Zm.78,2a.33.33,0,0,0,.11.25h.06c.05,0,.05,0,.11,0S272.13,149.22,272,149.09Zm.28-.09c.16.12.05.21.22.34C272.63,149.17,272.52,149,272.24,149Z"></path><path class="cls-23" d="M275.68,122.49c.06-.74.12-1.49.17-2.22a1.6,1.6,0,0,0,.57-.19,1.16,1.16,0,0,1,.67-.24l2-.09c1,0,1.91,0,2.87,0,.17,0,.17,0,.33,0a7.51,7.51,0,0,0,1.41.15.41.41,0,0,1,.39.28c.05.34.11.68.16,1v.34a4.77,4.77,0,0,0-.23,1.22l-.12,1.46c-.06.65-.22,1.3-.28,2a11.78,11.78,0,0,0-.18,2,7,7,0,0,1-.06,1.59c0,.73-.17,1.47-.18,2.2-.06.46-.11.92-.17,1.38s0,.83,0,1.24a3.63,3.63,0,0,0,0,.74,6.8,6.8,0,0,1,0,1.88c0,.14-.06.35-.06.56v1.77a3.78,3.78,0,0,0-.12.82.89.89,0,0,1,.06.64c0,.13,0,.26,0,.39,0,.64.05,1.28,0,1.93a1.17,1.17,0,0,0,.28.68.37.37,0,0,0,.34.13,2.25,2.25,0,0,0,.89.08c1.29-.06,2.41-.12,3.59-.09a21.94,21.94,0,0,1,2.91.23,1.23,1.23,0,0,0,.84-.1,1.62,1.62,0,0,1,.62-.18c.45-.14.5,0,.5.34V145c.16.83.22,1.57.38,2.4.17.39.05.79.22,1.14a.6.6,0,0,1-.23.66l-.67.39c-.39-.22-.67,0-1.12-.08l.33-.09-.78-.17v-.05l.56-.09c.11,0,.17-.08.17-.21a1.66,1.66,0,0,0-.61.09c-.28,0-.45.17-.73,0,0,.22-.17.35-.45.48-.23,0-.39-.22-.62-.21-.17.17,0,.26-.28.39,0-.13,0-.22-.06-.26-.22,0-.39.26-.55,0l-.17,0c-.17.34-.4.21-.62.21l-.17-.3c-.17.35-.17.39-.56.35,0,0-.11-.05-.17,0a2.56,2.56,0,0,0-.61,0,5,5,0,0,1-1.35.09h-3c-.28,0-.56,0-.84,0a5.63,5.63,0,0,1-.78.05,11.23,11.23,0,0,0-1.74,0c-.44,0-.89,0-1.28,0s-.4,0-.45-.34a8.61,8.61,0,0,0-.5-1.23,3.39,3.39,0,0,1-.22-.68.77.77,0,0,0-.39-.72.49.49,0,0,1-.11-.85.8.8,0,0,0,.22-.77,1.55,1.55,0,0,1,0-1,3.16,3.16,0,0,0,.06-.64.71.71,0,0,0-.23-.64v0s.06,0,.06-.09a.4.4,0,0,1-.28-.42c0-.13-.05-.13-.05-.25a6,6,0,0,1-.23-1.36c0-.21-.05-.39-.05-.68a1.7,1.7,0,0,0,.56,0c.23-.3.06-.6,0-.93-.05.34-.39.3-.78.43a.39.39,0,0,1-.06-.25,2.79,2.79,0,0,1-.11-.51c0-.3-.05-.3.34-.26a1.05,1.05,0,0,0,.62-.09v-.39c0-.13.06-.29.06-.42a3.63,3.63,0,0,0,.17-.6,2.61,2.61,0,0,0,.11-.68c.06-.18,0-.35.06-.52a1.27,1.27,0,0,1,.05-.47,1.09,1.09,0,0,1-.05-.46v-.43a4.47,4.47,0,0,1,.12-2.09,1.85,1.85,0,0,0-.11-.55A2,2,0,0,1,276,131a2.72,2.72,0,0,0,0-1.36,6.18,6.18,0,0,1-.05-.94v-1a1.58,1.58,0,0,1-.11-.72.68.68,0,0,0,0-.47,2.16,2.16,0,0,1-.06-1.44,2.78,2.78,0,0,0,.29-1.29,4.37,4.37,0,0,1-.11-.59,1,1,0,0,0-.17-.55S275.73,122.52,275.68,122.49Zm.06,17.82h-.12v.34h.12Zm12.23,9a.37.37,0,0,0,.17.08c.06,0,.06,0,.06,0l-.22-.09S288,149.33,288,149.35Z"></path><path class="cls-24" d="M305.34,127.66c.17-.36.22-.73.4-1.23a2.91,2.91,0,0,0,.34-.69c.39-.74.62-1.35,1-2a11.57,11.57,0,0,0,.56-1,.74.74,0,0,0,.17-.42,1.7,1.7,0,0,1,.17-.78,12.58,12.58,0,0,1,.85-1.55,8.44,8.44,0,0,1,.57-.91l.39-.3c.51-.09,1.07-.22,1.58-.27,1.06-.08,1.9-.06,2.86-.15s1.57-.13,2.41-.07c1.06-.09,1.9-.12,3-.22a5.92,5.92,0,0,0,1.57-.06c.22,0,.22.12.39.25v.61a.71.71,0,0,0,.22.68c.16.08.28.16.28.21.22.54.77,1,.77,1.66a.58.58,0,0,0,.11.32c0,.14,0,.24.06.28s.11.23.1.37a3.55,3.55,0,0,0,.33,1.1,3.75,3.75,0,0,1,.39,1.14c.17.37.22.78.39,1.11a9,9,0,0,1,.82,2.44c.07.36.15.71.22,1.07.17.6.44,1.16.61,1.71.22.7.44,1.35.71,2.05a14.93,14.93,0,0,1,.71,3.1c.06.52,0,.91.39,1.32.16,0,.11.14.16.18.15.65.29,1.3.44,1.94a.54.54,0,0,0,.22.47.52.52,0,0,1,.22.43,10.37,10.37,0,0,1,.5,1.66c.44,1.33.82,3.14,1.2,4.48.17.56.33,1.12.5,1.68.05.29-.06.48-.4.58-.11,0-.17,0-.17.05l-1.85.44c0,.14.06.29-.11.34-.28-.33-.28-.38-.67-.24h-.28c-.45,0-1,.2-1.46.25a17.29,17.29,0,0,1-2.13.29c-.39.14-.34.05-.5-.28,0,0-.06-.14-.06-.19-.14-.69-.29-1.38-.43-2.07-.39-1.49-.54-3.46-.93-5a28.12,28.12,0,0,1-.82-3.53.79.79,0,0,0-.83-.72,3.56,3.56,0,0,0-1.23-.09,11.73,11.73,0,0,0-2.3,0c-.9,0-1.68,0-2.52,0-1.79,0-3.53,0-5.27-.1a1,1,0,0,0-.67.25.83.83,0,0,0-.45.51c-.4.55-.57,1.09-1,1.6-.17.23-.23.5-.4.69s-.23.72-.4,1.08c-.21.55-.41,1.09-.62,1.63-.06.23,0,.41-.06.59l-.57,1.48c-.17.19-.11.37-.17.59-.28.58.28.13.11.67a1,1,0,0,1-.23.81.59.59,0,0,0-.17.58,1.5,1.5,0,0,1-.68,1.17c-.06.13-.17.08-.22.22-.23,0-.4,0-.57.14s-.33-.14-.5,0H301c-.39,0-.62.05-1,.05a5.83,5.83,0,0,1-1.51,0,9.15,9.15,0,0,1-1.57,0,1.66,1.66,0,0,0-.33.09,4.5,4.5,0,0,0-1.57,0H295c-.45,0-1,0-1.17-.44v-.08l.22-.49a9.16,9.16,0,0,0,1-1.32c.45-.88.29-.7.74-1.58.39-.67.62-1.33,1-2s.73-1.34,1-2c.39-.76.68-1.43,1.07-2.1a31.36,31.36,0,0,0,1.58-2.79,6.91,6.91,0,0,1,.68-1.13.69.69,0,0,1,.68-.6.61.61,0,0,1-.17-.39c.06-.32.17-.41.23-.72v-.09c0-.05,0-.05.06-.05a3,3,0,0,0,.51-1,2.65,2.65,0,0,1,.67-1h.12c.05,0,.05,0,.05,0-.16-.21.17-.23.34-.28-.28-.21-.34-.21-.17-.39a2.51,2.51,0,0,1,.34-.87c.4-.51.51-1,.91-1.56a.27.27,0,0,1,.17-.19l.56-.43c.17,0,.23.12.39.16a1.52,1.52,0,0,0,.18-.73c-.17.14-.17.1-.34.15A.41.41,0,0,1,305.34,127.66Zm-9.58,20.52c.29-.31.29-.27-.16-.39C295.77,147.92,295.71,148.05,295.76,148.18Zm1.06,1v.4a1.45,1.45,0,0,1,.28-.27.5.5,0,0,0,.34.27c0,.13-.11.08-.11.22.39.13.28.13.89,0-.22-.22-.56-.26-.5-.61a1.72,1.72,0,0,1-.62.13A.55.55,0,0,1,296.82,149.23Zm4.89-13c0,.13.05.13.05.17v-.13Zm.1,2c.5,0,.5,0,.5-.28-.17.14-.33.1-.5.15Zm.11.31c-.17,0,0,.09,0,.14H302c.06,0,.06,0,.06,0s0-.14,0-.27C302,138.39,301.92,138.44,301.92,138.48Zm.57-2c-.06,0,0,.14-.17.27l.17-.13c.05,0,.11,0,.11,0v-.05h-.11Zm.44,1.15c-.11,0-.17,0-.17.09-.17.14-.11.32-.28.54.22,0,.34.17.33.31s.17.13.34,0A1.66,1.66,0,0,1,302.93,137.61Zm.45.61h.11q.25,0,0-.27A.52.52,0,0,0,303.38,138.22Zm1,0c.05,0,0,.09.16.09v-.09s-.05-.09-.11-.13C304.44,138.23,304.39,138.19,304.39,138.23Zm1.16-9.32c-.05.18,0,.27.28.25.12,0,.17-.09.17-.27Zm5.71,3h.22c.17-.15.39-.07.67-.08s.34,0,.51-.16c0,0,.06-.1.17-.1.45-.07.78,0,.95.18a.79.79,0,0,0,.5.11,11.11,11.11,0,0,1,1.12-.15,4.48,4.48,0,0,1,1.35-.07c.06.13.17,0,.34,0a.64.64,0,0,1,.78.1,1.18,1.18,0,0,0,1.34.07,1.83,1.83,0,0,1-.39-.54c-.16,0-.11-.27-.5-.25,0,0,0-.05-.05,0s-.12,0-.12,0c-.16-.32-.16-.51-.33-.82l-.33-.4a2.27,2.27,0,0,1-.55-1.26v-.51c0-.23-.17-.35-.5-.38-.06-.41-.51-.52-.9-.68-.16-.12-.56,0-.73.23a5.54,5.54,0,0,0-.62,1.05.15.15,0,0,0-.06.14,6,6,0,0,0-1.24,1.35,6.35,6.35,0,0,1-.9.83c-.17,0-.22,0-.39-.12l-.17-.08c-.16-.22-.11-.4-.16-.63-.39,0-.51.17-.34.38s.05.23.05.36a1,1,0,0,0-.17.65.93.93,0,0,1-.17.46C310.81,131.63,310.81,131.85,311.26,131.88Zm4.12,4.11v.14c.17.13.28,0,.45-.11A.35.35,0,0,0,315.38,136Zm2.95-6.79a.36.36,0,0,0-.5,0c-.17.06-.17.29-.17.34,0,.22.22.12.39.11S318.16,129.35,318.33,129.2Zm-.44-.72a.34.34,0,0,0,.16.27c.68-.18.79-.33.79-.74C318.17,128.19,318.17,128.14,317.89,128.48Zm3.48,7.87a.83.83,0,0,0-.39,0v.05a.62.62,0,0,0,.34.08h.16Zm-.06.61s0-.05-.05,0v0a.15.15,0,0,0,.05.1Zm3.26,7.75a2.24,2.24,0,0,1,.06-.33v0s-.06,0-.17,0c.06,0,.11.1.11.28v.05Zm.33,1.74A1.22,1.22,0,0,0,325,146l-.06-.05a1.51,1.51,0,0,1-.28.29Zm3.08,0a1.36,1.36,0,0,0,.56.09l-.56-.42c-.06,0-.05,0-.06,0l-.11.1A1.39,1.39,0,0,0,328,146.46Z"></path><path class="cls-25" d="M353.36,115.1l-.06-.15.06-1,2.52-.36,1.18-.07,1.73-.26h.67c0,.32.07.63.11,1l.06,8.42a2.69,2.69,0,0,1,0,.7v.37a7.75,7.75,0,0,1-.13,2.52c-.05.06-.05.16-.05.38,0,.38.16.52,0,.91a3,3,0,0,0,0,.74c0,.27.11.64-.18.93v.26l-.12,1.4a7.84,7.84,0,0,0-.17,1.66c0,.55,0,1.11,0,1.66s-.06.75-.07,1.17.05,1,.05,1.38-.06.8-.06,1.23a1.49,1.49,0,0,1-.12.59c0,.16.17.37,0,.59a1.16,1.16,0,0,0-.06.64v.43c0,.16.05.31.05.47a1.66,1.66,0,0,0,.11.58v.38c-.17.27-.23.38-.17.43a6.23,6.23,0,0,0,.22,1.11,2.5,2.5,0,0,0,0,.8c.05.37.11.58.11.69,0,.37-.12.74-.12,1.12s0,.85,0,1.28a1.46,1.46,0,0,1-.06.53l-.06,1.33a2.88,2.88,0,0,0-.12,1.12c.17.37-.11.48-.28.64-.23,0-.39-.16-.62,0a.8.8,0,0,0-.34.11c-.28.05-.5.26-.78.26a2.53,2.53,0,0,1-1.34-.52v-.06a2.91,2.91,0,0,0-1.29-.2,2.09,2.09,0,0,0-.56,0,8.49,8.49,0,0,1-1.12.11c-.39-.06-.84.1-1.12,0s-.61-.05-.89-.21l-.73-.15c-.5-.15-.67-.2-.84-.76a3.08,3.08,0,0,0-.21-1.28c-.22-.56-.55-1.17-.78-1.78l-.49-1.47c-.17-.35-.22-.65-.39-1.11s-.25-.67-.38-1-.3-.74-.44-1.1a8,8,0,0,0-.39-.9,4.36,4.36,0,0,0-.44-1l-.17-.39a3.84,3.84,0,0,0-.38-1.2l-.34-.54c-.16-.14-.22-.19-.27-.33a1.49,1.49,0,0,1-.39-1,7.62,7.62,0,0,0-.22-1,2.71,2.71,0,0,0-.44-1.18,1.88,1.88,0,0,1-.33-.88,3.59,3.59,0,0,0-.17-.34l-.33-.63c-.05-.34-.05-.65-.44-.82v-.05a.14.14,0,0,0-.06-.1c-.14-.38-.29-.78-.44-1.16s-.27-.48-.55-.41-.4.28-.29.62c0,.19.06.39.05.59,0,.55.05,1,.05,1.64a9.92,9.92,0,0,1,.1,1.33c0,.25,0,.45-.06.7a11.27,11.27,0,0,1-.18,2v.7c0,.34-.12.55-.12.9,0,.54.11,1.09.11,1.63,0,.38,0,.76,0,1.14s.13,6.66.12,7.76c.05.29.11.59.16.89-.17.22-.34.43-.5.65l-.73-.2-.73.15-1.29-.14-.78.15-1.51-.09c-.06-.07-.12-.13-.17-.2-.06-.22-.11-.45-.16-.68v0c0-2.7,0-5.39,0-8.09,0-.64,0-1.27,0-1.91,0-.14,0-.24.05-.29a.48.48,0,0,0,0-.39v-.39c0-.59.06-1.32.12-2.06,0-.53.06-1,.07-1.66,0-.19.06-.39.06-.59,0-.52-.07-1-.1-1.55v-.2c0-.26-.08-.51-.11-.77v-.93a3.6,3.6,0,0,0,.06-.49c0-.13,0-.26,0-.39a1.12,1.12,0,0,1,0-.63c.06,0,.06-.06.06-.2v-.54c-.06,0-.06,0-.06-.14s0,0,0-.1c.17-.2.06-.39.06-.54s.06-.3.06-.44v0c0-.24-.07-.49-.11-.72l-.21-1.84c0-.53,0-1,0-1.5,0-.72,0-1.43,0-2.15,0-.24-.05-.53-.05-.87s0-.44-.05-.77a7.16,7.16,0,0,1-.05-1.56c0-.24.06-.39.23-.46l.67-.08c.51,0,1-.06,1.4-.11s.9-.06,1.29-.1.73.06,1.12-.18l.06,0,.84-.1a3.57,3.57,0,0,0,1.23,0c.17-.17.45-.16.67-.23a1.63,1.63,0,0,0,.51-.11l.95-.32.34,0c.17-.07.33.16.39.41a2.09,2.09,0,0,0,.11.64c0,.2.11.33.1.49a1.53,1.53,0,0,0,.33,1.12c0,.15.12.19.11.34a1.35,1.35,0,0,0,.22.83c.08.25.15.49.22.73a4.69,4.69,0,0,1,.44,1.37,4.19,4.19,0,0,0,.22.43c.17.55.17,1,.33,1.34s.37,1,.55,1.47a6.24,6.24,0,0,0,.33.73l.33.83c.06.14.11.27.17.4s.15.39.22.59a.57.57,0,0,1,.22.49,4.08,4.08,0,0,1,.28.74l.27.9c.17.14.11.35.28.39s.28.18.28.39-.06.62.33.59c.05,0,.05,0,.05.05l.17.19a1.75,1.75,0,0,1,.39,1.15c0,.57.16,1,.16,1.43,0,.16.05.16.05.21a1.27,1.27,0,0,1,.22.76s0,0,.06.1a4.38,4.38,0,0,1,.38,1.21v0l.17.25c.13.27.26.54.38.81a.66.66,0,0,0,.4.13c.22,0,.33-.33.33-.48,0-.42.07-.79.07-1.15a5,5,0,0,1,.06-.94,7.27,7.27,0,0,0,.12-1.09,1.11,1.11,0,0,0,.06-.48v-.57a1.09,1.09,0,0,0,.11-.42c0-.47.06-.94.07-1.41a3.66,3.66,0,0,0,0-1.15,1,1,0,0,1,0-.57,6.06,6.06,0,0,0,.06-1,1.76,1.76,0,0,1,0-1.09,22.34,22.34,0,0,1,.24-2.63C353.2,123.66,353.34,117.39,353.36,115.1Z"></path><path class="cls-26" d="M392.82,126.93a.27.27,0,0,0,.33.21c-.28.71-.34,1.34-.62,2-.17,0-.11-.17-.28-.15-.39.28-.22.58-.22,1a7.48,7.48,0,0,1,.33,1,3.68,3.68,0,0,1-.12,1,.9.9,0,0,0-.11.44c0,.19-.17.45-.51.85,0,.06-.28.08-.28.27-.16.44-.56.84-.78,1.29a1.24,1.24,0,0,0-.17.68c-.23.44-.17,1-.57,1.51a5,5,0,0,0-.9,1.69c-.13.18-.26.34-.39.51a13.42,13.42,0,0,0-.73,1.13c-.17.19-.28.31-.23.31a20.15,20.15,0,0,1-1.63,1.82,10.38,10.38,0,0,1-1,1.17,6.48,6.48,0,0,0-1.35,1.64l-.39.43a.88.88,0,0,0-.62.48,1.12,1.12,0,0,1-.51.54c-.27-.17-.61-.34-.89-.1a5.71,5.71,0,0,0-.95.55c-.17,0-.06.11-.23.12a13.18,13.18,0,0,1-1.18.77c-.17.24-.56.24-.95.42a1.13,1.13,0,0,1-.73.12h-.39a6.18,6.18,0,0,0-2,.54c-.51.17-1,.06-1.35.23a1.06,1.06,0,0,1-1,0,2.55,2.55,0,0,1-.89-.39,2.87,2.87,0,0,0-2.24.3c0,.06-.06.11-.23.11a2.67,2.67,0,0,1-1,.51c-.39-.28-.44-.28-.44-.89-.17-.16-.11-.6-.11-.82a8.8,8.8,0,0,1,.24-2.44.87.87,0,0,0,.11-.61,19.44,19.44,0,0,1-.32-2.91,10,10,0,0,0-.15-2.2c-.17-.6-.11-1.1-.28-1.53a7.89,7.89,0,0,0-.1-2.09c-.05-1.32,0-2.69-.2-4,0-.5-.11-.93-.11-1.37,0-.14,0-.29,0-.44a24.18,24.18,0,0,1,.13-3.64,18.68,18.68,0,0,0,0-4.29c0-.49-.11-.48-.5-.49l-.34,0-2.24.27c-.61.07-.72.08-.72-.57v-.21c.17-.62.06-1.26.23-1.71a8.41,8.41,0,0,1,.63-1.87,1.62,1.62,0,0,0,.28-1.13,4.4,4.4,0,0,1-.1-1.45c0-.27.17-.63,0-.87a2.52,2.52,0,0,1,.12-2c.22-.63.34-.65.84-.74a1.6,1.6,0,0,0,1.23-.53c.17-.19.39-.17.62-.21a3.79,3.79,0,0,0,2.12-.52.89.89,0,0,1,.73-.13,2.63,2.63,0,0,0,1.06.1,1.94,1.94,0,0,1,1.17,0,3,3,0,0,0,2-.35,1.42,1.42,0,0,1,.73-.3,4.77,4.77,0,0,0,1.51-.27l.11,0c.28-.06.39.1.61.06.73,0,1.4,0,2.23,0a1.9,1.9,0,0,0,1.46-.27c.28-.23.56-.11.61.12a1.15,1.15,0,0,0,.89.24c.17,0,.22.08.39,0a7.14,7.14,0,0,0,.84,0c.5.08,1-.12,1.4,0,.39-.08.72,0,.94,0a1.08,1.08,0,0,1,.84.08,4.94,4.94,0,0,1,1,.35,5.07,5.07,0,0,1,1.51,1.29l.72,1.09c.39.47.72.78,1.11,1.2l1.83,2.33a.56.56,0,0,1,.23.4,4.07,4.07,0,0,1,.49,1.9,2.44,2.44,0,0,1,.22,1.83c-.22,0-.28,0-.22-.22.22-.59-.22-.71-.22-1.39l-.11,0c-.06,0-.12-.05-.17-.1v.12c.28.4-.06,1,.11,1.41a1.17,1.17,0,0,0,0,1c-.16,0-.16-.1-.33-.07a2.31,2.31,0,0,1-.28.78c0,.06.16.16.16.35a.47.47,0,0,0,.28.45c.06-.07.17-.08.34-.29,0,.19,0,.37,0,.56a.34.34,0,0,0-.33.35,1.93,1.93,0,0,1,0,1.36c0,.19-.16.33,0,.5l.56-.57c.23.47.22.47,0,.93-.07.12-.15.23-.22.34-.28.28-.28.28,0,.68C393,126.85,392.87,126.73,392.82,126.93Zm-14.94-9.24c-.67.1-1,.21-1.51-.12a5.52,5.52,0,0,0-2.85,1.38c-.39.23-.39.51-.4.91a52.78,52.78,0,0,1,.19,7.77c0,1.08,0,2.15,0,3.23.17.88.33,1.49.61,2.55a3.8,3.8,0,0,1-.29,2.17,2.3,2.3,0,0,0,.43,3.27c.61.65,1.17,1.08,1.78,1.73h.11c.12,0,.17,0,.17.16a1.61,1.61,0,0,0,2.19-.1,6.06,6.06,0,0,1,1.73-1,9,9,0,0,0,2.64-2.55c.62-.51.57-1.51,1-2.26a5.44,5.44,0,0,0,1.08-3.65c0-1.19.67-2,.68-2.93a13.11,13.11,0,0,1,.29-2.72,9.37,9.37,0,0,0,.45-2.45,1.14,1.14,0,0,0-.21-1.47,12.16,12.16,0,0,1-1.45-2.72c-.16-.69-1-1.27-1.55-1.72-.22-.14-.67,0-.84,0a3.14,3.14,0,0,0-1.29,0Zm-3.38,30.63a.7.7,0,0,1,.56-.24C374.61,147.86,374.67,147.86,374.5,148.32Z"></path><path class="cls-27" d="M400.47,128.58l-.45.63a1.84,1.84,0,0,0-.06-.51c-.5,0-.28-.16-.33-.22s-.34,0-.5-.39h.11c-.06,0-.11-.05-.17-.05v-.19a.37.37,0,0,0-.11.2,2.31,2.31,0,0,1-.73-.1c-.05-.06-.22,0-.61,0v-.12a1.45,1.45,0,0,0-.22.09c-.06-.19-.11-.31-.12-.37l-.5-.45h.06a4.91,4.91,0,0,0-.84-.59c0-.06,0-.12-.05-.12s-.11-.19-.17-.29-.06,0-.11,0-.06-.06,0-.06l-.33-.4v.12c-.05,0,0-.12-.05-.18-.15-.33-.3-.67-.44-1s-.15-.53-.23-.79-.14-.64-.22-1a1.14,1.14,0,0,0-.11-.49c0-.16-.07-.32-.11-.48v.13a10.67,10.67,0,0,1-.22-1.09,2.28,2.28,0,0,1-.11-1c0-.14-.07-.28-.11-.42s-.11-.52-.16-.78a3,3,0,0,1-.05-1.23,4.05,4.05,0,0,0,.61-1.41c.14-.23.27-.46.4-.69l.45-1.2h-.06a13.23,13.23,0,0,1,2.41-4.36,8.69,8.69,0,0,1,1.12-1.56l.28-.18-.17.09a13.49,13.49,0,0,1,4.08-3.14l1-.37a10.64,10.64,0,0,1,2.56-.8,1.81,1.81,0,0,0,.34-.21,1.78,1.78,0,0,1,.72-.24l.67-.3a5.74,5.74,0,0,1,1.73-.69,53.64,53.64,0,0,1,5.34-1.16c.17,0,.11,0,.28,0a1.13,1.13,0,0,1,1.05,1.11c0,.21-.05.16-.05.36a8.86,8.86,0,0,0-.17,1.23c-.05.08,0,.14.06.19.33.13.44.45.28,1-.06.23.11.32.16.8a5.23,5.23,0,0,1,.11.81,14.18,14.18,0,0,0-.55,2.21.77.77,0,0,1-.56.75c-.56.48-6.41,1.22-6.85,1.11h.05a6.48,6.48,0,0,0-1.61.33,3.28,3.28,0,0,0-1.18.5l-1.34.66h.06c-.17.1-.33.32-.5.42v-.07l-.67.53a1.11,1.11,0,0,0-.39.92,1.7,1.7,0,0,0-.73.65h.06c-.17.48-.4,1-.62,1.47v-.07a5.78,5.78,0,0,0-.34,1.87,4.56,4.56,0,0,0,.22,2.16c0,.06.05.18.05.25s-.05,0,0,.19a2.7,2.7,0,0,0,.39.59,3.66,3.66,0,0,0,1,1l.56.31h-.06a12.28,12.28,0,0,0,1.45.57c.17,0,.22.1.28.1l.73.29a.3.3,0,0,1,.27.09c.17,0,.34.09.51.07l.78.15c.39.15.72,0,1,.2h-.05a18.37,18.37,0,0,1,2.06.66,19.15,19.15,0,0,1,1.84.64.13.13,0,0,1,.11,0h.06a3.52,3.52,0,0,1,1.73.74l1.06,1h-.06a4,4,0,0,1,.95,1.14l.56.91.39.93c.22.12.34.25.34.46a1.93,1.93,0,0,1,.22.81c.07.28.15.55.22.82l-.05-.06a4.75,4.75,0,0,1,.44,1.57,4.94,4.94,0,0,0,.11.63.85.85,0,0,1,.06.35h-.06a2.34,2.34,0,0,1,.12.63v2.18a4,4,0,0,1-.28,1.22V139c0,.21-.06.21-.06.43v.49c-.05.4-.11.8-.17,1.2s-.15.86-.22,1.28a7.5,7.5,0,0,1-1.74,3.56,12.77,12.77,0,0,1-1.56,1.56,8,8,0,0,1-1.85,1.2,2.76,2.76,0,0,0-.67.14,6.61,6.61,0,0,1-.9.15l-.95.21a3.21,3.21,0,0,1-.9.14c-.39,0-.56.07-.95.08a12.65,12.65,0,0,1-1.62.14c-.28,0-.56-.06-.84-.06a2.58,2.58,0,0,0-.73-.06,9.39,9.39,0,0,1-2.35.21,1,1,0,0,1-.51.07,8.16,8.16,0,0,1-3.36-.49h.06c-1.4-.31-1.57-.55-1.62-1.75,0-.17-.07-.34-.11-.51V147c-.07-.32-.15-.63-.22-.95l.06.06c-.06-.14-.12-.29-.17-.44a3.61,3.61,0,0,1-.33-1.44,1.18,1.18,0,0,0,0-1.07v-.31l.45-1.1a7.15,7.15,0,0,0,1.85.11,4.31,4.31,0,0,0,.95,0l1.4-.06a7.85,7.85,0,0,0,3-.07,1.06,1.06,0,0,1,.45.11l.33,0,.73-.17a5.89,5.89,0,0,0,1.45-.33,9,9,0,0,1,2-.37,1.25,1.25,0,0,0,1.06-.8c0-.06.06-.2.11-.47a5.09,5.09,0,0,0,.29-2c-.06-.75-.06-1.56-.06-2.44a1.68,1.68,0,0,0-.11-.87,4.71,4.71,0,0,0-.89-1.87,3.12,3.12,0,0,0-2.62-1.55,1.66,1.66,0,0,1-.62-.14c-.44-.28-1.39-.45-2.29-.81l-.56-.2h.06a1.21,1.21,0,0,1-.67-.38,1.25,1.25,0,0,1-.67,0l-.67-.25c-.17,0-.28-.1-.45-.14v.06c-.16,0-.05-.12-.22-.17Zm-5.63-3.89q-.09-.27,0-.18Zm3,1.07c-.06,0-.11,0-.11.08h.05Zm.61,0-.11,0c-.11.08-.17.08-.11.14S398.29,125.77,398.46,125.75Zm.78.6v.07l-.05.07c.05,0,.05,0,.05.06v.19l.11-.14a.76.76,0,0,0,.51-.06l-.28-.29c0-.19-.06-.63-.06-.7-.28.17-.44.25-.39.24l-.11,0-.22-.1v-.19a1.34,1.34,0,0,0-.11.14l-.23.09.34.08c.05.32.16.5.27.55Zm-.33.81c-.12,0-.17.08-.23.28.5-.06.84-.22,1.23-.08,0-.22.08-.43.11-.65a.46.46,0,0,0-.28.16.47.47,0,0,0-.5.12v-.13c-.05.08-.05.08-.05,0Zm-.11-1.64c.05-.07.05-.07,0-.07Zm.27,2.51c.06,0,.06,0,.06.06A.13.13,0,0,0,399,128Zm.12-1.54c0-.07-.06-.06-.06-.12a.26.26,0,0,0-.06.2Zm0,.38.05-.07v-.06l-.11.14Zm.44.78c0,.26,0,.26.28,0v-.06Zm1.23,0c0-.07,0-.07.06-.08S400.86,127.44,400.86,127.64Zm.56.32-.06-.25c-.11,0-.17.08-.11.27Zm.05.31.28-.22-.33-.09C401.44,128.06,401.45,128.17,401.47,128.27Z"></path></svg> 