<?xml version="1.0" encoding="UTF-8" standalone="no"?>
<svg
   xmlns:dc="http://purl.org/dc/elements/1.1/"
   xmlns:cc="http://creativecommons.org/ns#"
   xmlns:rdf="http://www.w3.org/1999/02/22-rdf-syntax-ns#"
   xmlns:svg="http://www.w3.org/2000/svg"
   xmlns="http://www.w3.org/2000/svg"
   xmlns:sodipodi="http://sodipodi.sourceforge.net/DTD/sodipodi-0.dtd"
   xmlns:inkscape="http://www.inkscape.org/namespaces/inkscape"
   height="17.115999"
   width="37.842999"
   version="1.1"
   y="0px"
   x="0px"
   viewBox="0 0 37.842999 17.115999"
   id="svg2132"
   sodipodi:docname="CC-BY-SA_roundals.svg"
   inkscape:version="0.92.5 (2060ec1f9f, 2020-04-08)">
  <metadata
     id="metadata2138">
    <rdf:RDF>
      <cc:Work
         rdf:about="">
        <dc:format>image/svg+xml</dc:format>
        <dc:type
           rdf:resource="http://purl.org/dc/dcmitype/StillImage" />
        <dc:title>Creative Commons “Attribution-Share Alike” license icon</dc:title>
      </cc:Work>
    </rdf:RDF>
  </metadata>
  <defs
     id="defs2136" />
  <sodipodi:namedview
     pagecolor="#ffffff"
     bordercolor="#666666"
     borderopacity="1"
     objecttolerance="10"
     gridtolerance="10"
     guidetolerance="10"
     inkscape:pageopacity="0"
     inkscape:pageshadow="2"
     inkscape:window-width="1280"
     inkscape:window-height="717"
     id="namedview2134"
     showgrid="false"
     fit-margin-top="0"
     fit-margin-left="0"
     fit-margin-right="0"
     fit-margin-bottom="0"
     inkscape:zoom="4.625"
     inkscape:cx="6.05"
     inkscape:cy="4.116"
     inkscape:window-x="0"
     inkscape:window-y="0"
     inkscape:window-maximized="1"
     inkscape:current-layer="svg2132" />
  <title
     id="title2122">Creative Commons “Attribution-Share Alike” license icon</title>
  <path
     d="m 29.327,0 c -2.355,0 -4.349,0.827 -5.98,2.481 -1.675,1.712 -2.512,3.737 -2.512,6.077 0,2.34 0.837,4.351 2.512,6.034 1.674,1.683 3.668,2.524 5.98,2.524 2.342,0 4.371,-0.849 6.089,-2.546 1.616,-1.611 2.427,-3.616 2.427,-6.012 0,-2.396 -0.824,-4.422 -2.471,-6.077 C 33.727,0.827 31.712,0 29.327,0 Z"
     id="path2695"
     inkscape:connector-curvature="0" />
  <path
     d="m 29.349,1.54 c 1.93,0 3.569,0.685 4.918,2.054 1.361,1.355 2.043,3.01 2.043,4.964 0,1.968 -0.666,3.602 -2.001,4.9 -1.405,1.397 -3.058,2.096 -4.96,2.096 -1.901,0 -3.541,-0.691 -4.917,-2.074 -1.376,-1.384 -2.064,-3.024 -2.064,-4.921 0,-1.897 0.695,-3.552 2.086,-4.964 1.332,-1.371 2.965,-2.055 4.895,-2.055 z"
     id="path2693"
     style="fill:#ffffff;fill-opacity:1"
     inkscape:connector-curvature="0" />
  <path
     d="m 25.558,7.349 c 0.34,-2.153 1.846,-3.304 3.733,-3.304 2.716,0 4.369,1.982 4.369,4.626 0,2.58 -1.76,4.584 -4.411,4.584 -1.824,0 -3.457,-1.13 -3.755,-3.347 h 2.143 c 0.063,1.151 0.806,1.556 1.866,1.556 1.209,0 1.994,-1.13 1.994,-2.857 0,-1.812 -0.679,-2.771 -1.951,-2.771 -0.934,0 -1.739,0.341 -1.909,1.513 L 28.26,7.346 26.573,9.043 24.887,7.346 Z"
     id="path2691"
     inkscape:connector-curvature="0" />
  <path
     d="M 8.493,0 C 6.138,0 4.144,0.827 2.512,2.481 0.837,4.192 0,6.218 0,8.557 c 0,2.339 0.837,4.351 2.512,6.034 1.674,1.683 3.668,2.524 5.981,2.524 2.342,0 4.371,-0.849 6.088,-2.547 1.619,-1.611 2.428,-3.615 2.428,-6.012 0,-2.397 -0.823,-4.421 -2.47,-6.076 C 12.894,0.826 10.878,0 8.493,0 Z"
     id="path2685"
     inkscape:connector-curvature="0" />
  <path
     d="m 8.515,1.539 c 1.93,0 3.569,0.685 4.917,2.054 1.363,1.355 2.044,3.01 2.044,4.963 0,1.968 -0.666,3.602 -2.001,4.9 -1.405,1.398 -3.058,2.096 -4.96,2.096 -1.901,0 -3.541,-0.691 -4.917,-2.075 C 2.221,12.094 1.533,10.454 1.533,8.556 1.533,6.66 2.228,5.005 3.619,3.593 4.953,2.224 6.585,1.539 8.515,1.539 Z"
     id="path2128"
     style="fill:#ffffff;fill-opacity:1"
     inkscape:connector-curvature="0" />
  <path
     d="m 10.793,6.438 c 0,-0.306 -0.246,-0.553 -0.55,-0.553 H 6.765 c -0.303,0 -0.55,0.247 -0.55,0.553 v 3.5 h 0.971 v 4.145 H 9.822 V 9.938 h 0.971 z"
     id="path2689"
     style="fill:#000000;fill-opacity:1"
     inkscape:connector-curvature="0" />
  <path
     d="m 8.505,3.03 c 0.656,0 1.189,0.536 1.189,1.197 0,0.661 -0.533,1.197 -1.189,1.197 -0.657,0 -1.189,-0.536 -1.189,-1.197 0,-0.661 0.532,-1.197 1.189,-1.197 z"
     id="path2687"
     style="fill:#000000;fill-opacity:1"
     inkscape:connector-curvature="0" />
</svg>
