<?xml version="1.0" encoding="UTF-8" standalone="no"?>
<!-- Generator: Adobe Illustrator 13.0.2, SVG Export Plug-In . SVG Version: 6.00 Build 14948)  -->

<svg
   xmlns:dc="http://purl.org/dc/elements/1.1/"
   xmlns:cc="http://creativecommons.org/ns#"
   xmlns:rdf="http://www.w3.org/1999/02/22-rdf-syntax-ns#"
   xmlns:svg="http://www.w3.org/2000/svg"
   xmlns="http://www.w3.org/2000/svg"
   xmlns:sodipodi="http://sodipodi.sourceforge.net/DTD/sodipodi-0.dtd"
   xmlns:inkscape="http://www.inkscape.org/namespaces/inkscape"
   version="1.1"
   id="Layer_1"
   x="0px"
   y="0px"
   width="23.443001"
   height="23.596001"
   viewBox="0.995 1.495 23.443001 23.596001"
   enable-background="new 0.995 1.495 88 31"
   xml:space="preserve"
   sodipodi:docname="cc-pd_roundal.svg"
   inkscape:version="0.92.5 (2060ec1f9f, 2020-04-08)"><metadata
   id="metadata47"><rdf:RDF><cc:Work
       rdf:about=""><dc:format>image/svg+xml</dc:format><dc:type
         rdf:resource="http://purl.org/dc/dcmitype/StillImage" /><dc:title></dc:title></cc:Work></rdf:RDF></metadata><defs
   id="defs45">
	
	
	
	
	
	
</defs><sodipodi:namedview
   pagecolor="#ffffff"
   bordercolor="#666666"
   borderopacity="1"
   objecttolerance="10"
   gridtolerance="10"
   guidetolerance="10"
   inkscape:pageopacity="0"
   inkscape:pageshadow="2"
   inkscape:window-width="1280"
   inkscape:window-height="717"
   id="namedview43"
   showgrid="false"
   fit-margin-top="0"
   fit-margin-left="0"
   fit-margin-right="0"
   fit-margin-bottom="0"
   inkscape:zoom="4.625"
   inkscape:cx="14.879405"
   inkscape:cy="11.519216"
   inkscape:window-x="0"
   inkscape:window-y="0"
   inkscape:window-maximized="1"
   inkscape:current-layer="Layer_1" />
<g
   id="g6"
   transform="translate(-2.526,-3.207)">
		<ellipse
   style="fill:#ffffff"
   id="ellipse4"
   ry="11.172"
   rx="11.101"
   cy="16.500999"
   cx="14.887" />
	</g><path
   inkscape:connector-curvature="0"
   id="path10"
   d="m 12.716,1.495 c -6.473,0 -11.721,5.282 -11.721,11.798 0,6.515 5.248,11.798 11.722,11.798 6.473,0 11.721,-5.283 11.721,-11.798 C 24.437,6.777 19.189,1.495 12.716,1.495 Z m 0,21.384 c -5.252,0 -9.524,-4.302 -9.524,-9.586 0,-1.106 0.189,-2.169 0.534,-3.158 l 3.725,1.669 c -0.1,0.503 -0.154,1.026 -0.154,1.567 0,4.709 3.492,6.036 5.689,6.036 1.297,0 2.418,-0.422 3.296,-1.039 0.092,-0.066 0.179,-0.133 0.262,-0.199 l -1.758,-1.848 c -0.64,0.556 -1.313,0.39 -1.47,0.39 -1.788,0 -2.537,-1.899 -2.547,-3.421 l 10.266,4.602 c 0.012,0.002 0.022,0.002 0.032,0.004 -1.62,2.966 -4.756,4.983 -8.351,4.983 z m 9.177,-7.138 -10.587,-4.755 c 0.382,-0.698 0.989,-1.221 1.898,-1.221 0.528,0 0.946,0.177 1.276,0.397 0.137,0.1 0.255,0.2 0.355,0.3 L 16.743,8.484 C 15.462,7.376 14.004,7.176 13.051,7.176 c -2.239,0 -3.824,0.976 -4.759,2.455 l -3.54,-1.59 c 1.704,-2.608 4.636,-4.337 7.963,-4.337 5.251,0 9.523,4.3 9.523,9.587 0,0.854 -0.113,1.685 -0.323,2.474 -0.007,-0.007 -0.013,-0.015 -0.022,-0.024 z" />
</svg>