<?xml version="1.0" encoding="UTF-8" standalone="no"?>
<!-- Created with Inkscape (http://www.inkscape.org/) -->

<svg
   xmlns:dc="http://purl.org/dc/elements/1.1/"
   xmlns:cc="http://creativecommons.org/ns#"
   xmlns:rdf="http://www.w3.org/1999/02/22-rdf-syntax-ns#"
   xmlns:svg="http://www.w3.org/2000/svg"
   xmlns="http://www.w3.org/2000/svg"
   xmlns:sodipodi="http://sodipodi.sourceforge.net/DTD/sodipodi-0.dtd"
   xmlns:inkscape="http://www.inkscape.org/namespaces/inkscape"
   width="198.5634mm"
   height="199.19304mm"
   viewBox="0 0 198.5634 199.19304"
   version="1.1"
   id="svg8"
   inkscape:version="0.92.5 (2060ec1f9f, 2020-04-08)"
   sodipodi:docname="splat.svg">
  <defs
     id="defs2" />
  <sodipodi:namedview
     id="base"
     pagecolor="#ffffff"
     bordercolor="#666666"
     borderopacity="1.0"
     inkscape:pageopacity="0.0"
     inkscape:pageshadow="2"
     inkscape:zoom="0.35"
     inkscape:cx="305.78683"
     inkscape:cy="21.316738"
     inkscape:document-units="mm"
     inkscape:current-layer="layer1"
     showgrid="false"
     inkscape:window-width="1280"
     inkscape:window-height="717"
     inkscape:window-x="0"
     inkscape:window-y="0"
     inkscape:window-maximized="1"
     fit-margin-top="0"
     fit-margin-left="0"
     fit-margin-right="0"
     fit-margin-bottom="0" />
  <metadata
     id="metadata5">
    <rdf:RDF>
      <cc:Work
         rdf:about="">
        <dc:format>image/svg+xml</dc:format>
        <dc:type
           rdf:resource="http://purl.org/dc/dcmitype/StillImage" />
        <dc:title></dc:title>
      </cc:Work>
    </rdf:RDF>
  </metadata>
  <g
     inkscape:label="Layer 1"
     inkscape:groupmode="layer"
     id="layer1"
     transform="translate(66.543003,45.475604)">
    <path
       sodipodi:type="star"
       style="opacity:1;fill:#ff0000;fill-opacity:1;fill-rule:nonzero;stroke:none;stroke-width:0.2;stroke-linecap:round;stroke-linejoin:round;stroke-miterlimit:4;stroke-dasharray:none;stroke-opacity:1;paint-order:fill markers stroke"
       id="path817"
       sodipodi:sides="35"
       sodipodi:cx="32.505951"
       sodipodi:cy="52.827377"
       sodipodi:r1="96.726463"
       sodipodi:r2="85.539536"
       sodipodi:arg1="0.43568287"
       sodipodi:arg2="0.52544266"
       inkscape:flatsided="false"
       inkscape:rounded="0.46"
       inkscape:randomized="0.046"
       d="m 122.40408,92.165496 c -2.78475,5.607105 -12.2747,-1.721152 -15.29757,3.862156 -3.02287,5.583308 10.65271,7.143178 6.88273,12.455518 -3.76997,5.31233 -13.50914,-6.24728 -17.718086,-1.50781 -4.208949,4.73948 6.678406,10.46514 1.918438,14.63665 -4.759968,4.17152 -7.367926,-6.56281 -12.108847,-2.09837 -4.740921,4.46443 5.7951,5.94882 0.327339,9.39875 -5.467762,3.44992 -3.293069,-1.14736 -8.641092,2.11579 -5.348024,3.26315 1.951072,5.01752 -3.66317,7.81197 -5.614242,2.79445 -7.339703,-6.14528 -13.474572,-4.07957 -6.134868,2.06572 3.248639,11.396 -2.944398,12.49792 -6.193037,1.10192 -9.136058,-11.356 -15.421786,-10.81126 -6.285729,0.54474 5.239093,16.48816 -1.180823,17.23828 -6.419917,0.75013 -2.903281,-11.96796 -9.378163,-12.17993 -6.474882,-0.21196 -8.023866,7.65477 -14.314714,6.44043 -6.290848,-1.21434 3.166914,-6.77326 -3.104954,-7.7902 -6.271867,-1.01694 -1.827975,6.61964 -7.7695554,4.67052 -5.9415802,-1.94912 1.9235877,-7.88366 -4.2371713,-10.00391 -6.160759,-2.12026 -7.2790219,10.44044 -12.9876823,7.87621 -5.70866,-2.56423 5.6523817,-14.82644 0.394911,-18.55559 -5.257472,-3.72916 -10.436105,8.55278 -15.386501,4.75465 -4.950396,-3.79814 7.886841,-7.80543 3.337385,-12.15192 -4.549457,-4.34648 -8.685779,3.39661 -13.133996,-1.20204 -4.448217,-4.59864 0.981153,-2.50981 -2.608048,-7.87481 -3.5892,-5.365 -10.073061,3.32639 -13.505033,-2.15281 -3.431972,-5.47921 14.08839,-6.811393 11.655029,-12.732558 -2.433361,-5.921165 -12.852708,-1.684096 -14.915824,-7.85111 -2.063116,-6.167014 3.814676,-3.172915 2.264868,-9.275607 -1.549808,-6.102692 -12.345574,1.457323 -13.658184,-4.848801 -1.312611,-6.306124 10.810254,-6.92365 10.011422,-13.229576 -0.798833,-6.305927 -4.851744,2.789581 -4.83966,-3.617595 0.01208,-6.407175 9.070432,1.35884 9.486347,-5.021971 0.415916,-6.380811 -15.588999,-2.986644 -14.915014,-9.298031 0.673986,-6.311387 11.424653,-0.402676 13.434794,-6.447132 2.010142,-6.044456 -4.630542,-8.500348 -2.621713,-14.654547 2.00883,-6.154198 8.786918,6.640188 11.690872,0.932161 2.903955,-5.708028 -11.63191,-10.2634197 -8.343292,-15.8015207 3.288618,-5.5381009 10.257225,6.4774187 14.215339,1.5682965 3.958114,-4.90912223 -10.378732,-8.32977 -6.273735,-13.0316345 4.104996,-4.7018643 11.939666,4.6596402 16.836404,0.3795329 4.896737,-4.2801072 -4.321764,-14.4368752 0.438747,-18.8269312 4.760511,-4.390056 6.600418,7.431817 12.084236,3.974742 5.4838184,-3.457074 -2.503501,-5.730589 3.228175,-8.72486 5.7316771,-2.994271 4.3108211,9.45712 10.4057157,7.171716 6.0948945,-2.285405 -0.023334,-9.289874 5.8576346,-11.358689 5.8809687,-2.068815 5.2965655,1.826775 11.4730627,0.459336 6.176498,-1.36744 -2.399079,-6.506456 3.854165,-7.296357 6.253244,-0.789902 0.859049,9.347272 7.130527,9.348938 6.271478,0.0017 -1.487309,-8.467646 5.015114,-8.501676 6.502422,-0.03403 4.823755,7.546811 11.15374,7.921546 6.329984,0.374735 5.211171,-13.654292 11.472986,-12.110705 6.261814,1.543586 -5.853146,16.157456 0.04122,18.181426 5.89437,2.023969 9.804304,-10.439957 15.562435,-7.911848 5.758131,2.52811 -4.302599,6.648948 1.47988,9.295265 5.78248,2.646317 7.796992,-7.480766 13.394072,-4.37732 5.597079,3.103447 -8.284405,12.68369 -3.153677,16.320013 5.130727,3.636324 9.555369,-5.846535 13.999213,-1.087779 4.443846,4.758757 -3.452386,2.887558 0.796626,7.4586272 4.24901,4.5710688 11.05403,-3.7382462 14.90579,1.3659677 3.85176,5.104214 -8.57966,7.3567982 -5.14225,12.5586311 3.4374,5.201833 7.75503,-4.1269774 10.58486,1.5475515 2.82984,5.6745285 -5.11187,12.0189825 -2.48437,17.9411325 2.6275,5.92215 10.04566,-8.144937 11.89295,-1.907034 1.84729,6.237902 -8.9078,5.626361 -7.53621,11.813079 1.37159,6.186718 7.54028,-1.778014 8.2861,4.419544 0.74583,6.197559 -5.96183,4.158087 -5.42104,10.547819 0.54078,6.389732 10.99505,3.570294 10.24592,9.976002 -0.74914,6.405708 -13.69101,-2.544645 -14.46761,3.796808 -0.77659,6.341453 8.20703,5.707964 6.18826,11.882658 -2.01876,6.174695 -8.02324,-0.787615 -10.23637,5.268155 -2.21312,6.05577 11.72255,4.826606 8.9378,10.433711 z"
       inkscape:transform-center-x="0.080979191"
       inkscape:transform-center-y="-0.16225493" />
  </g>
</svg>
