<?xml version="1.0" encoding="UTF-8" standalone="no"?>
<!-- Created with Inkscape (http://www.inkscape.org/) -->

<svg
   xmlns:dc="http://purl.org/dc/elements/1.1/"
   xmlns:cc="http://creativecommons.org/ns#"
   xmlns:rdf="http://www.w3.org/1999/02/22-rdf-syntax-ns#"
   xmlns:svg="http://www.w3.org/2000/svg"
   xmlns="http://www.w3.org/2000/svg"
   xmlns:sodipodi="http://sodipodi.sourceforge.net/DTD/sodipodi-0.dtd"
   xmlns:inkscape="http://www.inkscape.org/namespaces/inkscape"
   width="282.22223mm"
   height="17.724001mm"
   viewBox="0 0 282.22223 17.724001"
   version="1.1"
   id="svg8"
   inkscape:version="0.92.5 (2060ec1f9f, 2020-04-08)"
   sodipodi:docname="curating-dividers.svg">
  <defs
     id="defs2" />
  <sodipodi:namedview
     id="base"
     pagecolor="#ffffff"
     bordercolor="#666666"
     borderopacity="1.0"
     inkscape:pageopacity="0.0"
     inkscape:pageshadow="2"
     inkscape:zoom="2.8284271"
     inkscape:cx="249.6037"
     inkscape:cy="61.570007"
     inkscape:document-units="mm"
     inkscape:current-layer="layer1"
     showgrid="false"
     fit-margin-top="0"
     fit-margin-left="0"
     fit-margin-right="0"
     fit-margin-bottom="0"
     showguides="true"
     inkscape:guide-bbox="true"
     inkscape:window-width="1280"
     inkscape:window-height="717"
     inkscape:window-x="0"
     inkscape:window-y="0"
     inkscape:window-maximized="1">
    <sodipodi:guide
       position="0,17.587556"
       orientation="1,0"
       id="guide91"
       inkscape:locked="true"
       inkscape:label=""
       inkscape:color="rgb(0,0,255)" />
    <sodipodi:guide
       position="67.050277,17.623999"
       orientation="0,1"
       id="guide93"
       inkscape:locked="true"
       inkscape:label=""
       inkscape:color="rgb(0,0,255)" />
    <sodipodi:guide
       position="282.22198,0"
       orientation="1,0"
       id="guide95"
       inkscape:locked="true"
       inkscape:label=""
       inkscape:color="rgb(0,0,255)" />
    <sodipodi:guide
       position="-2.2294732,11.999999"
       orientation="0,1"
       id="guide118"
       inkscape:locked="true"
       inkscape:label=""
       inkscape:color="rgb(0,0,255)" />
    <sodipodi:guide
       position="-2.1515196,4.9999997"
       orientation="0,1"
       id="guide120"
       inkscape:locked="true"
       inkscape:label=""
       inkscape:color="rgb(0,0,255)" />
    <sodipodi:guide
       position="69.999996,18.940128"
       orientation="1,0"
       id="guide122"
       inkscape:locked="true"
       inkscape:label=""
       inkscape:color="rgb(0,0,255)" />
    <sodipodi:guide
       position="210.99999,13.707198"
       orientation="1,0"
       id="guide124"
       inkscape:locked="true"
       inkscape:label=""
       inkscape:color="rgb(0,0,255)" />
    <sodipodi:guide
       position="282.34658,0"
       orientation="0,1"
       id="guide1987"
       inkscape:locked="true"
       inkscape:label=""
       inkscape:color="rgb(0,0,255)" />
  </sodipodi:namedview>
  <metadata
     id="metadata5">
    <rdf:RDF>
      <cc:Work
         rdf:about="">
        <dc:format>image/svg+xml</dc:format>
        <dc:type
           rdf:resource="http://purl.org/dc/dcmitype/StillImage" />
        <dc:title></dc:title>
      </cc:Work>
    </rdf:RDF>
  </metadata>
  <g
     inkscape:label="Layer 1"
     inkscape:groupmode="layer"
     id="layer1"
     transform="translate(73.831352,-104.44902)">
    <rect
       style="opacity:1;fill:#000000;fill-opacity:1;fill-rule:nonzero;stroke:none;stroke-width:0.2;stroke-linecap:round;stroke-linejoin:round;stroke-miterlimit:4;stroke-dasharray:none;stroke-opacity:1;paint-order:fill markers stroke"
       id="rect1125"
       width="282.22198"
       height="7.000001"
       x="-73.831352"
       y="110.12302"
       ry="1.3419265e-06"
       inkscape:label="bottom-rect" />
    <g
       id="g1931"
       inkscape:label="right-group"
       transform="matrix(1,0,0,-1,0,227.21898)">
      <path
         inkscape:label="right-red1-16"
         inkscape:connector-curvature="0"
         id="path1807"
         style="fill:#a3102a;fill-opacity:1;fill-rule:evenodd;stroke:none;stroke-width:0.2;stroke-miterlimit:4;stroke-dasharray:none;stroke-opacity:1"
         d="m 206.62824,110.94963 -1.2657,0.0499 -1.40097,0.9224 -0.42929,1.04742 0.49709,0.74811 0.60986,0.32444 0.92671,-0.27417 1.28819,-1.94535 z" />
      <path
         inkscape:label="right-red-15"
         inkscape:connector-curvature="0"
         id="path1809"
         style="fill:#a3102a;fill-opacity:1;fill-rule:evenodd;stroke:none;stroke-width:0.2;stroke-miterlimit:4;stroke-dasharray:none;stroke-opacity:1"
         d="m 201.11406,116.58558 -1.19757,-0.0747 -1.6725,-0.49841 c 0,0 -1.31068,-0.79838 -1.31068,-0.87313 0,-0.0747 -0.38431,-0.52354 -0.38431,-0.52354 l -0.38397,-0.54868 -0.2034,-1.12216 0.4068,-0.77325 c 0,0 0.63235,-0.14982 1.35599,-0.22423 0.72297,-0.0747 1.64967,0.84799 1.64967,0.84799 l 1.55939,2.19438 z" />
      <path
         inkscape:label="right-red-14"
         inkscape:connector-curvature="0"
         id="path1811"
         style="fill:#a3102a;fill-opacity:1;fill-rule:evenodd;stroke:none;stroke-width:0.2;stroke-miterlimit:4;stroke-dasharray:none;stroke-opacity:1"
         d="m 188.54923,116.58558 1.19757,-0.0747 1.6725,-0.49841 c 0,0 1.31101,-0.79838 1.31101,-0.87313 0,-0.0747 0.38397,-0.52354 0.38397,-0.52354 l 0.38398,-0.54868 0.2034,-1.12216 -0.40647,-0.77325 c 0,0 -0.63268,-0.14982 -1.35632,-0.22423 -0.72297,-0.0747 -1.64968,0.84799 -1.64968,0.84799 l -1.55938,2.19438 z" />
      <path
         inkscape:label="right-red-13"
         inkscape:connector-curvature="0"
         id="path1813"
         style="fill:#a3102a;fill-opacity:1;fill-rule:evenodd;stroke:none;stroke-width:0.2;stroke-miterlimit:4;stroke-dasharray:none;stroke-opacity:1"
         d="m 183.12547,110.82494 1.26537,0.0499 1.4013,0.92241 0.42928,1.04741 -0.49708,0.74811 -0.60987,0.32445 -0.9267,-0.27418 -1.28819,-1.94534 z" />
      <path
         d="m 178.63724,116.26935 -1.2657,-0.0499 -1.40097,-0.9224 -0.42929,-1.04742 0.49709,-0.74811 0.60986,-0.32444 0.92671,0.27417 1.28819,1.94535 z"
         style="fill:#a3102a;fill-opacity:1;fill-rule:evenodd;stroke:none;stroke-width:0.2;stroke-miterlimit:4;stroke-dasharray:none;stroke-opacity:1"
         id="path1793"
         inkscape:connector-curvature="0"
         inkscape:label="right-red-12" />
      <path
         d="m 173.12306,110.6334 -1.19757,0.0747 -1.6725,0.49841 c 0,0 -1.31068,0.79838 -1.31068,0.87313 0,0.0747 -0.38431,0.52354 -0.38431,0.52354 l -0.38397,0.54868 -0.2034,1.12216 0.4068,0.77325 c 0,0 0.63235,0.14982 1.35599,0.22423 0.72297,0.0747 1.64967,-0.84799 1.64967,-0.84799 l 1.55939,-2.19438 z"
         style="fill:#a3102a;fill-opacity:1;fill-rule:evenodd;stroke:none;stroke-width:0.2;stroke-miterlimit:4;stroke-dasharray:none;stroke-opacity:1"
         id="path1795"
         inkscape:connector-curvature="0"
         inkscape:label="right-red-11" />
      <path
         d="m 160.55823,110.6334 1.19757,0.0747 1.6725,0.49841 c 0,0 1.31101,0.79838 1.31101,0.87313 0,0.0747 0.38397,0.52354 0.38397,0.52354 l 0.38398,0.54868 0.2034,1.12216 -0.40647,0.77325 c 0,0 -0.63268,0.14982 -1.35632,0.22423 -0.72297,0.0747 -1.64968,-0.84799 -1.64968,-0.84799 l -1.55938,-2.19438 z"
         style="fill:#a3102a;fill-opacity:1;fill-rule:evenodd;stroke:none;stroke-width:0.2;stroke-miterlimit:4;stroke-dasharray:none;stroke-opacity:1"
         id="path1797"
         inkscape:connector-curvature="0"
         inkscape:label="right-red-10" />
      <path
         d="m 155.13447,116.39404 1.26537,-0.0499 1.4013,-0.92241 0.42928,-1.04741 -0.49708,-0.74811 -0.60987,-0.32445 -0.9267,0.27418 -1.28819,1.94534 z"
         style="fill:#a3102a;fill-opacity:1;fill-rule:evenodd;stroke:none;stroke-width:0.2;stroke-miterlimit:4;stroke-dasharray:none;stroke-opacity:1"
         id="path1799"
         inkscape:connector-curvature="0"
         inkscape:label="right-red-9" />
      <path
         d="m 151.00121,110.94963 -1.2657,0.0499 -1.40097,0.9224 -0.42929,1.04742 0.49709,0.74811 0.60986,0.32444 0.92671,-0.27417 1.28819,-1.94535 z"
         style="fill:#a3102a;fill-opacity:1;fill-rule:evenodd;stroke:none;stroke-width:0.2;stroke-miterlimit:4;stroke-dasharray:none;stroke-opacity:1"
         id="path1777"
         inkscape:connector-curvature="0"
         inkscape:label="right-red-8" />
      <path
         d="m 145.48703,116.58558 -1.19757,-0.0747 -1.6725,-0.49841 c 0,0 -1.31068,-0.79838 -1.31068,-0.87313 0,-0.0747 -0.38431,-0.52354 -0.38431,-0.52354 l -0.38397,-0.54868 -0.2034,-1.12216 0.4068,-0.77325 c 0,0 0.63235,-0.14982 1.35599,-0.22423 0.72297,-0.0747 1.64967,0.84799 1.64967,0.84799 l 1.55939,2.19438 z"
         style="fill:#a3102a;fill-opacity:1;fill-rule:evenodd;stroke:none;stroke-width:0.2;stroke-miterlimit:4;stroke-dasharray:none;stroke-opacity:1"
         id="path1779"
         inkscape:connector-curvature="0"
         inkscape:label="right-red-7" />
      <path
         d="m 132.9222,116.58558 1.19757,-0.0747 1.6725,-0.49841 c 0,0 1.31101,-0.79838 1.31101,-0.87313 0,-0.0747 0.38397,-0.52354 0.38397,-0.52354 l 0.38398,-0.54868 0.2034,-1.12216 -0.40647,-0.77325 c 0,0 -0.63268,-0.14982 -1.35632,-0.22423 -0.72297,-0.0747 -1.64968,0.84799 -1.64968,0.84799 l -1.55938,2.19438 z"
         style="fill:#a3102a;fill-opacity:1;fill-rule:evenodd;stroke:none;stroke-width:0.2;stroke-miterlimit:4;stroke-dasharray:none;stroke-opacity:1"
         id="path1781"
         inkscape:connector-curvature="0"
         inkscape:label="right-red-6" />
      <path
         d="m 127.49844,110.82494 1.26537,0.0499 1.4013,0.92241 0.42928,1.04741 -0.49708,0.74811 -0.60987,0.32445 -0.9267,-0.27418 -1.28819,-1.94534 z"
         style="fill:#a3102a;fill-opacity:1;fill-rule:evenodd;stroke:none;stroke-width:0.2;stroke-miterlimit:4;stroke-dasharray:none;stroke-opacity:1"
         id="path1783"
         inkscape:connector-curvature="0"
         inkscape:label="right-red-5" />
      <path
         inkscape:label="right-red-4"
         inkscape:connector-curvature="0"
         id="path1763"
         style="fill:#a3102a;fill-opacity:1;fill-rule:evenodd;stroke:none;stroke-width:0.2;stroke-miterlimit:4;stroke-dasharray:none;stroke-opacity:1"
         d="m 123.01022,116.26935 -1.2657,-0.0499 -1.40097,-0.9224 -0.42929,-1.04742 0.49709,-0.74811 0.60986,-0.32444 0.92671,0.27417 1.28819,1.94535 z" />
      <path
         inkscape:label="right-red-3"
         inkscape:connector-curvature="0"
         id="path1765"
         style="fill:#a3102a;fill-opacity:1;fill-rule:evenodd;stroke:none;stroke-width:0.2;stroke-miterlimit:4;stroke-dasharray:none;stroke-opacity:1"
         d="m 117.49604,110.6334 -1.19757,0.0747 -1.6725,0.49841 c 0,0 -1.31068,0.79838 -1.31068,0.87313 0,0.0747 -0.38431,0.52354 -0.38431,0.52354 l -0.38397,0.54868 -0.2034,1.12216 0.4068,0.77325 c 0,0 0.63235,0.14982 1.35599,0.22423 0.72297,0.0747 1.64967,-0.84799 1.64967,-0.84799 l 1.55939,-2.19438 z" />
      <path
         inkscape:label="right-red-2"
         inkscape:connector-curvature="0"
         id="path1767"
         style="fill:#a3102a;fill-opacity:1;fill-rule:evenodd;stroke:none;stroke-width:0.2;stroke-miterlimit:4;stroke-dasharray:none;stroke-opacity:1"
         d="m 104.93121,110.6334 1.19757,0.0747 1.6725,0.49841 c 0,0 1.31101,0.79838 1.31101,0.87313 0,0.0747 0.38397,0.52354 0.38397,0.52354 l 0.38398,0.54868 0.2034,1.12216 -0.40647,0.77325 c 0,0 -0.63268,0.14982 -1.35632,0.22423 -0.72297,0.0747 -1.64968,-0.84799 -1.64968,-0.84799 l -1.55938,-2.19438 z" />
      <path
         inkscape:label="right-red-1"
         inkscape:connector-curvature="0"
         id="path1769"
         style="fill:#a3102a;fill-opacity:1;fill-rule:evenodd;stroke:none;stroke-width:0.2;stroke-miterlimit:4;stroke-dasharray:none;stroke-opacity:1"
         d="m 99.50745,116.39404 1.26537,-0.0499 1.4013,-0.92241 0.42928,-1.04741 -0.49708,-0.74811 -0.60987,-0.32445 -0.9267,0.27418 -1.28819,1.94534 z" />
      <path
         inkscape:label="right-white-8"
         inkscape:connector-curvature="0"
         id="path1815"
         style="display:inline;fill:#ffffff;fill-opacity:1;fill-rule:evenodd;stroke:none;stroke-width:0.2;stroke-miterlimit:4;stroke-dasharray:none;stroke-opacity:1"
         d="m 194.86539,111.18279 c 2.73348,0.12832 5.16897,2.46691 6.09931,5.03767 -1.31762,0.0506 -2.51222,-0.21895 -3.33838,-1.04312 0.14288,-0.43789 0.48584,-0.79772 1.0504,-0.7706 -0.20208,0.48915 0.45607,1.09868 0.91479,0.59266 0.3648,-0.40249 -0.0235,-1.11554 -0.95084,-1.14862 -0.70743,-0.0251 -1.19294,0.30957 -1.61958,0.67502 -0.2583,-0.21894 -0.58176,-0.56323 -0.68428,-0.98987 0.60689,0.34528 1.31597,-0.297 0.93596,-1.03551 -0.13461,-0.26227 -0.6006,-0.44913 -0.89958,-0.4369 -0.25003,0.0103 -0.50932,0.17198 -0.64955,0.41937 -0.70313,1.60304 1.38707,3.93071 3.52921,4.38646 1.19558,0.25466 3.29869,0.32874 4.43011,-0.28708 1.68705,-0.99814 2.65642,-2.53735 3.41611,-4.55844 0.46169,0.65353 0.59862,1.89343 0.35983,2.70074 -0.3003,-0.0655 -0.51329,-0.22787 -0.61152,-0.5166 0.13229,0.0883 0.30923,0.0956 0.39588,0 0.56423,-0.52884 -0.28112,-1.24652 -0.68394,-0.67502 -0.45211,0.64129 0.15775,1.47737 0.57613,1.86697 -0.0866,0.34131 -0.34892,0.48882 -0.6479,0.59564 0.169,-0.14651 0.22423,-0.21365 0.25168,-0.43722 0.11047,-0.90389 -0.99086,-0.90256 -1.18765,-0.27748 -0.17892,0.56687 0.0361,1.06792 0.46799,1.31068 1.73434,0.74083 2.49535,-1.68275 2.33957,-3.61454 -0.0681,-0.84171 -0.64756,-2.30949 -0.85493,-2.57142 -3.15516,-0.48088 -4.42913,1.86762 -4.32825,2.80987 0.0367,0.46071 0.10715,1.14829 0.97168,1.11191 0.67204,-0.0284 1.38013,-1.1258 0.75605,-1.46976 -0.34826,-0.19149 -0.86916,0.16008 -0.57613,0.63566 -0.3982,-0.11112 -0.54108,-0.91479 -0.14387,-1.15159 0.43557,0.47162 1.78395,0.40282 1.79983,-0.35752 0.007,-0.3519 -0.43127,-0.60391 -0.72,-0.35752 -0.15809,0.18157 -0.087,0.45574 0.0721,0.59597 -0.34859,0.14552 -0.59895,-0.15974 -0.68395,-0.43722 0.30593,-0.6856 1.24619,-0.8298 1.90765,-0.59564 -0.77193,2.83699 -3.11415,4.42581 -3.62876,4.70495 0.0939,-0.68759 0.28641,-1.91625 0.1012,-2.87801 -0.24077,-1.25346 -0.889,-2.23341 -1.76345,-2.70073 -0.93067,-0.40779 -2.35777,-0.0189 -2.08756,1.31068 0.25003,1.2323 2.16264,0.71272 1.33151,-0.55596 0.48948,-0.0605 0.91017,0.29104 1.11588,0.67502 -0.58439,0.25929 -1.12877,1.33052 -0.71999,2.06541 0.35851,0.64459 1.65794,0.30625 1.11621,-0.59565 -0.24606,-0.26557 -0.54339,0.0172 -0.61218,0.23813 -0.22754,-0.49014 0.20207,-0.83344 0.54008,-0.95316 0.51164,1.03022 0.37802,2.30882 0.0357,3.49514 -0.29137,-0.45244 -0.49279,-0.96804 -0.75572,-1.42974 -0.76597,-1.34673 -3.13399,-4.17711 -6.36686,-4.38051 z" />
      <path
         inkscape:label="right-white-7"
         inkscape:connector-curvature="0"
         id="path1817"
         style="display:inline;fill:#ffffff;fill-opacity:1;fill-rule:evenodd;stroke:none;stroke-width:0.2;stroke-miterlimit:4;stroke-dasharray:none;stroke-opacity:1"
         d="m 194.86539,111.18279 c -2.73347,0.12832 -5.16896,2.46691 -6.0993,5.03767 1.31762,0.0506 2.51222,-0.21895 3.33838,-1.04312 -0.14288,-0.43789 -0.48551,-0.79772 -1.0504,-0.7706 0.20208,0.48915 -0.45607,1.09868 -0.9148,0.59266 -0.36479,-0.40249 0.0235,-1.11554 0.95085,-1.14862 0.70743,-0.0251 1.19294,0.30957 1.61958,0.67502 0.2583,-0.21894 0.58175,-0.56323 0.68428,-0.98987 -0.60689,0.34528 -1.31597,-0.297 -0.93596,-1.03551 0.1346,-0.26227 0.6006,-0.44913 0.89958,-0.4369 0.25003,0.0103 0.50932,0.17198 0.64955,0.41937 0.70313,1.60304 -1.38708,3.93071 -3.52921,4.38646 -1.19559,0.25466 -3.29869,0.32874 -4.43012,-0.28708 -1.68672,-0.99814 -2.65641,-2.53735 -3.4161,-4.55844 -0.4617,0.65353 -0.59829,1.89343 -0.35983,2.70074 0.30063,-0.0655 0.51329,-0.22787 0.61152,-0.5166 -0.13229,0.0883 -0.30923,0.0956 -0.39589,0 -0.56422,-0.52884 0.28112,-1.24652 0.68428,-0.67502 0.45178,0.64129 -0.15809,1.47737 -0.57613,1.86697 0.0863,0.34131 0.34859,0.48882 0.6479,0.59564 -0.16933,-0.14651 -0.22456,-0.21365 -0.25201,-0.43722 -0.11047,-0.90389 0.99086,-0.90256 1.18764,-0.27748 0.17893,0.56687 -0.0361,1.06792 -0.46798,1.31068 -1.73401,0.74083 -2.49535,-1.68275 -2.33925,-3.61454 0.0678,-0.84171 0.64724,-2.30949 0.85461,-2.57142 3.15516,-0.48088 4.42912,1.86762 4.32825,2.80987 -0.0367,0.46071 -0.10715,1.14829 -0.97168,1.11191 -0.67204,-0.0284 -1.38013,-1.1258 -0.75605,-1.46976 0.34859,-0.19149 0.86916,0.16008 0.57613,0.63566 0.3982,-0.11112 0.54108,-0.91479 0.14387,-1.15159 -0.43557,0.47162 -1.78395,0.40282 -1.7995,-0.35752 -0.008,-0.3519 0.43094,-0.60391 0.71967,-0.35752 0.15809,0.18157 0.0873,0.45574 -0.0718,0.59597 0.34826,0.14552 0.59895,-0.15974 0.68362,-0.43722 -0.30593,-0.6856 -1.24619,-0.8298 -1.90732,-0.59564 0.77159,2.83699 3.11382,4.42581 3.62843,4.70495 -0.0939,-0.68759 -0.28641,-1.91625 -0.1012,-2.87801 0.24077,-1.25346 0.889,-2.23341 1.76378,-2.70073 0.93034,-0.40779 2.35743,-0.0189 2.08723,1.31068 -0.25003,1.2323 -2.16264,0.71272 -1.33152,-0.55596 -0.48948,-0.0605 -0.91016,0.29104 -1.11588,0.67502 0.5844,0.25929 1.12878,1.33052 0.72,2.06541 -0.35851,0.64459 -1.65795,0.30625 -1.11621,-0.59565 0.24606,-0.26557 0.54339,0.0172 0.61218,0.23813 0.22754,-0.49014 -0.20208,-0.83344 -0.54008,-0.95316 -0.51164,1.03022 -0.37803,2.30882 -0.0357,3.49514 0.29137,-0.45244 0.49278,-0.96804 0.75571,-1.42974 0.7663,-1.34673 3.13399,-4.17711 6.36687,-4.38051 z" />
      <path
         d="m 166.87439,116.03619 c 2.73348,-0.12832 5.16897,-2.46691 6.09931,-5.03767 -1.31762,-0.0506 -2.51222,0.21895 -3.33838,1.04312 0.14288,0.43789 0.48584,0.79772 1.0504,0.7706 -0.20208,-0.48915 0.45607,-1.09868 0.91479,-0.59266 0.3648,0.40249 -0.0235,1.11554 -0.95084,1.14862 -0.70743,0.0251 -1.19294,-0.30957 -1.61958,-0.67502 -0.2583,0.21894 -0.58176,0.56323 -0.68428,0.98987 0.60689,-0.34528 1.31597,0.297 0.93596,1.03551 -0.13461,0.26227 -0.6006,0.44913 -0.89958,0.4369 -0.25003,-0.0103 -0.50932,-0.17198 -0.64955,-0.41937 -0.70313,-1.60304 1.38707,-3.93071 3.52921,-4.38646 1.19558,-0.25466 3.29869,-0.32874 4.43011,0.28708 1.68705,0.99814 2.65642,2.53735 3.41611,4.55844 0.46169,-0.65353 0.59862,-1.89343 0.35983,-2.70074 -0.3003,0.0655 -0.51329,0.22787 -0.61152,0.5166 0.13229,-0.0883 0.30923,-0.0956 0.39588,0 0.56423,0.52884 -0.28112,1.24652 -0.68394,0.67502 -0.45211,-0.64129 0.15775,-1.47737 0.57613,-1.86697 -0.0867,-0.34131 -0.34892,-0.48882 -0.6479,-0.59564 0.169,0.14651 0.22423,0.21365 0.25168,0.43722 0.11047,0.90389 -0.99086,0.90256 -1.18765,0.27748 -0.17892,-0.56687 0.0361,-1.06792 0.46799,-1.31068 1.73434,-0.74083 2.49535,1.68275 2.33957,3.61454 -0.0681,0.84171 -0.64756,2.30949 -0.85493,2.57142 -3.15516,0.48088 -4.42913,-1.86762 -4.32825,-2.80987 0.0367,-0.46071 0.10715,-1.14829 0.97168,-1.11191 0.67204,0.0284 1.38013,1.1258 0.75605,1.46976 -0.34826,0.19149 -0.86916,-0.16008 -0.57613,-0.63566 -0.3982,0.11112 -0.54108,0.91479 -0.14387,1.15159 0.43557,-0.47162 1.78395,-0.40282 1.79983,0.35752 0.007,0.3519 -0.43127,0.60391 -0.72,0.35752 -0.15809,-0.18157 -0.087,-0.45574 0.0721,-0.59597 -0.34859,-0.14552 -0.59895,0.15974 -0.68395,0.43722 0.30593,0.6856 1.24619,0.8298 1.90765,0.59564 -0.77193,-2.83699 -3.11415,-4.42581 -3.62876,-4.70495 0.0939,0.68759 0.28641,1.91625 0.1012,2.87801 -0.24077,1.25346 -0.889,2.23341 -1.76345,2.70073 -0.93067,0.40779 -2.35777,0.0189 -2.08756,-1.31068 0.25003,-1.2323 2.16264,-0.71272 1.33151,0.55596 0.48948,0.0605 0.91017,-0.29104 1.11588,-0.67502 -0.58439,-0.25929 -1.12877,-1.33052 -0.71999,-2.06541 0.35851,-0.64459 1.65794,-0.30625 1.11621,0.59565 -0.24606,0.26557 -0.54339,-0.0172 -0.61218,-0.23813 -0.22754,0.49014 0.20207,0.83344 0.54008,0.95316 0.51164,-1.03022 0.37802,-2.30882 0.0357,-3.49514 -0.29137,0.45244 -0.49279,0.96804 -0.75572,1.42974 -0.76597,1.34673 -3.13399,4.17711 -6.36686,4.38051 z"
         style="display:inline;fill:#ffffff;fill-opacity:1;fill-rule:evenodd;stroke:none;stroke-width:0.2;stroke-miterlimit:4;stroke-dasharray:none;stroke-opacity:1"
         id="path1801"
         inkscape:connector-curvature="0"
         inkscape:label="right-white-6" />
      <path
         d="m 166.87439,116.03619 c -2.73347,-0.12832 -5.16896,-2.46691 -6.0993,-5.03767 1.31762,-0.0506 2.51222,0.21895 3.33838,1.04312 -0.14288,0.43789 -0.48551,0.79772 -1.0504,0.7706 0.20208,-0.48915 -0.45607,-1.09868 -0.9148,-0.59266 -0.36479,0.40249 0.0235,1.11554 0.95085,1.14862 0.70743,0.0251 1.19294,-0.30957 1.61958,-0.67502 0.2583,0.21894 0.58175,0.56323 0.68428,0.98987 -0.60689,-0.34528 -1.31597,0.297 -0.93596,1.03551 0.1346,0.26227 0.6006,0.44913 0.89958,0.4369 0.25003,-0.0103 0.50932,-0.17198 0.64955,-0.41937 0.70313,-1.60304 -1.38708,-3.93071 -3.52921,-4.38646 -1.19559,-0.25466 -3.29869,-0.32874 -4.43012,0.28708 -1.68672,0.99814 -2.65641,2.53735 -3.4161,4.55844 -0.4617,-0.65353 -0.59829,-1.89343 -0.35983,-2.70074 0.30063,0.0655 0.51329,0.22787 0.61152,0.5166 -0.13229,-0.0883 -0.30923,-0.0956 -0.39589,0 -0.56422,0.52884 0.28112,1.24652 0.68428,0.67502 0.45178,-0.64129 -0.15809,-1.47737 -0.57613,-1.86697 0.0863,-0.34131 0.34859,-0.48882 0.6479,-0.59564 -0.16933,0.14651 -0.22456,0.21365 -0.25201,0.43722 -0.11047,0.90389 0.99086,0.90256 1.18764,0.27748 0.17893,-0.56687 -0.0361,-1.06792 -0.46798,-1.31068 -1.73401,-0.74083 -2.49535,1.68275 -2.33925,3.61454 0.0678,0.84171 0.64724,2.30949 0.85461,2.57142 3.15516,0.48088 4.42912,-1.86762 4.32825,-2.80987 -0.0367,-0.46071 -0.10715,-1.14829 -0.97168,-1.11191 -0.67204,0.0284 -1.38013,1.1258 -0.75605,1.46976 0.34859,0.19149 0.86916,-0.16008 0.57613,-0.63566 0.3982,0.11112 0.54108,0.91479 0.14387,1.15159 -0.43557,-0.47162 -1.78395,-0.40282 -1.7995,0.35752 -0.008,0.3519 0.43094,0.60391 0.71967,0.35752 0.15809,-0.18157 0.0873,-0.45574 -0.0718,-0.59597 0.34826,-0.14552 0.59895,0.15974 0.68362,0.43722 -0.30593,0.6856 -1.24619,0.8298 -1.90732,0.59564 0.77159,-2.83699 3.11382,-4.42581 3.62843,-4.70495 -0.0939,0.68759 -0.28641,1.91625 -0.1012,2.87801 0.24077,1.25346 0.889,2.23341 1.76378,2.70073 0.93034,0.40779 2.35743,0.0189 2.08723,-1.31068 -0.25003,-1.2323 -2.16264,-0.71272 -1.33152,0.55596 -0.48948,0.0605 -0.91016,-0.29104 -1.11588,-0.67502 0.5844,-0.25929 1.12878,-1.33052 0.72,-2.06541 -0.35851,-0.64459 -1.65795,-0.30625 -1.11621,0.59565 0.24606,0.26557 0.54339,-0.0172 0.61218,-0.23813 0.22754,0.49014 -0.20208,0.83344 -0.54008,0.95316 -0.51164,-1.03022 -0.37803,-2.30882 -0.0357,-3.49514 0.29137,0.45244 0.49278,0.96804 0.75571,1.42974 0.7663,1.34673 3.13399,4.17711 6.36687,4.38051 z"
         style="display:inline;fill:#ffffff;fill-opacity:1;fill-rule:evenodd;stroke:none;stroke-width:0.2;stroke-miterlimit:4;stroke-dasharray:none;stroke-opacity:1"
         id="path1803"
         inkscape:connector-curvature="0"
         inkscape:label="right-white-5" />
      <path
         d="m 139.23836,111.18279 c 2.73348,0.12832 5.16897,2.46691 6.09931,5.03767 -1.31762,0.0506 -2.51222,-0.21895 -3.33838,-1.04312 0.14288,-0.43789 0.48584,-0.79772 1.0504,-0.7706 -0.20208,0.48915 0.45607,1.09868 0.91479,0.59266 0.3648,-0.40249 -0.0235,-1.11554 -0.95084,-1.14862 -0.70743,-0.0251 -1.19294,0.30957 -1.61958,0.67502 -0.2583,-0.21894 -0.58176,-0.56323 -0.68428,-0.98987 0.60689,0.34528 1.31597,-0.297 0.93596,-1.03551 -0.13461,-0.26227 -0.6006,-0.44913 -0.89958,-0.4369 -0.25003,0.0103 -0.50932,0.17198 -0.64955,0.41937 -0.70313,1.60304 1.38707,3.93071 3.52921,4.38646 1.19558,0.25466 3.29869,0.32874 4.43011,-0.28708 1.68705,-0.99814 2.65642,-2.53735 3.41611,-4.55844 0.46169,0.65353 0.59862,1.89343 0.35983,2.70074 -0.3003,-0.0655 -0.51329,-0.22787 -0.61152,-0.5166 0.13229,0.0883 0.30923,0.0956 0.39588,0 0.56423,-0.52884 -0.28112,-1.24652 -0.68394,-0.67502 -0.45211,0.64129 0.15775,1.47737 0.57613,1.86697 -0.0866,0.34131 -0.34892,0.48882 -0.6479,0.59564 0.169,-0.14651 0.22423,-0.21365 0.25168,-0.43722 0.11047,-0.90389 -0.99086,-0.90256 -1.18765,-0.27748 -0.17892,0.56687 0.0361,1.06792 0.46799,1.31068 1.73434,0.74083 2.49535,-1.68275 2.33957,-3.61454 -0.0681,-0.84171 -0.64756,-2.30949 -0.85493,-2.57142 -3.15516,-0.48088 -4.42913,1.86762 -4.32825,2.80987 0.0367,0.46071 0.10715,1.14829 0.97168,1.11191 0.67204,-0.0284 1.38013,-1.1258 0.75605,-1.46976 -0.34826,-0.19149 -0.86916,0.16008 -0.57613,0.63566 -0.3982,-0.11112 -0.54108,-0.91479 -0.14387,-1.15159 0.43557,0.47162 1.78395,0.40282 1.79983,-0.35752 0.007,-0.3519 -0.43127,-0.60391 -0.72,-0.35752 -0.15809,0.18157 -0.087,0.45574 0.0721,0.59597 -0.34859,0.14552 -0.59895,-0.15974 -0.68395,-0.43722 0.30593,-0.6856 1.24619,-0.8298 1.90765,-0.59564 -0.77193,2.83699 -3.11415,4.42581 -3.62876,4.70495 0.0939,-0.68759 0.28641,-1.91625 0.1012,-2.87801 -0.24077,-1.25346 -0.889,-2.23341 -1.76345,-2.70073 -0.93067,-0.40779 -2.35777,-0.0189 -2.08756,1.31068 0.25003,1.2323 2.16264,0.71272 1.33151,-0.55596 0.48948,-0.0605 0.91017,0.29104 1.11588,0.67502 -0.58439,0.25929 -1.12877,1.33052 -0.71999,2.06541 0.35851,0.64459 1.65794,0.30625 1.11621,-0.59565 -0.24606,-0.26557 -0.54339,0.0172 -0.61218,0.23813 -0.22754,-0.49014 0.20207,-0.83344 0.54008,-0.95316 0.51164,1.03022 0.37802,2.30882 0.0357,3.49514 -0.29137,-0.45244 -0.49279,-0.96804 -0.75572,-1.42974 -0.76597,-1.34673 -3.13399,-4.17711 -6.36686,-4.38051 z"
         style="display:inline;fill:#ffffff;fill-opacity:1;fill-rule:evenodd;stroke:none;stroke-width:0.2;stroke-miterlimit:4;stroke-dasharray:none;stroke-opacity:1"
         id="path1785"
         inkscape:connector-curvature="0"
         inkscape:label="right-white-4" />
      <path
         d="m 139.23836,111.18279 c -2.73347,0.12832 -5.16896,2.46691 -6.0993,5.03767 1.31762,0.0506 2.51222,-0.21895 3.33838,-1.04312 -0.14288,-0.43789 -0.48551,-0.79772 -1.0504,-0.7706 0.20208,0.48915 -0.45607,1.09868 -0.9148,0.59266 -0.36479,-0.40249 0.0235,-1.11554 0.95085,-1.14862 0.70743,-0.0251 1.19294,0.30957 1.61958,0.67502 0.2583,-0.21894 0.58175,-0.56323 0.68428,-0.98987 -0.60689,0.34528 -1.31597,-0.297 -0.93596,-1.03551 0.1346,-0.26227 0.6006,-0.44913 0.89958,-0.4369 0.25003,0.0103 0.50932,0.17198 0.64955,0.41937 0.70313,1.60304 -1.38708,3.93071 -3.52921,4.38646 -1.19559,0.25466 -3.29869,0.32874 -4.43012,-0.28708 -1.68672,-0.99814 -2.65641,-2.53735 -3.4161,-4.55844 -0.4617,0.65353 -0.59829,1.89343 -0.35983,2.70074 0.30063,-0.0655 0.51329,-0.22787 0.61152,-0.5166 -0.13229,0.0883 -0.30923,0.0956 -0.39589,0 -0.56422,-0.52884 0.28112,-1.24652 0.68428,-0.67502 0.45178,0.64129 -0.15809,1.47737 -0.57613,1.86697 0.0863,0.34131 0.34859,0.48882 0.6479,0.59564 -0.16933,-0.14651 -0.22456,-0.21365 -0.25201,-0.43722 -0.11047,-0.90389 0.99086,-0.90256 1.18764,-0.27748 0.17893,0.56687 -0.0361,1.06792 -0.46798,1.31068 -1.73401,0.74083 -2.49535,-1.68275 -2.33925,-3.61454 0.0678,-0.84171 0.64724,-2.30949 0.85461,-2.57142 3.15516,-0.48088 4.42912,1.86762 4.32825,2.80987 -0.0367,0.46071 -0.10715,1.14829 -0.97168,1.11191 -0.67204,-0.0284 -1.38013,-1.1258 -0.75605,-1.46976 0.34859,-0.19149 0.86916,0.16008 0.57613,0.63566 0.3982,-0.11112 0.54108,-0.91479 0.14387,-1.15159 -0.43557,0.47162 -1.78395,0.40282 -1.7995,-0.35752 -0.008,-0.3519 0.43094,-0.60391 0.71967,-0.35752 0.15809,0.18157 0.0873,0.45574 -0.0718,0.59597 0.34826,0.14552 0.59895,-0.15974 0.68362,-0.43722 -0.30593,-0.6856 -1.24619,-0.8298 -1.90732,-0.59564 0.77159,2.83699 3.11382,4.42581 3.62843,4.70495 -0.0939,-0.68759 -0.28641,-1.91625 -0.1012,-2.87801 0.24077,-1.25346 0.889,-2.23341 1.76378,-2.70073 0.93034,-0.40779 2.35743,-0.0189 2.08723,1.31068 -0.25003,1.2323 -2.16264,0.71272 -1.33152,-0.55596 -0.48948,-0.0605 -0.91016,0.29104 -1.11588,0.67502 0.5844,0.25929 1.12878,1.33052 0.72,2.06541 -0.35851,0.64459 -1.65795,0.30625 -1.11621,-0.59565 0.24606,-0.26557 0.54339,0.0172 0.61218,0.23813 0.22754,-0.49014 -0.20208,-0.83344 -0.54008,-0.95316 -0.51164,1.03022 -0.37803,2.30882 -0.0357,3.49514 0.29137,-0.45244 0.49278,-0.96804 0.75571,-1.42974 0.7663,-1.34673 3.13399,-4.17711 6.36687,-4.38051 z"
         style="display:inline;fill:#ffffff;fill-opacity:1;fill-rule:evenodd;stroke:none;stroke-width:0.2;stroke-miterlimit:4;stroke-dasharray:none;stroke-opacity:1"
         id="path1787"
         inkscape:connector-curvature="0"
         inkscape:label="right-white-3" />
      <path
         inkscape:label="right-white-2"
         inkscape:connector-curvature="0"
         id="path1771"
         style="display:inline;fill:#ffffff;fill-opacity:1;fill-rule:evenodd;stroke:none;stroke-width:0.2;stroke-miterlimit:4;stroke-dasharray:none;stroke-opacity:1"
         d="m 111.24737,116.03619 c 2.73348,-0.12832 5.16897,-2.46691 6.09931,-5.03767 -1.31762,-0.0506 -2.51222,0.21895 -3.33838,1.04312 0.14288,0.43789 0.48584,0.79772 1.0504,0.7706 -0.20208,-0.48915 0.45607,-1.09868 0.91479,-0.59266 0.3648,0.40249 -0.0235,1.11554 -0.95084,1.14862 -0.70743,0.0251 -1.19294,-0.30957 -1.61958,-0.67502 -0.2583,0.21894 -0.58176,0.56323 -0.68428,0.98987 0.60689,-0.34528 1.31597,0.297 0.93596,1.03551 -0.13461,0.26227 -0.6006,0.44913 -0.89958,0.4369 -0.25003,-0.0103 -0.50932,-0.17198 -0.64955,-0.41937 -0.70313,-1.60304 1.38707,-3.93071 3.52921,-4.38646 1.19558,-0.25466 3.29869,-0.32874 4.43011,0.28708 1.68705,0.99814 2.65642,2.53735 3.41611,4.55844 0.46169,-0.65353 0.59862,-1.89343 0.35983,-2.70074 -0.3003,0.0655 -0.51329,0.22787 -0.61152,0.5166 0.13229,-0.0883 0.30923,-0.0956 0.39588,0 0.56423,0.52884 -0.28112,1.24652 -0.68394,0.67502 -0.45211,-0.64129 0.15775,-1.47737 0.57613,-1.86697 -0.0867,-0.34131 -0.34892,-0.48882 -0.6479,-0.59564 0.169,0.14651 0.22423,0.21365 0.25168,0.43722 0.11047,0.90389 -0.99086,0.90256 -1.18765,0.27748 -0.17892,-0.56687 0.0361,-1.06792 0.46799,-1.31068 1.73434,-0.74083 2.49535,1.68275 2.33957,3.61454 -0.0681,0.84171 -0.64756,2.30949 -0.85493,2.57142 -3.15516,0.48088 -4.42913,-1.86762 -4.32825,-2.80987 0.0367,-0.46071 0.10715,-1.14829 0.97168,-1.11191 0.67204,0.0284 1.38013,1.1258 0.75605,1.46976 -0.34826,0.19149 -0.86916,-0.16008 -0.57613,-0.63566 -0.3982,0.11112 -0.54108,0.91479 -0.14387,1.15159 0.43557,-0.47162 1.78395,-0.40282 1.79983,0.35752 0.007,0.3519 -0.43127,0.60391 -0.72,0.35752 -0.15809,-0.18157 -0.087,-0.45574 0.0721,-0.59597 -0.34859,-0.14552 -0.59895,0.15974 -0.68395,0.43722 0.30593,0.6856 1.24619,0.8298 1.90765,0.59564 -0.77193,-2.83699 -3.11415,-4.42581 -3.62876,-4.70495 0.0939,0.68759 0.28641,1.91625 0.1012,2.87801 -0.24077,1.25346 -0.889,2.23341 -1.76345,2.70073 -0.93067,0.40779 -2.35777,0.0189 -2.08756,-1.31068 0.25003,-1.2323 2.16264,-0.71272 1.33151,0.55596 0.48948,0.0605 0.91017,-0.29104 1.11588,-0.67502 -0.58439,-0.25929 -1.12877,-1.33052 -0.71999,-2.06541 0.35851,-0.64459 1.65794,-0.30625 1.11621,0.59565 -0.24606,0.26557 -0.54339,-0.0172 -0.61218,-0.23813 -0.22754,0.49014 0.20207,0.83344 0.54008,0.95316 0.51164,-1.03022 0.37802,-2.30882 0.0357,-3.49514 -0.29137,0.45244 -0.49279,0.96804 -0.75572,1.42974 -0.76597,1.34673 -3.13399,4.17711 -6.36686,4.38051 z" />
      <path
         inkscape:label="right-white-1"
         inkscape:connector-curvature="0"
         id="path1773"
         style="display:inline;fill:#ffffff;fill-opacity:1;fill-rule:evenodd;stroke:none;stroke-width:0.2;stroke-miterlimit:4;stroke-dasharray:none;stroke-opacity:1"
         d="m 111.24737,116.03619 c -2.73347,-0.12832 -5.16896,-2.46691 -6.0993,-5.03767 1.31762,-0.0506 2.51222,0.21895 3.33838,1.04312 -0.14288,0.43789 -0.48551,0.79772 -1.0504,0.7706 0.20208,-0.48915 -0.45607,-1.09868 -0.9148,-0.59266 -0.36479,0.40249 0.0235,1.11554 0.95085,1.14862 0.70743,0.0251 1.19294,-0.30957 1.61958,-0.67502 0.2583,0.21894 0.58175,0.56323 0.68428,0.98987 -0.60689,-0.34528 -1.31597,0.297 -0.93596,1.03551 0.1346,0.26227 0.6006,0.44913 0.89958,0.4369 0.25003,-0.0103 0.50932,-0.17198 0.64955,-0.41937 0.70313,-1.60304 -1.38708,-3.93071 -3.52921,-4.38646 -1.19559,-0.25466 -3.29869,-0.32874 -4.43012,0.28708 -1.68672,0.99814 -2.65641,2.53735 -3.4161,4.55844 -0.4617,-0.65353 -0.59829,-1.89343 -0.35983,-2.70074 0.30063,0.0655 0.51329,0.22787 0.61152,0.5166 -0.13229,-0.0883 -0.30923,-0.0956 -0.39589,0 -0.56422,0.52884 0.28112,1.24652 0.68428,0.67502 0.45178,-0.64129 -0.15809,-1.47737 -0.57613,-1.86697 0.0863,-0.34131 0.34859,-0.48882 0.6479,-0.59564 -0.16933,0.14651 -0.22456,0.21365 -0.25201,0.43722 -0.11047,0.90389 0.99086,0.90256 1.18764,0.27748 0.17893,-0.56687 -0.0361,-1.06792 -0.46798,-1.31068 -1.73401,-0.74083 -2.49535,1.68275 -2.33925,3.61454 0.0678,0.84171 0.64724,2.30949 0.85461,2.57142 3.15516,0.48088 4.42912,-1.86762 4.32825,-2.80987 -0.0367,-0.46071 -0.10715,-1.14829 -0.97168,-1.11191 -0.67204,0.0284 -1.38013,1.1258 -0.75605,1.46976 0.34859,0.19149 0.86916,-0.16008 0.57613,-0.63566 0.3982,0.11112 0.54108,0.91479 0.14387,1.15159 -0.43557,-0.47162 -1.78395,-0.40282 -1.7995,0.35752 -0.008,0.3519 0.43094,0.60391 0.71967,0.35752 0.15809,-0.18157 0.0873,-0.45574 -0.0718,-0.59597 0.34826,-0.14552 0.59895,0.15974 0.68362,0.43722 -0.30593,0.6856 -1.24619,0.8298 -1.90732,0.59564 0.77159,-2.83699 3.11382,-4.42581 3.62843,-4.70495 -0.0939,0.68759 -0.28641,1.91625 -0.1012,2.87801 0.24077,1.25346 0.889,2.23341 1.76378,2.70073 0.93034,0.40779 2.35743,0.0189 2.08723,-1.31068 -0.25003,-1.2323 -2.16264,-0.71272 -1.33152,0.55596 -0.48948,0.0605 -0.91016,-0.29104 -1.11588,-0.67502 0.5844,-0.25929 1.12878,-1.33052 0.72,-2.06541 -0.35851,-0.64459 -1.65795,-0.30625 -1.11621,0.59565 0.24606,0.26557 0.54339,-0.0172 0.61218,-0.23813 0.22754,0.49014 -0.20208,0.83344 -0.54008,0.95316 -0.51164,-1.03022 -0.37803,-2.30882 -0.0357,-3.49514 0.29137,0.45244 0.49278,0.96804 0.75571,1.42974 0.7663,1.34673 3.13399,4.17711 6.36687,4.38051 z" />
    </g>
    <g
       id="g1761"
       inkscape:label="left-group">
      <path
         d="m 35.06424,110.94963 -1.2657,0.0499 -1.40097,0.9224 -0.42929,1.04742 0.49709,0.74811 0.60986,0.32444 0.92671,-0.27417 1.28819,-1.94535 z"
         style="fill:#a3102a;fill-opacity:1;fill-rule:evenodd;stroke:none;stroke-width:0.2;stroke-miterlimit:4;stroke-dasharray:none;stroke-opacity:1"
         id="path1715"
         inkscape:connector-curvature="0"
         inkscape:label="left-red-16" />
      <path
         d="m 29.55006,116.58558 -1.19757,-0.0747 -1.6725,-0.49841 c 0,0 -1.31068,-0.79838 -1.31068,-0.87313 0,-0.0747 -0.38431,-0.52354 -0.38431,-0.52354 l -0.38397,-0.54868 -0.2034,-1.12216 0.4068,-0.77325 c 0,0 0.63235,-0.14982 1.35599,-0.22423 0.72297,-0.0747 1.64967,0.84799 1.64967,0.84799 l 1.55939,2.19438 z"
         style="fill:#a3102a;fill-opacity:1;fill-rule:evenodd;stroke:none;stroke-width:0.2;stroke-miterlimit:4;stroke-dasharray:none;stroke-opacity:1"
         id="path1717"
         inkscape:connector-curvature="0"
         inkscape:label="left-red-15" />
      <path
         d="m 16.98523,116.58558 1.19757,-0.0747 1.6725,-0.49841 c 0,0 1.31101,-0.79838 1.31101,-0.87313 0,-0.0747 0.38397,-0.52354 0.38397,-0.52354 l 0.38398,-0.54868 0.2034,-1.12216 -0.40647,-0.77325 c 0,0 -0.63268,-0.14982 -1.35632,-0.22423 -0.72297,-0.0747 -1.64968,0.84799 -1.64968,0.84799 l -1.55938,2.19438 z"
         style="fill:#a3102a;fill-opacity:1;fill-rule:evenodd;stroke:none;stroke-width:0.2;stroke-miterlimit:4;stroke-dasharray:none;stroke-opacity:1"
         id="path1719"
         inkscape:connector-curvature="0"
         inkscape:label="left-red-14" />
      <path
         d="m 11.56147,110.82494 1.26537,0.0499 1.4013,0.92241 0.42928,1.04741 -0.49708,0.74811 -0.60987,0.32445 -0.9267,-0.27418 -1.28819,-1.94534 z"
         style="fill:#a3102a;fill-opacity:1;fill-rule:evenodd;stroke:none;stroke-width:0.2;stroke-miterlimit:4;stroke-dasharray:none;stroke-opacity:1"
         id="path1721"
         inkscape:connector-curvature="0"
         inkscape:label="left-red-13" />
      <path
         inkscape:label="left-red-12"
         inkscape:connector-curvature="0"
         id="path1701"
         style="fill:#a3102a;fill-opacity:1;fill-rule:evenodd;stroke:none;stroke-width:0.2;stroke-miterlimit:4;stroke-dasharray:none;stroke-opacity:1"
         d="m 7.07325,116.26935 -1.2657,-0.0499 -1.40097,-0.9224 -0.42929,-1.04742 0.49709,-0.74811 0.60986,-0.32444 0.92671,0.27417 1.28819,1.94535 z" />
      <path
         inkscape:label="left-red-11"
         inkscape:connector-curvature="0"
         id="path1703"
         style="fill:#a3102a;fill-opacity:1;fill-rule:evenodd;stroke:none;stroke-width:0.2;stroke-miterlimit:4;stroke-dasharray:none;stroke-opacity:1"
         d="m 1.55907,110.6334 -1.19757,0.0747 -1.6725,0.49841 c 0,0 -1.31068,0.79838 -1.31068,0.87313 0,0.0747 -0.38431,0.52354 -0.38431,0.52354 l -0.38397,0.54868 -0.2034,1.12216 0.4068,0.77325 c 0,0 0.63235,0.14982 1.35599,0.22423 0.72297,0.0747 1.64967,-0.84799 1.64967,-0.84799 l 1.55939,-2.19438 z" />
      <path
         inkscape:label="left-red-10"
         inkscape:connector-curvature="0"
         id="path1705"
         style="fill:#a3102a;fill-opacity:1;fill-rule:evenodd;stroke:none;stroke-width:0.2;stroke-miterlimit:4;stroke-dasharray:none;stroke-opacity:1"
         d="m -11.00576,110.6334 1.19757,0.0747 1.6725,0.49841 c 0,0 1.31101,0.79838 1.31101,0.87313 0,0.0747 0.38397,0.52354 0.38397,0.52354 l 0.38398,0.54868 0.2034,1.12216 -0.40647,0.77325 c 0,0 -0.63268,0.14982 -1.35632,0.22423 -0.72297,0.0747 -1.64968,-0.84799 -1.64968,-0.84799 l -1.55938,-2.19438 z" />
      <path
         inkscape:label="left-red-9"
         inkscape:connector-curvature="0"
         id="path1707"
         style="fill:#a3102a;fill-opacity:1;fill-rule:evenodd;stroke:none;stroke-width:0.2;stroke-miterlimit:4;stroke-dasharray:none;stroke-opacity:1"
         d="m -16.42952,116.39404 1.26537,-0.0499 1.4013,-0.92241 0.42928,-1.04741 -0.49708,-0.74811 -0.60987,-0.32445 -0.9267,0.27418 -1.28819,1.94534 z" />
      <path
         inkscape:label="left-red-8"
         inkscape:connector-curvature="0"
         id="path1671"
         style="fill:#a3102a;fill-opacity:1;fill-rule:evenodd;stroke:none;stroke-width:0.2;stroke-miterlimit:4;stroke-dasharray:none;stroke-opacity:1"
         d="m -20.562785,110.94963 -1.2657,0.0499 -1.40097,0.9224 -0.42929,1.04742 0.49709,0.74811 0.60986,0.32444 0.92671,-0.27417 1.28819,-1.94535 z" />
      <path
         inkscape:label="left-red-7"
         inkscape:connector-curvature="0"
         id="path1673"
         style="fill:#a3102a;fill-opacity:1;fill-rule:evenodd;stroke:none;stroke-width:0.2;stroke-miterlimit:4;stroke-dasharray:none;stroke-opacity:1"
         d="m -26.076965,116.58558 -1.19757,-0.0747 -1.6725,-0.49841 c 0,0 -1.31068,-0.79838 -1.31068,-0.87313 0,-0.0747 -0.38431,-0.52354 -0.38431,-0.52354 l -0.38397,-0.54868 -0.2034,-1.12216 0.4068,-0.77325 c 0,0 0.63235,-0.14982 1.35599,-0.22423 0.72297,-0.0747 1.64967,0.84799 1.64967,0.84799 l 1.55939,2.19438 z" />
      <path
         inkscape:label="left-red-6"
         inkscape:connector-curvature="0"
         id="path1675"
         style="fill:#a3102a;fill-opacity:1;fill-rule:evenodd;stroke:none;stroke-width:0.2;stroke-miterlimit:4;stroke-dasharray:none;stroke-opacity:1"
         d="m -38.641795,116.58558 1.19757,-0.0747 1.6725,-0.49841 c 0,0 1.31101,-0.79838 1.31101,-0.87313 0,-0.0747 0.38397,-0.52354 0.38397,-0.52354 l 0.38398,-0.54868 0.2034,-1.12216 -0.40647,-0.77325 c 0,0 -0.63268,-0.14982 -1.35632,-0.22423 -0.72297,-0.0747 -1.64968,0.84799 -1.64968,0.84799 l -1.55938,2.19438 z" />
      <path
         inkscape:label="left-red-5"
         inkscape:connector-curvature="0"
         id="path1677"
         style="fill:#a3102a;fill-opacity:1;fill-rule:evenodd;stroke:none;stroke-width:0.2;stroke-miterlimit:4;stroke-dasharray:none;stroke-opacity:1"
         d="m -44.065555,110.82494 1.26537,0.0499 1.4013,0.92241 0.42928,1.04741 -0.49708,0.74811 -0.60987,0.32445 -0.9267,-0.27418 -1.28819,-1.94534 z" />
      <path
         d="m -48.553777,116.26935 -1.2657,-0.0499 -1.40097,-0.9224 -0.42929,-1.04742 0.49709,-0.74811 0.60986,-0.32444 0.92671,0.27417 1.28819,1.94535 z"
         style="fill:#a3102a;fill-opacity:1;fill-rule:evenodd;stroke:none;stroke-width:0.2;stroke-miterlimit:4;stroke-dasharray:none;stroke-opacity:1"
         id="path1676"
         inkscape:connector-curvature="0"
         inkscape:label="left-red-4" />
      <path
         d="m -54.067957,110.6334 -1.19757,0.0747 -1.6725,0.49841 c 0,0 -1.31068,0.79838 -1.31068,0.87313 0,0.0747 -0.38431,0.52354 -0.38431,0.52354 l -0.38397,0.54868 -0.2034,1.12216 0.4068,0.77325 c 0,0 0.63235,0.14982 1.35599,0.22423 0.72297,0.0747 1.64967,-0.84799 1.64967,-0.84799 l 1.55939,-2.19438 z"
         style="fill:#a3102a;fill-opacity:1;fill-rule:evenodd;stroke:none;stroke-width:0.2;stroke-miterlimit:4;stroke-dasharray:none;stroke-opacity:1"
         id="path1680"
         inkscape:connector-curvature="0"
         inkscape:label="left-red-3" />
      <path
         d="m -66.632787,110.6334 1.19757,0.0747 1.6725,0.49841 c 0,0 1.31101,0.79838 1.31101,0.87313 0,0.0747 0.38397,0.52354 0.38397,0.52354 l 0.38398,0.54868 0.2034,1.12216 -0.40647,0.77325 c 0,0 -0.63268,0.14982 -1.35632,0.22423 -0.72297,0.0747 -1.64968,-0.84799 -1.64968,-0.84799 l -1.55938,-2.19438 z"
         style="fill:#a3102a;fill-opacity:1;fill-rule:evenodd;stroke:none;stroke-width:0.2;stroke-miterlimit:4;stroke-dasharray:none;stroke-opacity:1"
         id="path1668"
         inkscape:connector-curvature="0"
         inkscape:label="left-red-2" />
      <path
         d="m -72.056547,116.39404 1.26537,-0.0499 1.4013,-0.92241 0.42928,-1.04741 -0.49708,-0.74811 -0.60987,-0.32445 -0.9267,0.27418 -1.28819,1.94534 z"
         style="fill:#a3102a;fill-opacity:1;fill-rule:evenodd;stroke:none;stroke-width:0.2;stroke-miterlimit:4;stroke-dasharray:none;stroke-opacity:1"
         id="path1672"
         inkscape:connector-curvature="0"
         inkscape:label="left-red-1" />
      <path
         d="m 23.30139,111.18279 c 2.73348,0.12832 5.16897,2.46691 6.09931,5.03767 -1.31762,0.0506 -2.51222,-0.21895 -3.33838,-1.04312 0.14288,-0.43789 0.48584,-0.79772 1.0504,-0.7706 -0.20208,0.48915 0.45607,1.09868 0.91479,0.59266 0.3648,-0.40249 -0.0235,-1.11554 -0.95084,-1.14862 -0.70743,-0.0251 -1.19294,0.30957 -1.61958,0.67502 -0.2583,-0.21894 -0.58176,-0.56323 -0.68428,-0.98987 0.60689,0.34528 1.31597,-0.297 0.93596,-1.03551 -0.13461,-0.26227 -0.6006,-0.44913 -0.89958,-0.4369 -0.25003,0.0103 -0.50932,0.17198 -0.64955,0.41937 -0.70313,1.60304 1.38707,3.93071 3.52921,4.38646 1.19558,0.25466 3.29869,0.32874 4.43011,-0.28708 1.68705,-0.99814 2.65642,-2.53735 3.416106,-4.55844 0.461698,0.65353 0.59862,1.89343 0.359834,2.70074 -0.300302,-0.0655 -0.51329,-0.22787 -0.61152,-0.5166 0.13229,0.0883 0.309233,0.0956 0.395884,0 0.564224,-0.52884 -0.281124,-1.24652 -0.683944,-0.67502 -0.45211,0.64129 0.15775,1.47737 0.576126,1.86697 -0.08665,0.34131 -0.348916,0.48882 -0.647896,0.59564 0.169,-0.14651 0.22423,-0.21365 0.25168,-0.43722 0.11047,-0.90389 -0.99086,-0.90256 -1.18765,-0.27748 -0.17892,0.56687 0.0361,1.06792 0.46799,1.31068 1.73434,0.74083 2.495347,-1.68275 2.339573,-3.61454 -0.06813,-0.84171 -0.647566,-2.30949 -0.854933,-2.57142 -3.15516,-0.48088 -4.42913,1.86762 -4.32825,2.80987 0.0367,0.46071 0.10715,1.14829 0.97168,1.11191 0.67204,-0.0284 1.38013,-1.1258 0.75605,-1.46976 -0.34826,-0.19149 -0.86916,0.16008 -0.57613,0.63566 -0.3982,-0.11112 -0.54108,-0.91479 -0.14387,-1.15159 0.43557,0.47162 1.78395,0.40282 1.79983,-0.35752 0.007,-0.3519 -0.43127,-0.60391 -0.72,-0.35752 -0.15809,0.18157 -0.087,0.45574 0.0721,0.59597 -0.34859,0.14552 -0.59895,-0.15974 -0.68395,-0.43722 0.30593,-0.6856 1.24619,-0.8298 1.90765,-0.59564 -0.77193,2.83699 -3.11415,4.42581 -3.62876,4.70495 0.0939,-0.68759 0.28641,-1.91625 0.1012,-2.87801 -0.24077,-1.25346 -0.889,-2.23341 -1.76345,-2.70073 -0.93067,-0.40779 -2.35777,-0.0189 -2.08756,1.31068 0.25003,1.2323 2.16264,0.71272 1.33151,-0.55596 0.48948,-0.0605 0.91017,0.29104 1.11588,0.67502 -0.58439,0.25929 -1.12877,1.33052 -0.71999,2.06541 0.35851,0.64459 1.65794,0.30625 1.11621,-0.59565 -0.24606,-0.26557 -0.54339,0.0172 -0.61218,0.23813 -0.22754,-0.49014 0.20207,-0.83344 0.54008,-0.95316 0.51164,1.03022 0.37802,2.30882 0.0357,3.49514 -0.29137,-0.45244 -0.49279,-0.96804 -0.75572,-1.42974 -0.76597,-1.34673 -3.13399,-4.17711 -6.36686,-4.38051 z"
         style="display:inline;fill:#ffffff;fill-opacity:1;fill-rule:evenodd;stroke:none;stroke-width:0.2;stroke-miterlimit:4;stroke-dasharray:none;stroke-opacity:1"
         id="path1723"
         inkscape:connector-curvature="0"
         inkscape:label="left-white-8" />
      <path
         d="m 23.30139,111.18279 c -2.73347,0.12832 -5.16896,2.46691 -6.0993,5.03767 1.31762,0.0506 2.51222,-0.21895 3.33838,-1.04312 -0.14288,-0.43789 -0.48551,-0.79772 -1.0504,-0.7706 0.20208,0.48915 -0.45607,1.09868 -0.9148,0.59266 -0.36479,-0.40249 0.0235,-1.11554 0.95085,-1.14862 0.70743,-0.0251 1.19294,0.30957 1.61958,0.67502 0.2583,-0.21894 0.58175,-0.56323 0.68428,-0.98987 -0.60689,0.34528 -1.31597,-0.297 -0.93596,-1.03551 0.1346,-0.26227 0.6006,-0.44913 0.89958,-0.4369 0.25003,0.0103 0.50932,0.17198 0.64955,0.41937 0.70313,1.60304 -1.38708,3.93071 -3.52921,4.38646 -1.19559,0.25466 -3.29869,0.32874 -4.43012,-0.28708 -1.68672,-0.99814 -2.65641,-2.53735 -3.4161,-4.55844 -0.4617,0.65353 -0.59829,1.89343 -0.35983,2.70074 0.30063,-0.0655 0.51329,-0.22787 0.61152,-0.5166 -0.13229,0.0883 -0.30923,0.0956 -0.39589,0 -0.56422,-0.52884 0.28112,-1.24652 0.68428,-0.67502 0.45178,0.64129 -0.15809,1.47737 -0.57613,1.86697 0.0863,0.34131 0.34859,0.48882 0.6479,0.59564 -0.16933,-0.14651 -0.22456,-0.21365 -0.25201,-0.43722 -0.11047,-0.90389 0.99086,-0.90256 1.18764,-0.27748 0.17893,0.56687 -0.0361,1.06792 -0.46798,1.31068 -1.73401,0.74083 -2.49535,-1.68275 -2.33925,-3.61454 0.0678,-0.84171 0.64724,-2.30949 0.85461,-2.57142 3.15516,-0.48088 4.42912,1.86762 4.32825,2.80987 -0.0367,0.46071 -0.10715,1.14829 -0.97168,1.11191 -0.67204,-0.0284 -1.38013,-1.1258 -0.75605,-1.46976 0.34859,-0.19149 0.86916,0.16008 0.57613,0.63566 0.3982,-0.11112 0.54108,-0.91479 0.14387,-1.15159 -0.43557,0.47162 -1.78395,0.40282 -1.7995,-0.35752 -0.008,-0.3519 0.43094,-0.60391 0.71967,-0.35752 0.15809,0.18157 0.0873,0.45574 -0.0718,0.59597 0.34826,0.14552 0.59895,-0.15974 0.68362,-0.43722 -0.30593,-0.6856 -1.24619,-0.8298 -1.90732,-0.59564 0.77159,2.83699 3.11382,4.42581 3.62843,4.70495 -0.0939,-0.68759 -0.28641,-1.91625 -0.1012,-2.87801 0.24077,-1.25346 0.889,-2.23341 1.76378,-2.70073 0.93034,-0.40779 2.35743,-0.0189 2.08723,1.31068 -0.25003,1.2323 -2.16264,0.71272 -1.33152,-0.55596 -0.48948,-0.0605 -0.91016,0.29104 -1.11588,0.67502 0.5844,0.25929 1.12878,1.33052 0.72,2.06541 -0.35851,0.64459 -1.65795,0.30625 -1.11621,-0.59565 0.24606,-0.26557 0.54339,0.0172 0.61218,0.23813 0.22754,-0.49014 -0.20208,-0.83344 -0.54008,-0.95316 -0.51164,1.03022 -0.37803,2.30882 -0.0357,3.49514 0.29137,-0.45244 0.49278,-0.96804 0.75571,-1.42974 0.7663,-1.34673 3.13399,-4.17711 6.36687,-4.38051 z"
         style="display:inline;fill:#ffffff;fill-opacity:1;fill-rule:evenodd;stroke:none;stroke-width:0.2;stroke-miterlimit:4;stroke-dasharray:none;stroke-opacity:1"
         id="path1725"
         inkscape:connector-curvature="0"
         inkscape:label="left-white-7" />
      <path
         inkscape:label="left-white-6"
         inkscape:connector-curvature="0"
         id="path1709"
         style="display:inline;fill:#ffffff;fill-opacity:1;fill-rule:evenodd;stroke:none;stroke-width:0.2;stroke-miterlimit:4;stroke-dasharray:none;stroke-opacity:1"
         d="m -4.6896,116.03619 c 2.73348,-0.12832 5.16897,-2.46691 6.09931,-5.03767 -1.31762,-0.0506 -2.51222,0.21895 -3.33838,1.04312 0.14288,0.43789 0.48584,0.79772 1.0504,0.7706 -0.20208,-0.48915 0.45607,-1.09868 0.91479,-0.59266 0.3648,0.40249 -0.0235,1.11554 -0.95084,1.14862 -0.70743,0.0251 -1.19294,-0.30957 -1.61958,-0.67502 -0.2583,0.21894 -0.58176,0.56323 -0.68428,0.98987 0.60689,-0.34528 1.31597,0.297 0.93596,1.03551 -0.13461,0.26227 -0.6006,0.44913 -0.89958,0.4369 -0.25003,-0.0103 -0.50932,-0.17198 -0.64955,-0.41937 -0.70313,-1.60304 1.38707,-3.93071 3.52921,-4.38646 1.19558,-0.25466 3.29869,-0.32874 4.43011,0.28708 1.68705,0.99814 2.65642,2.53735 3.416106,4.55844 0.461698,-0.65353 0.59862,-1.89343 0.359834,-2.70074 -0.300302,0.0655 -0.51329,0.22787 -0.61152,0.5166 0.13229,-0.0883 0.309233,-0.0956 0.395884,0 0.564224,0.52884 -0.281124,1.24652 -0.683944,0.67502 -0.45211,-0.64129 0.15775,-1.47737 0.576126,-1.86697 -0.08665,-0.34131 -0.348916,-0.48882 -0.647896,-0.59564 0.169,0.14651 0.22423,0.21365 0.25168,0.43722 0.11047,0.90389 -0.99086,0.90256 -1.18765,0.27748 -0.17892,-0.56687 0.0361,-1.06792 0.46799,-1.31068 1.73434,-0.74083 2.495347,1.68275 2.339573,3.61454 -0.06813,0.84171 -0.647566,2.30949 -0.854933,2.57142 -3.15516,0.48088 -4.42913,-1.86762 -4.32825,-2.80987 0.0367,-0.46071 0.10715,-1.14829 0.97168,-1.11191 0.67204,0.0284 1.38013,1.1258 0.75605,1.46976 -0.34826,0.19149 -0.86916,-0.16008 -0.57613,-0.63566 -0.3982,0.11112 -0.54108,0.91479 -0.14387,1.15159 0.43557,-0.47162 1.78395,-0.40282 1.79983,0.35752 0.007,0.3519 -0.43127,0.60391 -0.72,0.35752 -0.15809,-0.18157 -0.087,-0.45574 0.0721,-0.59597 -0.34859,-0.14552 -0.59895,0.15974 -0.68395,0.43722 0.30593,0.6856 1.24619,0.8298 1.90765,0.59564 -0.77193,-2.83699 -3.11415,-4.42581 -3.62876,-4.70495 0.0939,0.68759 0.28641,1.91625 0.1012,2.87801 -0.24077,1.25346 -0.889,2.23341 -1.76345,2.70073 -0.93067,0.40779 -2.35777,0.0189 -2.08756,-1.31068 0.25003,-1.2323 2.16264,-0.71272 1.33151,0.55596 0.48948,0.0605 0.91017,-0.29104 1.11588,-0.67502 -0.58439,-0.25929 -1.12877,-1.33052 -0.71999,-2.06541 0.35851,-0.64459 1.65794,-0.30625 1.11621,0.59565 -0.24606,0.26557 -0.54339,-0.0172 -0.61218,-0.23813 -0.22754,0.49014 0.20207,0.83344 0.54008,0.95316 0.51164,-1.03022 0.37802,-2.30882 0.0357,-3.49514 -0.29137,0.45244 -0.49279,0.96804 -0.75572,1.42974 -0.76597,1.34673 -3.13399,4.17711 -6.36686,4.38051 z" />
      <path
         inkscape:label="left-white-5"
         inkscape:connector-curvature="0"
         id="path1711"
         style="display:inline;fill:#ffffff;fill-opacity:1;fill-rule:evenodd;stroke:none;stroke-width:0.2;stroke-miterlimit:4;stroke-dasharray:none;stroke-opacity:1"
         d="m -4.6896,116.03619 c -2.73347,-0.12832 -5.16896,-2.46691 -6.0993,-5.03767 1.31762,-0.0506 2.51222,0.21895 3.33838,1.04312 -0.14288,0.43789 -0.48551,0.79772 -1.0504,0.7706 0.20208,-0.48915 -0.45607,-1.09868 -0.9148,-0.59266 -0.36479,0.40249 0.0235,1.11554 0.95085,1.14862 0.70743,0.0251 1.19294,-0.30957 1.61958,-0.67502 0.2583,0.21894 0.58175,0.56323 0.68428,0.98987 -0.60689,-0.34528 -1.31597,0.297 -0.93596,1.03551 0.1346,0.26227 0.6006,0.44913 0.89958,0.4369 0.25003,-0.0103 0.50932,-0.17198 0.64955,-0.41937 0.70313,-1.60304 -1.38708,-3.93071 -3.52921,-4.38646 -1.19559,-0.25466 -3.29869,-0.32874 -4.43012,0.28708 -1.68672,0.99814 -2.65641,2.53735 -3.4161,4.55844 -0.4617,-0.65353 -0.59829,-1.89343 -0.35983,-2.70074 0.30063,0.0655 0.51329,0.22787 0.61152,0.5166 -0.13229,-0.0883 -0.30923,-0.0956 -0.39589,0 -0.56422,0.52884 0.28112,1.24652 0.68428,0.67502 0.45178,-0.64129 -0.15809,-1.47737 -0.57613,-1.86697 0.0863,-0.34131 0.34859,-0.48882 0.6479,-0.59564 -0.16933,0.14651 -0.22456,0.21365 -0.25201,0.43722 -0.11047,0.90389 0.99086,0.90256 1.18764,0.27748 0.17893,-0.56687 -0.0361,-1.06792 -0.46798,-1.31068 -1.73401,-0.74083 -2.49535,1.68275 -2.33925,3.61454 0.0678,0.84171 0.64724,2.30949 0.85461,2.57142 3.15516,0.48088 4.42912,-1.86762 4.32825,-2.80987 -0.0367,-0.46071 -0.10715,-1.14829 -0.97168,-1.11191 -0.67204,0.0284 -1.38013,1.1258 -0.75605,1.46976 0.34859,0.19149 0.86916,-0.16008 0.57613,-0.63566 0.3982,0.11112 0.54108,0.91479 0.14387,1.15159 -0.43557,-0.47162 -1.78395,-0.40282 -1.7995,0.35752 -0.008,0.3519 0.43094,0.60391 0.71967,0.35752 0.15809,-0.18157 0.0873,-0.45574 -0.0718,-0.59597 0.34826,-0.14552 0.59895,0.15974 0.68362,0.43722 -0.30593,0.6856 -1.24619,0.8298 -1.90732,0.59564 0.77159,-2.83699 3.11382,-4.42581 3.62843,-4.70495 -0.0939,0.68759 -0.28641,1.91625 -0.1012,2.87801 0.24077,1.25346 0.889,2.23341 1.76378,2.70073 0.93034,0.40779 2.35743,0.0189 2.08723,-1.31068 -0.25003,-1.2323 -2.16264,-0.71272 -1.33152,0.55596 -0.48948,0.0605 -0.91016,-0.29104 -1.11588,-0.67502 0.5844,-0.25929 1.12878,-1.33052 0.72,-2.06541 -0.35851,-0.64459 -1.65795,-0.30625 -1.11621,0.59565 0.24606,0.26557 0.54339,-0.0172 0.61218,-0.23813 0.22754,0.49014 -0.20208,0.83344 -0.54008,0.95316 -0.51164,-1.03022 -0.37803,-2.30882 -0.0357,-3.49514 0.29137,0.45244 0.49278,0.96804 0.75571,1.42974 0.7663,1.34673 3.13399,4.17711 6.36687,4.38051 z" />
      <path
         inkscape:label="left-white-4"
         inkscape:connector-curvature="0"
         id="path1679"
         style="display:inline;fill:#ffffff;fill-opacity:1;fill-rule:evenodd;stroke:none;stroke-width:0.2;stroke-miterlimit:4;stroke-dasharray:none;stroke-opacity:1"
         d="m -32.325635,111.18279 c 2.73348,0.12832 5.16897,2.46691 6.09931,5.03767 -1.31762,0.0506 -2.51222,-0.21895 -3.33838,-1.04312 0.14288,-0.43789 0.48584,-0.79772 1.0504,-0.7706 -0.20208,0.48915 0.45607,1.09868 0.91479,0.59266 0.3648,-0.40249 -0.0235,-1.11554 -0.95084,-1.14862 -0.70743,-0.0251 -1.19294,0.30957 -1.61958,0.67502 -0.2583,-0.21894 -0.58176,-0.56323 -0.68428,-0.98987 0.60689,0.34528 1.31597,-0.297 0.93596,-1.03551 -0.13461,-0.26227 -0.6006,-0.44913 -0.89958,-0.4369 -0.25003,0.0103 -0.50932,0.17198 -0.64955,0.41937 -0.70313,1.60304 1.38707,3.93071 3.52921,4.38646 1.19558,0.25466 3.29869,0.32874 4.43011,-0.28708 1.68705,-0.99814 2.65642,-2.53735 3.416106,-4.55844 0.461698,0.65353 0.59862,1.89343 0.359834,2.70074 -0.300302,-0.0655 -0.51329,-0.22787 -0.61152,-0.5166 0.13229,0.0883 0.309233,0.0956 0.395884,0 0.564224,-0.52884 -0.281124,-1.24652 -0.683944,-0.67502 -0.45211,0.64129 0.15775,1.47737 0.576126,1.86697 -0.08665,0.34131 -0.348916,0.48882 -0.647896,0.59564 0.169,-0.14651 0.22423,-0.21365 0.25168,-0.43722 0.11047,-0.90389 -0.99086,-0.90256 -1.18765,-0.27748 -0.17892,0.56687 0.0361,1.06792 0.46799,1.31068 1.73434,0.74083 2.495347,-1.68275 2.339573,-3.61454 -0.06813,-0.84171 -0.647566,-2.30949 -0.854933,-2.57142 -3.15516,-0.48088 -4.42913,1.86762 -4.32825,2.80987 0.0367,0.46071 0.10715,1.14829 0.97168,1.11191 0.67204,-0.0284 1.38013,-1.1258 0.75605,-1.46976 -0.34826,-0.19149 -0.86916,0.16008 -0.57613,0.63566 -0.3982,-0.11112 -0.54108,-0.91479 -0.14387,-1.15159 0.43557,0.47162 1.78395,0.40282 1.79983,-0.35752 0.007,-0.3519 -0.43127,-0.60391 -0.72,-0.35752 -0.15809,0.18157 -0.087,0.45574 0.0721,0.59597 -0.34859,0.14552 -0.59895,-0.15974 -0.68395,-0.43722 0.30593,-0.6856 1.24619,-0.8298 1.90765,-0.59564 -0.77193,2.83699 -3.11415,4.42581 -3.62876,4.70495 0.0939,-0.68759 0.28641,-1.91625 0.1012,-2.87801 -0.24077,-1.25346 -0.889,-2.23341 -1.76345,-2.70073 -0.93067,-0.40779 -2.35777,-0.0189 -2.08756,1.31068 0.25003,1.2323 2.16264,0.71272 1.33151,-0.55596 0.48948,-0.0605 0.91017,0.29104 1.11588,0.67502 -0.58439,0.25929 -1.12877,1.33052 -0.71999,2.06541 0.35851,0.64459 1.65794,0.30625 1.11621,-0.59565 -0.24606,-0.26557 -0.54339,0.0172 -0.61218,0.23813 -0.22754,-0.49014 0.20207,-0.83344 0.54008,-0.95316 0.51164,1.03022 0.37802,2.30882 0.0357,3.49514 -0.29137,-0.45244 -0.49279,-0.96804 -0.75572,-1.42974 -0.76597,-1.34673 -3.13399,-4.17711 -6.36686,-4.38051 z" />
      <path
         inkscape:label="left-white-3"
         inkscape:connector-curvature="0"
         id="path1681"
         style="display:inline;fill:#ffffff;fill-opacity:1;fill-rule:evenodd;stroke:none;stroke-width:0.2;stroke-miterlimit:4;stroke-dasharray:none;stroke-opacity:1"
         d="m -32.325635,111.18279 c -2.73347,0.12832 -5.16896,2.46691 -6.0993,5.03767 1.31762,0.0506 2.51222,-0.21895 3.33838,-1.04312 -0.14288,-0.43789 -0.48551,-0.79772 -1.0504,-0.7706 0.20208,0.48915 -0.45607,1.09868 -0.9148,0.59266 -0.36479,-0.40249 0.0235,-1.11554 0.95085,-1.14862 0.70743,-0.0251 1.19294,0.30957 1.61958,0.67502 0.2583,-0.21894 0.58175,-0.56323 0.68428,-0.98987 -0.60689,0.34528 -1.31597,-0.297 -0.93596,-1.03551 0.1346,-0.26227 0.6006,-0.44913 0.89958,-0.4369 0.25003,0.0103 0.50932,0.17198 0.64955,0.41937 0.70313,1.60304 -1.38708,3.93071 -3.52921,4.38646 -1.19559,0.25466 -3.29869,0.32874 -4.43012,-0.28708 -1.68672,-0.99814 -2.65641,-2.53735 -3.4161,-4.55844 -0.4617,0.65353 -0.59829,1.89343 -0.35983,2.70074 0.30063,-0.0655 0.51329,-0.22787 0.61152,-0.5166 -0.13229,0.0883 -0.30923,0.0956 -0.39589,0 -0.56422,-0.52884 0.28112,-1.24652 0.68428,-0.67502 0.45178,0.64129 -0.15809,1.47737 -0.57613,1.86697 0.0863,0.34131 0.34859,0.48882 0.6479,0.59564 -0.16933,-0.14651 -0.22456,-0.21365 -0.25201,-0.43722 -0.11047,-0.90389 0.99086,-0.90256 1.18764,-0.27748 0.17893,0.56687 -0.0361,1.06792 -0.46798,1.31068 -1.73401,0.74083 -2.49535,-1.68275 -2.33925,-3.61454 0.0678,-0.84171 0.64724,-2.30949 0.85461,-2.57142 3.15516,-0.48088 4.42912,1.86762 4.32825,2.80987 -0.0367,0.46071 -0.10715,1.14829 -0.97168,1.11191 -0.67204,-0.0284 -1.38013,-1.1258 -0.75605,-1.46976 0.34859,-0.19149 0.86916,0.16008 0.57613,0.63566 0.3982,-0.11112 0.54108,-0.91479 0.14387,-1.15159 -0.43557,0.47162 -1.78395,0.40282 -1.7995,-0.35752 -0.008,-0.3519 0.43094,-0.60391 0.71967,-0.35752 0.15809,0.18157 0.0873,0.45574 -0.0718,0.59597 0.34826,0.14552 0.59895,-0.15974 0.68362,-0.43722 -0.30593,-0.6856 -1.24619,-0.8298 -1.90732,-0.59564 0.77159,2.83699 3.11382,4.42581 3.62843,4.70495 -0.0939,-0.68759 -0.28641,-1.91625 -0.1012,-2.87801 0.24077,-1.25346 0.889,-2.23341 1.76378,-2.70073 0.93034,-0.40779 2.35743,-0.0189 2.08723,1.31068 -0.25003,1.2323 -2.16264,0.71272 -1.33152,-0.55596 -0.48948,-0.0605 -0.91016,0.29104 -1.11588,0.67502 0.5844,0.25929 1.12878,1.33052 0.72,2.06541 -0.35851,0.64459 -1.65795,0.30625 -1.11621,-0.59565 0.24606,-0.26557 0.54339,0.0172 0.61218,0.23813 0.22754,-0.49014 -0.20208,-0.83344 -0.54008,-0.95316 -0.51164,1.03022 -0.37803,2.30882 -0.0357,3.49514 0.29137,-0.45244 0.49278,-0.96804 0.75571,-1.42974 0.7663,-1.34673 3.13399,-4.17711 6.36687,-4.38051 z" />
      <path
         d="m -60.316627,116.03619 c 2.73348,-0.12832 5.16897,-2.46691 6.09931,-5.03767 -1.31762,-0.0506 -2.51222,0.21895 -3.33838,1.04312 0.14288,0.43789 0.48584,0.79772 1.0504,0.7706 -0.20208,-0.48915 0.45607,-1.09868 0.91479,-0.59266 0.3648,0.40249 -0.0235,1.11554 -0.95084,1.14862 -0.70743,0.0251 -1.19294,-0.30957 -1.61958,-0.67502 -0.2583,0.21894 -0.58176,0.56323 -0.68428,0.98987 0.60689,-0.34528 1.31597,0.297 0.93596,1.03551 -0.13461,0.26227 -0.6006,0.44913 -0.89958,0.4369 -0.25003,-0.0103 -0.50932,-0.17198 -0.64955,-0.41937 -0.70313,-1.60304 1.38707,-3.93071 3.52921,-4.38646 1.19558,-0.25466 3.29869,-0.32874 4.43011,0.28708 1.68705,0.99814 2.65642,2.53735 3.416106,4.55844 0.461698,-0.65353 0.59862,-1.89343 0.359834,-2.70074 -0.300302,0.0655 -0.51329,0.22787 -0.61152,0.5166 0.13229,-0.0883 0.309233,-0.0956 0.395884,0 0.564224,0.52884 -0.281124,1.24652 -0.683944,0.67502 -0.45211,-0.64129 0.15775,-1.47737 0.576126,-1.86697 -0.08665,-0.34131 -0.348916,-0.48882 -0.647896,-0.59564 0.169,0.14651 0.22423,0.21365 0.25168,0.43722 0.11047,0.90389 -0.99086,0.90256 -1.18765,0.27748 -0.17892,-0.56687 0.0361,-1.06792 0.46799,-1.31068 1.73434,-0.74083 2.495347,1.68275 2.339573,3.61454 -0.06813,0.84171 -0.647566,2.30949 -0.854933,2.57142 -3.15516,0.48088 -4.42913,-1.86762 -4.32825,-2.80987 0.0367,-0.46071 0.10715,-1.14829 0.97168,-1.11191 0.67204,0.0284 1.38013,1.1258 0.75605,1.46976 -0.34826,0.19149 -0.86916,-0.16008 -0.57613,-0.63566 -0.3982,0.11112 -0.54108,0.91479 -0.14387,1.15159 0.43557,-0.47162 1.78395,-0.40282 1.79983,0.35752 0.007,0.3519 -0.43127,0.60391 -0.72,0.35752 -0.15809,-0.18157 -0.087,-0.45574 0.0721,-0.59597 -0.34859,-0.14552 -0.59895,0.15974 -0.68395,0.43722 0.30593,0.6856 1.24619,0.8298 1.90765,0.59564 -0.77193,-2.83699 -3.11415,-4.42581 -3.62876,-4.70495 0.0939,0.68759 0.28641,1.91625 0.1012,2.87801 -0.24077,1.25346 -0.889,2.23341 -1.76345,2.70073 -0.93067,0.40779 -2.35777,0.0189 -2.08756,-1.31068 0.25003,-1.2323 2.16264,-0.71272 1.33151,0.55596 0.48948,0.0605 0.91017,-0.29104 1.11588,-0.67502 -0.58439,-0.25929 -1.12877,-1.33052 -0.71999,-2.06541 0.35851,-0.64459 1.65794,-0.30625 1.11621,0.59565 -0.24606,0.26557 -0.54339,-0.0172 -0.61218,-0.23813 -0.22754,0.49014 0.20207,0.83344 0.54008,0.95316 0.51164,-1.03022 0.37802,-2.30882 0.0357,-3.49514 -0.29137,0.45244 -0.49279,0.96804 -0.75572,1.42974 -0.76597,1.34673 -3.13399,4.17711 -6.36686,4.38051 z"
         style="display:inline;fill:#ffffff;fill-opacity:1;fill-rule:evenodd;stroke:none;stroke-width:0.2;stroke-miterlimit:4;stroke-dasharray:none;stroke-opacity:1"
         id="path1684"
         inkscape:connector-curvature="0"
         inkscape:label="left-white2" />
      <path
         d="m -60.316627,116.03619 c -2.73347,-0.12832 -5.16896,-2.46691 -6.0993,-5.03767 1.31762,-0.0506 2.51222,0.21895 3.33838,1.04312 -0.14288,0.43789 -0.48551,0.79772 -1.0504,0.7706 0.20208,-0.48915 -0.45607,-1.09868 -0.9148,-0.59266 -0.36479,0.40249 0.0235,1.11554 0.95085,1.14862 0.70743,0.0251 1.19294,-0.30957 1.61958,-0.67502 0.2583,0.21894 0.58175,0.56323 0.68428,0.98987 -0.60689,-0.34528 -1.31597,0.297 -0.93596,1.03551 0.1346,0.26227 0.6006,0.44913 0.89958,0.4369 0.25003,-0.0103 0.50932,-0.17198 0.64955,-0.41937 0.70313,-1.60304 -1.38708,-3.93071 -3.52921,-4.38646 -1.19559,-0.25466 -3.29869,-0.32874 -4.43012,0.28708 -1.68672,0.99814 -2.65641,2.53735 -3.4161,4.55844 -0.4617,-0.65353 -0.59829,-1.89343 -0.35983,-2.70074 0.30063,0.0655 0.51329,0.22787 0.61152,0.5166 -0.13229,-0.0883 -0.30923,-0.0956 -0.39589,0 -0.56422,0.52884 0.28112,1.24652 0.68428,0.67502 0.45178,-0.64129 -0.15809,-1.47737 -0.57613,-1.86697 0.0863,-0.34131 0.34859,-0.48882 0.6479,-0.59564 -0.16933,0.14651 -0.22456,0.21365 -0.25201,0.43722 -0.11047,0.90389 0.99086,0.90256 1.18764,0.27748 0.17893,-0.56687 -0.0361,-1.06792 -0.46798,-1.31068 -1.73401,-0.74083 -2.49535,1.68275 -2.33925,3.61454 0.0678,0.84171 0.64724,2.30949 0.85461,2.57142 3.15516,0.48088 4.42912,-1.86762 4.32825,-2.80987 -0.0367,-0.46071 -0.10715,-1.14829 -0.97168,-1.11191 -0.67204,0.0284 -1.38013,1.1258 -0.75605,1.46976 0.34859,0.19149 0.86916,-0.16008 0.57613,-0.63566 0.3982,0.11112 0.54108,0.91479 0.14387,1.15159 -0.43557,-0.47162 -1.78395,-0.40282 -1.7995,0.35752 -0.008,0.3519 0.43094,0.60391 0.71967,0.35752 0.15809,-0.18157 0.0873,-0.45574 -0.0718,-0.59597 0.34826,-0.14552 0.59895,0.15974 0.68362,0.43722 -0.30593,0.6856 -1.24619,0.8298 -1.90732,0.59564 0.77159,-2.83699 3.11382,-4.42581 3.62843,-4.70495 -0.0939,0.68759 -0.28641,1.91625 -0.1012,2.87801 0.24077,1.25346 0.889,2.23341 1.76378,2.70073 0.93034,0.40779 2.35743,0.0189 2.08723,-1.31068 -0.25003,-1.2323 -2.16264,-0.71272 -1.33152,0.55596 -0.48948,0.0605 -0.91016,-0.29104 -1.11588,-0.67502 0.5844,-0.25929 1.12878,-1.33052 0.72,-2.06541 -0.35851,-0.64459 -1.65795,-0.30625 -1.11621,0.59565 0.24606,0.26557 0.54339,-0.0172 0.61218,-0.23813 0.22754,0.49014 -0.20208,0.83344 -0.54008,0.95316 -0.51164,-1.03022 -0.37803,-2.30882 -0.0357,-3.49514 0.29137,0.45244 0.49278,0.96804 0.75571,1.42974 0.7663,1.34673 3.13399,4.17711 6.36687,4.38051 z"
         style="display:inline;fill:#ffffff;fill-opacity:1;fill-rule:evenodd;stroke:none;stroke-width:0.2;stroke-miterlimit:4;stroke-dasharray:none;stroke-opacity:1"
         id="path1688"
         inkscape:connector-curvature="0"
         inkscape:label="left-white-1" />
    </g>
    <rect
       style="opacity:1;fill:#888888;fill-opacity:1;fill-rule:nonzero;stroke:#000000;stroke-width:0.1;stroke-linecap:round;stroke-linejoin:round;stroke-miterlimit:4;stroke-dasharray:none;stroke-opacity:1;paint-order:fill markers stroke"
       id="rect1985"
       width="140.99998"
       height="17.624001"
       x="-3.831352"
       y="-122.12302"
       transform="scale(1,-1)"
       inkscape:label="top-rect"
       ry="4.999999" />
  </g>
</svg>
