<?xml version="1.0" encoding="UTF-8" standalone="no"?>
<svg
   xmlns:dc="http://purl.org/dc/elements/1.1/"
   xmlns:cc="http://creativecommons.org/ns#"
   xmlns:rdf="http://www.w3.org/1999/02/22-rdf-syntax-ns#"
   xmlns:svg="http://www.w3.org/2000/svg"
   xmlns="http://www.w3.org/2000/svg"
   xmlns:sodipodi="http://sodipodi.sourceforge.net/DTD/sodipodi-0.dtd"
   xmlns:inkscape="http://www.inkscape.org/namespaces/inkscape"
   viewBox="0 0 715.77996 631.06024"
   version="1.1"
   id="svg827"
   sodipodi:docname="wip-sign.svg"
   width="715.77997"
   height="631.06024"
   inkscape:version="0.92.5 (2060ec1f9f, 2020-04-08)">
  <metadata
     id="metadata833">
    <rdf:RDF>
      <cc:Work
         rdf:about="">
        <dc:format>image/svg+xml</dc:format>
        <dc:type
           rdf:resource="http://purl.org/dc/dcmitype/StillImage" />
        <dc:title></dc:title>
      </cc:Work>
    </rdf:RDF>
  </metadata>
  <defs
     id="defs831" />
  <sodipodi:namedview
     pagecolor="#ffffff"
     bordercolor="#666666"
     borderopacity="1"
     objecttolerance="10"
     gridtolerance="10"
     guidetolerance="10"
     inkscape:pageopacity="0"
     inkscape:pageshadow="2"
     inkscape:window-width="1280"
     inkscape:window-height="717"
     id="namedview829"
     showgrid="false"
     fit-margin-top="0"
     fit-margin-left="0"
     fit-margin-right="0"
     fit-margin-bottom="0"
     inkscape:zoom="0.47305122"
     inkscape:cx="101.26466"
     inkscape:cy="135.80698"
     inkscape:window-x="0"
     inkscape:window-y="0"
     inkscape:window-maximized="1"
     inkscape:current-layer="svg827" />
  <g
     id="g819"
     style="fill-rule:evenodd;stroke:#000000;stroke-linecap:round"
     transform="translate(-10.20399,-63.882802)">
    <path
       d="m 368.19,70.168 c -8.7664,0.43101 -16.707,5.2812 -21.098,12.881 -109.06,188.92 -218.12,377.83 -327.18,566.75 -4.6183,7.9943 -4.6143,17.84 0,25.837 4.6143,7.9971 13.126,12.929 22.358,12.931 217.22,0.042 434.43,0.084 651.65,0.12604 9.2108,-0.005 17.714,-4.9123 22.333,-12.881 4.6197,-7.9684 4.6478,-17.791 0.0756,-25.787 -108.15,-188.96 -216.31,-377.92 -324.46,-566.88 -4.8254,-8.436 -13.962,-13.452 -23.669,-12.982 z"
       id="path815"
       inkscape:connector-curvature="0"
       style="fill:none;stroke-width:12.5" />
    <path
       d="m 369.45,97.039 c -108.76,188.39 -217.52,376.77 -326.28,565.16 216.61,0.0419 433.22,0.0842 649.83,0.12604 -107.85,-188.44 -215.7,-376.85 -323.55,-565.29 z"
       id="path817"
       inkscape:connector-curvature="0"
       style="fill:#ffcc00;stroke-width:29.44400024;stroke-linejoin:round" />
  </g>
  <g
     id="layer1"
     transform="matrix(-2.2520155,0,0,2.2520155,920.27612,-592.08849)">
    <g
       id="g923"
       style="fill:#000000;fill-opacity:1;stroke-linejoin:miter">
      <path
         id="path921"
         d="m 253.8794,435.84702 c 0.15182,0 0.22613,0.25408 0.22613,0.75588 0,0.55677 -0.26584,0.88962 -0.66672,0.88962 -0.11368,0 -0.23822,-0.0268 -0.37063,-0.0828 -0.27662,-0.0922 -0.25358,-0.25357 0.18442,-0.89903 0.2776,-0.44417 0.48568,-0.66368 0.6268,-0.66368 z m 2.0242,1.19388 c 0.23052,0 0.5302,0.11526 0.69158,0.27664 0.39188,0.3919 0.34577,1.1065 -0.0692,1.1065 -0.18445,0 -0.4841,-0.32274 -0.69156,-0.69159 -0.34579,-0.64545 -0.32275,-0.69155 0.0691,-0.69155 z m -43.51073,-58.53745 c -0.0331,0 -0.0678,0.003 -0.10416,0.008 -0.13832,0.0231 -0.80684,0.11526 -1.4523,0.18446 -0.99124,0.11522 -1.38313,0.32268 -2.1669,1.06035 -1.08347,1.06043 -2.67407,3.22733 -3.45784,4.72575 -0.80682,1.56756 -0.71463,4.4491 0.50714,18.67235 0.25357,2.97375 0.55325,5.78615 0.66852,6.24715 0.11527,0.438 0.64546,1.38316 1.15262,2.07472 2.18997,2.9968 2.1669,2.95072 1.89029,3.55005 -0.16138,0.36883 -0.57633,0.64545 -1.19874,0.80683 -1.2448,0.32275 -1.70587,1.08346 -1.52143,2.37438 0.16136,1.01432 -0.29968,2.25912 -1.82114,4.88709 -0.29968,0.50717 -0.55325,1.10651 -0.55325,1.337 -0.0231,0.48413 -0.69158,1.82117 -1.0143,2.02863 -0.11526,0.0922 -0.59936,0.23053 -1.06041,0.2997 -0.46104,0.0691 -1.31398,0.50712 -1.93639,0.9451 -0.92208,0.6916 -1.08346,0.9221 -1.08346,1.59065 0,0.81835 -0.10504,0.99145 -2.59155,0.99145 -0.59525,0 -1.32695,-0.01 -2.22637,-0.0233 -0.71084,-0.01 -1.2799,-0.0165 -1.7382,-0.0165 -1.6968,0 -1.87558,0.0915 -2.11153,0.45446 -0.23053,0.3458 -0.32275,1.7059 -0.32275,5.53257 l -0.0461,5.0715 16.9434,0.0691 16.94342,0.0461 0.50717,-0.62244 c 0.66852,-0.8529 0.34577,-0.99124 -2.35135,-0.99124 -1.36008,0 -2.25912,-0.0922 -2.25912,-0.23053 0,-0.13828 0.94516,-0.2305 2.39744,-0.2305 1.95945,0 2.42049,-0.0692 2.53576,-0.36883 0.0692,-0.2075 0.1383,-1.86725 0.1383,-3.68836 v -3.31954 l -0.78378,-0.876 -0.78375,-0.85292 -2.18998,-0.023 c -2.42048,-0.0461 -2.78933,-0.16138 -2.58186,-0.80684 0.16138,-0.46105 -0.85293,-1.59062 -1.95944,-2.14388 -0.85294,-0.46102 -3.36562,-0.82989 -5.50949,-0.82989 h -1.91335 l 0.11527,-0.76071 c 0.20747,-1.26786 0.76072,-3.52698 0.94516,-3.82666 0.0609,-0.0914 0.11732,-0.13803 0.17914,-0.13803 0.0785,0 0.16578,0.0754 0.28189,0.23022 0.20747,0.27665 0.69157,0.39191 1.86725,0.41492 l 1.61364,0.0461 -0.023,-0.69158 c -0.0231,-0.39192 -0.16138,-4.54129 -0.29968,-9.22092 -0.13832,-4.70263 -0.41495,-12.37905 -0.59937,-17.05868 -0.18441,-4.70264 -0.32272,-10.30435 -0.34579,-12.47128 0,-3.64054 -0.10306,-4.45679 -0.67961,-4.45679 z m 94.90855,56.12607 c 0.14558,0 0.18546,1.03271 0.23926,4.37082 0.0231,2.74326 0.16138,4.93319 0.27664,5.04846 0.13831,0.1383 0.23053,0.9221 0.23053,1.775 0,1.0143 0.27661,2.62798 0.82987,4.72573 1.47538,5.7861 1.89028,14.47684 0.78378,16.68985 -0.0922,0.18442 -0.34577,0.76074 -0.55325,1.26788 -0.50715,1.22174 -2.00555,2.81238 -2.83542,3.01984 -0.3458,0.0922 -0.7377,0.23053 -0.87598,0.32272 -0.38422,0.28815 -1.48877,0.59232 -1.99307,0.59232 -0.10086,0 -0.17771,-0.0122 -0.21998,-0.0391 -0.16137,-0.0922 0.11527,-0.50714 0.76072,-1.12958 0.57632,-0.55322 1.42926,-1.72888 1.89032,-2.651 0.78376,-1.4984 0.8529,-1.79804 0.76071,-2.97373 -0.20749,-2.21304 -0.41495,-2.81241 -1.31395,-3.71142 -0.8299,-0.82987 -1.22182,-0.99125 -3.45787,-1.33701 l -1.03735,-0.16138 -0.13831,-2.53576 c -0.0692,-1.4062 -0.29967,-3.11206 -0.4841,-3.80362 -0.64545,-2.18998 -0.94517,-3.84976 -0.80682,-4.40298 0.17279,-0.64792 1.13479,-1.72092 1.50192,-1.72092 0.0247,0 0.0467,0.005 0.0656,0.015 0.11527,0.0922 0.20749,0.34578 0.20749,0.5763 0,0.36883 1.47533,1.84418 1.86723,1.84418 0.0691,0 0.4841,-0.2305 0.92208,-0.53016 0.71462,-0.48414 0.80682,-0.64547 0.94512,-2.00558 0.0922,-0.82986 0.27665,-2.12082 0.415,-2.88153 0.13826,-0.76071 0.34575,-1.95943 0.461,-2.651 0.11528,-0.69159 0.32274,-1.84421 0.438,-2.53577 0.11527,-0.69156 0.32273,-1.93636 0.438,-2.76626 0.13833,-0.82987 0.36883,-1.82114 0.5302,-2.18998 0.0613,-0.13785 0.1112,-0.2214 0.15262,-0.2214 z m -82.24176,7.48288 -36.53786,0.023 -0.6224,0.55326 c -0.59937,0.50716 -0.64548,0.69158 -0.64548,2.2591 v 1.72893 l 0.8299,0.3919 c 0.53021,0.25357 1.47534,0.39187 2.69711,0.41495 l 1.8903,0.0461 0.11527,14.98401 0.11526,14.98395 h 3.91889 l 0.0692,-14.89175 c 0.0461,-13.94663 0.0691,-14.91483 0.46103,-15.00705 0.14151,-0.0404 5.97348,-0.0587 12.52133,-0.0587 8.38574,0 17.94564,0.03 18.23041,0.0818 0.11526,0 0.20747,6.73125 0.23053,14.93785 l 0.0692,14.93787 h 3.9189 l 0.0691,-14.84564 c 0.0231,-8.69071 0.13831,-14.9148 0.25357,-15.00702 0.11526,-0.0692 6.50076,-0.1153 14.20023,-0.1153 7.69943,0 14.03881,-0.0692 14.08493,-0.16136 0.0692,-0.11525 0.57628,-0.39186 1.1065,-0.64546 1.10648,-0.48407 1.29093,-0.78374 1.29093,-2.05164 0,-0.69156 -0.16138,-1.0143 -0.87601,-1.70587 l -0.87598,-0.85293 z m 56.08597,-63.04486 c -0.62045,0 -1.02823,0.0246 -1.70105,0.0995 -0.26228,0.0281 -1.5452,0.2591 -1.71768,0.30804 -0.0507,0.0143 -0.2232,0.0632 -0.38617,0.10606 -1.71735,0.473 -3.27258,1.35555 -4.38453,2.48717 -0.61248,0.62193 -1.1557,1.3887 -1.52703,2.15813 -0.48621,1.00205 -0.74597,2.12016 -0.75061,3.23945 -0.005,0.70572 0.0959,1.12943 0.36676,1.54749 l 0.0804,0.12558 -0.0988,0.22726 c -0.164,0.37509 -0.40998,0.86697 -0.88227,1.76556 -0.75756,1.44106 -1.00695,1.9701 -1.15478,2.45984 -0.11786,0.39167 -0.1277,0.625 -0.0375,0.80008 0.11108,0.21598 0.32221,0.34154 0.81934,0.48358 0.20761,0.0589 0.29782,0.0787 0.39777,0.0787 0.0202,0 0.0409,-8e-4 0.0629,-0.002 0.0831,-0.005 0.15729,-0.007 0.2237,-0.007 0.27565,0 0.41775,0.0424 0.51013,0.1434 0.0789,0.0852 0.093,0.20026 0.0629,0.47184 -0.0152,0.12942 -0.0268,0.2774 -0.0229,0.33016 0.003,0.12574 -0.028,0.23904 -0.1283,0.44736 -0.12322,0.25558 -0.1441,0.3454 -0.11566,0.47906 0.0427,0.19516 0.17017,0.3093 0.55218,0.49762 0.0827,0.0394 0.15846,0.0866 0.16786,0.10193 0.0312,0.0496 -0.0132,0.16117 -0.15412,0.39243 -0.13385,0.22348 -0.17041,0.32068 -0.15174,0.41549 0.0155,0.0784 0.0475,0.11063 0.33619,0.33661 0.34222,0.26902 0.48394,0.44468 0.54382,0.67279 0.0395,0.15723 0.0399,0.16999 -0.0361,0.75275 -0.1106,0.84232 -0.10291,1.16434 0.0348,1.45004 0.16998,0.35216 0.67425,0.73709 1.14508,0.8758 0.21582,0.0625 0.36255,0.0893 0.61188,0.10449 l 0.19537,0.013 1.78613,-0.34088 1.78369,-0.34259 0.0983,0.0749 c 0.12914,0.10098 0.3784,0.43115 0.53753,0.71692 0.10043,0.1788 0.20623,0.3912 0.31591,0.63433 h -0.003 q -0.10074,0.0498 -0.19877,0.0979 h 0.003 c 0.024,0.0395 0.0481,0.0778 0.0722,0.11474 0.6224,0.92209 0.6224,0.94512 0.18442,1.56754 -1.33704,1.9364 -1.86722,4.14941 -1.89026,7.7225 0,2.69715 -0.18445,3.50398 -1.03736,4.54132 -0.36886,0.46103 -1.15262,2.53574 -1.63672,4.26466 -0.41494,1.4984 -0.7377,3.94195 -0.89904,6.98482 -0.0461,1.03736 -0.16138,2.02863 -0.25356,2.16693 -0.11528,0.16141 -0.23054,1.26789 -0.2997,2.46662 l -0.1383,2.18997 -2.02863,-0.0692 c -0.26669,-0.009 -0.51127,-0.0136 -0.73382,-0.0136 -0.91235,0 -1.4552,0.0774 -1.64055,0.24418 -0.1844,0.13832 -0.9682,0.2997 -1.75197,0.36882 -0.19873,0.009 -0.37515,0.0155 -0.53723,0.0155 -1.06003,0 -1.5066,-0.27091 -3.56607,-1.79053 -0.43799,-0.3458 -1.26785,-0.7377 -1.84418,-0.9221 -0.57629,-0.16137 -1.17565,-0.41494 -1.31399,-0.53017 -0.10083,-0.072 -0.36376,-0.10807 -0.67624,-0.10807 -0.18747,0 -0.3928,0.013 -0.59162,0.0389 -0.55325,0.0922 -1.70587,0.20743 -2.60492,0.27663 -1.52145,0.1383 -2.42047,0.5302 -2.42047,1.08342 0,0.11528 -0.29971,0.57628 -0.69159,1.01431 -0.36883,0.41495 -0.69156,0.9682 -0.69156,1.19873 0,0.64838 -0.3573,0.89481 -1.51457,0.89481 -0.28277,0 -0.61334,-0.0147 -0.99812,-0.0419 -1.03735,-0.0692 -2.72019,-0.2075 -3.75754,-0.2766 -1.06039,-0.0692 -2.02856,-0.23054 -2.1669,-0.3458 -0.0492,-0.0421 -0.10475,-0.0629 -0.16609,-0.0629 -0.14003,0 -0.31009,0.10806 -0.50243,0.31643 -0.25163,0.28307 -0.51278,0.42789 -0.85724,0.42789 -0.41287,0 -0.9454,-0.20804 -1.72461,-0.63534 -0.66249,-0.36948 -0.96589,-0.53473 -1.19815,-0.53473 -0.18798,0 -0.32937,0.10827 -0.57687,0.3042 -0.36234,0.28465 -0.60118,0.41685 -0.84702,0.41685 -0.1921,0 -0.38848,-0.0807 -0.65139,-0.2324 -0.14303,-0.0954 -0.26793,-0.1505 -0.40685,-0.1505 -0.33125,0 -0.74209,0.3134 -1.66786,1.14174 -0.78375,0.73766 -0.94513,1.01428 -0.94513,1.75196 0,0.69155 0.16138,1.03734 0.76071,1.61364 l 0.76074,0.7377 h 11.82581 c 1.42891,0.003 2.69,0.005 3.80363,0.005 6.95308,0 8.15819,-0.0726 8.57542,-0.35083 0.66856,-0.43799 0.6916,-0.82986 0.0922,-1.38314 -0.25357,-0.23054 -0.46103,-0.50715 -0.46103,-0.6224 0,-0.13743 0.0749,-0.20225 0.20264,-0.20225 0.27933,0 0.81126,0.30987 1.3649,0.84772 0.9682,0.92208 1.84418,1.38311 3.1351,1.56756 1.03736,0.13831 1.33704,0.48407 1.12958,1.24477 -0.32272,1.29097 -0.27664,1.314 1.33703,1.38316 1.31397,0.0461 1.56755,0.13834 1.65975,0.50717 0.0692,0.27661 0.32274,0.46103 0.5763,0.46103 0.27665,0 0.53022,0.0922 0.59937,0.20749 0.16138,0.25357 -1.33703,1.17563 -1.86725,1.17563 -0.20745,0 -0.80682,0.39192 -1.36007,0.85297 -2.09775,1.8211 -2.81238,2.37439 -2.9968,2.37439 -0.11525,0 -0.53018,0.32276 -0.94513,0.69156 -0.71462,0.66854 -0.78378,0.69155 -3.20425,0.69155 -1.36011,0 -2.78934,0.0922 -3.18125,0.23053 -0.39187,0.11524 -2.25912,0.4841 -4.17242,0.80682 -6.40857,1.1065 -8.25275,1.52146 -9.56671,2.18998 -1.01431,0.53018 -1.42926,0.99124 -2.07471,2.35132 -0.41495,0.876 -0.4841,1.36007 -0.39191,2.65103 0.16141,2.30524 0.3458,2.83542 1.45231,4.03415 0.55328,0.59932 1.01431,1.26785 1.01431,1.49838 0,0.23054 0.23053,0.87598 0.4841,1.4523 0.27661,0.57634 0.62241,1.61368 0.80682,2.30521 0.39188,1.49841 0.43799,1.61368 1.68283,4.21856 0.55323,1.12957 1.22174,2.58187 1.52146,3.25037 0.29965,0.6455 0.69156,1.31403 0.87597,1.47537 0.20382,0.16678 1.3756,0.24417 4.41303,0.24417 0.74167,0 1.59459,-0.005 2.5718,-0.0137 l 6.66212,-0.0692 0.0691,-1.56754 c 0.0461,-1.19873 -0.0461,-1.75198 -0.39191,-2.4205 -0.2305,-0.46103 -0.57629,-1.38312 -0.73766,-2.00555 -0.1383,-0.64545 -0.64546,-1.95941 -1.08347,-2.92761 -0.64515,-1.43192 -0.82843,-2.10122 -0.54987,-2.10328 h 0.003 c 0.13001,9.6e-4 0.35855,0.14423 0.68564,0.42046 0.49509,0.4152 0.69144,0.55385 1.41684,0.55385 0.32172,0 0.74744,-0.0273 1.34943,-0.0697 0.43647,-0.0273 1.13837,-0.0402 1.97271,-0.0402 1.2808,0 2.87369,0.0305 4.29752,0.0863 l 4.24161,0.16134 -0.0691,1.19873 c -0.0231,0.66853 0.0691,1.61368 0.23053,2.07471 0.34575,1.01428 1.06039,2.14386 1.36007,2.14386 0.11528,0 0.87598,0.41496 1.70588,0.94513 1.01904,0.63253 1.4221,0.83655 1.893,0.83655 0.1469,0 0.30044,-0.0199 0.48135,-0.0528 0.4841,-0.0922 2.39745,-0.20745 4.28772,-0.27661 l 3.3887,-0.0922 v 1.26785 c 0,1.9364 0.11527,1.98253 4.12635,1.98253 1.86725,0 3.45785,-0.0691 3.52701,-0.13832 0.0691,-0.0691 0,-0.66852 -0.18443,-1.31398 -0.38308,-1.47496 -0.44784,-1.75612 0.16282,-1.75612 0.12424,0 0.27643,0.0116 0.45958,0.0272 0.94514,0.0692 0.9682,0.11524 1.33705,1.22174 0.53711,1.6854 0.49387,1.94232 2.40479,1.94232 0.46752,0 1.05209,-0.0154 1.79074,-0.029 l 3.31952,-0.0692 0.0691,-1.08344 c 0.0922,-1.24484 0.20745,-1.3601 1.89029,-1.89028 0.69156,-0.2305 1.82113,-0.6685 2.48962,-0.9682 0.66852,-0.29966 1.314,-0.55326 1.4523,-0.55326 0.43802,0 3.43482,-3.04291 3.43482,-3.48089 0,-0.23053 0.11526,-0.4841 0.2305,-0.55325 0.1383,-0.0691 0.23052,-0.39188 0.23052,-0.69157 0,-0.29968 0.11527,-0.62243 0.23054,-0.69159 0.1383,-0.0922 0.23053,-1.77502 0.23053,-4.26464 0,-2.48963 -0.0922,-4.1725 -0.23053,-4.26468 -0.11527,-0.0692 -0.23054,-1.10654 -0.23054,-2.28217 0,-1.15262 -0.0922,-2.21305 -0.20748,-2.32828 -0.11527,-0.1383 -0.27662,-1.06039 -0.32272,-2.0747 -0.0692,-1.01432 -0.23054,-2.46662 -0.36884,-3.22733 -0.27661,-1.54452 -0.59934,-3.50397 -0.99124,-6.10884 -0.3458,-2.30525 -0.25357,-6.4316 0.16138,-7.6303 0.43798,-1.19873 0.46105,-4.19552 0.0692,-4.54132 -0.16138,-0.1383 -0.59937,-0.27664 -0.99125,-0.32275 -0.64547,-0.0691 -0.69155,-0.11526 -0.64547,-0.99123 0.0461,-0.50715 0.23053,-1.42924 0.46103,-2.07472 0.66851,-2.00555 0.36886,-3.84973 -0.66849,-4.10328 -0.0988,-0.0269 -0.21774,-0.0395 -0.3515,-0.0395 -0.89664,0 -2.45844,0.56428 -3.06024,1.14598 -0.32933,0.30992 -0.64233,0.50594 -0.78863,0.50594 -0.0278,0 -0.0496,-0.007 -0.0643,-0.0218 -0.0922,-0.0922 -0.13835,-0.80686 -0.11527,-1.59062 0.0461,-1.38314 -0.76073,-5.92446 -1.33701,-7.42284 -0.34579,-0.92209 -1.52148,-2.76626 -2.46662,-3.89584 -0.41494,-0.50712 -0.7607,-1.01429 -0.7607,-1.12955 0,-0.69157 -3.2965,-4.3338 -4.9332,-5.44034 -0.25357,-0.18445 -0.5302,-0.41495 -0.59937,-0.4841 -0.0691,-0.0691 -0.4841,-0.41495 -0.94516,-0.76071 -0.64544,-0.4841 -0.87597,-0.85294 -0.99124,-1.54452 -0.0691,-0.50715 -0.43799,-1.24482 -0.78378,-1.65977 -0.38373,-0.44595 -0.71149,-0.88256 -0.95595,-1.26159 h -0.003 c -0.26609,-0.72187 -0.31546,-0.86182 -0.44568,-1.24924 -0.0723,-0.21503 -0.15406,-0.45605 -0.18189,-0.53195 -0.14508,-0.42135 -0.39105,-1.27921 -0.51812,-1.80481 -0.16608,-0.70214 -0.15558,-1.17134 0.0429,-1.89384 0.13672,-0.5026 0.25269,-0.80602 0.65662,-1.73614 0.57712,-1.32396 0.64665,-1.54766 0.7847,-2.47896 0.23145,-1.55604 0.18597,-3.01682 -0.13185,-4.38117 -0.34966,-1.49311 -1.0436,-2.81983 -2.02285,-3.86539 -1.67913,-1.79274 -4.14075,-2.76074 -7.03765,-2.76248 -0.026,-9e-5 -0.0517,-1.2e-4 -0.077,-1.2e-4 z"
         inkscape:connector-curvature="0" />
    </g>
  </g>
  <text
     xml:space="preserve"
     style="font-style:normal;font-variant:normal;font-weight:normal;font-stretch:normal;font-size:53.33333206px;line-height:1.25;font-family:'Simply Rounded';-inkscape-font-specification:'Simply Rounded, Normal';font-variant-ligatures:normal;font-variant-caps:normal;font-variant-numeric:normal;font-feature-settings:normal;text-align:start;letter-spacing:0px;word-spacing:0px;writing-mode:lr-tb;text-anchor:start;fill:#000000;fill-opacity:1;stroke:none"
     x="116.81337"
     y="540.16095"
     id="text939"><tspan
       sodipodi:role="line"
       id="tspan937"
       x="116.81337"
       y="540.16095">WORK IN PROGRESS</tspan></text>
</svg>
