<?xml version="1.0" encoding="UTF-8" standalone="no"?>
<svg
   xmlns:dc="http://purl.org/dc/elements/1.1/"
   xmlns:cc="http://creativecommons.org/ns#"
   xmlns:rdf="http://www.w3.org/1999/02/22-rdf-syntax-ns#"
   xmlns:svg="http://www.w3.org/2000/svg"
   xmlns="http://www.w3.org/2000/svg"
   xmlns:xlink="http://www.w3.org/1999/xlink"
   xmlns:sodipodi="http://sodipodi.sourceforge.net/DTD/sodipodi-0.dtd"
   xmlns:inkscape="http://www.inkscape.org/namespaces/inkscape"
   viewBox="0 0 731.79615 701.95984"
   version="1.1"
   id="svg1285"
   sodipodi:docname="share-hive.svg"
   width="731.79614"
   height="701.95984"
   inkscape:version="0.92.5 (2060ec1f9f, 2020-04-08)">
  <metadata
     id="metadata1289">
    <rdf:RDF>
      <cc:Work
         rdf:about="">
        <dc:format>image/svg+xml</dc:format>
        <dc:type
           rdf:resource="http://purl.org/dc/dcmitype/StillImage" />
        <dc:title></dc:title>
      </cc:Work>
    </rdf:RDF>
  </metadata>
  <sodipodi:namedview
     pagecolor="#ffffff"
     bordercolor="#666666"
     borderopacity="1"
     objecttolerance="10"
     gridtolerance="10"
     guidetolerance="10"
     inkscape:pageopacity="0"
     inkscape:pageshadow="2"
     inkscape:window-width="1280"
     inkscape:window-height="717"
     id="namedview1287"
     showgrid="false"
     fit-margin-top="0"
     fit-margin-left="0"
     fit-margin-right="0"
     fit-margin-bottom="0"
     inkscape:zoom="0.67428571"
     inkscape:cx="17.758833"
     inkscape:cy="330.06019"
     inkscape:window-x="0"
     inkscape:window-y="0"
     inkscape:window-maximized="1"
     inkscape:current-layer="svg1285"
     showguides="true"
     inkscape:guide-bbox="true">
    <sodipodi:guide
       position="422.61616,353.40358"
       orientation="0,1"
       id="guide2881"
       inkscape:locked="false" />
  </sodipodi:namedview>
  <defs
     id="defs1181">.str0 {stroke:#1F1A17;stroke-width:0.0762}     .fil0 {fill:none}
  <linearGradient
   id="o"
   x1="276.39096"
   x2="252.28612"
   y1="309.86752"
   y2="361.80542"
   xlink:href="#b"
   gradientTransform="scale(0.67857908,1.4736676)"
   gradientUnits="userSpaceOnUse" />
<linearGradient
   id="p"
   x1="374.97879"
   x2="402.26266"
   y1="853.19458"
   y2="911.97864"
   xlink:href="#b"
   gradientTransform="scale(1.1473278,0.87159047)"
   gradientUnits="userSpaceOnUse" />
<linearGradient
   id="a">
  <stop
     stop-color="#1f1f1f"
     offset="0"
     id="stop1159" />
  <stop
     stop-opacity="0"
     offset="1"
     id="stop1161" />
</linearGradient>
<linearGradient
   id="b">
  <stop
     stop-opacity=".678"
     offset="0"
     id="stop1164" />
  <stop
     stop-opacity=".329"
     offset=".57"
     id="stop1166" />
  <stop
     stop-opacity="0"
     offset="1"
     id="stop1168" />
</linearGradient>
<radialGradient
   id="w"
   cx="-180.59"
   cy="712.64001"
   r="19.039"
   gradientTransform="matrix(-0.78464,0.13619,0.8969,5.1672,-1646.8,-3038.4)"
   gradientUnits="userSpaceOnUse"
   xlink:href="#a" />
<radialGradient
   id="y"
   cx="-292.54999"
   cy="752.59003"
   r="68.698997"
   gradientTransform="matrix(0.6557,0.43526,-1.1319,1.7051,807.4,-483.26)"
   gradientUnits="userSpaceOnUse"
   xlink:href="#a" />
<radialGradient
   id="x"
   cx="-324.67001"
   cy="923.95001"
   r="88.203003"
   gradientTransform="matrix(-1.4253,-1.3087,-0.55,0.59903,-628.29,-74.81)"
   gradientUnits="userSpaceOnUse"
   xlink:href="#a" />
<radialGradient
   id="v"
   cx="-212.03999"
   cy="682.96997"
   r="13.625"
   gradientTransform="matrix(-2.0169,0.20672,0.59219,5.7778,-1655.6,-3322.4)"
   gradientUnits="userSpaceOnUse"
   xlink:href="#a" />
<radialGradient
   id="t"
   cx="-292.54999"
   cy="752.59003"
   r="68.698997"
   gradientTransform="matrix(-0.6557,0.43526,1.1319,1.7051,-1760.2,-483.26)"
   gradientUnits="userSpaceOnUse"
   xlink:href="#a" />
<radialGradient
   id="q"
   cx="-212.03999"
   cy="682.96997"
   r="13.625"
   gradientTransform="matrix(2.0169,0.20672,-0.59219,5.7778,702.83,-3322.4)"
   gradientUnits="userSpaceOnUse"
   xlink:href="#a" />
<radialGradient
   id="u"
   cx="-410.95999"
   cy="793.06"
   r="53.832001"
   gradientTransform="matrix(-0.62272,0.44087,1.0539,1.4886,-1679.3,-282.42)"
   gradientUnits="userSpaceOnUse"
   xlink:href="#a" />
<radialGradient
   id="r"
   cx="-180.59"
   cy="712.64001"
   r="19.039"
   gradientTransform="matrix(0.78464,0.13619,-0.8969,5.1672,694.01,-3038.4)"
   gradientUnits="userSpaceOnUse"
   xlink:href="#a" />
<radialGradient
   id="z"
   cx="-410.95999"
   cy="793.06"
   r="53.832001"
   gradientTransform="matrix(0.62272,0.44087,-1.0539,1.4886,726.52,-282.42)"
   gradientUnits="userSpaceOnUse"
   xlink:href="#a" />
<radialGradient
   id="s"
   cx="-324.67001"
   cy="923.95001"
   r="88.203003"
   gradientTransform="matrix(1.4253,-1.3087,0.55,0.59903,-324.52,-74.81)"
   gradientUnits="userSpaceOnUse"
   xlink:href="#a" />
</defs>
  <g
     style="clip-rule:evenodd;display:inline;fill:#0038a8;fill-opacity:1;fill-rule:evenodd;stroke-linejoin:round;stroke-miterlimit:2"
     id="g2108"
     transform="matrix(2.9773963,0,0,2.9773963,215.2184,214.48353)">
    <g
       transform="translate(-82.354177,-154.99987)"
       id="g85"
       style="fill:#0038a8;fill-opacity:1">
      <path
         style="fill:#0038a8;fill-opacity:1;fill-rule:nonzero;stroke-width:0.47368401"
         inkscape:connector-curvature="0"
         id="path64"
         d="m 156.8517,205.80924 c 0.3439,0 0.55895,0.37279 0.38653,0.67121 l -22.1452,38.2964 c -0.0796,0.13785 -0.2269,0.22311 -0.38653,0.22311 h -13.53694 c -0.34389,0 -0.55895,-0.37326 -0.38652,-0.67121 l 22.1452,-38.2964 c 0.0796,-0.13832 0.22689,-0.22311 0.38652,-0.22311 z"
         sodipodi:nodetypes="sccssccss" />
      <path
         style="fill:#0038a8;fill-opacity:1;fill-rule:nonzero;stroke-width:0.47368401"
         inkscape:connector-curvature="0"
         id="path66"
         d="m 186.57036,200.03006 c -8.42225,14.71077 -17.27148,29.89323 -25.87609,44.74632 -0.08,0.13832 -0.22784,0.22358 -0.38795,0.22358 h -13.55636 c -0.34484,0 -0.56037,-0.37279 -0.38795,-0.67074 l 25.68078,-44.32924 c 1.92359,0.0301 11.7726,0.0301 14.52761,0.0301 z m -51.22438,0 -25.96391,44.74632 c -0.1729,0.29747 -0.6049,0.29842 -0.77921,0.002 L 82.368882,200.03006 c 3.634484,0 41.965668,0 52.977098,0 z"
         sodipodi:nodetypes="ccssccccccccc" />
    </g>
  </g>
  <g
     transform="matrix(2.9773963,0,0,-2.9773963,215.2184,482.62897)"
     id="g2897"
     style="clip-rule:evenodd;display:inline;fill:#ce1126;fill-opacity:1;fill-rule:evenodd;stroke-linejoin:round;stroke-miterlimit:2">
    <g
       style="fill:#ce1126;fill-opacity:1"
       id="g2895"
       transform="translate(-82.354177,-154.99987)">
      <path
         sodipodi:nodetypes="sccssccss"
         d="m 156.8517,205.80924 c 0.3439,0 0.55895,0.37279 0.38653,0.67121 l -22.1452,38.2964 c -0.0796,0.13785 -0.2269,0.22311 -0.38653,0.22311 h -13.53694 c -0.34389,0 -0.55895,-0.37326 -0.38652,-0.67121 l 22.1452,-38.2964 c 0.0796,-0.13832 0.22689,-0.22311 0.38652,-0.22311 z"
         id="path2891"
         inkscape:connector-curvature="0"
         style="fill:#ce1126;fill-opacity:1;fill-rule:nonzero;stroke-width:0.47368401" />
      <path
         sodipodi:nodetypes="ccssccccccccc"
         d="m 186.57036,200.03006 c -8.42225,14.71077 -17.27148,29.89323 -25.87609,44.74632 -0.08,0.13832 -0.22784,0.22358 -0.38795,0.22358 h -13.55636 c -0.34484,0 -0.56037,-0.37279 -0.38795,-0.67074 l 25.68078,-44.32924 c 1.92359,0.0301 11.7726,0.0301 14.52761,0.0301 z m -51.22438,0 -25.96391,44.74632 c -0.1729,0.29747 -0.6049,0.29842 -0.77921,0.002 L 82.368882,200.03006 c 3.634484,0 41.965668,0 52.977098,0 z"
         id="path2893"
         inkscape:connector-curvature="0"
         style="fill:#ce1126;fill-opacity:1;fill-rule:nonzero;stroke-width:0.47368401" />
    </g>
  </g>
  <g
     id="g1989"
     transform="rotate(-180,365.8981,350.97991)">
    <g
       transform="matrix(-0.91586907,-1.1334775,-1.1334775,0.91586907,1699.8267,327.4948)"
       id="g1231">
      <path
         d="m 611.52,838.99 c -0.0228,-0.0849 -0.0657,-0.17242 -0.0906,-0.2572 -0.0328,-0.11169 -0.0555,-0.23206 -0.092,-0.34338 -0.0177,-0.054 -0.0247,-0.10779 -0.0433,-0.16162 -0.0183,-0.053 -0.0242,-0.1087 -0.0433,-0.16162 -1.2045,-3.3342 -4.0721,-6.5173 -7.5864,-9.4857 -7.7848,-6.5753 -19.174,-4.8932 -30.438,-1.5222 -3.8259,1.1449 -9.253,2.0282 -13.885,2.3997 -1.7224,2.7325 -4.036,4.0899 -3.1733,9.4891 -1.6047,-5.9468 -1.0995,-7.911 0.49518,-9.4643 -8.3139,0.41803 -17.036,0.12653 -24.285,0.27154 -0.002,6.7e-4 -0.0174,0.005 -0.0202,0.005 -0.0103,-0.002 -0.0612,-0.0218 -0.0714,-0.0242 -0.003,8.6e-4 -0.0178,0.005 -0.0202,0.005 -0.591,0.0766 -1.1763,0.14459 -1.7672,0.19208 -17.852,1.4347 -33.051,17.993 -44.737,11.533 -11.939,-6.5998 -17.892,-2.2275 -36.885,-9.0181 -23.618,-8.4442 -36.987,0.922 -52.693,-15.088 2.6165,3.3812 5.1921,6.1054 12.659,10.963 17.135,11.147 17.108,5.4794 38.682,13.3 21.556,7.8141 25.202,15.732 45.446,19.715 20.335,4.0011 20.03,0.63715 33.532,-0.0213 13.502,-0.65839 10.932,-0.41742 21.233,-1.9653 10.301,-1.5478 8.5818,-0.43024 20.456,-3.4894 11.875,-3.0591 16.905,-5.122 27.389,-7.8368 9.1736,-2.3754 13.314,-1.0979 14.551,-1.6906 0.0217,-0.0109 0.0556,-0.0297 0.0754,-0.0418 0.0193,-0.0125 0.0524,-0.0483 0.0699,-0.0621 0.009,-0.007 0.0269,-0.0236 0.035,-0.031 0.008,-0.008 0.0275,-0.0231 0.035,-0.0311 0.007,-0.008 0.0281,-0.0225 0.035,-0.031 0.0132,-0.0173 0.0329,-0.058 0.0444,-0.0768 0.003,-0.005 0.0121,-0.0207 0.0148,-0.0256 0.003,-0.005 0.0123,-0.0205 0.0148,-0.0256 0.007,-0.0156 0.0235,-0.0347 0.0296,-0.0513 10e-4,-2.5e-4 0.0142,-0.004 0.0202,-0.005 -9.1e-4,-0.003 -0.0101,-0.038 -0.0108,-0.0404 -7.3e-4,-0.002 -0.005,-0.0172 -0.005,-0.0202 0.004,-0.006 0.0313,-0.0249 0.035,-0.0311 -6.7e-4,-0.002 -0.01,-0.0376 -0.0108,-0.0403 0.002,-0.0108 0.007,-0.035 0.009,-0.0458 -5.4e-4,-10e-4 -0.009,-0.0342 -0.0108,-0.0404 -0.007,-0.008 -0.0234,-0.0269 -0.031,-0.035 -5.5e-4,-0.002 -0.0102,-0.0378 -0.0109,-0.0404 -6.1e-4,-0.003 -0.005,-0.0173 -0.005,-0.0202 -0.01,-0.0116 -0.0469,-0.039 -0.0566,-0.0498 -6.7e-4,-0.002 -0.005,-0.0171 -0.005,-0.0202 -0.0203,-0.0248 -0.0489,-0.0696 -0.0674,-0.0901 -0.0234,-0.021 -0.0627,-0.0469 -0.0823,-0.0646 -1.481,-1.2936 -8.6788,-2.8108 -12.373,-3.0284 5.4625,-0.48071 10.186,-0.1369 13.536,1.8726 0.5683,-1.7805 0.56659,-3.5406 0.10419,-5.2675 z m -25.961,-38.468 c -1.1317,-3.5189 -4.7018,-6.4374 -9.1389,-8.8965 -8.1694,-4.5275 -18.545,-1.1224 -28.563,3.778 -3.4026,1.6643 -8.3303,3.3649 -12.592,4.4782 -1.2313,2.7411 -3.1633,4.3978 -1.5356,9.1369 -2.4012,-5.1292 -2.2123,-6.9822 -0.93182,-8.649 -11.034,-0.60236 -30.688,1.8502 -37.575,5.1318 -0.006,0.003 -0.0146,0.003 -0.0202,0.005 -0.72672,0.30835 -2.398,-0.11737 -4.7445,-0.98047 -1.6786,2.9523 -2.9603,6.1906 -4.0311,9.7623 0.29111,-3.7847 1.0338,-7.2474 2.3666,-10.399 -7.7598,-3.1012 -20.721,-9.5746 -31.134,-12.443 -5.0785,-1.8676 -9.6298,0.37183 -14.196,2.613 2.4442,-3.1217 5.6014,-5.5995 11.234,-5.9112 -3.4386,-2.6577 -7.4035,-4.8846 -12.156,-6.4208 -4.8769,-0.81116 -9.4873,-1.071 -13.331,0.67065 2.8516,-2.3138 6.8258,-2.5447 10.547,-3.3024 -2.1329,-1.54 -4.2654,-3.0522 -8.232,-4.138 -7.0155,-0.66974 -13.169,1.1951 -19.593,4.7735 1.6805,-1.4673 3.3742,-2.7095 5.147,-3.7391 -12.575,-10.707 -22.821,-20.585 -28.691,-28.859 7.1688,7.5442 16.884,17.28 26.124,22.835 -0.1795,-4.5102 -3.725,-7.6409 -7.6763,-10.306 3.8973,-0.13892 6.9249,2.2644 10.834,5.0428 l 6.6677,6.1378 c 0.12286,0.15277 0.27734,0.29291 0.40732,0.38886 0.0953,0.0678 0.21475,0.13562 0.30737,0.17743 0.01,0.005 0.0332,0.0189 0.0512,0.0296 0.004,0.003 0.0471,0.0275 0.0512,0.0295 0.003,-10e-4 0.0177,-0.005 0.0202,-0.005 0.003,-6.7e-4 0.0172,-0.004 0.0202,-0.005 0.0662,0.0185 0.15784,0.0345 0.22906,0.0469 0.0107,0.002 0.0352,0.007 0.0458,0.009 0.002,-6.8e-4 0.0378,-0.01 0.0404,-0.0109 0.002,-6.1e-4 0.0177,-0.005 0.0202,-0.005 0.0268,-4.9e-4 0.0852,0.0153 0.11185,0.0133 0.0245,-0.005 0.0967,-0.0262 0.12118,-0.0325 0.003,-7.4e-4 0.0176,-0.005 0.0202,-0.005 0.003,-6.1e-4 0.0178,-0.005 0.0202,-0.005 0.0182,-0.0109 0.0528,-0.0513 0.07,-0.0621 0.002,-6.1e-4 0.0376,-0.0102 0.0404,-0.0108 1.3729,-0.63672 2.2998,-4.0087 1.3977,-6.1771 l -11.956,-20.461 c -6.1379,-2.961 -12.109,-3.8848 -18.105,-4.2205 1.2131,1.0418 2.2736,2.1892 3.2184,3.4462 0.55627,1.0616 1.29,2.0721 1.7982,3.1556 0.0526,0.11206 0.1048,0.21338 0.15262,0.32715 0.54312,1.2917 0.74155,2.6934 0.17102,4.436 -2.2792,-5.7449 -6.1502,-9.0112 -10.518,-11.537 -0.0114,-0.007 -0.0142,-0.008 -0.0256,-0.0148 -5.8517,-0.11365 -11.764,-0.0594 -17.877,-1.1857 -8.4541,-1.5576 -13.05,-6.1894 -15.392,-8.8014 7.1089,4.3265 20.467,7.8042 32.24,8.8122 16.885,1.4457 15.406,-1.2275 33.21,8.8771 13.814,7.8402 29.2,11.147 45.371,12.568 14.354,1.2618 15.023,-4.0137 17.746,-6.8984 1.5919,-1.6768 2.7971,-3.1346 3.727,-6.1299 1.2993,-5.3941 2.8566,-13.267 -9.4974,-20.254 -17.148,-9.6986 -27.87,-10.864 -55.788,-19.369 -27.919,-8.5048 -16.379,-24.053 -54.49,-16.382 4.7488,-6.4327 21.617,-8.0585 24.424,-7.3456 -0.9661,-6.4959 -17.503,-4.8113 -24.589,-0.94592 5.0342,-3.8184 11.563,-6.4487 18.41,-6.037 -3.9704,-2.1977 -19.682,-3.0253 -32.843,-3.6277 -3.1111,-0.1424 -10.564,0.62427 -20.396,7.9982 -0.005,-0.006 -0.0201,-0.0225 -0.031,-0.035 -0.011,-0.012 -0.05,-0.0421 -0.0566,-0.0497 -0.007,-0.008 -0.0293,-0.0471 -0.0364,-0.0552 -0.002,-0.006 -0.005,-0.019 -0.005,-0.0202 -0.008,-0.008 -0.0296,-0.0477 -0.0364,-0.0552 -9.7e-4,-0.003 -0.004,-0.0167 -0.005,-0.0202 -0.004,-0.0151 -0.0135,-0.0499 -0.0162,-0.0606 -8e-4,-0.003 -0.004,-0.0145 -0.005,-0.0202 -8.2e-4,-0.003 -0.005,-0.0179 -0.005,-0.0202 0.002,-0.0106 0.002,-0.0551 0.004,-0.066 -6.7e-4,-0.002 -0.005,-0.0173 -0.005,-0.0202 -0.0603,-1.9322 5.9938,-8.3311 14.89,-10.528 -9.5115,-9.2795 -75.621,-4.8942 -110.45,-5.0463 7.4214,27.684 17.999,53.678 31.237,77.715 15.151,3.1515 32.559,7.4302 53.483,13.513 31.835,9.254 32.947,23.042 53.602,41.671 4.6323,4.1779 7.8832,7.4574 10.316,10.14 7.3e-4,-3.6e-4 0.0144,-0.004 0.0202,-0.005 -1.9131,-2.7868 -3.8503,-6.0151 -5.8906,-9.7019 7.0306,11.087 12.453,15.017 18.002,19.512 6.6562,5.3923 8.281,4.369 29.466,7.6718 8.5751,1.3368 15.142,2.8931 20.455,4.2622 8.5606,2.2057 19.716,2.443 26.116,4.867 18.425,6.9779 21.16,3.9222 32.418,-1.1084 8.433,-3.7682 11.962,-4.6061 18.865,-5.7911 9.4941,-1.6298 8.6569,-1.673 20.004,-6.2262 10.429,-4.1845 13.61,-7.6918 22.994,-11.877 8.7239,-3.8909 12.731,-3.1934 13.48,-4.1533 0.0175,-0.0249 0.0457,-0.0752 0.0591,-0.10242 0.008,-0.0138 0.0164,-0.0568 0.0242,-0.0714 0.002,-0.0106 0.0226,-0.0612 0.0242,-0.0715 0.002,-0.0108 0.007,-0.035 0.009,-0.0458 -0.003,-0.002 -0.0269,-0.0328 -0.0311,-0.035 -0.002,-0.006 -0.005,-0.0171 -0.005,-0.0202 0.004,-0.006 0.0113,-0.0196 0.0148,-0.0256 -6.7e-4,-0.003 -0.0102,-0.038 -0.0109,-0.0404 -0.007,-0.008 -0.0237,-0.0267 -0.031,-0.035 -9.1e-4,-0.003 -0.01,-0.0381 -0.0108,-0.0404 -7.9e-4,-0.002 -0.005,-0.0176 -0.005,-0.0202 -0.004,-0.002 -0.0426,-0.008 -0.0458,-0.009 -0.003,-0.002 -0.0276,-0.0333 -0.031,-0.035 -0.007,-0.008 -0.0237,-0.0268 -0.031,-0.035 -0.007,-0.008 -0.0494,-0.0415 -0.0566,-0.0498 -1.4122,-0.96277 -8.7356,-1.073 -12.201,-0.60644 5.0984,-1.3904 9.5938,-1.8702 13.037,-0.63525 0.21875,-1.3105 0.11682,-2.5463 -0.26044,-3.7192 z m 10.845,59.06 c -0.59833,-1.79 -1.8928,-3.7238 -4.0472,-5.9738 -0.70593,-0.73724 -1.5082,-1.3874 -2.3922,-1.9788 l -0.267,-0.1882 c -10.281,3.476 -23.754,8.695 -40.29,9.9511 -26.706,2.0288 -40.012,5.0646 -48.587,3.7089 -9.9967,-1.5805 -16.721,-2.3669 -30.224,-9.6122 6.4396,7.6617 12.357,14.914 16.954,16.892 7.0584,3.0364 11.005,0.18219 35.194,1.98 11.377,0.84552 9.2103,0.57721 17.991,0.159 8.7812,-0.41827 7.2556,0.39594 17.487,-1.1566 10.232,-1.5525 14.64,-2.8612 23.675,-4.2435 8.5474,-1.3078 11.804,0.44971 12.601,-0.32361 0.003,-0.003 0.0118,-0.0223 0.0148,-0.0256 0.009,-0.0101 0.0269,-0.0203 0.035,-0.0311 0.0159,-0.0233 0.0461,-0.0757 0.0591,-0.10242 0.002,-0.003 0.0126,-0.0221 0.0148,-0.0256 -9.8e-4,-0.003 -0.0101,-0.038 -0.0109,-0.0404 -6.7e-4,-0.003 -0.004,-0.0174 -0.005,-0.0202 0.002,-0.003 0.0126,-0.0217 0.0148,-0.0256 -6.7e-4,-0.002 -0.01,-0.0373 -0.0108,-0.0404 -6.7e-4,-0.003 -0.005,-0.0178 -0.005,-0.0202 -5.5e-4,-0.001 -0.004,-0.014 -0.005,-0.0202 -7.3e-4,-0.003 -0.0101,-0.0375 -0.0108,-0.0403 -6.7e-4,-0.003 -0.005,-0.0179 -0.005,-0.0202 -4.9e-4,-0.002 -0.005,-0.0176 -0.005,-0.0202 -0.003,-0.002 -0.0269,-0.033 -0.031,-0.035 -10e-4,-0.005 -0.005,-0.0176 -0.005,-0.0202 -4.2e-4,-10e-4 -7.0585,-3.1894 -10.264,-3.7233 4.6469,0.0598 8.5886,0.76825 11.237,2.7482 1.1519,-2.6465 1.7445,-4.9868 0.93262,-7.5896 -0.0179,-0.0575 -0.024,-0.10388 -0.0433,-0.16162 z m -112.53,-129.65 c 0.0118,0.0261 0.0109,0.0546 0.0217,0.0807 0.001,0.003 0.005,0.0169 0.005,0.0202 0.002,0.01 0.008,0.0304 0.0108,0.0404 0.001,0.004 0.004,0.0164 0.005,0.0202 0.007,0.0222 0.016,0.0582 0.0216,0.0808 6.7e-4,0.002 0.004,0.0146 0.005,0.0202 0.0326,0.0948 0.0523,0.2041 0.0812,0.30304 1.544,5.2927 -2.2848,15.322 -6.0845,21.896 4.325,-8.4034 8.3191,-22.583 1.7554,-24.72 -3.3374,-1.0862 -7.1918,-2.6251 -11.151,-2.7497 4.3989,-0.10107 8.6576,1.2446 12.32,2.2633 1.2798,0.35602 2.1727,1.1337 2.736,2.2115 0.089,0.17017 0.19049,0.3504 0.27277,0.53314 z m -15.765,-5.0209 c 0.006,8.5e-4 -7e-4,0.019 0.005,0.0202 -0.0127,-0.002 -0.0134,-0.0138 -0.0256,-0.0148 0.003,3.1e-4 0.0171,-0.006 0.0202,-0.005 z m 18.391,73.969 c -1.2012,-1.144 -2.4316,-2.328 -3.647,-3.5912 -7.2002,-7.4832 -9.4423,-16.891 -17.011,-25.104 -4.0489,-4.3937 -6.334,-5.3182 -8.7553,-6.8991 -0.003,-0.002 -0.0366,-0.004 -0.0458,-0.009 -4.8252,-0.92041 -9.8759,-2.371 -15.901,-4.075 -12.118,-3.4271 -10.954,-4.2721 -17.238,-8.1768 l 7.1239,13.658 c 1.1404,2.59 0.72333,5.5097 -0.8775,6.3408 l -1.1294,0.714 c 1.0866,-0.12714 1.9653,-0.19891 3.1225,-0.14386 5.9287,0.28229 14.072,7.8344 14.072,7.8344 5.5926,2.4254 10.407,5.2248 13.268,8.8726 1.1305,0.7074 18.406,7.363 27.019,10.579 z m -20.958,-72.805 c 6.7e-4,10e-4 0.005,0.019 0.005,0.0202 0.002,0.009 0.009,0.031 0.0108,0.0404 9.7e-4,0.003 0.004,0.0172 0.005,0.0202 0.006,0.0201 0.0117,0.0425 0.0162,0.0606 0.008,0.0327 0.0237,0.0911 0.0325,0.12122 2.2032,7.5991 -3.5155,22.559 -6.9117,25.192 -0.002,0.002 -0.0174,0.003 -0.0202,0.005 -0.0187,0.0126 -0.0397,0.0258 -0.0552,0.0365 -0.19513,0.12915 -0.436,0.21265 -0.67996,0.2904 6.7e-4,0.002 0.0103,0.0389 0.0108,0.0404 2.4807,2.2097 5.6181,3.838 7.876,4.9912 1.7416,0.88959 4.5547,2.0797 6.5656,1.8782 -2.1937,0.53198 -5.4712,-0.61713 -7.4678,-1.5282 -4.328,-1.9749 -11.679,-5.3643 -12.37,-11.257 -0.75088,-6.4102 1.7752,-14.138 7.071,-18.133 0.0422,-0.0319 0.0826,-0.0671 0.12518,-0.0985 -0.0435,0.0361 -0.0822,0.0618 -0.12518,0.0985 -4.5443,3.8806 -6.4547,11.312 -5.5899,17.52 0.33569,2.41 1.6981,4.4298 3.4816,6.1254 3.6184,-4.1121 8.6991,-17.855 7.3874,-26.164 0.0976,-0.0214 0.21054,-0.0419 0.30844,-0.061 0.0982,0.22406 0.19513,0.46436 0.27566,0.70557 0.002,0.007 0.009,0.0304 0.0108,0.0404 5.8e-4,0.002 0.005,0.0182 0.005,0.0202 0.002,0.002 0.004,0.0183 0.005,0.0202 0.002,0.002 0.0236,0.013 0.0256,0.0148 z m -41.036,-11.175 c -4.3401,5.5318 -7.4326,18.794 -3.1923,24.044 1.4264,1.7659 2.0134,3.0306 2.0252,3.6793 -9e-5,0.0222 0.003,0.0656 10e-4,0.0862 -0.002,0.0107 -0.002,0.0554 -0.004,0.066 0.002,0.006 0.005,0.0189 0.005,0.0202 -0.002,0.009 -0.0208,0.0554 -0.0242,0.0714 -0.004,0.006 -0.0112,0.0195 -0.0148,0.0256 -0.003,0.006 -0.0113,0.0199 -0.0148,0.0256 -0.003,0.005 -0.0269,0.0468 -0.0296,0.0512 -0.004,0.007 -0.0122,0.0211 -0.0148,0.0256 -0.0119,0.0109 -0.047,0.0291 -0.0552,0.0364 -0.008,0.007 -0.0214,0.0442 -0.0296,0.0512 -0.003,6.2e-4 -0.038,0.0103 -0.0404,0.0109 -0.003,6.7e-4 -0.0178,0.005 -0.0202,0.005 -0.006,10e-4 -0.0178,0.005 -0.0202,0.005 -0.005,10e-4 -0.0353,0.01 -0.0404,0.0108 -0.009,0.003 -0.0309,0.008 -0.0404,0.0109 -0.003,8.5e-4 -0.0381,0.0101 -0.0404,0.0108 -0.0107,-0.002 -0.0404,-0.0271 -0.0512,-0.0295 -0.009,0.003 -0.0512,0.0136 -0.0606,0.0162 -0.0159,-0.003 -0.0558,-0.002 -0.066,-0.004 -0.80746,-0.16064 -2.3776,-1.5188 -4.0236,-4.2697 -4.4034,-7.3591 1.379,-19.091 5.7506,-23.95 z m -6.9132,3.6927 c -2.425,4.7311 -4.1052,13.9 -1.9014,17.549 0.87424,1.4473 1.1529,2.4886 1.0691,2.9395 -0.002,0.0104 -0.007,0.0354 -0.009,0.0458 -5.8e-4,10e-4 -0.013,0.0226 -0.0148,0.0256 -0.002,0.003 -0.0142,0.0242 -0.0148,0.0256 -0.004,0.006 -0.0126,0.0215 -0.0148,0.0256 -0.008,0.007 -0.0468,0.0295 -0.0552,0.0364 -0.008,0.008 -0.0214,0.0442 -0.0296,0.0512 -0.0138,0.004 -0.051,0.0138 -0.0606,0.0162 -0.002,7.9e-4 -0.0179,0.005 -0.0202,0.005 -0.0333,-0.005 -0.1124,-0.0219 -0.13742,-0.0281 -0.48019,-0.146 -1.3593,-1.1591 -2.2347,-3.1685 -2.2299,-5.1188 0.82455,-13.309 3.4237,-17.524 z m 4.7311,55.069 c -0.007,-0.004 -0.0225,-0.0131 -0.0256,-0.0148 -10e-4,-0.005 -0.004,-0.0168 -0.005,-0.0202 -0.004,-0.0154 -0.0139,-0.0502 -0.0162,-0.0606 -0.006,-0.0296 -0.0185,-0.0761 -0.0271,-0.10101 -6.1e-4,-0.002 -0.0101,-0.0373 -0.0108,-0.0404 -0.003,-0.002 -0.0218,-0.0127 -0.0256,-0.0148 -1.9086,-3.5429 -4.2042,-5.6533 -6.6782,-7.0659 2.8934,2.7697 4.1392,5.4326 4.792,8.026 0.65988,-0.26849 1.3291,-0.46112 2.0078,-0.66791 -5.5e-4,-0.003 -0.0102,-0.038 -0.0108,-0.0404 z"
         id="path1183"
         inkscape:connector-curvature="0"
         style="fill:#ffdaa6;stroke-width:10;stroke-linecap:round;stroke-linejoin:round" />
      <g
         id="g1207"
         style="fill-rule:evenodd">
        <path
           d="m 486.49,798.88 c -1.2012,-1.144 -2.4327,-2.3242 -3.6481,-3.5874 -7.2002,-7.4832 -9.4458,-16.899 -17.014,-25.113 -4.0489,-4.3937 -6.3326,-5.3188 -8.7539,-6.8997 -0.004,-0.002 -0.0299,-0.0182 -0.0342,-0.0198 -4.8252,-0.92035 -9.8834,-2.354 -15.909,-4.058 -12.118,-3.4271 -10.96,-4.2737 -17.244,-8.1785 l 7.1279,13.663 c 1.1404,2.59 0.7258,5.4996 -0.87506,6.3306 l -1.5182,0.6957 c 1.1393,-0.14142 2.3025,-0.19153 3.5178,-0.13361 5.9287,0.28223 14.064,7.8461 14.064,7.8461 5.5926,2.4254 10.407,5.2203 13.268,8.8681 1.1305,0.70746 18.405,7.3703 27.019,10.586 z m -5.8148,-4.018 c -5.8661,-2.458 -17.61,-7.5192 -18.556,-8.1158 -1.7964,-2.3886 -4.6189,-4.3152 -7.9403,-6.0198 -0.002,-10e-4 -0.0322,-0.0182 -0.0342,-0.0197 -0.004,-0.004 -0.003,-0.0234 -0.007,-0.0269 -0.002,-0.002 -0.0248,0.008 -0.0269,0.007 -11.515,-9.2999 -18.723,-17.77 -0.9856,-13.922 0.002,-0.002 0.0248,-0.006 0.0269,-0.007 0.12942,0.0407 0.25296,0.0889 0.38126,0.12897 0.003,3e-4 0.0244,-0.007 0.0269,-0.007 0.005,1.2e-4 0.0217,-0.008 0.0269,-0.007 0.003,3.1e-4 0.005,0.0264 0.007,0.027 0.0831,0.0259 0.16919,0.0513 0.25177,0.077 2.181,0.67725 4.2187,1.249 6.1752,1.6968 1.675,1.1829 3.2226,1.9014 6.0571,5.1377 5.2984,6.0496 7.0339,12.889 12.068,18.406 0.84979,0.93146 1.691,1.7995 2.5289,2.645 z"
           id="path1185"
           inkscape:connector-curvature="0" />
        <path
           d="m 480.66,794.86 c -0.8378,-0.84546 -1.6695,-1.7217 -2.5193,-2.6531 -5.0342,-5.5176 -6.7548,-12.344 -12.053,-18.393 -2.8344,-3.2363 -4.4045,-3.9428 -6.0795,-5.1258 -1.9565,-0.44782 -3.9931,-1.0382 -6.1741,-1.7154 -0.0826,-0.0256 -0.16086,-0.056 -0.24393,-0.0819 -0.0197,-0.004 -0.0425,-5.5e-4 -0.0622,-0.005 -0.1283,-0.0401 -0.24936,-0.0768 -0.37882,-0.11762 -0.007,-0.002 -0.0186,0.0121 -0.0259,0.0105 -17.737,-3.8486 -10.524,4.6 0.99097,13.9 0.0175,0.009 0.0294,0.0323 0.0468,0.0413 3.3214,1.7046 6.1525,3.6363 7.9489,6.0248 0.78146,0.53021 12.638,5.6382 18.55,8.1155 z"
           id="path1187"
           inkscape:connector-curvature="0"
           style="fill:url(#p)" />
        <path
           d="m 492.57,735.98 c -0.0755,-0.27173 -0.17004,-0.53174 -0.2569,-0.79724 -5.5494,-16.958 -41.104,-22.431 -59.09,-27.729 -23.127,-6.8131 -18.516,-9.5643 -27.418,-21.038 -13.016,-16.775 -31.2,-18.287 -47.056,-17.725 -16.932,-6.9515 -58.696,-13.92 -80.309,-14.162 l -39.196,6.1939 c 0.40985,1.6215 0.85002,3.2532 1.2843,4.8738 0.70389,2.627 1.4261,5.24 2.1864,7.8365 12.083,-3.1562 96.545,-14.195 108.28,-2.7498 -9.5476,2.3582 -15.826,9.5416 -14.777,10.866 0.0222,0.0256 0.0594,0.064 0.0876,0.0848 9.8321,-7.374 17.27,-8.115 20.381,-7.9726 13.369,0.61182 29.331,1.3987 32.985,3.676 -7.1758,-0.47131 -14.039,2.2903 -19.18,6.395 6.6351,-4.1418 24.227,-6.2231 25.226,0.4939 -2.8071,-0.71295 -19.645,0.94782 -24.394,7.3806 38.111,-7.6706 26.541,7.8424 54.459,16.347 27.919,8.5048 38.64,9.6701 55.789,19.369 14.811,8.3768 9.6044,18.022 8.8462,23.156 3.0742,-5.6492 3.2878,-10.424 2.1556,-14.499 z"
           id="path1189"
           inkscape:connector-curvature="0" />
        <path
           d="m 358.77,730.37 c 7.1089,4.3265 20.477,7.7922 32.25,8.8002 16.885,1.4457 15.387,-1.2299 33.191,8.8746 13.814,7.8402 29.221,11.162 45.392,12.584 16.172,1.4216 14.953,-5.4766 18.895,-7.8816 -1.0758,4.4363 -5.139,8.8389 -12.109,9.456 -12.918,1.1437 -22.636,-1.6434 -37.488,-5.99 -14.851,-4.3467 -11.441,-4.8235 -21.519,-10.413 -14.635,-8.1166 -28.312,-3.8927 -43.214,-6.6381 -8.4542,-1.5576 -13.056,-6.1804 -15.399,-8.7924 z"
           id="path1191"
           inkscape:connector-curvature="0" />
        <path
           d="m 426.61,712.99 c -4.1352,2.4168 -13.04,17.191 -7.8554,25.855 3.6016,6.0191 6.8088,5.3644 2.563,0.10754 -4.8911,-6.0558 0.0187,-22.74 5.2924,-25.963 z"
           id="path1193"
           inkscape:connector-curvature="0" />
        <path
           d="m 419.44,716.16 c -2.4921,1.9524 -8.0999,13.476 -5.2703,19.971 1.9657,4.5123 3.8678,3.9307 1.5041,0.0176 -2.7229,-4.5078 0.58432,-17.391 3.7662,-19.988 z"
           id="path1195"
           inkscape:connector-curvature="0" />
        <path
           d="m 465.2,725.28 c -0.0979,0.019 -0.20789,0.0421 -0.30548,0.0634 1.3168,8.3414 -3.7837,22.128 -7.4048,26.181 0.13559,0.1294 0.28113,0.24591 0.4213,0.37134 0.002,-8.6e-4 0.0238,-0.01 0.0259,-0.0104 0.27887,-0.0889 0.54202,-0.20068 0.7551,-0.36591 3.5614,-2.7615 9.6499,-19.07 6.508,-26.239 z"
           id="path1197"
           inkscape:connector-curvature="0" />
        <path
           d="m 483.58,729.4 c -0.56335,-1.0778 -1.4502,-1.8506 -2.73,-2.2066 -4.5678,-1.2706 -10.019,-3.1184 -15.57,-1.9456 5.0853,-0.95874 10.157,1.0336 14.406,2.4168 7.2098,2.3466 1.6455,19.222 -3.0637,27.012 4.4529,-6.7029 9.7904,-19.858 6.9577,-25.277 z m -21.944,-2.888 c -6.68,3.3785 -9.9171,12.268 -9.0757,19.451 0.69022,5.8925 8.0375,9.307 12.365,11.282 2.167,0.98889 5.8678,2.2919 8.028,1.3864 -2.0161,0.53973 -5.2064,-0.77417 -7.1226,-1.7529 -4.0706,-2.0792 -10.982,-5.6699 -11.796,-11.512 -0.98154,-7.046 1.645,-15.63 7.6013,-18.854 z"
           id="path1199"
           inkscape:connector-curvature="0" />
        <path
           d="m 613.25,836.08 c -0.1001,-0.30768 -0.22601,-0.6153 -0.35541,-0.92236 -2.498,-5.9295 -10.198,-11.492 -18.567,-12.974 -11.897,-2.1068 -16.251,1.3489 -26.005,3.5472 -6.184,1.3937 -16.141,2.2518 -20.715,1.0688 -0.86212,-0.22296 -1.691,-0.44098 -2.5119,-0.6477 -4.2684,1.7379 -8.6676,3.0653 -13.063,3.6085 7.3152,-0.16168 16.204,0.14191 24.65,-0.28278 -1.6303,1.5881 -2.1394,3.6304 -0.40173,9.894 -1.039,-5.7274 1.2963,-7.1158 3.0597,-9.9133 4.6319,-0.37152 10.064,-1.2346 13.89,-2.3795 11.264,-3.371 22.648,-5.0733 30.433,1.502 5.6376,4.7618 9.506,10.122 7.7312,15.682 -3.3492,-2.0094 -8.053,-2.3586 -13.516,-1.8779 3.6943,0.21765 10.887,1.7147 12.368,3.0082 0.0196,0.0177 0.0388,0.049 0.0621,0.07 0.003,0.003 0.0228,0.0118 0.0256,0.0148 0.003,0.003 0.003,0.0166 0.005,0.0202 0.018,0.024 0.0492,0.0525 0.0621,0.0699 0.002,0.002 0.003,0.0176 0.005,0.0202 0.0155,0.0173 0.0493,0.0368 0.0567,0.0498 0.001,0.003 0.004,0.0157 0.005,0.0202 0.004,0.0101 0.008,0.0347 0.0109,0.0404 0.003,0.009 0.005,0.0269 0.0108,0.0404 3.7e-4,10e-4 0.004,0.0179 0.005,0.0202 9.1e-4,0.002 0.005,0.0187 0.005,0.0202 -10e-4,0.0137 -0.009,0.0349 -0.009,0.0458 -6e-5,0.0169 -10e-4,0.0493 -0.004,0.066 -4.3e-4,0.002 0.006,0.0178 0.005,0.0202 -1.8e-4,0.005 0.005,0.0145 0.005,0.0202 -4.8e-4,0.005 -0.0132,0.0215 -0.0148,0.0256 -0.008,0.0221 -0.0144,0.051 -0.0242,0.0715 -0.003,0.005 -0.0121,0.0207 -0.0148,0.0256 -0.011,0.0192 -0.0316,0.0592 -0.0444,0.0768 -0.0132,0.0173 -0.0349,0.0408 -0.0498,0.0566 -0.008,0.008 -0.0269,0.0237 -0.035,0.0311 -0.0334,0.0289 -0.0846,0.0748 -0.12518,0.0984 -1.1763,0.65271 -5.3099,-0.68018 -14.606,1.727 -10.484,2.7147 -15.54,4.7629 -27.415,7.822 -11.875,3.0591 -10.135,1.9361 -20.436,3.484 -10.301,1.5478 -7.7305,1.3069 -21.233,1.9653 -13.502,0.65839 -13.191,4.0426 -33.526,0.0415 -20.243,-3.983 -23.889,-11.901 -45.446,-19.715 -21.574,-7.8206 -21.547,-2.153 -38.682,-13.3 -7.4668,-4.8573 -10.033,-7.6274 -12.65,-11.009 -0.0147,-0.0164 -0.0419,-0.0333 -0.0566,-0.0498 -0.0251,-0.0325 -0.0423,-0.0575 -0.0675,-0.0901 -2.2089,-2.2708 -4.4955,-5.0566 -6.8334,-8.4533 -0.0208,-0.03 -0.0468,-0.06 -0.0675,-0.0901 -2.4334,-2.6824 -5.6788,-5.9418 -10.311,-10.12 -20.655,-18.629 -21.767,-32.417 -53.602,-41.671 -20.917,-6.0803 -38.331,-10.343 -53.477,-13.492 1.1273,2.0465 2.2647,4.0779 3.4303,6.0958 16.624,2.0056 34.803,4.5377 50.253,10.589 19.16,7.5048 28.741,17.194 33.749,22.849 13.382,15.108 22.396,19.079 35.774,36.466 20.176,26.223 38.599,14.177 68.246,31.923 18.712,11.201 25.922,11.967 37.585,13.81 8.5751,1.3557 21.902,-1.6856 48.608,-3.7144 24.764,-1.8812 42.668,-12.63 53.228,-13.136 9.0112,-0.43188 10.73,0.44196 11.067,-8.8762 0.0393,-1.0876 -0.11383,-2.1957 -0.47144,-3.2946 z"
           id="path1201"
           inkscape:connector-curvature="0" />
        <path
           d="m 597.18,858.06 c -1.1722,-2.4316 -3.3862,-4.8308 -6.0969,-6.8047 -0.36932,0.12311 -0.73975,0.23468 -1.1179,0.36224 0.88403,0.59137 1.6913,1.2427 2.3973,1.9799 5.3709,5.6092 5.1119,9.2031 3.1461,13.72 -2.6614,-1.9895 -6.6119,-2.6922 -11.288,-2.746 3.1694,0.49567 9.5136,2.4918 10.323,3.7087 0.007,0.0106 0.0151,0.0413 0.0209,0.0518 0.005,0.0104 0.0165,0.0414 0.021,0.0517 0.002,0.005 0.009,0.0208 0.0105,0.0259 0.002,0.005 0.009,0.0209 0.0104,0.0259 0.002,0.01 0.0196,0.0419 0.0209,0.0518 10e-4,0.0146 -0.004,0.0479 -0.005,0.0622 -0.002,0.014 -5.5e-4,0.0485 -0.005,0.0622 -0.003,0.009 -0.011,0.0274 -0.0154,0.0364 -0.013,0.0267 -0.0407,0.0598 -0.0566,0.0831 -0.69702,0.91962 -3.8854,-0.9494 -12.638,0.38971 -9.0348,1.3823 -13.465,2.6821 -23.696,4.2346 -10.232,1.5525 -8.6885,0.75348 -17.47,1.1717 -8.7812,0.41827 -6.6005,0.68762 -17.978,-0.15796 -24.189,-1.7978 -28.153,1.0642 -35.211,-1.9722 -4.5966,-1.9774 -10.515,-9.229 -16.954,-16.891 -2.1786,-1.1681 -4.5173,-2.5183 -7.0908,-4.054 2.3484,2.4911 4.4623,4.9584 6.3014,7.3843 3.5534,4.6871 11.22,12.638 14.55,14.522 7.0912,4.0112 17.444,1.8569 57.639,3.0082 20.951,0.60004 36.934,-6.4388 45.857,-6.4624 9.0891,-0.024 7.9188,1.057 10.016,-6.4938 0.47046,-1.6937 0.1878,-3.5276 -0.69086,-5.3504 z"
           id="path1203"
           inkscape:connector-curvature="0" />
        <path
           d="m 586.57,796.99 c -2.5991,-5.3804 -11.148,-9.6045 -19.743,-9.4994 -11.374,0.13904 -14.958,3.9589 -23.734,7.5618 -5.5639,2.2841 -9.1158,3.2449 -13.512,3.2125 -10.904,-0.0804 -34.196,3.7639 -35.554,3.9473 -0.003,10e-4 -0.0235,0.01 -0.0259,0.0105 -1.4589,-0.29047 -32.993,-11.698 -34.349,-12.558 -3.0091,-3.696 -8.1734,-6.5294 -14.211,-8.9992 0,0 -8.6422,-7.6641 -15.119,-7.9693 -1.3277,-0.0626 -2.6143,-0.0193 -3.8655,0.11981 l 1.7072,-0.6912 c 1.7789,-0.83447 2.3059,-3.7732 1.1444,-6.3945 l -9.7638,-18.688 c -0.64691,-0.3844 -1.3542,-0.79022 -2.1558,-1.2347 -0.67459,-0.37408 -1.3496,-0.72516 -2.0203,-1.0487 l 11.953,20.451 c 0.9021,2.1684 -0.0314,5.562 -1.4044,6.1987 -0.0329,0.0145 -0.0897,0.0373 -0.1293,0.0524 -0.006,0.002 -0.0203,0.009 -0.0259,0.0104 -0.0263,0.005 -0.0874,0.0123 -0.11395,0.0161 -0.0303,0.005 -0.0833,0.0137 -0.11392,0.016 -0.10745,0.005 -0.23721,-0.009 -0.34738,-0.04 -0.009,-0.003 -0.0277,-0.0126 -0.0363,-0.0154 -0.2609,-0.0908 -0.55408,-0.27692 -0.81616,-0.6029 l -6.6641,-6.1235 c -3.9095,-2.7784 -6.9444,-5.2033 -10.842,-5.0644 3.9513,2.6651 7.5178,5.8014 7.6974,10.312 -9.2403,-5.5549 -18.994,-15.283 -26.162,-22.827 5.8699,8.2739 16.141,18.132 28.716,28.838 -1.8199,1.057 -3.5773,2.3432 -5.3008,3.8623 6.4793,-3.6335 12.658,-5.5615 19.729,-4.8865 3.9666,1.0858 6.114,2.618 8.2469,4.158 -3.8678,0.78748 -8.091,0.91846 -10.956,3.5024 3.9124,-1.9293 8.7075,-1.7029 13.74,-0.86597 4.7528,1.5362 8.725,3.7382 12.164,6.3959 -5.6322,0.31177 -8.8025,2.7865 -11.247,5.9082 4.566,-2.2412 9.1255,-4.4871 14.204,-2.6194 10.413,2.8682 23.365,9.3771 31.125,12.478 -1.3328,3.1514 -2.07,6.595 -2.3612,10.38 1.0708,-3.5716 2.3487,-6.8071 4.0272,-9.7595 2.3838,0.87677 4.074,1.2916 4.782,0.95422 6.8875,-3.2817 26.516,-5.7189 37.55,-5.1165 -1.2893,1.6782 -1.4689,3.5436 0.98498,8.7539 -1.6973,-4.8257 0.25427,-6.4836 1.4953,-9.2462 4.2615,-1.1133 9.182,-2.7984 12.584,-4.4628 10.018,-4.9003 20.4,-8.3264 28.57,-3.799 5.9161,3.2787 10.266,7.3947 9.3913,12.636 -3.4432,-1.235 -7.922,-0.75555 -13.02,0.63489 3.465,-0.46655 10.784,-0.36084 12.196,0.60193 0.008,0.007 0.0388,0.034 0.0467,0.0413 0.0106,0.009 0.0372,0.0324 0.0469,0.0413 0.009,0.009 0.0366,0.029 0.0468,0.0413 0.005,0.006 0.007,0.0212 0.0105,0.0259 9.2e-4,0.002 0.01,0.0233 0.0105,0.0259 0.009,0.007 0.0385,0.0341 0.0468,0.0413 0.002,0.005 0.009,0.021 0.0105,0.0259 -0.003,0.006 -0.0124,0.0299 -0.0154,0.0363 9.8e-4,0.002 0.009,0.0232 0.0105,0.0259 9.2e-4,0.002 0.009,0.0233 0.0104,0.0259 -5.5e-4,0.0106 -0.004,0.0515 -0.005,0.0622 -0.28729,1.3437 -4.1963,0.19879 -13.58,4.384 -9.3837,4.18521 -12.572,7.7169 -23.001,11.901 -11.348,4.5531 -10.504,4.6 -19.998,6.2298 -6.9032,1.1851 -10.427,2.0008 -18.86,5.769 -11.258,5.0307 -14.001,8.093 -32.426,1.1151 -6.4005,-2.424 -17.558,-2.6652 -26.118,-4.8709 -5.3134,-1.369 -11.856,-2.9463 -20.431,-4.2831 -21.185,-3.3027 -22.822,-2.2732 -29.478,-7.6656 -5.7709,-4.6752 -11.365,-8.7566 -18.816,-20.894 22.859,42.244 36.294,24.115 66.386,34.874 18.993,6.7906 24.945,2.403 36.884,9.0028 11.686,6.4601 26.864,-10.076 44.716,-11.51 18.908,-1.5195 38.025,-18.421 47.772,-20.696 8.3231,-1.9427 10.033,-1.3749 9.0439,-9.7131 -0.0936,-0.78802 -0.29944,-1.5755 -0.64203,-2.3293 -0.0291,-0.0642 -0.053,-0.14319 -0.0837,-0.20697 z M 422.2,773.394 c 0.0464,0.0861 0.0692,0.19672 0.1152,0.28455 -0.67868,0.20673 -1.348,0.42395 -2.0078,0.69244 -0.65793,-2.6139 -1.9005,-5.3019 -4.843,-8.0952 2.5024,1.4124 4.8082,3.5403 6.7356,7.1182 z m -19.932,-26.253 c -0.50827,-1.0834 -1.2344,-2.0973 -1.7907,-3.1589 -0.94958,-1.2633 -2.0225,-2.4283 -3.2431,-3.4741 -0.003,0.002 -0.0236,0.009 -0.0259,0.0104 -1.7181,-0.0955 -3.4332,-0.13666 -5.157,-0.17017 4.3813,2.5281 8.2677,5.8042 10.553,11.564 0.57053,-1.7426 0.34317,-3.1436 -0.19995,-4.4352 -0.0478,-0.11377 -0.0835,-0.22418 -0.13614,-0.3363 z"
           id="path1205"
           inkscape:connector-curvature="0" />
      </g>
      <g
         id="g1229"
         style="stroke-linecap:round;stroke-linejoin:round">
        <path
           d="m 579.78,793.7 c -1.0336,-0.72882 -2.1686,-1.4163 -3.3587,-2.0759 -8.1694,-4.5275 -18.553,-1.1163 -28.571,3.7841 -3.4026,1.6644 -8.3221,3.3564 -12.584,4.4697 -1.2314,2.741 -3.1664,4.3984 -1.5387,9.1376 -2.4012,-5.1292 -2.2112,-6.9825 -0.93072,-8.6492 -11.034,-0.60236 -30.684,1.8452 -37.572,5.1269 -0.70804,0.3374 -2.3847,-0.099 -4.7685,-0.97577 -1.6786,2.9523 -2.955,6.2034 -4.0259,9.7751 0.29111,-3.7847 1.0241,-7.2455 2.3569,-10.397 -7.7598,-3.1011 -20.72,-9.5919 -31.132,-12.46 -5.0785,-1.8677 -9.6395,0.38062 -14.206,2.6218 2.4442,-3.1217 5.6141,-5.5908 11.246,-5.9026 -3.4386,-2.6577 -7.398,-4.8867 -12.151,-6.4228 -4.954,-0.82398 -9.6679,-1.0643 -13.546,0.76941 2.8605,-2.4441 6.9665,-2.6309 10.76,-3.4033 -2.1329,-1.54 -4.2807,-3.0605 -8.2472,-4.1463 -7.0155,-0.66974 -13.154,1.2051 -19.578,4.7836 1.6805,-1.4673 3.3766,-2.7193 5.1494,-3.7489 -12.575,-10.707 -22.837,-20.582 -28.707,-28.856 7.1688,7.5442 16.902,17.286 26.142,22.84 -0.1795,-4.5102 -3.7226,-7.6443 -7.6739,-10.309 3.8973,-0.13886 6.9184,2.2654 10.828,5.0439 l 6.6695,6.1292 c 0.12286,0.15283 0.26239,0.2901 0.39233,0.38605 0.0954,0.0678 0.21503,0.1358 0.30762,0.17761 0.0128,0.007 0.0554,0.0308 0.0684,0.0394 0.004,0.002 0.03,0.0177 0.0342,0.0198 0.003,-10e-4 0.0245,-0.007 0.0269,-0.007 0.002,-6.7e-4 0.0239,-0.006 0.0269,-0.007 0.0663,0.0185 0.14636,0.0449 0.21759,0.0572 0.0129,0.002 0.0485,0.0115 0.0611,0.0125 0.006,2.5e-4 0.0208,-0.007 0.027,-0.007 0.002,-6.7e-4 0.0244,-0.006 0.0269,-0.007 0.0268,-4.9e-4 0.0884,1.2e-4 0.11505,-0.002 0.0245,-0.005 0.0833,-0.0226 0.10782,-0.0289 0.003,-6.7e-4 0.0244,-0.006 0.0269,-0.007 0.005,-0.002 0.0216,-0.005 0.0269,-0.007 0.0225,-0.011 0.0529,-0.0378 0.0737,-0.0486 0.005,-0.002 0.0228,-0.005 0.0269,-0.007 1.3729,-0.63672 2.3077,-4.0154 1.4056,-6.1838 l -11.954,-20.459 c -6.1379,-2.961 -12.122,-3.8815 -18.118,-4.2172 1.2131,1.0418 2.2879,2.1816 3.2327,3.4387 0.55627,1.0616 1.2914,2.0747 1.7996,3.1581 0.0525,0.11206 0.1,0.22223 0.1478,0.336 0.54312,1.2916 0.74661,2.6885 0.17609,4.431 -2.2792,-5.7449 -6.1502,-9.0156 -10.518,-11.541 -0.0114,-0.007 -0.0228,-0.0131 -0.0342,-0.0197 -5.8517,-0.11365 -11.771,-0.0621 -17.885,-1.1884 -3.55,-0.65405 -6.412,-1.8519 -8.7189,-3.211 3.8345,39.661 56.8,77.101 118.81,83.817 42.175,4.5678 77.792,-6.2483 95.525,-26.058 z"
           id="path1209"
           inkscape:connector-curvature="0"
           style="opacity:0.70099996;fill:url(#y);stroke-width:6.61499977" />
        <g
           id="g1227"
           style="stroke-width:5">
          <path
             d="m 490.82,736.33 c -1.3315,-2.9897 -4.0763,-6.0602 -9.2561,-8.9898 -17.148,-9.6986 -27.862,-10.872 -55.781,-19.377 -27.919,-8.5048 -16.374,-24.043 -54.485,-16.373 4.7488,-6.4328 21.602,-8.0623 24.409,-7.3493 -0.98337,-6.6122 -18.062,-4.7297 -24.924,-0.71802 5.0915,-3.9656 11.798,-6.6675 18.816,-6.2262 -3.8151,-2.2369 -19.642,-3.0567 -32.907,-3.6638 -1.7847,-0.0817 -5.0018,0.13873 -9.2721,1.7333 11.398,21.31 35.432,40.757 66.515,52.211 0.87903,-3.9285 2.703,-7.7556 4.2198,-9.9138 -1.4561,2.3377 -2.7471,6.4058 -3.2594,10.263 0.89056,0.32196 1.7741,0.62109 2.676,0.92981 1.1833,-5.9987 4.822,-11.977 7.5919,-14.689 -2.825,3.016 -5.2793,9.4732 -5.7809,15.301 3.0221,0.99628 6.094,1.9146 9.2324,2.7556 8.3885,2.2477 16.719,3.7959 24.862,4.6927 1.269,-3.9926 3.6878,-7.6135 7.0926,-9.759 -3.0895,2.1499 -5.1473,5.8445 -6.1092,9.871 3.122,0.32465 6.2007,0.56299 9.2588,0.6972 1.1511,-4.3442 1.7444,-8.8567 1.186,-12.394 0.0976,-0.0214 0.20587,-0.0335 0.30374,-0.0525 0.0982,0.22406 0.19537,0.46497 0.27591,0.70618 1.0237,3.067 0.64313,7.4733 -0.39758,11.779 6.1079,0.21252 12.088,0.0452 17.843,-0.4762 0.63037,-4.687 -0.0512,-8.5805 -3.2419,-9.619 -3.8625,-1.2571 -8.4016,-3.0456 -13.015,-2.6378 5.0649,-0.63342 10.001,0.98718 14.184,2.151 1.2798,0.35596 2.1682,1.1373 2.7315,2.215 0.17703,0.33868 0.32269,0.70038 0.43814,1.096 0.52426,1.7972 0.44479,4.1399 -0.0495,6.7161 2.3155,-0.22858 4.5995,-0.53626 6.8426,-0.88 z"
             id="path1211"
             inkscape:connector-curvature="0"
             style="opacity:0.456;fill:url(#z)" />
          <g
             id="g1219"
             style="fill:#1dffff;fill-opacity:0.594">
            <path
               d="m 466.28,725.08 c -0.0753,0.009 -0.14746,0.0209 -0.22287,0.0308 0.0746,-0.0121 0.14835,-0.0198 0.22287,-0.0308 z"
               id="path1213"
               inkscape:connector-curvature="0"
               style="opacity:0.70099996" />
            <path
               d="m 460.69,727.07 c -0.0338,0.0229 -0.067,0.0326 -0.10059,0.0558 0.0383,-0.024 0.062,-0.0322 0.10059,-0.0558 z"
               id="path1215"
               inkscape:connector-curvature="0"
               style="opacity:0.70099996" />
            <path
               d="m 425.51,713.84 c -0.019,0.0182 -0.0277,0.0229 -0.0467,0.0414 0.0148,-0.0136 0.0319,-0.0281 0.0467,-0.0414 z"
               id="path1217"
               inkscape:connector-curvature="0"
               style="opacity:0.70099996" />
          </g>
          <path
             d="m 606.53,831.23 c -0.8833,-0.89624 -1.8535,-1.7772 -2.874,-2.6391 -7.7848,-6.5753 -19.163,-4.8968 -30.427,-1.5258 -3.8259,1.1449 -9.2593,2.0216 -13.891,2.3931 -1.7496,2.7757 -4.0842,4.1441 -3.1055,9.7596 -1.6939,-6.1594 -1.1935,-8.158 0.42517,-9.7348 -8.3139,0.41803 -17.036,0.12134 -24.284,0.26636 -0.005,6.1e-4 -0.0222,0.007 -0.0269,0.007 -0.0193,6e-5 -0.0419,-0.0126 -0.0611,-0.0125 -0.005,2.4e-4 -0.0223,0.007 -0.027,0.007 -0.591,0.0766 -1.1796,0.138 -1.7704,0.18549 -9.5147,0.76465 -18.266,5.8231 -26.141,9.4025 14.589,5.4182 33.877,7.6973 54.628,5.5865 18.342,-1.8658 34.851,-6.8671 47.555,-13.696 z"
             id="path1221"
             inkscape:connector-curvature="0"
             style="opacity:0.456;fill:url(#q)" />
          <path
             d="m 594.84,856.61 c -0.0278,-0.0408 -0.0616,-0.0793 -0.09,-0.12036 -0.0332,-0.0479 -0.0632,-0.0992 -0.0972,-0.14728 -0.0422,-0.0595 -0.0879,-0.10712 -0.13147,-0.16699 -0.005,-0.007 -0.002,-0.0202 -0.007,-0.027 -0.0167,-0.0229 -0.0317,-0.0507 -0.0486,-0.0737 -0.024,-0.0326 -0.0583,-0.0605 -0.0828,-0.0934 -0.0225,-0.0302 -0.0331,-0.0703 -0.0559,-0.10059 -0.007,-0.01 -0.0269,-0.0101 -0.0341,-0.0197 -0.0142,-0.0187 -0.0272,-0.028 -0.0415,-0.0467 -0.005,-0.007 -0.002,-0.0201 -0.007,-0.027 -0.0178,-0.0233 -0.0306,-0.0503 -0.0486,-0.0737 -0.0747,-0.0967 -0.14307,-0.18945 -0.22144,-0.28735 -0.0493,-0.0617 -0.11487,-0.12457 -0.16559,-0.18677 -0.0444,-0.0543 -0.0859,-0.1123 -0.13147,-0.16699 -0.0171,-0.0206 -0.0312,-0.053 -0.0486,-0.0737 -0.008,-0.009 -0.0262,-0.0103 -0.0342,-0.0197 -0.0133,-0.0158 -0.028,-0.0309 -0.0414,-0.0467 -0.12219,-0.14459 -0.24951,-0.2998 -0.37982,-0.44714 -0.0309,-0.035 -0.0514,-0.0583 -0.0828,-0.0934 -0.0288,-0.0323 -0.0536,-0.061 -0.0828,-0.0934 -0.0128,-0.0142 -0.0286,-0.0325 -0.0414,-0.0467 -0.0146,-0.0162 -0.0266,-0.0304 -0.0414,-0.0467 -0.024,-0.0264 -0.0513,-0.0399 -0.0756,-0.0664 -0.0114,-0.0125 -0.03,-0.0342 -0.0414,-0.0467 -0.0264,-0.0286 -0.0562,-0.0646 -0.0828,-0.0934 -0.0304,-0.0328 -0.052,-0.0604 -0.0828,-0.0934 -0.0134,-0.0144 -0.0279,-0.0322 -0.0414,-0.0467 -0.0154,-0.0165 -0.0258,-0.0301 -0.0414,-0.0467 -0.0252,-0.0268 -0.05,-0.0395 -0.0756,-0.0664 -0.012,-0.0127 -0.0293,-0.034 -0.0414,-0.0467 -0.0276,-0.0291 -0.0548,-0.0642 -0.0828,-0.0934 -0.0221,-0.0231 -0.0534,-0.0436 -0.0756,-0.0665 -0.0668,-0.0686 -0.13104,-0.13922 -0.19977,-0.20648 -0.023,-0.0224 -0.0525,-0.0441 -0.0756,-0.0664 -0.0694,-0.0667 -0.12854,-0.14111 -0.19977,-0.20648 -0.0237,-0.0218 -0.0516,-0.0448 -0.0756,-0.0664 -0.11963,-0.10822 -0.24628,-0.20068 -0.37067,-0.30518 -0.0248,-0.0209 -0.0505,-0.0457 -0.0756,-0.0664 -0.22546,-0.18683 -0.45404,-0.36108 -0.69275,-0.53668 -0.0266,-0.0195 -0.0489,-0.0471 -0.0756,-0.0664 -0.10669,-0.0775 -0.21307,-0.15613 -0.32202,-0.23151 -0.0272,-0.0189 -0.0482,-0.0477 -0.0756,-0.0665 -0.0274,-0.0187 -0.0678,-0.0136 -0.0953,-0.0322 -0.0275,-0.0186 -0.048,-0.0479 -0.0756,-0.0664 0.0473,-0.016 0.0877,-0.0208 0.13477,-0.0361 0.32922,-0.10754 0.65979,-0.21338 0.98291,-0.32117 -0.0503,-0.0801 -0.10858,-0.14978 -0.17279,-0.21368 -0.39056,0.1297 -0.78595,0.26239 -1.1862,0.39764 -9.4936,3.2084 -21.727,7.8838 -36.562,9.5724 -0.009,9.8e-4 -0.0179,0.006 -0.0269,0.007 -0.009,10e-4 -0.0178,0.006 -0.027,0.007 -0.009,10e-4 -0.0176,0.006 -0.027,0.007 -0.1604,0.0181 -0.31885,0.0245 -0.47986,0.0419 -0.009,10e-4 -0.0179,0.006 -0.027,0.007 -0.009,10e-4 -0.0178,0.006 -0.027,0.007 -0.009,0.001 -0.0176,0.006 -0.027,0.007 -0.16113,0.0173 -0.31812,0.0253 -0.47992,0.0419 -0.009,9.7e-4 -0.0178,0.006 -0.0269,0.007 -0.009,9.8e-4 -0.0177,0.006 -0.027,0.007 -0.10284,0.0105 -0.20789,0.0154 -0.31097,0.0256 -0.17304,0.0171 -0.36005,0.0401 -0.53381,0.0563 -0.38196,0.0357 -0.77051,0.0759 -1.1558,0.10742 -0.096,0.008 -0.18774,0.0104 -0.284,0.0184 -0.0966,0.008 -0.18732,0.0109 -0.284,0.0183 -0.20862,0.0164 -0.41498,0.0346 -0.62195,0.051 -0.82806,0.0639 -1.6316,0.12427 -2.4338,0.18988 -0.009,7.3e-4 -0.0181,0.007 -0.0269,0.007 -0.19171,0.0157 -0.40478,0.0281 -0.59503,0.0438 -0.39783,0.0339 -0.79114,0.0806 -1.1827,0.11468 -0.1958,0.0167 -0.37378,0.0199 -0.56799,0.0366 -0.38849,0.0342 -0.77356,0.0729 -1.1558,0.10742 -0.38226,0.0345 -0.77972,0.0728 -1.1558,0.10748 -0.37616,0.0347 -0.73187,0.0581 -1.1019,0.093 -0.74005,0.0696 -1.4804,0.14288 -2.1965,0.21289 -10.548,1.0317 -18.537,2.089 -24.799,2.6579 -0.009,8e-4 -0.0183,0.006 -0.027,0.007 -0.84021,0.0774 -1.6536,0.13123 -2.4338,0.18988 -0.0986,0.007 -0.21338,0.0186 -0.31097,0.0255 -0.19519,0.0142 -0.37646,0.0238 -0.56805,0.0367 -0.0958,0.006 -0.18909,0.0124 -0.284,0.0182 -0.28461,0.0183 -0.57526,0.0399 -0.85199,0.055 -0.0923,0.005 -0.19257,0.0138 -0.28406,0.0183 -0.36554,0.0187 -0.703,0.0388 -1.0551,0.0516 -0.17609,0.006 -0.37549,-0.002 -0.54828,0.002 -0.25922,0.007 -0.49219,0.0225 -0.7442,0.0261 -0.16803,0.002 -0.35638,-0.005 -0.52136,-0.005 -0.16486,8e-4 -0.29828,0.009 -0.46014,0.008 -0.009,-6e-5 -0.0184,0.007 -0.027,0.007 -0.16186,-10e-4 -0.30847,-0.0163 -0.46741,-0.0192 -0.23834,-0.004 -0.46564,-0.007 -0.69751,-0.0154 -0.1546,-0.005 -0.31561,-0.0118 -0.46741,-0.0192 -0.15179,-0.007 -0.29144,-0.0173 -0.44049,-0.0265 -0.89416,-0.0543 -1.7527,-0.1413 -2.5566,-0.26837 -0.3002,-0.0475 -0.608,-0.0875 -0.90256,-0.13373 -0.0119,-0.002 -0.0223,-0.0179 -0.0342,-0.0198 -0.2821,-0.0443 -0.56403,-0.0778 -0.84149,-0.12122 -0.0411,-0.006 -0.0812,-0.0186 -0.12225,-0.025 -0.27997,-0.0439 -0.56567,-0.0777 -0.84146,-0.12122 -0.10416,-0.0164 -0.20203,-0.0462 -0.30566,-0.0626 -0.0421,-0.007 -0.0803,-0.0183 -0.12228,-0.025 -0.0998,-0.0158 -0.19913,-0.0197 -0.29843,-0.0356 -0.0487,-0.008 -0.10059,-0.01 -0.14923,-0.0178 -0.0906,-0.0145 -0.18124,-0.0283 -0.27148,-0.0428 -0.10242,-0.0165 -0.20377,-0.046 -0.30566,-0.0626 -0.0397,-0.006 -0.0826,-0.0186 -0.12228,-0.025 -0.0564,-0.009 -0.1199,-10e-4 -0.17618,-0.0106 -0.0811,-0.0133 -0.16367,-0.0367 -0.24454,-0.05 -0.0616,-0.0102 -0.12201,-0.0273 -0.18344,-0.0375 -0.0731,-0.0122 -0.13736,-0.0181 -0.21036,-0.0303 -0.0714,-0.0119 -0.13907,-0.0183 -0.21036,-0.0303 -0.0685,-0.0115 -0.142,-0.0187 -0.21036,-0.0303 -0.21127,-0.0358 -0.42831,-0.0812 -0.63831,-0.11786 -0.0617,-0.0107 -0.12183,-0.0267 -0.18341,-0.0375 -0.0806,-0.0142 -0.16403,-0.0357 -0.24454,-0.0501 -0.0508,-0.009 -0.0984,-0.009 -0.14923,-0.0178 -0.091,-0.0163 -0.18066,-0.0262 -0.27152,-0.0428 -0.0477,-0.009 -0.10153,-0.009 -0.1492,-0.0178 -0.10431,-0.0191 -0.20874,-0.0701 -0.3129,-0.0895 -0.0284,-0.005 -0.0597,0 -0.0881,-0.005 -0.099,-0.0186 -0.19955,-0.0167 -0.29846,-0.0356 -0.0531,-0.0101 -0.10333,-0.0345 -0.15643,-0.0447 -0.0193,-0.004 -0.0418,-0.009 -0.0611,-0.0125 -0.0278,-0.005 -0.0603,6e-5 -0.0881,-0.005 -0.0372,-0.007 -0.0581,-0.025 -0.0953,-0.0322 -0.0313,-0.006 -0.0568,8.6e-4 -0.088,-0.005 -0.041,-0.008 -0.0814,-0.0169 -0.12228,-0.025 -0.0496,-0.01 -0.1069,-0.0349 -0.15649,-0.0447 -0.0193,-0.004 -0.0417,-0.009 -0.0611,-0.0125 -0.0278,-0.006 -0.0604,3e-4 -0.0881,-0.005 -0.0602,-0.0122 -0.1232,-0.0252 -0.18341,-0.0375 -0.10834,-0.0221 -0.22427,-0.0328 -0.33261,-0.0554 -0.012,-0.002 -0.0222,-0.0172 -0.0342,-0.0197 -0.0406,-0.008 -0.0816,-0.0165 -0.12222,-0.025 -0.0311,-0.007 -0.0642,-0.0257 -0.0953,-0.0323 -0.008,-0.002 -0.0189,0.009 -0.0269,0.007 -0.12643,-0.0268 -0.24753,-0.0745 -0.37405,-0.10205 -0.008,-0.002 -0.0192,0.009 -0.0269,0.007 -0.0614,-0.0134 -0.12195,-0.024 -0.18344,-0.0375 -0.008,-0.002 -0.0188,0.009 -0.0269,0.007 -0.13229,-0.0292 -0.26843,-0.0647 -0.40094,-0.0948 -0.0674,-0.0153 -0.12329,-0.049 -0.19067,-0.0645 -0.14777,-0.0339 -0.27978,-0.0524 -0.42795,-0.0876 -0.0675,-0.0159 -0.11578,-0.0213 -0.18338,-0.0375 -0.0119,-0.003 -0.0223,-0.0169 -0.0342,-0.0198 -0.0562,-0.0135 -0.12711,-0.0239 -0.18344,-0.0375 -0.0824,-0.02 -0.16193,-0.0296 -0.24454,-0.05 -0.0491,-0.0122 -0.10727,-0.0325 -0.15643,-0.0448 -0.0196,-0.005 -0.0415,-0.008 -0.0611,-0.0125 -0.0588,-0.0147 -0.10477,-0.0568 -0.16367,-0.0717 -0.008,-0.002 -0.0188,0.009 -0.0269,0.007 -0.14255,-0.0362 -0.29205,-0.0771 -0.43518,-0.11456 -0.0712,-0.0187 -0.14621,-0.0383 -0.21759,-0.0573 -0.038,-0.0101 -0.0842,-0.0148 -0.12228,-0.025 -0.0319,-0.009 -0.0634,-0.0236 -0.0953,-0.0322 -0.0545,-0.0147 -0.10175,-0.0299 -0.15643,-0.0447 -0.0198,-0.005 -0.0413,-0.007 -0.0611,-0.0125 -0.0286,-0.008 -0.0595,0.003 -0.0881,-0.005 -0.0442,-0.0122 -0.0852,-0.0397 -0.12949,-0.052 -0.0266,-0.007 -0.0615,0.002 -0.0881,-0.005 -0.0443,-0.0124 -0.0851,-0.0395 -0.12949,-0.052 -0.0214,-0.006 -0.0398,-0.006 -0.0611,-0.0125 -0.0522,-0.0148 -0.10416,-0.0298 -0.15649,-0.0447 -0.0192,-0.005 -0.0418,-0.007 -0.0611,-0.0125 -0.0524,-0.015 -0.10394,-0.0295 -0.15643,-0.0447 -0.0194,-0.006 -0.0418,-0.007 -0.0612,-0.0125 -0.0525,-0.0153 -0.10376,-0.0293 -0.15643,-0.0447 -0.0329,-0.01 -0.0624,-0.0226 -0.0953,-0.0323 -0.0424,-0.0125 -0.087,-0.0393 -0.12949,-0.052 -0.008,-0.002 -0.0194,0.01 -0.027,0.007 -0.0652,-0.0195 -0.12512,-0.0447 -0.19061,-0.0645 -0.0114,-0.003 -0.0227,-0.0162 -0.0341,-0.0197 -0.061,-0.0184 -0.12222,-0.0189 -0.18341,-0.0375 -0.0827,-0.0253 -0.14175,-0.0585 -0.22482,-0.0842 -0.22168,-0.0687 -0.43561,-0.1264 -0.65994,-0.19873 -0.11783,-0.038 -0.22848,-0.0702 -0.34711,-0.10925 -0.0784,-0.0258 -0.14603,-0.058 -0.22479,-0.0842 -0.0317,-0.0106 -0.0636,-0.0216 -0.0953,-0.0322 -0.061,-0.0204 -0.1294,-0.0438 -0.19061,-0.0645 -0.0124,-0.004 -0.0218,-0.0155 -0.0342,-0.0197 -0.0613,-0.0207 -0.12912,-0.0435 -0.19061,-0.0645 -0.0124,-0.004 -0.0218,-0.0154 -0.0342,-0.0197 -0.061,-0.0209 -0.12213,-0.0163 -0.18338,-0.0375 -0.0991,-0.0344 -0.19342,-0.0886 -0.29315,-0.12366 -0.0502,-0.0176 -0.10617,-0.0269 -0.15646,-0.0448 -0.0251,-0.009 -0.0432,-0.0304 -0.0684,-0.0394 -0.0504,-0.0179 -0.1059,-0.0266 -0.15643,-0.0447 -0.0298,-0.0107 -0.0655,-0.0215 -0.0953,-0.0323 -0.0435,-0.0157 -0.0858,-0.0361 -0.12949,-0.0519 -0.0327,-0.0119 -0.0625,-0.0203 -0.0953,-0.0323 -0.0438,-0.0159 -0.0856,-0.0358 -0.12949,-0.0519 -0.0329,-0.0121 -0.0623,-0.0201 -0.0953,-0.0322 -0.0439,-0.0162 -0.0854,-0.0357 -0.12949,-0.052 -0.0373,-0.0139 -0.0849,-0.011 -0.12228,-0.025 -0.0689,-0.0257 -0.1286,-0.0653 -0.19784,-0.0914 -0.0122,-0.005 -0.022,-0.0151 -0.0342,-0.0197 -0.0321,-0.0122 -0.0632,-0.0201 -0.0953,-0.0323 -0.0464,-0.0176 -0.0829,-0.0342 -0.12949,-0.0519 -0.0363,-0.0139 -0.0858,-0.0111 -0.12225,-0.025 -0.0424,-0.0163 -0.087,-0.0356 -0.12949,-0.052 -0.0324,-0.0125 -0.0629,-0.0196 -0.0953,-0.0322 -0.11948,-0.0463 -0.23376,-0.0888 -0.35428,-0.13623 -0.0119,-0.005 -0.0223,-0.015 -0.0342,-0.0197 -0.0609,-0.024 -0.12946,-0.0402 -0.19061,-0.0644 -0.0229,-0.009 -0.0455,-0.0303 -0.0684,-0.0395 -0.0186,-0.007 -0.0425,-0.005 -0.0611,-0.0125 -0.0627,-0.0251 -0.10788,-0.0732 -0.17087,-0.0987 -0.0186,-0.008 -0.0425,-0.005 -0.0611,-0.0125 -0.0644,-0.026 -0.13324,-0.0651 -0.19788,-0.0914 -0.008,-0.003 -0.0194,0.0103 -0.0269,0.007 -0.0755,-0.0308 -0.1489,-0.0529 -0.22482,-0.0842 -0.0112,-0.005 -0.0229,-0.0151 -0.0342,-0.0198 -0.0707,-0.0292 -0.12674,-0.0618 -0.19784,-0.0914 -0.0313,-0.013 -0.0639,-0.0191 -0.0953,-0.0322 -0.13794,-0.0576 -0.28323,-0.11652 -0.42261,-0.17566 -0.16336,-0.0693 -0.32568,-0.14368 -0.49106,-0.21515 -0.0121,-0.005 -0.0221,-0.0145 -0.0341,-0.0197 -0.15393,-0.0666 -0.30109,-0.12689 -0.45685,-0.19544 -0.0122,-0.005 -0.022,-0.0143 -0.0342,-0.0197 -0.0727,-0.032 -0.15894,-0.0787 -0.23206,-0.11121 -0.0117,-0.005 -0.0225,-0.0145 -0.0342,-0.0197 -0.0725,-0.0322 -0.15189,-0.0516 -0.22482,-0.0842 -0.10065,-0.0451 -0.22589,-0.0975 -0.32736,-0.14343 -0.0611,-0.0276 -0.10953,-0.0707 -0.17087,-0.0986 -0.0301,-0.0137 -0.0652,-0.0185 -0.0953,-0.0322 -0.0551,-0.0252 -0.10828,-0.0463 -0.16367,-0.0717 -0.0682,-0.0314 -0.12927,-0.0598 -0.19784,-0.0914 -0.0231,-0.0107 -0.0452,-0.0288 -0.0684,-0.0395 -0.0326,-0.0151 -0.0626,-0.017 -0.0953,-0.0323 -0.0559,-0.0259 -0.10757,-0.0455 -0.16367,-0.0717 -0.0764,-0.0356 -0.15521,-0.0751 -0.23206,-0.11121 -0.0117,-0.005 -0.0225,-0.0142 -0.0342,-0.0197 -0.0403,-0.019 -0.0891,-0.0329 -0.12949,-0.052 -0.047,-0.0222 -0.0895,-0.0566 -0.13672,-0.0789 -0.0462,-0.0219 -0.0903,-0.0568 -0.13672,-0.0789 -0.0418,-0.0199 -0.0875,-0.0319 -0.12946,-0.052 -0.0523,-0.025 -0.11121,-0.0465 -0.16373,-0.0717 -0.0358,-0.0172 -0.0666,-0.0419 -0.10251,-0.0592 -0.0564,-0.0272 -0.10702,-0.0443 -0.16367,-0.0717 -0.036,-0.0174 -0.0664,-0.0416 -0.10254,-0.0591 -0.0595,-0.0289 -0.1308,-0.0353 -0.19061,-0.0645 -0.0337,-0.0164 -0.0688,-0.0427 -0.10257,-0.0592 -0.15454,-0.0756 -0.31488,-0.17188 -0.47128,-0.24933 -0.0188,-0.009 -0.0423,-0.003 -0.0612,-0.0125 -0.0778,-0.0386 -0.15366,-0.0721 -0.232,-0.11114 -0.0219,-0.0109 -0.0465,-0.0286 -0.0684,-0.0395 -0.0729,-0.0364 -0.1318,-0.0816 -0.20508,-0.11841 -0.0191,-0.01 -0.042,-0.003 -0.0611,-0.0125 -0.17813,-0.0895 -0.35907,-0.19678 -0.53967,-0.28876 -0.007,-0.003 -0.0202,0.0107 -0.0269,0.007 -0.0992,-0.0505 -0.20041,-0.0993 -0.30038,-0.15064 17.108,9.9528 42.116,15.353 69.58,13.512 19.932,-1.3358 38.103,-6.2784 52.54,-13.529 z"
             id="path1223"
             inkscape:connector-curvature="0"
             style="opacity:0.456;fill:url(#r)" />
          <path
             d="m 436.81,827.19 c -12.844,-30.8 -42.022,-62.664 -82.073,-85.788 -33.182,-19.157 -67.831,-28.846 -97.561,-29.177 l -0.2889,0.6187 c 4.4918,10.478 9.4612,20.643 14.879,30.482 15.152,3.151 32.564,7.4504 53.488,13.533 31.835,9.254 32.947,23.042 53.602,41.671 4.6323,4.1779 7.8832,7.4574 10.316,10.14 7.3e-4,-3.7e-4 0.0144,-0.004 0.0202,-0.005 -1.9132,-2.7868 -3.8503,-6.0151 -5.8906,-9.7019 7.032,11.09 12.453,15.016 18.002,19.512 6.6562,5.3923 8.281,4.369 29.466,7.6718 2.1336,0.33264 4.1439,0.69159 6.0392,1.0449 z"
             id="path1225"
             inkscape:connector-curvature="0"
             style="opacity:0.456;fill:url(#s)" />
        </g>
      </g>
    </g>
    <g
       transform="matrix(0.2264372,1.4395533,-1.4395533,0.2264372,1033.1395,-179.8302)"
       id="g1281">
      <path
         d="m 272.43,386.15 c -0.46301,-1.7268 -1.3416,-3.2519 -2.724,-4.5097 -1.8958,3.4149 -5.815,6.0746 -10.786,8.3895 3.0907,-2.0357 8.571,-6.9283 9.2068,-8.7891 0.008,-0.0251 0.0292,-0.0672 0.039,-0.097 0.006,-0.027 0.003,-0.10043 0.008,-0.13202 -9.1e-4,-0.003 -0.005,-0.0178 -0.005,-0.0202 0.003,-0.0142 0.0213,-0.0564 0.0242,-0.0715 -8.5e-4,-0.003 -0.005,-0.0177 -0.005,-0.0202 -6.7e-4,-0.003 -0.005,-0.0179 -0.005,-0.0202 0.003,-0.0108 0.002,-0.0554 0.004,-0.066 -8.6e-4,-0.003 -0.004,-0.0144 -0.005,-0.0202 -0.007,-0.008 -0.029,-0.047 -0.0365,-0.0552 -5.8e-4,-0.003 -0.005,-0.0178 -0.005,-0.0202 -0.006,-0.003 -0.045,-0.0262 -0.0512,-0.0296 -7e-4,-0.003 -0.005,-0.0177 -0.005,-0.0202 -5.5e-4,-0.002 -0.0103,-0.0377 -0.0108,-0.0404 -0.002,6.4e-4 -0.0196,0.005 -0.0202,0.005 -0.0226,-0.0188 -0.0532,-0.029 -0.0768,-0.0444 -0.005,-0.003 -0.0208,-0.012 -0.0256,-0.0148 -0.005,-0.003 -0.0207,-0.0123 -0.0256,-0.0148 -0.0246,-0.0119 -0.0712,-0.0305 -0.097,-0.039 -0.0104,-0.003 -0.0352,-0.007 -0.0458,-0.009 -0.0107,-0.002 -0.0349,-0.008 -0.0458,-0.009 -0.0221,-0.003 -0.0686,-0.0177 -0.0916,-0.0188 -0.0232,-5.8e-4 -0.062,6e-5 -0.0862,10e-4 -1.368,0.10544 -4.3147,3.282 -13.447,5.8116 -10.437,2.891 -15.825,3.6196 -27.639,6.9076 -11.814,3.288 -9.7658,3.3963 -19.461,7.2063 -9.6948,3.8101 -7.3483,2.7335 -19.371,8.9144 -12.022,6.1809 -13.44,3.1149 -29.05,16.748 -15.54,13.571 -14.738,22.251 -29.499,39.796 -14.773,17.56 -17.583,12.638 -26.849,30.859 -4.037703,7.94 -4.906103,11.587 -5.481403,15.824 5.596703,-21.718 21.858003,-20.292 38.089003,-39.413 13.053,-15.377 20.395,-14.568 27.434,-26.252 6.8902,-11.438 28.332,-4.6974 44.51,-12.381 0.53549,-0.25427 1.0764,-0.4881 1.6265,-0.71728 0.002,-5.5e-4 0.0174,-0.005 0.0202,-0.005 0.008,-0.007 0.0421,-0.0495 0.0498,-0.0566 0.003,-6.8e-4 0.0178,-0.005 0.0202,-0.005 6.3498,-3.4987 13.758,-8.1122 21.167,-11.907 -2.1578,-0.54791 -3.5774,-1.9963 -5.1611,-7.9487 1.9526,5.1072 4.635,5.1259 7.4929,6.6311 4.1972,-1.9942 9.339,-3.9428 13.225,-4.8642 11.441,-2.7128 22.145,-6.9505 25.599,-16.537 1.5593,-4.3278 2.4511,-8.5183 1.8272,-12.008 -0.01,-0.0554 -0.0326,-0.10657 -0.0433,-0.16156 -0.0109,-0.0559 -0.0317,-0.10602 -0.0433,-0.16162 -0.024,-0.11475 -0.0646,-0.23029 -0.092,-0.34341 -0.0208,-0.0859 -0.0274,-0.1831 -0.0501,-0.26804 z m -3.4441,45.568 c -0.29495,-0.93393 -0.76608,-1.8067 -1.4392,-2.6239 -2.3644,2.7911 -6.4975,4.6232 -11.608,5.9683 3.2341,-1.3284 9.5213,-5.0856 10.263,-6.6255 0.002,-0.0108 0.0221,-0.0606 0.0241,-0.0714 0.002,-0.0107 0.007,-0.0353 0.009,-0.0458 0.002,-0.003 0.007,-0.0425 0.009,-0.0458 0.002,-0.003 0.0326,-0.0274 0.035,-0.031 -6.1e-4,-0.003 -0.005,-0.0179 -0.005,-0.0202 -4e-4,-0.002 -0.0103,-0.0377 -0.0108,-0.0404 0.002,-0.0108 0.007,-0.0351 0.009,-0.0458 -6.4e-4,-0.002 -0.01,-0.0377 -0.0108,-0.0404 -0.006,-0.003 -0.0196,-0.0113 -0.0256,-0.0148 -8.5e-4,-0.003 -0.004,-0.0144 -0.005,-0.0202 0.002,-0.004 0.008,-0.0427 0.009,-0.0458 -0.007,-0.008 -0.0236,-0.0268 -0.031,-0.035 -0.007,-0.008 -0.0492,-0.0418 -0.0567,-0.0498 -0.014,-0.009 -0.0426,-0.0419 -0.0566,-0.0497 -0.0252,-0.0168 -0.0749,-0.0463 -0.10248,-0.0592 -1.1286,-0.45664 -4.2501,2.1509 -13.751,3.1432 -10.219,1.0673 -14.728,-0.37952 -25.852,1.211 -12.104,1.7306 -11.401,1.2747 -20.438,4.6102 -6.5709,2.4254 -10.046,3.4644 -19.233,4.4174 -12.265,1.2725 -16.161,-0.006 -28.629,15.249 -4.331,5.2995 -13.873,11.083 -20.184,17.273 -3.917,3.8423 -8.8255,8.4734 -15.583,13.919 -16.695,13.453 -18.614,13.379 -21.682,21.377 -2.557896,6.6677 -5.289096,12.783 -5.834396,25.899 -0.07652,-4.2131 -0.01291,-7.9774 0.25046,-11.347 -0.0058,0.002 -0.01938,0.005 -0.0202,0.005 -0.7661,3.5398 -1.9417,8.0053 -3.8644,13.94 -8.5735,26.461 -2.6427,38.957 -25.585,62.889 -15.268,15.926 -28.342,28.461 -39.996,38.842 0.68775,25.871 4.2914,52.066 11.07,78.161 30.13,-16.26 90.683996,-42.376 94.299996,-55.233 -8.8025,2.5451 -17.245,0.0306 -18.159,-1.673 -6.9e-4,-0.003 -0.005,-0.0178 -0.005,-0.0202 -0.008,-0.008 -0.0293,-0.0471 -0.0364,-0.0552 -6.3e-4,-0.002 -0.005,-0.0175 -0.005,-0.0202 -0.001,-0.006 -0.005,-0.0174 -0.005,-0.0202 -0.003,-0.0107 -0.0119,-0.0457 -0.0162,-0.0606 -8.7e-4,-0.003 -0.005,-0.0171 -0.005,-0.0202 0.002,-0.01 0.001,-0.0548 0.004,-0.066 -3.5e-4,-10e-4 -0.004,-0.0142 -0.005,-0.0202 0.002,-0.0106 0.002,-0.0554 0.004,-0.066 0.002,-0.01 0.0207,-0.0555 0.0242,-0.0714 0.003,-0.0163 0.008,-0.0382 0.009,-0.0458 12.202,1.47 19.039,-1.5924 21.662,-3.2712 11.097,-7.1022 24.289,-15.674 26.629,-19.563 -5.7236,3.7798 -12.693,4.7664 -18.962,3.9766 8.0695,-0.19556 23.233,-7.0052 20.822,-13.114 -2.0746,2.0211 -17.496,9.0473 -24.825,5.8508 36.84,-12.412 19.078,-20.088 39.004,-41.412 19.926,-21.325 28.623,-27.715 38.625,-44.688 7.2056,-12.228 1.9204,-18.267 -1.9019,-22.289 -2.303,-2.1291 -4.0757,-2.7891 -6.2926,-3.4452 -3.8,-1.137 -7.0175,-5.3711 -18.818,2.8987 -13.294,9.3168 -24.965,19.873 -33.008,33.57 -10.367,17.653 -10.422,14.598 -24.322,24.293 -9.6916,6.7595 -19.521,16.45 -23.514,23.752 0.72263,-3.4333 2.3921,-9.7223 8.9348,-15.298 4.731,-4.032 9.8725,-6.9611 14.883,-9.9854 0.007,-0.0114 0.008,-0.0142 0.0148,-0.0256 2.5195,-4.3707 4.2388,-9.1349 3.3402,-15.25 1.3654,1.2238 1.8944,2.537 2.0699,3.9272 0.0155,0.12244 0.0209,0.23627 0.0314,0.35968 0.10155,1.1924 -0.0285,2.4344 0.0205,3.6319 -0.18973,1.561 -0.53444,3.085 -1.0641,4.5937 5.0253,-3.289 9.7344,-7.0745 13.57,-12.708 l 0.1239,-23.698 c -0.30292,-2.329 -2.7916,-4.7856 -4.2989,-4.6506 -0.003,9.2e-4 -0.038,0.0102 -0.0404,0.0109 -0.0227,-0.002 -0.0758,-0.0185 -0.0916,-0.0187 -0.002,6.1e-4 -0.0175,0.005 -0.0202,0.005 -0.003,6.7e-4 -0.0174,0.005 -0.0202,0.005 -0.0243,0.007 -0.0972,0.0249 -0.1212,0.0325 -0.0241,0.0116 -0.0667,0.0545 -0.0902,0.0675 -0.003,4.9e-4 -0.0179,0.005 -0.0202,0.005 -0.003,5.5e-4 -0.038,0.0103 -0.0404,0.0109 -0.008,0.007 -0.0269,0.0236 -0.035,0.031 -0.0555,0.0463 -0.12678,0.10596 -0.17494,0.15515 -0.003,6.1e-4 -0.0177,0.005 -0.0202,0.005 -0.001,3.7e-4 -0.0142,0.004 -0.0202,0.005 -0.003,0.004 -0.0271,0.0469 -0.0296,0.0512 -0.0103,0.0183 -0.0239,0.0419 -0.0296,0.0513 -0.0593,0.0825 -0.1288,0.20093 -0.17746,0.30731 -0.0646,0.14807 -0.12833,0.34668 -0.15832,0.5404 l -2.7055,8.6493 c -1.9965,4.361 -3.4168,7.9561 -6.8615,9.7845 2.0894,-4.2837 3.5946,-8.7676 1.4949,-12.763 -5.2248,9.4308 -8.7704,22.72 -11.207,32.838 0.94653,-10.1 4.8806,-23.778 10.418,-39.339 -2.0501,-0.005 -4.138,-0.23419 -6.327,-0.66467 7.3525,-0.11298 13.614,-1.5746 19.354,-5.6623 2.8922,-2.9236 3.983,-5.2996 5.0601,-7.6996 -3.6015,1.2045 -7.1586,2.9916 -10.785,2.4135 4.1992,-0.41327 8.0621,-2.9436 11.88,-6.0845 3.348,-3.7068 5.6682,-7.6179 7.3173,-11.639 -5.0335,2.5461 -9.0066,1.9788 -12.684,0.49744 5.0749,-0.34216 10.136,-0.67828 13.6,-4.835 7.5836,-7.6903 15.572,-19.777 20.742,-26.343 -2.7299,-2.0627 -5.1045,-4.6902 -7.249,-7.8223 2.7132,2.5577 5.4423,4.7213 8.3722,6.4388 1.6006,-1.9207 2.8351,-3.125 3.6186,-3.2213 0.006,-6.7e-4 0.0141,-0.005 0.0202,-0.005 7.6056,-0.60172 25.852,-8.3044 35.107,-14.343 -1.9423,-0.80316 -3.0326,-2.3135 -3.5176,-7.9561 0.9599,4.9181 3.4615,5.3869 5.8984,7.145 4.2474,-1.1666 9.3653,-2.1578 13.144,-2.4177 11.127,-0.76532 21.815,-3.0042 26.626,-11.01 2.7901,-4.6425 4.4571,-9.2471 3.2715,-13.001 z m -20.16,-56.651 c -0.7117,-2.2921 -2.3025,-3.8713 -4.424,-5.4399 -1.3038,3.039 -4.3686,5.6032 -8.3632,7.9784 2.5095,-2.0653 7.0279,-8.3555 7.0277,-8.3568 -4.9e-4,-0.003 -0.004,-0.0146 -0.005,-0.0202 0.002,-0.004 0.008,-0.0425 0.009,-0.0458 -7e-4,-0.003 -0.005,-0.0179 -0.005,-0.0202 -6.4e-4,-0.002 -0.005,-0.0175 -0.005,-0.0202 -8.2e-4,-0.003 -0.0102,-0.0378 -0.0108,-0.0404 -0.002,-0.006 -0.005,-0.0189 -0.005,-0.0202 -6.4e-4,-0.002 -0.005,-0.0175 -0.005,-0.0202 -7.4e-4,-0.003 -0.0102,-0.0378 -0.0108,-0.0404 -0.008,-0.004 -0.0238,-0.0141 -0.0256,-0.0148 -5.8e-4,-0.003 -0.005,-0.0176 -0.005,-0.0202 -6.1e-4,-0.002 -0.0103,-0.0376 -0.0108,-0.0404 -0.004,-0.002 -0.0224,-0.0129 -0.0256,-0.0148 -0.0247,-0.0166 -0.077,-0.0469 -0.10245,-0.0591 -0.0124,-0.005 -0.0331,-0.005 -0.0458,-0.009 -0.004,-10e-4 -0.0213,-0.0136 -0.0256,-0.0148 -1.0764,-0.27148 -3.0184,2.879 -11.075,6.0202 -8.5158,3.32029 -12.988,4.3912 -22.626,8.1625 -9.6372,3.7713 -7.9089,3.7136 -15.723,7.742 -7.8138,4.0283 -6.0712,2.7124 -15.502,9.1334 -20.05,13.651 -24.894,13.153 -29.489,19.312 -2.9921,4.0108 -4.4906,13.251 -6.2366,23.106 8.0715,-13.026 13.502,-17.069 21.369,-23.436 6.7483,-5.4616 19.79,-9.4857 43.932,-21.082 14.948,-7.1798 29.226,-9.3966 39.868,-11.527 l 0.1371,-0.2966 c 0.46991,-0.95407 0.8396,-1.9184 1.0823,-2.9098 0.74081,-3.0257 0.89499,-5.3478 0.51816,-7.1971 -0.0122,-0.0597 -0.0301,-0.10284 -0.0433,-0.16162 -0.0514,-0.22864 -0.10629,-0.43091 -0.17322,-0.64642 z m -32.739,168.15 c 0.0739,0.21759 0.12111,0.43317 0.17326,0.64642 0.0244,0.1001 0.062,0.20453 0.0812,0.30304 0.002,0.006 0.005,0.0179 0.005,0.0202 0.006,0.0224 0.0165,0.0582 0.0216,0.0808 6.7e-4,0.004 0.005,0.0167 0.005,0.0202 0.003,0.01 0.008,0.0311 0.0108,0.0404 9.5e-4,0.003 0.005,0.0166 0.005,0.0202 0.0299,0.22485 0.0428,0.45966 0.052,0.67896 0.051,1.215 -0.33348,2.335 -1.2638,3.2831 -2.6621,2.7133 -5.6774,6.0081 -9.5375,8.1199 3.3664,-2.0875 5.9351,-5.3474 8.2822,-7.9568 4.6163,-5.1319 -5.9328,-15.415 -13.88,-20.53 6.3153,3.6417 14.263,10.029 16.044,15.274 z m -31.875,-59.812 c -5.8514,7.0921 -17.484,21.493 -18.11,22.671 -0.65405,4.5898 -3.4235,9.4212 -7.0541,14.318 0,0 -3.2765,10.612 -8.2698,13.821 -0.97466,0.6264 -1.7715,1.0035 -2.7761,1.4367 l 1.3351,0.0536 c 1.8019,-0.0807 3.6229,2.2393 3.9303,5.0525 l 0.6597,15.39 c 3.4898,-6.5236 2.0593,-6.6734 10.841,-15.701 4.3661,-4.4884 8.0149,-8.27 11.733,-11.48 0.005,-0.009 0.0332,-0.028 0.035,-0.0311 1.3065,-2.5797 2.8232,-4.5228 4.1328,-10.352 2.4479,-10.897 -0.31406,-20.166 2.1799,-30.246 0.421,-1.7017 0.89458,-3.3422 1.3628,-4.9335 z m 18.014,72.641 c 0.0671,0.2135 0.11609,0.4162 0.16779,0.62622 0.008,0.0305 0.023,0.089 0.0325,0.12122 0.005,0.0179 0.0112,0.0403 0.0163,0.0606 6.4e-4,0.003 0.005,0.0174 0.005,0.0202 0.003,0.009 0.008,0.0313 0.0108,0.0404 9e-5,0.001 0.005,0.0189 0.005,0.0202 -7.9e-4,0.003 -0.0139,0.0231 -0.0148,0.0256 -6.1e-4,0.003 0.006,0.0176 0.005,0.0202 4.2e-4,0.002 0.005,0.0179 0.005,0.0201 0.003,0.01 0.009,0.0329 0.0108,0.0404 0.0508,0.24915 0.087,0.50574 0.11404,0.7489 -0.0943,0.0325 -0.20239,0.0711 -0.29758,0.10138 -3.0185,-7.8514 -14.29,-17.213 -19.48,-18.965 -0.69676,2.3602 -0.86679,4.7905 0.0475,7.0455 2.3549,5.8084 7.7251,11.289 13.601,12.378 0.0556,0.0103 0.10197,0.0132 0.15764,0.0227 -0.0525,-0.006 -0.10516,-0.0163 -0.15764,-0.0227 -6.5837,-0.81158 -12.635,-6.2414 -15.19,-12.168 -2.3485,-5.4482 2.3233,-12.059 5.084,-15.934 1.2735,-1.7873 3.5374,-4.4213 5.7032,-5.0574 -1.8422,0.83093 -3.6834,3.2682 -4.7469,4.9094 -1.3788,2.1278 -3.2818,5.1065 -4.3253,8.2606 3e-4,0.002 0.0106,0.0387 0.0108,0.0404 0.25017,-0.0546 0.50052,-0.10272 0.73408,-0.0884 0.0188,0.001 0.0436,0.002 0.066,0.004 0.003,3e-4 0.0171,-0.006 0.0202,-0.005 4.1415,0.56653 16.027,10.142 18.414,17.735 z m -29.712,31.085 c -6.2154,-2.022 -17.089,-9.2909 -16.955,-17.866 0.05,-3.2054 0.73077,-5.1666 1.3498,-5.7095 0.008,-0.007 0.043,-0.0258 0.0552,-0.0364 0.009,-0.002 0.0512,-0.0141 0.0606,-0.0162 0.008,-0.008 0.0215,-0.0439 0.0296,-0.0513 0.002,-6.1e-4 0.0377,-0.0102 0.0404,-0.0108 0.009,-0.003 0.0309,-0.008 0.0404,-0.0108 0.005,-0.002 0.0353,-0.01 0.0404,-0.0109 0.003,-5.5e-4 0.0147,-0.004 0.0202,-0.005 0.002,-6.7e-4 0.0175,-0.005 0.0202,-0.005 0.002,-6.7e-4 0.0376,-0.01 0.0404,-0.0109 0.0106,0.002 0.0407,0.0272 0.0512,0.0296 0.0107,0.002 0.0502,4.3e-4 0.066,0.004 0.005,0.003 0.0186,0.0107 0.0256,0.0148 0.005,0.003 0.0467,0.0269 0.0512,0.0296 0.006,0.003 0.0198,0.0114 0.0256,0.0148 0.006,0.003 0.0195,0.0113 0.0256,0.0148 0.0109,0.0122 0.0504,0.0432 0.0566,0.0498 2.1e-4,10e-4 0.004,0.0141 0.005,0.0202 0.007,0.008 0.0292,0.047 0.0364,0.0552 0.0116,0.0172 0.0307,0.0563 0.0419,0.0754 0.31418,0.56763 0.43813,1.9564 0.0859,4.199 -1.0473,6.6668 8.2619,16.606 14.786,19.226 z m -7.8388,0.2384 c 0.004,0.003 9.6e-4,0.0173 0.005,0.0202 -4.3582,-2.3503 -11.099,-7.9163 -11.727,-13.464 -0.2466,-2.1778 0.008,-3.4949 0.35103,-3.8613 0.0186,-0.0179 0.0787,-0.0721 0.10496,-0.0931 0.002,-6.7e-4 0.0176,-0.005 0.0202,-0.005 0.01,-0.003 0.0466,-0.0128 0.0606,-0.0162 0.0106,0.002 0.0406,0.027 0.0512,0.0296 0.0107,0.002 0.0553,0.002 0.066,0.004 0.004,0.003 0.0192,0.0113 0.0256,0.0148 0.001,8.5e-4 0.0226,0.0131 0.0256,0.0148 0.003,0.002 0.0244,0.0139 0.0256,0.0148 0.007,0.008 0.0244,0.0269 0.031,0.035 0.29806,0.34863 0.57736,1.3897 0.5439,3.0803 -0.0843,4.2574 5.9513,11.337 10.416,14.227 z m -23.442,-50.077 c -0.69112,0.16028 -1.367,0.32806 -2.0728,0.42548 0.73143,2.5724 0.98393,5.5013 -0.13701,9.3467 1.4363,-2.4604 2.3691,-5.4358 2.2506,-9.4584 0.002,-0.004 0.0129,-0.0226 0.0148,-0.0256 -9.5e-4,-0.003 -0.0101,-0.0379 -0.0108,-0.0404 -0.005,-0.0258 -0.0178,-0.0722 -0.0271,-0.10101 -0.003,-0.0102 -0.012,-0.0452 -0.0162,-0.0606 -8.3e-4,-0.003 -0.004,-0.0148 -0.005,-0.0202 0.002,-0.003 0.0108,-0.0186 0.0148,-0.0256 -6.7e-4,-0.002 -0.01,-0.0379 -0.0108,-0.0404 z"
         id="path1233"
         inkscape:connector-curvature="0"
         style="fill:#b35600;stroke-width:10;stroke-linecap:round;stroke-linejoin:round" />
      <g
         id="g1257"
         style="fill-rule:evenodd">
        <path
           d="m 184.2,483.39 c -0.46823,1.5913 -0.94473,3.2292 -1.3657,4.9308 -2.4939,10.081 0.26939,19.358 -2.1785,30.255 -1.3096,5.8295 -2.8248,7.7725 -4.1312,10.352 -0.002,0.004 -0.0168,0.0307 -0.0197,0.0342 -3.7186,3.2097 -7.3822,6.9803 -11.748,11.469 -8.7813,9.0272 -7.3546,9.1811 -10.844,15.705 l -0.6584,-15.396 c -0.30742,-2.8132 -2.1212,-5.1257 -3.9231,-5.0449 l -1.6626,0.1566 c 1.0574,-0.44714 2.0898,-0.98535 3.1134,-1.6432 4.9933,-3.2088 8.2563,-13.827 8.2563,-13.827 3.6306,-4.8967 6.4026,-9.7245 7.0567,-14.314 0.62535,-1.178 12.254,-15.585 18.106,-22.678 z m -3.0268,6.3871 c -3.8512,5.0618 -11.491,15.317 -12.012,16.306 -0.36145,2.9667 -1.8425,6.0465 -3.8666,9.1834 -0.001,0.002 -0.0188,0.0319 -0.0198,0.0342 -0.001,0.005 0.009,0.0218 0.007,0.0269 -9.9e-4,0.002 -0.0256,0.005 -0.027,0.007 -5.3221,13.811 -7.3293,24.751 6.1073,12.549 0.003,1.8e-4 0.0246,-0.007 0.0269,-0.007 0.0917,-0.10004 0.17464,-0.20349 0.2657,-0.30237 0.002,-0.002 0.0248,-0.006 0.0269,-0.007 0.005,-0.003 0.0226,-0.004 0.0269,-0.007 0.002,-0.002 -0.009,-0.0253 -0.007,-0.027 0.059,-0.064 0.12086,-0.12903 0.17954,-0.19257 1.5502,-1.677 3.029,-3.191 4.4995,-4.557 0.85907,-1.862 1.8402,-3.258 2.6767,-7.4779 1.5638,-7.8883 -0.35271,-14.679 1.2482,-21.974 0.27026,-1.2314 0.56476,-2.4038 0.86763,-3.5549 z"
           id="path1235"
           inkscape:connector-curvature="0" />
        <path
           d="m 181.17,489.79 c -0.30283,1.1511 -0.58493,2.3259 -0.85519,3.5574 -1.6009,7.2955 0.32207,14.067 -1.2418,21.956 -0.83655,4.2199 -1.843,5.6169 -2.7021,7.4788 -1.4705,1.3661 -2.939,2.8956 -4.4892,4.5726 -0.0587,0.0636 -0.1113,0.12897 -0.17029,0.19293 -0.0149,0.0137 -0.0366,0.0217 -0.0514,0.0354 -0.0911,0.0989 -0.17754,0.19122 -0.26927,0.29126 -0.006,0.005 -0.0221,-10e-4 -0.0276,0.004 -13.437,12.202 -11.414,1.278 -6.0917,-12.533 0.0107,-0.0165 0.009,-0.0427 0.0199,-0.0592 2.024,-3.1369 3.5101,-6.2253 3.8715,-9.192 0.41164,-0.84992 8.1256,-11.202 12.007,-16.303 z"
           id="path1237"
           inkscape:connector-curvature="0"
           style="fill:url(#o)" />
        <path
           d="m 220.84,534.53 c -1.1051,-3.9898 -3.6856,-7.9046 -9.0354,-11.176 3.224,4.0676 12.556,9.817 3.9172,24.477 -10.002,16.973 -18.704,23.343 -38.63,44.668 -19.926,21.325 -2.1492,28.974 -38.99,41.387 7.329,3.1966 22.741,-3.7839 24.816,-5.8049 2.4873,6.3013 -13.689,13.299 -21.528,13.065 6.4866,0.96582 13.779,-0.0944 19.736,-4.0759 -2.0259,3.7993 -15.456,12.462 -26.728,19.676 -2.6231,1.6789 -9.4349,4.756 -21.636,3.286 -0.71522,1.6387 8.5218,4.9365 18.197,2.139 -4.4369,15.778 -50.006,33.809 -67.567,40.99 -10.666,4.3616 -28.082,8.8884 -28.082,8.8884 0.64669,2.6603 2.705,10.389 3.0409,11.591 0,0 10.338,3.7897 37.854,-11.204 18.978,-10.341 51.281,-37.934 62.469,-52.42 14.013,-7.4412 29.005,-17.842 31.889,-38.878 1.9728,-14.388 -3.396,-14.465 13.226,-31.928 12.927,-13.581 40.982,-36.098 37.309,-53.559 -0.0791,-0.37585 -0.15341,-0.7467 -0.25732,-1.1218 z"
           id="path1239"
           inkscape:connector-curvature="0" />
        <path
           d="m 107.85,606.59 c 3.9932,-7.3013 13.838,-16.987 23.529,-23.746 13.9,-9.6944 13.94,-6.6283 24.307,-24.281 8.0435,-13.697 19.725,-24.277 33.019,-33.594 13.294,-9.3168 15.688,-2.7338 20.304,-2.6218 -3.1498,-3.304 -8.8699,-5.0853 -15.215,-2.1346 -11.759,5.4684 -18.782,12.741 -29.47,23.931 -10.688,11.19 -7.4965,9.8977 -13.43,19.777 -8.6164,14.347 -22.573,17.527 -34.105,27.356 -6.5427,5.5759 -8.2171,11.881 -8.9396,15.314 z"
           id="path1241"
           inkscape:connector-curvature="0" />
        <path
           d="m 175.29,587.72 c -4.7896,-0.0253 -19.888,-8.368 -19.731,-18.464 0.10953,-7.0134 3.2144,-8.05 2.1658,-1.3746 -1.208,7.69 11.386,19.684 17.565,19.838 z"
           id="path1243"
           inkscape:connector-curvature="0" />
        <path
           d="m 167.5,588.56 c -3.1345,-0.44482 -13.752,-7.6202 -14.55,-14.66 -0.55376,-4.8906 1.3843,-5.338 1.2938,-0.76733 -0.10423,5.2654 9.2014,14.769 13.256,15.427 z"
           id="path1245"
           inkscape:connector-curvature="0" />
        <path
           d="m 202.57,557.78 c -0.0943,0.0325 -0.20108,0.0675 -0.29626,0.0978 -3.0303,-7.8823 -14.341,-17.272 -19.503,-18.971 0.0528,-0.17987 0.12051,-0.35352 0.17918,-0.53229 0.002,-1.9e-4 0.0254,-0.004 0.0276,-0.004 0.28595,-0.0624 0.56975,-0.0972 0.8369,-0.0606 4.465,0.61078 17.892,11.69001 18.756,19.47 z"
           id="path1247"
           inkscape:connector-curvature="0" />
        <path
           d="m 216.42,545.03 c 0.051,1.215 -0.33067,2.3278 -1.261,3.2759 -3.3204,3.3843 -7.1172,7.7099 -12.512,9.4702 4.8834,-1.7124 8.2791,-5.9735 11.268,-9.2963 5.0707,-5.6371 -8.186,-17.47 -16.16,-21.862 7.2078,3.5784 18.408,12.302 18.664,18.412 z m -17.56,13.473 c -7.4743,0.41418 -14.722,-5.6655 -17.585,-12.307 -2.3485,-5.4482 2.3072,-12.079 5.0679,-15.953 1.3823,-1.9399 3.9358,-4.9187 6.2592,-5.2146 -2.0159,0.54065 -4.1218,3.2736 -5.2919,5.0793 -2.4856,3.8359 -6.6762,10.402 -4.4598,15.868 2.6729,6.5927 9.2396,12.714 16.01,12.527 z"
           id="path1249"
           inkscape:connector-curvature="0" />
        <path
           d="m 275.1,386.73 c -0.23535,-0.72681 -0.55924,-1.3912 -0.95218,-2.0182 -4.951,-7.9012 -6.0025,-6.2851 -14.022,-2.1535 -9.3984,4.8417 -30.279,4.4848 -52.666,15.237 -24.142,11.596 -37.204,15.626 -43.953,21.087 -9.1783,7.4283 -15.039,11.696 -25.644,30.752 -16.802,30.192 -38.78,28.97 -43.141,61.769 -2.8919,21.747 -8.7126,29.692 -12.748,49.468 -1.5104,7.4014 -4.9623,20.583 -17.803,36.662 -10.475,13.117 -25.167,24.523 -38.692,34.66 0.01418,2.3416 0.06605,4.6768 0.1283,7.0239 11.652,-10.376 24.72,-22.896 39.982,-38.816 22.943,-23.932 17.012,-36.428 25.585,-62.889 1.9228,-5.9343 3.1037,-10.38 3.8698,-13.919 0.0029,-0.0365 0.0104,-0.0754 0.01334,-0.11182 0.32642,-4.1105 0.91913,-7.6462 1.6967,-10.717 0.0055,-0.0409 0.0025,-0.0913 0.0079,-0.13202 0.0045,-0.0217 0.01962,-0.0499 0.02415,-0.0714 0.57538,-4.2364 1.4181,-7.8983 5.4558,-15.838 9.266,-18.221 12.07,-13.319 26.844,-30.879 14.761,-17.545 13.96,-26.226 29.499,-39.796 15.61,-13.633 17.033,-10.546 29.056,-16.727 12.022,-6.181 9.676,-5.1044 19.371,-8.9144 9.6949,-3.8101 7.6269,-3.9129 19.44,-7.2009 11.814,-3.288 17.216,-4.0422 27.653,-6.9332 9.2548,-2.5636 12.168,-5.7847 13.513,-5.8076 0.0469,1.8e-4 0.11432,0.0144 0.15762,0.0227 0.0108,0.002 0.0353,0.007 0.0458,0.009 0.0365,0.011 0.0885,0.0363 0.12265,0.0538 0.005,0.003 0.0208,0.012 0.0256,0.0148 0.005,0.003 0.0209,0.0117 0.0256,0.0147 0.0187,0.0128 0.0386,0.0347 0.0566,0.0498 0.003,0.003 0.0226,0.0105 0.0256,0.0148 0.004,0.007 0.007,0.0344 0.0108,0.0404 0.0106,0.0132 0.028,0.0406 0.0365,0.0552 0.006,0.009 0.0232,0.0237 0.031,0.035 4.9e-4,10e-4 0.005,0.0178 0.005,0.0202 3e-4,0.002 0.005,0.0188 0.005,0.0202 0.002,0.0143 0.009,0.0313 0.0108,0.0404 7.3e-4,0.006 0.009,0.0297 0.0108,0.0403 6.8e-4,0.005 0.005,0.017 0.005,0.0202 1.5e-4,0.015 -0.0193,0.0487 -0.0242,0.0715 -5.5e-4,0.003 0.006,0.0175 0.005,0.0202 -0.002,0.0215 -0.0151,0.0618 -0.0187,0.0916 -7e-4,0.005 0.006,0.0164 0.005,0.0202 -9.1e-4,0.004 -0.0135,0.0211 -0.0148,0.0256 -0.01,0.0298 -0.0106,0.0665 -0.0188,0.0916 -0.63577,1.8608 -6.1162,6.7535 -9.2068,8.7891 4.9711,-2.3149 8.8701,-4.9692 10.766,-8.3841 4.3173,3.9282 3.6472,10.504 1.1458,17.447 -3.4542,9.5868 -14.164,13.804 -25.605,16.517 -3.8858,0.92139 -9.0222,2.8902 -13.22,4.8844 -2.926,-1.5411 -5.6426,-1.5757 -7.6066,-7.0554 1.627,6.2933 3.089,7.8074 5.295,8.3676 -7.5269,3.8551 -15.073,8.5624 -21.489,12.08 4.0782,-1.7273 8.5518,-2.7773 13.117,-3.4065 0.60762,-0.58942 1.2164,-1.1927 1.8516,-1.8168 3.3702,-3.3118 12.422,-7.5469 18.475,-9.432 9.5469,-2.9733 15.046,-2.1577 24.295,-9.9307 6.5071,-5.4683 10.394,-14.135 9.5927,-20.519 -0.0889,-0.7084 -0.2326,-1.4058 -0.44025,-2.0472 z"
           id="path1251"
           inkscape:connector-curvature="0" />
        <path
           d="m 250.47,376.8 c 0.20059,2.6919 -0.51715,5.8766 -1.8778,8.9415 -0.38144,0.078 -0.758,0.16653 -1.1492,0.24515 0.46991,-0.95407 0.84344,-1.9218 1.0862,-2.9133 1.8468,-7.5432 -0.17447,-10.526 -4.1354,-13.455 -1.3101,3.0536 -4.3801,5.6375 -8.403,8.0222 2.497,-2.0139 6.9933,-6.9148 7.0858,-8.3734 4.6e-4,-0.0125 -0.008,-0.0433 -0.008,-0.0552 -5.5e-4,-0.0117 -0.006,-0.0441 -0.008,-0.0553 -8e-4,-0.005 -0.003,-0.0223 -0.004,-0.0276 -0.001,-0.005 -0.003,-0.0226 -0.004,-0.0277 -0.003,-0.01 -0.004,-0.0461 -0.008,-0.0552 -0.006,-0.0133 -0.0276,-0.0395 -0.0354,-0.0514 -0.009,-0.0111 -0.0248,-0.0417 -0.0353,-0.0514 -0.007,-0.006 -0.0233,-0.0182 -0.0315,-0.0238 -0.0247,-0.0166 -0.0652,-0.0314 -0.0906,-0.0437 -1.0634,-0.44794 -2.8902,2.7649 -11.14,5.9815 -8.5158,3.3202 -13.002,4.4096 -22.639,8.1808 -9.6372,3.7713 -7.9012,3.6917 -15.715,7.72 -7.8138,4.0284 -6.06,2.7048 -15.49,9.1258 -20.05,13.651 -24.913,13.155 -29.508,19.314 -2.9921,4.0108 -4.4917,13.25 -6.2377,23.105 -1.3026,2.1009 -2.653,4.4396 -4.1138,7.0562 0.78824,-3.3315 1.3853,-6.5252 1.7651,-9.5458 0.73378,-5.8358 3.3977,-16.555 5.34,-19.852 4.1356,-7.0194 14.178,-10.33 48.413,-31.425 17.844,-10.995 35.206,-12.891 42.945,-17.332 7.8836,-4.5237 6.3295,-4.8747 11.921,0.61584 1.2542,1.2315 1.9265,2.9611 2.0769,4.979 z"
           id="path1253"
           inkscape:connector-curvature="0" />
        <path
           d="m 271.82,434.99 c 0.4393,5.959 -4.8518,13.891 -12.348,18.098 -9.9197,5.5664 -14.934,4.0504 -24.336,5.3184 -5.9606,0.80383 -9.5171,1.7477 -13.309,3.974 -9.4033,5.5217 -31.497,13.838 -32.765,14.359 -0.003,3.7e-4 -0.0251,0.004 -0.0276,0.004 -1.1182,0.98102 -22.724,26.627 -23.468,28.05 -0.7579,4.7054 -3.8137,9.7413 -7.8076,14.899 0,0 -3.6524,10.958 -9.1087,14.461 -1.1185,0.71802 -2.2544,1.3238 -3.4075,1.829 l 1.8241,-0.255 c 1.9578,-0.16687 3.8836,2.1148 4.1884,4.9656 l 0.8882,21.066 c -0.36804,0.65637 -0.77772,1.3614 -1.2496,2.1473 -0.39716,0.66126 -0.80618,1.3027 -1.2253,1.9183 l 0.1261,-23.688 c -0.30295,-2.329 -2.8082,-4.8011 -4.3156,-4.6661 -0.0358,0.004 -0.0963,0.0125 -0.13817,0.0193 -0.006,0.001 -0.022,0.003 -0.0276,0.004 -0.0254,0.009 -0.0819,0.033 -0.10669,0.0431 -0.0288,0.0108 -0.079,0.0298 -0.10669,0.0431 -0.0958,0.0489 -0.20081,0.12665 -0.28084,0.20831 -0.006,0.007 -0.0177,0.0248 -0.0238,0.0316 -0.18059,0.20898 -0.34138,0.51685 -0.40536,0.93018 l -2.7095,8.6352 c -1.9965,4.3609 -3.4124,7.9783 -6.8571,9.8067 2.0894,-4.2837 3.61,-8.7831 1.5103,-12.779 -5.2248,9.4308 -8.8073,22.732 -11.244,32.85 0.94656,-10.1 4.913,-23.773 10.45,-39.333 -2.1046,-0.005 -4.2696,-0.24066 -6.5217,-0.6944 7.4279,-0.093 13.743,-1.5128 19.529,-5.6328 2.8922,-2.9236 3.9859,-5.3242 5.063,-7.7243 -3.7434,1.252 -7.4662,3.2501 -11.24,2.445 4.3528,-0.28546 8.3924,-2.879 12.332,-6.1199 3.348,-3.7068 5.687,-7.5998 7.3361,-11.621 -5.0335,2.546 -9.0164,1.988 -12.694,0.50671 5.0748,-0.34213 10.146,-0.67676 13.611,-4.8335 7.5837,-7.6903 15.546,-19.803 20.716,-26.369 -2.7299,-2.0627 -5.0902,-4.6763 -7.2346,-7.8084 2.7132,2.5577 5.4376,4.7209 8.3674,6.4384 1.6261,-1.9513 2.8824,-3.1556 3.6643,-3.2174 7.6056,-0.60175 25.822,-8.305 35.078,-14.344 -1.9557,-0.80868 -3.0439,-2.3343 -3.524,-8.0736 0.94293,5.0278 3.4621,5.4878 5.9182,7.2599 4.2473,-1.1667 9.3512,-2.1675 13.13,-2.4274 11.127,-0.76538 21.831,-2.9892 26.642,-10.995 3.4842,-5.7975 5.1935,-11.537 1.8148,-15.639 -2.3644,2.7911 -6.4829,4.6152 -11.594,5.9603 3.2341,-1.3285 9.52,-5.0796 10.262,-6.6195 0.003,-0.0103 0.0166,-0.0489 0.0199,-0.0591 0.005,-0.0128 0.016,-0.0465 0.0199,-0.0591 0.003,-0.0124 0.0172,-0.0434 0.0199,-0.0591 10e-4,-0.007 -0.005,-0.0219 -0.004,-0.0276 -3.7e-4,-0.003 -0.003,-0.025 -0.004,-0.0277 0.004,-0.0105 0.0163,-0.0488 0.0199,-0.0592 -6.1e-4,-0.005 -0.003,-0.0225 -0.004,-0.0276 -0.006,-0.004 -0.0256,-0.0197 -0.0315,-0.0238 -3.1e-4,-0.002 -0.004,-0.0248 -0.004,-0.0277 -3e-4,-0.002 -0.004,-0.0247 -0.004,-0.0275 -0.006,-0.009 -0.029,-0.0428 -0.0353,-0.0515 -0.92065,-1.02 -3.7335,1.9259 -13.953,2.9933 -10.219,1.0673 -14.747,-0.39697 -25.871,1.1935 -12.104,1.7306 -11.397,1.2684 -20.434,4.6039 -6.5709,2.4253 -10.031,3.4808 -19.218,4.4339 -12.265,1.2724 -16.172,-0.008 -28.639,15.247 -4.3311,5.2995 -13.873,11.087 -20.184,17.277 -3.917,3.8423 -8.7942,8.4795 -15.552,13.925 -16.695,13.453 -18.627,13.379 -21.695,21.377 -2.660204,6.9343 -5.464304,13.266 -5.848204,27.503 -1.3256,-48.014 19.374004,-39.031 40.054004,-63.394 13.053,-15.377 20.402,-14.553 27.441,-26.238 6.8902,-11.438 28.302,-4.7062 44.481,-12.39 17.135,-8.1381 42.142,-3.0596 51.72,-5.9628 8.1795,-2.4791 9.3768,-3.826 12.689,3.8899 0.31299,0.72922 0.52847,1.5142 0.60867,2.3383 0.007,0.0701 0.0257,0.15045 0.0309,0.22113 z M 141.27,537.61 c -0.003,-0.0977 -0.0385,-0.20502 -0.0425,-0.30402 -0.69112,0.16028 -1.3794,0.30682 -2.085,0.40424 0.73714,2.5926 1.0051,5.5418 -0.14661,9.4321 1.4609,-2.4743 2.3939,-5.4701 2.2742,-9.5324 z m -4.1353,32.702 c 0.10156,1.1924 -0.0204,2.4335 0.0287,3.631 -0.19072,1.5688 -0.53737,3.1142 -1.0716,4.6302 -0.003,-6e-5 -0.0251,0.004 -0.0276,0.004 -1.4402,0.94171 -2.9049,1.835 -4.381,2.7259 2.5303,-4.38 4.2579,-9.1605 3.3569,-15.291 1.3653,1.2238 1.869,2.5508 2.0444,3.9409 0.0155,0.12244 0.0397,0.23596 0.0502,0.35931 z"
           id="path1255"
           inkscape:connector-curvature="0" />
      </g>
      <g
         id="g1279"
         style="stroke-linecap:round;stroke-linejoin:round">
        <path
           d="m 267.59,441.23 c -0.53076,1.148 -1.1699,2.3108 -1.8708,3.4771 -4.8113,8.0056 -15.509,10.243 -26.636,11.008 -3.779,0.25995 -8.8855,1.2543 -13.133,2.421 -2.437,-1.7581 -4.9415,-2.2259 -5.9014,-7.144 0.48506,5.6426 1.5763,7.1526 3.5186,7.9558 -9.2553,6.039 -27.496,13.744 -35.102,14.346 -0.78186,0.0619 -2.0157,1.2782 -3.6418,3.2294 -2.9299,-1.7175 -5.6608,-3.8948 -8.374,-6.4526 2.1444,3.1321 4.5097,5.7628 7.2395,7.8256 -5.1696,6.5656 -13.148,18.667 -20.731,26.357 -3.4643,4.1567 -8.5384,4.4901 -13.613,4.8323 3.6776,1.4813 7.6574,2.0347 12.691,-0.51135 -1.6491,4.0209 -3.9635,7.931 -7.3115,11.638 -3.8783,3.1906 -7.8405,5.7555 -12.116,6.1068 3.6993,0.6864 7.3486,-1.2049 11.02,-2.4329 -1.0772,2.4002 -2.177,4.7908 -5.0692,7.7144 -5.7408,4.0878 -11.994,5.5332 -19.347,5.6462 2.189,0.43042 4.2838,0.66669 6.3339,0.67194 -5.5369,15.56 -9.4866,29.243 -10.433,39.343 2.4362,-10.118 5.9945,-23.42 11.219,-32.851 2.0996,3.9957 0.59828,8.4815 -1.4912,12.765 3.4446,-1.8284 4.8588,-5.4211 6.8554,-9.782 l 2.7113,-8.6428 c 0.03,-0.19379 0.0822,-0.38245 0.14676,-0.53052 0.0487,-0.10638 0.11832,-0.2251 0.1776,-0.30762 0.008,-0.0124 0.0326,-0.0543 0.0395,-0.0684 0.002,-0.004 0.0171,-0.0303 0.0197,-0.0342 0.003,-6.1e-4 0.0245,-0.007 0.0269,-0.007 0.003,-6.7e-4 0.0238,-0.007 0.0269,-0.007 0.0481,-0.0491 0.10431,-0.11206 0.15982,-0.15832 0.0102,-0.008 0.0363,-0.0343 0.0467,-0.0414 0.005,-0.003 0.0216,-0.004 0.027,-0.007 0.002,-6.1e-4 0.0243,-0.007 0.0269,-0.007 0.0235,-0.0129 0.0765,-0.0442 0.10062,-0.0558 0.024,-0.008 0.0835,-0.0221 0.10783,-0.0289 0.003,-7.9e-4 0.0244,-0.007 0.0269,-0.007 0.005,-8.6e-4 0.0211,-0.007 0.0269,-0.007 0.0249,-0.002 0.0647,0.006 0.0881,0.005 0.005,-3.7e-4 0.0225,-0.007 0.0269,-0.007 1.5073,-0.13507 4.0062,2.3236 4.3091,4.6525 l -0.1226,23.695 c -3.8351,5.6332 -8.557,9.4223 -13.582,12.711 0.52969,-1.5087 0.89056,-3.0333 1.0803,-4.5943 -0.0491,-1.1975 0.081,-2.4424 -0.0205,-3.6348 -0.0105,-0.12335 -0.0245,-0.24243 -0.04,-0.36487 -0.17548,-1.3902 -0.69762,-2.7016 -2.063,-3.9254 0.8986,6.1148 -0.81842,10.883 -3.338,15.254 -0.007,0.0114 -0.0131,0.0228 -0.0197,0.0341 -5.0108,3.0243 -10.163,5.9395 -14.894,9.9715 -2.7474,2.3414 -4.627,4.8098 -5.9452,7.1402 -16.508997,-36.264 10.64,-95.172 60.986,-131.99 34.241,-25.043 70.494,-33.485 95.757,-25.196 z"
           id="path1259"
           inkscape:connector-curvature="0"
           style="opacity:0.70099996;fill:url(#t);stroke-width:6.61499977" />
        <g
           id="g1277"
           style="stroke-width:5">
          <path
             d="m 219.23,535.4 c 0.34175,3.2548 -0.50002,7.2864 -3.5212,12.414 -10.001,16.973 -18.694,23.346 -38.62,44.671 -19.926,21.325 -2.1588,29.009 -38.999,41.422 7.329,3.1965 22.739,-3.8187 24.813,-5.8397 2.4545,6.218 -13.278,13.127 -21.226,13.084 6.3922,0.88867 13.551,-0.12476 19.408,-4.0158 -2.1856,3.8447 -15.483,12.468 -26.666,19.626 -1.5048,0.96307 -4.401,2.3807 -8.8964,3.135 -0.78383,-24.154 10.306,-53.013 31.498,-78.473 2.7255,2.9626 6.2186,5.365 8.6113,6.4756 -2.4299,-1.2964 -5.5819,-4.174 -7.9543,-7.2584 0.61028,-0.72418 1.2259,-1.425 1.8526,-2.1432 4.024,4.6033 10.164,7.9613 13.919,8.9249 -3.9545,-1.1995 -9.3086,-5.5644 -12.657,-10.361 2.119,-2.3738 4.3203,-4.7051 6.6178,-7.0026 6.1408,-6.1409 12.581,-11.647 19.185,-16.495 3.0954,2.8232 7.0005,4.7495 11.022,4.9052 -3.7506,-0.31708 -7.3799,-2.4878 -10.226,-5.494 2.5414,-1.8422 5.0885,-3.5879 7.6698,-5.2332 3.169,3.1866 5.9391,6.7979 7.2243,10.141 0.0952,-0.0303 0.19501,-0.074 0.28928,-0.10638 -0.027,-0.24316 -0.0633,-0.50037 -0.11414,-0.74951 -0.64685,-3.1679 -3.1797,-6.7937 -6.2337,-10.002 5.1833,-3.238 10.446,-6.0834 15.691,-8.5092 2.8895,3.744 4.2459,7.4565 2.0019,9.9513 -2.7165,3.02 -5.7532,6.8383 -9.9521,8.7916 4.703,-1.9839 8.1673,-5.8553 11.208,-8.955 0.93034,-0.94818 1.3091,-2.069 1.2581,-3.284 -0.0161,-0.3819 -0.0707,-0.76794 -0.16858,-1.1683 -0.4446,-1.8185 -1.6848,-3.8077 -3.401,-5.7916 2.1195,-0.95978 4.2514,-1.8353 6.366,-2.6591 z"
             id="path1261"
             inkscape:connector-curvature="0"
             style="opacity:0.456;fill:url(#u)" />
          <g
             id="g1269"
             style="fill:#1dffff;fill-opacity:0.594">
            <path
               d="m 203.6,557.42 c -0.0696,0.0302 -0.13818,0.0557 -0.20847,0.0848 0.0707,-0.0269 0.13837,-0.0571 0.20847,-0.0848 z"
               id="path1263"
               inkscape:connector-curvature="0"
               style="opacity:0.70099996" />
            <path
               d="m 197.77,558.49 c -0.0408,-0.003 -0.0743,0.005 -0.11505,0.002 0.0452,0.002 0.0698,-0.003 0.11505,-0.002 z"
               id="path1265"
               inkscape:connector-curvature="0"
               style="opacity:0.70099996" />
            <path
               d="m 173.91,587.53 c -0.0255,-0.006 -0.0355,-0.006 -0.0611,-0.0125 0.0196,0.004 0.0417,0.008 0.0611,0.0125 z"
               id="path1267"
               inkscape:connector-curvature="0"
               style="opacity:0.70099996" />
          </g>
          <path
             d="m 271.99,395.36 c -0.3168,1.2178 -0.71658,2.4658 -1.1694,3.7226 -3.4542,9.5867 -14.147,13.822 -25.588,16.535 -3.8859,0.92145 -9.0298,2.8789 -13.227,4.8731 -2.9031,-1.529 -5.6092,-1.5469 -7.5694,-6.8994 1.6128,6.1812 3.0454,7.6618 5.2358,8.218 -7.4093,3.795 -14.815,8.4128 -21.164,11.911 -0.004,0.002 -0.0227,0.005 -0.0269,0.007 -0.0167,0.01 -0.03,0.0319 -0.0467,0.0414 -0.004,0.002 -0.0225,0.005 -0.0269,0.007 -0.55011,0.22919 -1.0906,0.47028 -1.626,0.72461 -8.6223,4.0952 -18.731,4.0902 -27.34,4.9277 9.9252,-11.987 25.49,-23.605 44.517,-32.152 16.818,-7.5552 33.616,-11.478 48.033,-11.917 z"
             id="path1271"
             inkscape:connector-curvature="0"
             style="opacity:0.456;fill:url(#v)" />
          <path
             d="m 249.18,379.22 c -0.004,0.0493 -0.0137,0.0995 -0.0178,0.14923 -0.005,0.058 -0.005,0.11749 -0.0105,0.17621 -0.007,0.0727 -0.0225,0.1366 -0.0303,0.21033 -8.8e-4,0.008 0.008,0.0186 0.007,0.0269 -0.003,0.0283 -0.002,0.0598 -0.005,0.0881 -0.005,0.0404 -0.0202,0.0816 -0.025,0.12225 -0.004,0.0375 0.007,0.0775 0.002,0.11508 -0.001,0.012 -0.0182,0.0222 -0.0197,0.0341 -0.003,0.0233 -0.009,0.0378 -0.0125,0.0612 -10e-4,0.009 0.008,0.0183 0.007,0.027 -0.004,0.0291 -0.001,0.0588 -0.005,0.0881 -0.0163,0.12112 -0.0292,0.2356 -0.0481,0.35956 -0.0118,0.0781 -0.0372,0.16531 -0.05,0.24454 -0.0113,0.0693 -0.0182,0.14029 -0.0303,0.21039 -0.005,0.0264 -6.1e-4,0.0615 -0.005,0.0881 -0.002,0.0121 -0.0176,0.022 -0.0197,0.0342 -0.004,0.0204 -0.009,0.0407 -0.0125,0.0612 -0.0335,0.18628 -0.0662,0.3844 -0.10538,0.57712 -0.009,0.0458 -0.0154,0.0763 -0.025,0.12231 -0.009,0.0424 -0.016,0.0796 -0.025,0.12225 -0.004,0.0188 -0.009,0.0424 -0.0125,0.0611 -0.005,0.0215 -0.008,0.0397 -0.0125,0.0611 -0.008,0.0349 -0.0245,0.0603 -0.0322,0.0953 -0.004,0.0165 -0.009,0.0446 -0.0125,0.0612 -0.008,0.0379 -0.0164,0.0841 -0.0251,0.12225 -0.01,0.0436 -0.0148,0.0783 -0.0251,0.12225 -0.004,0.0193 -0.008,0.0419 -0.0125,0.0611 -0.005,0.0221 -0.007,0.039 -0.0125,0.0611 -0.008,0.0359 -0.0236,0.0593 -0.0322,0.0953 -0.004,0.017 -0.008,0.0441 -0.0125,0.0612 -0.009,0.039 -0.0154,0.0829 -0.025,0.12225 -0.008,0.0309 -0.0244,0.0643 -0.0322,0.0953 -0.0236,0.0928 -0.0438,0.1861 -0.0698,0.27872 -0.009,0.0309 -0.0234,0.0644 -0.0323,0.0953 -0.0267,0.0924 -0.0408,0.18646 -0.0698,0.27869 -0.01,0.0307 -0.0223,0.0646 -0.0323,0.0953 -0.0495,0.15347 -0.11301,0.29688 -0.16843,0.44958 -0.0111,0.0305 -0.0209,0.0648 -0.0322,0.0953 -0.10187,0.27448 -0.21268,0.53967 -0.3316,0.81113 -0.0132,0.0302 -0.0189,0.0652 -0.0323,0.0953 -0.0537,0.12048 -0.10654,0.24173 -0.16315,0.36157 -0.0142,0.0298 -0.0179,0.0654 -0.0323,0.0953 -0.0144,0.0299 -0.0519,0.0457 -0.0664,0.0756 -0.0145,0.0298 -0.0176,0.0655 -0.0323,0.0953 0.0489,-0.01 0.0864,-0.0259 0.1348,-0.0361 0.33887,-0.0715 0.6781,-0.14514 1.0118,-0.21332 -0.004,0.0945 -0.0191,0.18399 -0.0428,0.27152 -0.40308,0.0829 -0.81183,0.16568 -1.2261,0.24869 -9.8261,1.9683 -22.759,4.0361 -36.45,9.9909 -0.008,0.004 -0.0186,0.004 -0.0269,0.007 -0.009,0.004 -0.0185,0.004 -0.0269,0.007 -0.009,0.004 -0.0184,0.003 -0.027,0.007 -0.14801,0.0645 -0.28836,0.13824 -0.43655,0.20364 -0.008,0.004 -0.0187,0.004 -0.027,0.007 -0.008,0.004 -0.0184,0.004 -0.0269,0.007 -0.009,0.004 -0.0183,0.003 -0.0269,0.007 -0.14822,0.0657 -0.28818,0.13721 -0.43658,0.20367 -0.008,0.004 -0.0186,0.003 -0.0269,0.007 -0.009,0.004 -0.0184,0.003 -0.0269,0.007 -0.0943,0.0423 -0.18771,0.0906 -0.2821,0.13336 -0.15839,0.0717 -0.33188,0.14532 -0.49048,0.21808 -0.34863,0.16003 -0.70523,0.31952 -1.0547,0.48486 -0.0872,0.0409 -0.16782,0.0848 -0.2551,0.12616 -0.0874,0.0416 -0.16769,0.0841 -0.25513,0.1261 -0.18884,0.0901 -0.37665,0.17749 -0.56415,0.26672 -0.74905,0.3587 -1.4751,0.70825 -2.2027,1.0525 -0.008,0.004 -0.019,0.003 -0.0269,0.007 -0.17386,0.0823 -0.36459,0.17804 -0.5372,0.25952 -0.36151,0.16962 -0.72543,0.32581 -1.0816,0.49206 -0.17792,0.0835 -0.33365,0.16968 -0.51022,0.25226 -0.35355,0.16452 -0.70639,0.32358 -1.0547,0.4848 -0.34827,0.16132 -0.71161,0.32684 -1.0546,0.48486 -0.34306,0.15802 -0.66287,0.31555 -1.0008,0.4704 -0.67569,0.30969 -1.3535,0.61642 -2.0087,0.91382 -9.6507,4.3806 -17.098,7.4594 -22.806,10.098 -0.008,0.004 -0.0191,0.004 -0.0269,0.007 -0.76637,0.35312 -1.4977,0.71323 -2.2027,1.0525 -0.089,0.043 -0.19409,0.0905 -0.28206,0.13336 -0.17613,0.0854 -0.33792,0.1676 -0.51027,0.25232 -0.0861,0.0424 -0.16995,0.0837 -0.25511,0.1261 -0.25563,0.12653 -0.5181,0.25317 -0.76532,0.37842 -0.0823,0.0419 -0.17369,0.0844 -0.25514,0.12616 -0.32594,0.16656 -0.62826,0.31784 -0.93959,0.48291 -0.15553,0.0827 -0.32414,0.18951 -0.47606,0.27197 -0.22807,0.12335 -0.43745,0.22668 -0.65753,0.34955 -0.14659,0.0822 -0.30598,0.18277 -0.4491,0.26477 -0.14317,0.0818 -0.26266,0.14172 -0.40239,0.22339 -0.007,0.004 -0.0196,0.003 -0.0269,0.007 -0.13963,0.0819 -0.25902,0.16843 -0.3952,0.2503 -0.20444,0.12265 -0.3996,0.23923 -0.59639,0.36209 -0.13112,0.0821 -0.26743,0.16809 -0.3952,0.2503 -0.12775,0.0823 -0.24374,0.16071 -0.36821,0.24316 -0.74722,0.49414 -1.4472,0.99872 -2.0799,1.5107 -0.23624,0.19116 -0.48277,0.37976 -0.71477,0.56708 -0.009,0.008 -0.0104,0.0266 -0.0197,0.0342 -0.2222,0.17938 -0.44957,0.34936 -0.66815,0.52566 -0.0324,0.0263 -0.061,0.0568 -0.0934,0.0828 -0.22049,0.17807 -0.451,0.35025 -0.66809,0.52585 -0.082,0.0663 -0.15189,0.14087 -0.23343,0.20697 -0.0331,0.0267 -0.0604,0.056 -0.0934,0.0828 -0.0785,0.0635 -0.16258,0.11664 -0.24066,0.18005 -0.0383,0.0311 -0.0821,0.0589 -0.12033,0.09 -0.0713,0.0579 -0.14284,0.11508 -0.21372,0.17285 -0.0804,0.0655 -0.15346,0.14172 -0.23344,0.20703 -0.0312,0.0254 -0.0623,0.0573 -0.0934,0.0828 -0.0443,0.0361 -0.10318,0.0611 -0.14729,0.0972 -0.0636,0.0521 -0.1234,0.11359 -0.18677,0.16559 -0.0482,0.0395 -0.092,0.0846 -0.14009,0.12421 -0.0573,0.0471 -0.10989,0.0843 -0.16701,0.13141 -0.0559,0.046 -0.1113,0.0854 -0.16704,0.13144 -0.0535,0.0442 -0.1136,0.0872 -0.16701,0.13144 -0.16505,0.13666 -0.33031,0.28452 -0.49387,0.42126 -0.048,0.0401 -0.0921,0.084 -0.14006,0.12415 -0.0627,0.0527 -0.12422,0.11292 -0.18677,0.16565 -0.0395,0.0333 -0.0809,0.0567 -0.12033,0.09 -0.0706,0.0596 -0.14333,0.1131 -0.21372,0.17285 -0.037,0.0313 -0.0834,0.0585 -0.12033,0.09 -0.0808,0.0687 -0.14572,0.16504 -0.22623,0.23395 -0.0219,0.0187 -0.0517,0.0298 -0.0737,0.0486 -0.0764,0.0657 -0.16446,0.11429 -0.24066,0.18005 -0.0409,0.0354 -0.0722,0.0816 -0.11311,0.117 -0.0149,0.0129 -0.0318,0.0285 -0.0467,0.0415 -0.0214,0.0185 -0.0522,0.0301 -0.0736,0.0486 -0.0286,0.0249 -0.0378,0.0507 -0.0664,0.0756 -0.0241,0.0209 -0.0496,0.0276 -0.0736,0.0486 -0.0314,0.0274 -0.062,0.0554 -0.0934,0.0827 -0.0381,0.0334 -0.0752,0.0836 -0.11314,0.11704 -0.0148,0.013 -0.0318,0.0284 -0.0467,0.0415 -0.0212,0.0187 -0.0524,0.0299 -0.0736,0.0486 -0.0461,0.0406 -0.0941,0.0834 -0.14008,0.12415 -0.0828,0.0733 -0.17783,0.14056 -0.26038,0.21423 -0.009,0.008 -0.0106,0.026 -0.0198,0.0342 -0.0309,0.0276 -0.0624,0.055 -0.0933,0.0828 -0.0237,0.0212 -0.0428,0.0543 -0.0664,0.0756 -0.006,0.006 -0.0208,0.002 -0.0269,0.007 -0.0961,0.0865 -0.17709,0.18835 -0.27293,0.27536 -0.006,0.005 -0.0211,0.002 -0.0269,0.007 -0.0465,0.0423 -0.0936,0.0817 -0.14009,0.12415 -0.006,0.006 -0.0208,0.002 -0.0269,0.007 -0.0999,0.0915 -0.20013,0.19025 -0.29984,0.28259 -0.0507,0.0469 -0.0823,0.10406 -0.13287,0.15115 -0.11098,0.1033 -0.21608,0.18533 -0.32683,0.28982 -0.0505,0.0476 -0.0896,0.0764 -0.14006,0.12421 -0.009,0.008 -0.0109,0.0258 -0.0197,0.0342 -0.042,0.0397 -0.0982,0.0842 -0.14011,0.12421 -0.0614,0.0585 -0.12543,0.1066 -0.18675,0.16559 -0.0364,0.0351 -0.0767,0.0818 -0.11313,0.117 -0.0145,0.014 -0.0322,0.0273 -0.0467,0.0413 -0.0436,0.0421 -0.0624,0.10159 -0.10588,0.14395 -0.006,0.006 -0.0209,10e-4 -0.0269,0.007 -0.10532,0.10266 -0.21437,0.21286 -0.3196,0.31686 -0.0524,0.0518 -0.10748,0.10626 -0.15982,0.15839 -0.0279,0.0278 -0.0655,0.0549 -0.0934,0.0828 -0.0233,0.0234 -0.0431,0.0521 -0.0664,0.0756 -0.0399,0.04 -0.0732,0.0767 -0.11311,0.11694 -0.0145,0.0146 -0.0322,0.0268 -0.0467,0.0414 -0.0208,0.021 -0.0528,0.0275 -0.0737,0.0485 -0.0322,0.0327 -0.0539,0.0771 -0.0862,0.10974 -0.0193,0.0197 -0.0543,0.029 -0.0736,0.0486 -0.0322,0.0329 -0.0539,0.0768 -0.0862,0.10977 -0.0155,0.0159 -0.0312,0.0256 -0.0467,0.0414 -0.0379,0.0389 -0.0753,0.0779 -0.11314,0.117 -0.0139,0.0144 -0.0327,0.027 -0.0467,0.0413 -0.0379,0.0393 -0.0752,0.0777 -0.1131,0.11704 -0.0139,0.0146 -0.0328,0.0269 -0.0467,0.0414 -0.0379,0.0395 -0.0752,0.0772 -0.1131,0.11694 -0.0236,0.0248 -0.0428,0.0508 -0.0664,0.0756 -0.0305,0.0321 -0.0557,0.0776 -0.0862,0.1098 -0.005,0.006 -0.0215,0.002 -0.027,0.007 -0.0468,0.0495 -0.086,0.10129 -0.13283,0.15118 -0.008,0.009 -0.0115,0.0255 -0.0197,0.0342 -0.0436,0.0464 -0.0964,0.0774 -0.14004,0.12421 -0.0591,0.0633 -0.0935,0.12158 -0.1526,0.18536 -0.15764,0.17029 -0.31404,0.32727 -0.47217,0.50208 -0.0831,0.0918 -0.16274,0.17511 -0.24599,0.26813 -0.055,0.0616 -0.0975,0.12329 -0.15256,0.18536 -0.0222,0.025 -0.0443,0.0505 -0.0664,0.0756 -0.0426,0.0482 -0.0902,0.10266 -0.13283,0.15118 -0.009,0.01 -0.0111,0.0243 -0.0197,0.0342 -0.0427,0.0486 -0.0901,0.10217 -0.13284,0.15118 -0.009,0.01 -0.0111,0.0242 -0.0197,0.0341 -0.0424,0.0487 -0.0976,0.0751 -0.14006,0.12421 -0.0687,0.0793 -0.12324,0.1734 -0.19205,0.25372 -0.0346,0.0403 -0.0785,0.0763 -0.11311,0.117 -0.0173,0.0202 -0.0222,0.0479 -0.0395,0.0683 -0.0346,0.0407 -0.0784,0.076 -0.1131,0.117 -0.0204,0.0242 -0.0461,0.0513 -0.0665,0.0756 -0.0298,0.0354 -0.0562,0.0742 -0.0862,0.1098 -0.0224,0.0266 -0.044,0.0488 -0.0664,0.0756 -0.0299,0.0356 -0.0562,0.0738 -0.0861,0.10971 -0.0225,0.027 -0.044,0.0485 -0.0664,0.0756 -0.03,0.036 -0.0561,0.0735 -0.0862,0.10974 -0.0254,0.0306 -0.068,0.0521 -0.0934,0.0828 -0.0468,0.0568 -0.0787,0.12085 -0.12563,0.1781 -0.008,0.0101 -0.0115,0.024 -0.0197,0.0342 -0.0217,0.0265 -0.0447,0.0489 -0.0665,0.0755 -0.0314,0.0385 -0.0547,0.0711 -0.0862,0.10983 -0.0245,0.0301 -0.0688,0.0524 -0.0933,0.0828 -0.0286,0.0353 -0.0576,0.0742 -0.0862,0.1098 -0.0219,0.027 -0.0446,0.0484 -0.0664,0.0756 -0.0803,0.0998 -0.1581,0.19366 -0.23872,0.2951 -0.008,0.01 -0.0118,0.0242 -0.0198,0.0342 -0.0407,0.0512 -0.092,0.0995 -0.13284,0.15115 -0.0153,0.0193 -0.0242,0.049 -0.0395,0.0684 -0.0124,0.0157 -0.0343,0.0256 -0.0467,0.0414 -0.0418,0.0531 -0.0568,0.11731 -0.0987,0.1709 -0.0124,0.0157 -0.0343,0.0255 -0.0467,0.0414 -0.0428,0.0547 -0.0828,0.12292 -0.12566,0.1781 -0.005,0.006 -0.0219,7.9e-4 -0.0269,0.007 -0.05,0.0644 -0.10245,0.12036 -0.15259,0.18536 -0.007,0.01 -0.0123,0.0246 -0.0197,0.0342 -0.0466,0.0605 -0.0788,0.11694 -0.12561,0.17816 -0.0206,0.0269 -0.0458,0.0485 -0.0664,0.0756 -0.0907,0.1188 -0.18704,0.24249 -0.27817,0.36346 -0.10683,0.14166 -0.2102,0.28723 -0.31769,0.43182 -0.008,0.0105 -0.0119,0.0236 -0.0197,0.0342 -0.10001,0.13464 -0.19731,0.26038 -0.29794,0.39758 -0.008,0.0108 -0.0119,0.0234 -0.0197,0.0342 -0.0469,0.0641 -0.0983,0.14764 -0.14536,0.21234 -0.008,0.0103 -0.0122,0.0238 -0.0197,0.0342 -0.0467,0.0641 -0.10576,0.12058 -0.1526,0.18527 -0.0646,0.0895 -0.14688,0.19742 -0.21176,0.2879 -0.0391,0.0545 -0.0595,0.116 -0.0987,0.17093 -0.0192,0.0269 -0.0472,0.0486 -0.0664,0.0756 -0.0351,0.0494 -0.0706,0.0942 -0.10588,0.14392 -0.0434,0.0613 -0.0821,0.11633 -0.12561,0.17816 -0.0147,0.0207 -0.0248,0.0475 -0.0395,0.0683 -0.0207,0.0294 -0.0457,0.0461 -0.0664,0.0756 -0.0354,0.0504 -0.0704,0.0932 -0.1059,0.14392 -0.0483,0.0691 -0.0969,0.14261 -0.14537,0.21228 -0.007,0.0106 -0.0123,0.0235 -0.0197,0.0342 -0.0254,0.0366 -0.0607,0.073 -0.0862,0.10983 -0.0296,0.0428 -0.0492,0.0937 -0.0789,0.13669 -0.0291,0.0421 -0.0498,0.0944 -0.0789,0.13675 -0.0263,0.0382 -0.0598,0.0713 -0.0861,0.10974 -0.0328,0.0478 -0.073,0.0959 -0.10593,0.14392 -0.0224,0.0328 -0.0367,0.0696 -0.0592,0.10251 -0.0353,0.0518 -0.0705,0.0919 -0.10588,0.14401 -0.0225,0.0331 -0.0367,0.0693 -0.0592,0.10245 -0.0371,0.0549 -0.0956,0.096 -0.13284,0.15122 -0.0209,0.031 -0.0382,0.0714 -0.0592,0.10251 -0.0961,0.14279 -0.18675,0.30637 -0.28349,0.45157 -0.0116,0.0175 -0.035,0.0238 -0.0467,0.0414 -0.0481,0.0723 -0.097,0.13931 -0.14534,0.21231 -0.0135,0.0203 -0.026,0.048 -0.0394,0.0683 -0.0449,0.068 -0.0734,0.13669 -0.11841,0.20517 -0.0118,0.0179 -0.0349,0.0236 -0.0467,0.0414 -0.1095,0.16656 -0.21257,0.34992 -0.32297,0.5199 -0.004,0.006 -0.0228,8.2e-4 -0.0269,0.007 -0.0607,0.0933 -0.1239,0.18625 -0.18484,0.28061 9.8394,-17.173 28.797,-34.354 53.502,-46.492 17.93,-8.8093 36.138,-13.614 52.266,-14.554 z"
             id="path1273"
             inkscape:connector-curvature="0"
             style="opacity:0.456;fill:url(#w)" />
          <path
             d="m 127.03,483.71 c -1.4647,1.2536 -3.0261,2.5696 -4.7076,3.9245 -16.695,13.453 -18.614,13.379 -21.682,21.377 -2.5583,6.6686 -5.2896,12.779 -5.8344,25.899 -0.07652,-4.2131 -0.01294,-7.9773 0.25046,-11.347 -0.0058,0.002 -0.01938,0.005 -0.0202,0.005 -0.7661,3.5398 -1.9417,8.0053 -3.8644,13.94 -8.5735,26.461 -2.6427,38.957 -25.585,62.889 -15.261,15.918 -28.329,28.438 -39.982,38.816 0.29266,11.041 1.1103,22.158 2.4876,33.282 l 0.8521,0.5944 c 25.582,-15.152 50.745,-40.868 69.903,-74.049 23.123,-40.052 32.459,-82.235 28.183,-115.33 z"
             id="path1275"
             inkscape:connector-curvature="0"
             style="opacity:0.456;fill:url(#x)" />
        </g>
      </g>
    </g>
  </g>
</svg>
